<svg width="18" height="18" viewBox="0 0 18 18" fill="none" xmlns="http://www.w3.org/2000/svg">
<path d="M15.1064 10.0132C15.1413 9.74729 15.16 9.4795 15.1625 9.21132C15.16 8.94313 15.1413 8.67535 15.1064 8.40943L16.8424 7.05024C16.9208 6.99036 16.9744 6.90367 16.9929 6.80677C17.0114 6.70987 16.9935 6.60955 16.9427 6.525L15.2988 3.6743C15.2512 3.5888 15.1739 3.52366 15.0816 3.49116C14.9893 3.45867 14.8883 3.46106 14.7976 3.49789L12.7488 4.32383C12.3225 3.99846 11.8563 3.72898 11.3615 3.52195L11.0528 1.34483C11.0392 1.24849 10.991 1.16039 10.9173 1.09695C10.8435 1.03351 10.7492 0.999062 10.6519 1.00002H7.35614C7.25885 0.999062 7.16453 1.03351 7.09076 1.09695C7.01699 1.16039 6.96881 1.24849 6.95519 1.34483L6.64647 3.52195C6.1511 3.72769 5.68473 3.99726 5.25921 4.32383L3.20237 3.49789C3.1117 3.46106 3.01069 3.45867 2.91837 3.49116C2.82605 3.52366 2.74881 3.5888 2.7012 3.6743L1.05733 6.525C1.0065 6.60955 0.988616 6.70987 1.00711 6.80677C1.0256 6.90367 1.07917 6.99036 1.15757 7.05024L2.88964 8.40943C2.85485 8.67536 2.8361 8.94314 2.83351 9.21132C2.83597 9.4795 2.85471 9.74729 2.88964 10.0132L1.15757 11.3724C1.07917 11.4323 1.0256 11.519 1.00711 11.6159C0.988616 11.7128 1.0065 11.8131 1.05733 11.8976L2.7012 14.7483C2.74881 14.8338 2.82605 14.899 2.91837 14.9315C3.01069 14.964 3.1117 14.9616 3.20237 14.9247L5.25119 14.0988C5.67751 14.4242 6.14372 14.6937 6.63845 14.9007L6.94717 17.0778C6.96079 17.1741 7.00897 17.2622 7.08274 17.3257C7.15651 17.3891 7.25083 17.4236 7.34812 17.4226H10.6358C10.7331 17.4236 10.8275 17.3891 10.9012 17.3257C10.975 17.2622 11.0232 17.1741 11.0368 17.0778L11.3455 14.9007C11.8409 14.6949 12.3072 14.4254 12.7328 14.0988L14.7816 14.9247C14.8723 14.9616 14.9733 14.964 15.0656 14.9315C15.1579 14.899 15.2352 14.8338 15.2828 14.7483L16.9266 11.8976C16.9775 11.8131 16.9953 11.7128 16.9769 11.6159C16.9584 11.519 16.9048 11.4323 16.8264 11.3724L15.1064 10.0132ZM9 12.0901C8.43046 12.0909 7.87349 11.9227 7.39955 11.6069C6.92561 11.291 6.55601 10.8417 6.33751 10.3158C6.11901 9.7898 6.06143 9.21085 6.17205 8.65216C6.28268 8.09347 6.55654 7.58015 6.95898 7.17714C7.36142 6.77414 7.87436 6.49957 8.43289 6.38816C8.99143 6.27676 9.57046 6.33353 10.0967 6.5513C10.623 6.76907 11.0728 7.13805 11.3893 7.61155C11.7058 8.08504 11.8748 8.64178 11.8748 9.21132C11.8753 9.58917 11.8013 9.96343 11.6571 10.3127C11.5128 10.6619 11.3012 10.9793 11.0342 11.2467C10.7672 11.514 10.4501 11.7262 10.101 11.8709C9.752 12.0156 9.37786 12.0901 9 12.0901V12.0901Z" stroke="#3B3B3B" stroke-linecap="round" stroke-linejoin="round"/>
</svg>
