<svg width="18" height="18" viewBox="0 0 18 18" fill="none" xmlns="http://www.w3.org/2000/svg">
<path d="M13.9771 1H4.00135C3.21005 1.00559 2.45249 1.32167 1.89133 1.88035C1.33017 2.43904 1.01015 3.19578 1 3.98811V17H13.9771C14.7743 17 15.5393 16.6847 16.1055 16.1226C16.6717 15.5605 16.9932 14.7972 17 13.9989V3.98811C16.9898 3.19205 16.6668 2.43208 16.101 1.87279C15.5352 1.3135 14.7721 0.999934 13.9771 1V1ZM12.824 13.5016C12.612 13.5025 12.4045 13.4403 12.2278 13.323C12.0512 13.2057 11.9132 13.0385 11.8315 12.8426C11.7498 12.6467 11.7279 12.4309 11.7688 12.2226C11.8096 12.0143 11.9113 11.8228 12.0609 11.6724C12.2105 11.522 12.4013 11.4194 12.6092 11.3777C12.817 11.336 13.0326 11.3569 13.2285 11.438C13.4245 11.519 13.592 11.6565 13.7099 11.8329C13.8278 12.0094 13.8907 12.2169 13.8907 12.4292C13.8913 12.5698 13.8641 12.7092 13.8107 12.8393C13.7574 12.9694 13.6789 13.0876 13.5798 13.1873C13.4807 13.2869 13.3629 13.366 13.2332 13.4199C13.1035 13.4739 12.9645 13.5016 12.824 13.5016Z" stroke="#3B3B3B" stroke-linecap="round" stroke-linejoin="round"/>
<path d="M8.60472 8.99907H4.80957M8.60472 8.99907C9.21474 8.99907 9.79978 9.21982 10.2311 9.61275C10.6625 10.0057 10.9048 10.5386 10.9048 11.0943C10.9048 11.65 10.6625 12.1829 10.2311 12.5759C9.79978 12.9688 9.21474 13.1895 8.60472 13.1895H4.80957V4.80859H8.60472C9.21474 4.80859 9.79978 5.02934 10.2311 5.42227C10.6625 5.81521 10.9048 6.34814 10.9048 6.90383C10.9048 7.45952 10.6625 7.99246 10.2311 8.38539C9.79978 8.77832 9.21474 8.99907 8.60472 8.99907V8.99907Z" stroke="#3B3B3B" stroke-linecap="round" stroke-linejoin="round"/>
</svg>
