<svg width="85" height="92" viewBox="0 0 85 92" fill="none" xmlns="http://www.w3.org/2000/svg">
<path d="M6.32368 76.6955C5.63273 76.4555 4.92146 76.2754 4.27116 75.9754C1.81219 74.7753 0.430296 72.7952 0.206754 70.095C0.16611 69.675 0.16611 69.2549 0.16611 68.8149C0.16611 52.4537 0.16611 36.0726 0.16611 19.7114C0.16611 19.3714 0.16611 19.0114 0.227076 18.6713C0.328686 18.0913 0.735126 17.8313 1.30414 17.8113C1.87316 17.8113 2.2796 18.0713 2.38121 18.6513C2.44218 18.9914 2.44218 19.3514 2.44218 19.6914C2.44218 36.0926 2.44218 52.4737 2.44218 68.8749C2.44218 69.495 2.4625 70.135 2.60475 70.735C3.13312 72.9152 5.06372 74.4353 7.3601 74.4353C18.2324 74.4553 29.125 74.4553 39.9973 74.4353C42.6188 74.4353 44.6713 72.4952 44.8746 69.915C44.8949 69.635 44.8949 69.3749 44.8949 69.0949C44.8949 63.0745 44.8949 57.0741 44.8949 51.0536C44.8949 50.7736 44.8949 50.5136 44.8949 50.1736C44.3462 50.1736 43.8381 50.1736 43.2285 50.1736C43.2285 50.4536 43.2285 50.7536 43.2285 51.0336C43.2285 54.0939 43.2285 57.1741 43.2285 60.2343C43.2285 60.5343 43.2285 60.8343 43.1472 61.1344C43.0253 61.6744 42.6188 61.9144 42.0701 61.9144C41.5417 61.9144 41.1353 61.6744 40.993 61.1344C40.9321 60.8543 40.9118 60.5343 40.9118 60.2343C40.9118 57.1941 40.9118 54.1539 40.9118 51.0936C40.9118 50.7936 40.9118 50.5136 40.9118 50.0936C40.5256 50.0936 40.2005 50.0936 39.8753 50.0936C31.7059 50.0936 23.5364 50.0936 15.3873 50.0936C14.7776 50.0936 14.168 50.0736 13.5786 49.9336C11.8919 49.5335 10.6929 48.1134 10.5303 46.4133C10.51 46.1333 10.4897 45.8733 10.4897 45.5933C10.4897 35.8526 10.4897 26.1319 10.4897 16.3912C10.4897 15.2911 10.6929 14.251 11.4245 13.391C12.339 12.3109 13.5177 11.8908 14.9199 11.8908C23.2316 11.9109 31.5636 11.8908 39.8753 11.8908C40.2005 11.8908 40.5256 11.8908 40.9118 11.8908C40.9118 10.1907 40.9321 8.61061 40.8914 7.0105C40.8711 6.47046 40.5053 6.13044 39.9363 6.13044C37.9854 6.11044 36.0345 6.13044 34.0429 6.13044C33.8194 6.79048 33.5958 7.43053 33.3723 8.05057C32.9862 9.07065 32.3765 9.53068 31.2588 9.53068C26.1783 9.55068 21.1181 9.55068 16.0376 9.53068C14.8996 9.53068 14.2899 9.07065 13.9038 7.97057C13.7006 7.41053 13.4974 6.85049 13.2941 6.27045C13.2738 6.23044 13.2332 6.19044 13.1722 6.11044C11.2823 6.11044 9.35166 6.11044 7.42107 6.11044C6.79109 6.11044 6.44561 6.45046 6.38465 7.0705C6.36433 7.29052 6.36433 7.51054 6.36433 7.75055C6.36433 28.112 6.36433 48.4735 6.36433 68.8349C6.36433 69.0149 6.36433 69.1749 6.36433 69.355C6.40497 70.155 6.73012 70.475 7.56333 70.475C8.80297 70.495 10.0426 70.475 11.2823 70.475C20.6304 70.475 29.9988 70.475 39.347 70.475C40.6476 70.475 40.8914 70.255 40.8914 68.9349C40.8914 68.0149 40.8711 67.0948 40.8914 66.1747C40.9118 65.3147 41.3182 64.8946 42.0498 64.8946C42.7407 64.9146 43.1472 65.3147 43.1675 66.1347C43.1878 67.2748 43.2082 68.4349 43.1472 69.575C43.0659 71.4551 41.684 72.7152 39.7737 72.7152C29.0031 72.7152 18.2121 72.7152 7.44139 72.7152C5.53112 72.7152 4.18987 71.4351 4.06794 69.575C4.04762 69.3349 4.04762 69.0749 4.04762 68.8349C4.04762 48.4735 4.04762 28.112 4.04762 7.75055C4.04762 7.23052 4.04762 6.69048 4.18987 6.19044C4.53534 4.87035 5.79531 3.89028 7.21785 3.87028C9.27037 3.85027 11.3229 3.85027 13.3754 3.87028C14.3102 3.87028 14.9605 4.33031 15.2857 5.19037C15.306 5.23037 15.3263 5.29038 15.3467 5.33038C15.5905 5.95042 15.6515 6.85049 16.0986 7.15051C16.5863 7.47053 17.4601 7.27052 18.1714 7.27052C22.2765 7.27052 26.3815 7.27052 30.4866 7.29052C31.0149 7.29052 31.2588 7.15051 31.3807 6.65047C31.5027 6.15044 31.7059 5.6504 31.9091 5.17037C32.2343 4.33031 32.8642 3.89028 33.7584 3.87028C35.8313 3.85027 37.9244 3.83027 39.9973 3.87028C41.7246 3.91028 43.0456 5.25037 43.1065 7.0305C43.1675 8.3506 43.1269 9.67069 43.1269 10.9908C43.1269 11.2508 43.1269 11.5308 43.1269 11.8308C43.7162 11.8308 44.2242 11.8308 44.6917 11.8308C44.6917 9.8707 44.8746 7.93057 44.651 6.05043C44.3462 3.75027 42.192 2.23016 39.7331 2.21016C33.1691 2.21016 26.6051 2.21016 20.0207 2.21016C15.8954 2.21016 11.7497 2.21016 7.62429 2.21016C4.45406 2.21016 2.40153 4.2303 2.36089 7.35052C2.34057 9.09065 2.36089 10.8508 2.36089 12.5909C2.36089 12.7909 2.36089 12.9909 2.36089 13.1909C2.34057 14.131 1.93413 14.631 1.20253 14.631C0.491262 14.611 0.105144 14.131 0.0848216 13.2309C0.0644996 11.5908 0.0644996 9.93071 0.0848216 8.29059C0.105144 7.35052 0.105144 6.37045 0.308364 5.47039C1.0806 2.35017 3.92568 0.0500036 7.19753 0.0300021C18.1714 -0.0100007 29.1656 -0.0100007 40.1395 0.0300021C43.8585 0.0500036 46.9068 2.97021 47.11 6.63047C47.2116 8.3506 47.1303 10.0707 47.1303 11.8708C47.4961 11.8908 47.7603 11.9309 48.0245 11.9309C50.4631 11.9309 52.9018 11.9309 55.3201 11.9309C55.6046 11.9309 55.8891 11.9309 56.1533 11.9709C56.702 12.0709 56.9865 12.4309 57.0068 12.9709C57.0271 13.531 56.8036 13.951 56.2142 14.091C55.8484 14.171 55.4623 14.171 55.0762 14.171C41.8872 14.171 28.6982 14.171 15.5092 14.171C15.2857 14.171 15.0621 14.171 14.8183 14.171C13.4364 14.211 12.7658 14.8511 12.7658 16.2112C12.7454 18.6113 12.7658 21.0115 12.7658 23.3917C12.7658 26.7519 12.7658 30.1322 12.7658 33.4924C12.7658 33.7924 12.7658 34.0724 12.7658 34.4725C13.1519 34.4725 13.4364 34.4725 13.7412 34.4725C17.3992 34.4725 21.0368 34.4525 24.6948 34.4725C27.4179 34.4925 29.3485 35.8926 29.9379 38.2727C30.7101 41.393 28.5763 44.3532 25.3044 44.4532C21.4839 44.5532 17.643 44.4932 13.8225 44.4932C13.5177 44.4932 13.2128 44.4932 12.7658 44.4932C12.8064 45.2532 12.7658 45.9333 12.908 46.5933C13.0503 47.2334 13.5786 47.6534 14.2493 47.7534C14.5947 47.8134 14.9605 47.8134 15.306 47.8134C32.3155 47.8134 49.3454 47.8134 66.3549 47.8134C66.7004 47.8134 67.0662 47.8134 67.4117 47.7534C68.1839 47.6334 68.7326 47.0534 68.8545 46.3133C68.8952 46.0133 68.9155 45.7133 68.9155 45.4132C68.9155 35.7726 68.9155 26.1519 68.9155 16.5112C68.9155 16.3312 68.9155 16.1712 68.9155 15.9911C68.8342 14.8111 68.1839 14.151 66.9646 14.131C65.2982 14.111 63.6115 14.131 61.9451 14.131C61.7012 14.131 61.437 14.131 61.1931 14.091C60.5022 13.991 60.1161 13.591 60.1567 12.9309C60.1974 12.2709 60.5632 11.8908 61.2135 11.8908C63.3473 11.8708 65.4811 11.8308 67.5946 11.9309C69.4236 12.0309 70.9274 13.591 71.1306 15.3911C71.1712 15.7111 71.1916 16.0311 71.1916 16.3712C71.1916 26.1119 71.1916 35.8326 71.1916 45.5733C71.1916 47.8134 70.0942 49.3935 68.1636 49.8936C67.5946 50.0536 66.9646 50.0736 66.3549 50.0736C60.3193 50.0936 54.2836 50.0736 48.248 50.0736C47.9229 50.0736 47.5977 50.0736 47.1506 50.0736C47.1506 50.4536 47.1506 50.7536 47.1506 51.0736C47.1506 57.0941 47.1506 63.0945 47.1506 69.1149C47.1506 72.5952 45.3216 75.2354 42.2124 76.2554C41.7653 76.4155 41.2979 76.5155 40.8305 76.6355C29.3485 76.6955 17.8259 76.6955 6.32368 76.6955ZM12.8267 42.293C14.2289 42.293 15.5905 42.293 16.9521 42.293C19.6143 42.293 22.2765 42.313 24.9387 42.293C26.5034 42.273 27.6008 41.373 27.7837 40.0129C28.0479 38.1527 26.8489 36.7726 24.837 36.7726C20.9962 36.7526 17.135 36.7726 13.2941 36.7726C13.1519 36.7726 13.0096 36.8126 12.8267 36.8526C12.8267 38.6328 12.8267 40.4129 12.8267 42.293Z" fill="#EF0D5E" fill-opacity="0.78"/>
<path d="M23.6584 54.6143C25.6093 54.6143 27.5602 54.5743 29.5111 54.6143C32.6407 54.6943 34.5916 57.2745 33.7178 60.1347C33.2097 61.7948 32.0107 62.7348 30.2834 63.0349C29.9379 63.0949 29.5721 63.1149 29.2266 63.1149C25.528 63.1149 21.8294 63.1349 18.1105 63.1149C15.7125 63.0949 14.1274 61.9948 13.5787 59.9946C12.8471 57.3545 14.5744 54.7943 17.3382 54.6343C19.4314 54.5143 21.5449 54.6143 23.6584 54.6143C23.6584 54.6343 23.6584 54.6143 23.6584 54.6143ZM23.6787 56.8544C21.7481 56.8544 19.8175 56.8344 17.9073 56.8544C16.7692 56.8544 15.997 57.4145 15.7734 58.2945C15.4483 59.5746 16.2408 60.8147 17.6024 60.8347C21.6465 60.8947 25.7109 60.8547 29.7753 60.8347C30.0801 60.8347 30.4256 60.6947 30.6898 60.5347C31.462 60.0947 31.7872 59.1946 31.584 58.3345C31.3808 57.4745 30.6085 56.8744 29.6331 56.8544C27.6415 56.8344 25.6703 56.8544 23.6787 56.8544Z" fill="#EF0D5E" fill-opacity="0.78"/>
<path d="M24.1461 17.772C25.6092 17.772 27.0928 17.772 28.5559 17.772C30.1207 17.792 30.8727 18.512 30.893 20.0721C30.9133 21.8722 30.9133 23.6724 30.893 25.4525C30.8727 27.0126 30.1411 27.7727 28.5559 27.7727C25.5889 27.7927 22.6219 27.7927 19.6549 27.7727C18.1307 27.7527 17.3788 26.9926 17.3585 25.4925C17.3382 23.6724 17.3382 21.8522 17.3585 20.0321C17.3788 18.492 18.1511 17.772 19.7362 17.752C21.1994 17.772 22.6626 17.772 24.1461 17.772ZM19.7159 20.0721C19.7159 21.9123 19.7159 23.7124 19.7159 25.5725C22.2358 25.5725 24.6948 25.5725 27.1334 25.5725C28.6169 25.5725 28.6169 25.5725 28.6169 24.1124C28.6169 22.7723 28.6169 21.4322 28.6169 20.0721C25.5686 20.0721 22.6626 20.0721 19.7159 20.0721Z" fill="#EF0D5E" fill-opacity="0.78"/>
<path d="M58.1041 44.053C57.9009 44.273 57.6773 44.7331 57.3115 44.8531C56.9864 44.9731 56.519 44.7731 56.1329 44.6331C55.9906 44.573 55.8484 44.333 55.8077 44.153C55.6248 42.9329 54.8526 42.6729 53.7552 42.8529C53.6536 42.8729 53.552 42.8729 53.4504 42.8529C52.2514 42.7129 51.2353 42.7929 50.9508 44.293C50.8491 44.8931 50.0769 45.1131 49.5079 44.8731C48.9389 44.6531 48.6544 44.073 48.8982 43.453C49.9956 40.5928 51.0727 37.7126 52.2514 34.8724C52.3936 34.5123 53.0033 34.1323 53.4097 34.1123C53.8162 34.1123 54.4665 34.4523 54.6087 34.8124C55.7874 37.6926 56.8848 40.6128 58.0025 43.533C58.0431 43.653 58.0431 43.753 58.1041 44.053ZM53.4504 38.0126C53.0846 38.9726 52.7797 39.7327 52.4546 40.5728C53.1455 40.5728 53.7349 40.5728 54.4258 40.5728C54.121 39.7327 53.8162 38.9526 53.4504 38.0126Z" fill="#EF0D5E" fill-opacity="0.78"/>
<path d="M44.712 41.1935C44.712 42.1135 44.7323 42.8936 44.712 43.6937C44.6916 44.5137 44.3055 44.9337 43.6146 44.9537C42.9033 44.9737 42.4359 44.5337 42.4359 43.6937C42.4156 40.8935 42.4156 38.1133 42.4359 35.3131C42.4359 34.513 42.8423 34.093 43.6552 34.073C44.59 34.053 45.5452 34.033 46.4597 34.133C48.4715 34.353 49.7518 35.8531 49.6705 37.8132C49.5892 39.6734 48.1464 41.0735 46.1751 41.1935C45.7281 41.2135 45.281 41.1935 44.712 41.1935ZM44.7729 38.9333C45.7281 38.9133 46.7645 39.2333 47.2522 38.1933C47.4148 37.8332 47.3538 37.2132 47.1303 36.8932C46.5613 36.0731 45.6468 36.3131 44.7729 36.3531C44.7729 37.2332 44.7729 38.0533 44.7729 38.9333Z" fill="#EF0D5E" fill-opacity="0.78"/>
<path d="M61.1321 37.3718C61.7417 36.4517 62.2904 35.6317 62.8391 34.8116C63.3065 34.1316 63.9365 33.9315 64.5055 34.2916C65.1152 34.6716 65.2168 35.3116 64.7291 36.0517C64.0991 37.0118 63.4894 37.9918 62.8188 38.9319C62.392 39.5119 62.2295 40.112 62.2701 40.812C62.3107 41.8121 62.2904 42.8122 62.2498 43.8123C62.2295 44.5923 61.762 45.0123 61.0711 44.9923C60.4208 44.9723 60.0347 44.5523 59.994 43.7922C59.994 43.6122 59.994 43.4522 59.994 43.2722C59.994 42.3521 60.0347 41.4321 59.994 40.512C59.9737 40.092 59.8518 39.632 59.6282 39.2719C58.9576 38.1919 58.226 37.1318 57.5351 36.0717C57.0473 35.3116 57.1286 34.6916 57.718 34.3116C58.3073 33.9315 58.9576 34.1316 59.4453 34.8516C59.9737 35.6317 60.5224 36.4517 61.1321 37.3718Z" fill="#EF0D5E" fill-opacity="0.78"/>
<path d="M50.9102 22.5512C50.9102 22.8512 50.9305 23.1512 50.9102 23.4512C50.8492 24.0913 50.4834 24.4513 49.8331 24.4913C49.2235 24.5513 48.6951 24.1113 48.6544 23.4712C48.6138 22.8112 48.5935 22.1311 48.6544 21.4511C48.7154 20.831 49.1422 20.471 49.7925 20.491C50.4428 20.511 50.8289 20.8711 50.8899 21.4911C50.9305 21.8511 50.8899 22.2111 50.9102 22.5512C50.9102 22.5512 50.8899 22.5512 50.9102 22.5512Z" fill="#EF0D5E" fill-opacity="0.78"/>
<path d="M57.2711 22.4515C57.2711 22.1315 57.2507 21.8114 57.2711 21.4914C57.332 20.8914 57.6775 20.5313 58.3075 20.5113C58.9578 20.4713 59.4049 20.7714 59.4862 21.4114C59.5471 22.0915 59.5674 22.7915 59.5065 23.4916C59.4658 24.1316 58.9171 24.5516 58.3278 24.4916C57.6978 24.4316 57.3117 24.0716 57.2914 23.4315C57.2304 23.1115 57.2507 22.7715 57.2711 22.4515C57.2711 22.4515 57.2507 22.4515 57.2711 22.4515Z" fill="#EF0D5E" fill-opacity="0.78"/>
<path d="M38.4321 22.4315C38.4321 22.1115 38.3915 21.7914 38.4321 21.4714C38.5134 20.8714 38.8589 20.5314 39.4889 20.5114C40.0985 20.4714 40.5659 20.7714 40.6472 21.3514C40.7285 22.1115 40.7285 22.8915 40.6472 23.6516C40.5659 24.2316 40.0985 24.5116 39.4889 24.4716C38.8792 24.4316 38.5134 24.0716 38.4524 23.4716C38.3915 23.1315 38.4321 22.7915 38.4321 22.4315Z" fill="#EF0D5E" fill-opacity="0.78"/>
<path d="M44.3462 22.4925C44.3462 22.1724 44.3259 21.8524 44.3462 21.5324C44.3868 20.9324 44.7323 20.5723 45.342 20.5123C45.9516 20.4523 46.4394 20.7123 46.5206 21.3124C46.6019 22.0924 46.6019 22.8925 46.5206 23.6726C46.4597 24.2726 45.9516 24.5126 45.342 24.4726C44.773 24.4326 44.4072 24.0926 44.3462 23.5325C44.3259 23.1925 44.3462 22.8325 44.3462 22.4925Z" fill="#EF0D5E" fill-opacity="0.78"/>
<path d="M63.5507 22.4306C63.5507 22.7706 63.571 23.1307 63.5507 23.4707C63.51 24.0907 63.1442 24.4308 62.5346 24.4708C61.8843 24.5108 61.4169 24.2107 61.3559 23.5707C61.2746 22.8506 61.2746 22.1306 61.3559 21.4105C61.4169 20.7905 61.8639 20.4505 62.5142 20.4905C63.1645 20.5305 63.5303 20.8905 63.571 21.5306C63.571 21.8306 63.571 22.1306 63.5507 22.4306Z" fill="#EF0D5E" fill-opacity="0.78"/>
<ellipse cx="68.2565" cy="76" rx="16.2565" ry="16" fill="black"/>
<path d="M65.249 77.74C65.7231 77.7267 66.204 77.7133 66.6917 77.7C67.1117 77.6867 67.5655 77.68 68.0532 77.68C68.5409 77.6667 69.015 77.66 69.4756 77.66H70.7355V75.56C70.7355 74.84 70.7355 74.2 70.7355 73.64C70.7491 73.08 70.7626 72.6067 70.7762 72.22C70.7897 71.7667 70.81 71.3667 70.8371 71.02L65.249 77.74ZM63.1763 77.98L70.7355 69H72.3612V77.66H73.7836V79.06H72.3612V82.96H70.7355V79.06H63.2779L63.1763 77.98Z" fill="white"/>
</svg>
