<svg width="41" height="40" viewBox="0 0 41 40" fill="none" xmlns="http://www.w3.org/2000/svg">
<path d="M33.207 4V4.6H33.807H36.0292C38.2033 4.6 39.8736 6.18927 39.8736 8V36C39.8736 37.8107 38.2033 39.4 36.0292 39.4H4.91808C3.87926 39.4 2.89406 39.028 2.17676 38.3825C1.46161 37.7388 1.0737 36.8803 1.07363 36.0002C1.07363 36.0002 1.07363 36.0001 1.07363 36L1.09586 8.00048V8C1.09586 6.18372 2.72789 4.6 4.91808 4.6H7.1403H7.7403V4V0.6H10.9847V4V4.6H11.5847H29.3625H29.9625V4V0.6H33.207V4ZM36.0292 36.6H36.6292V36V16V15.4H36.0292H4.91808H4.31808V16V36V36.6H4.91808H36.0292ZM36.0292 12.6H36.6292V12V8V7.4H36.0292H4.91808H4.31808V8V12V12.6H4.91808H36.0292ZM21.0736 22.6H30.9847V31.4H21.0736V22.6Z" stroke="white" stroke-width="1.2"/>
</svg>
