<svg width="70" height="70" viewBox="0 0 70 70" fill="none" xmlns="http://www.w3.org/2000/svg">
<path d="M23.2182 48.5537C23.2182 43.8009 23.2182 39.0872 23.2182 34.2955C22.1664 34.2955 21.1145 34.2955 20.0822 34.2955C18.7577 34.2955 18.2707 33.5164 18.8356 32.3477C20.2964 29.387 21.7768 26.4457 23.2572 23.485C23.5493 22.9007 23.9584 22.589 24.6401 22.628C24.9323 22.6474 25.205 22.628 25.5361 22.628C25.5361 21.5956 25.5946 20.6022 25.5166 19.6088C25.4387 18.6544 24.7959 17.9532 24.1142 17.2909C19.0304 12.3629 20.2185 3.92875 26.4127 0.539514C28.0878 -0.375968 29.237 -0.23962 29.1201 2.13674C29.0033 4.29884 29.0812 6.46093 29.1201 8.62303C29.1201 8.89573 29.3149 9.26582 29.5487 9.42164C30.133 9.86965 30.7953 10.5709 31.4381 10.5709C32.0614 10.5709 32.6847 9.85017 33.3469 9.48008C33.717 9.26582 33.7949 8.99312 33.7949 8.58407C33.7755 6.22719 33.7755 3.87031 33.7949 1.51343C33.7949 0.169425 34.5546 -0.337012 35.7817 0.22786C42.307 3.13014 44.0795 11.837 39.0736 16.9598C37.2621 18.8297 37.1842 19.5699 37.3595 22.628C39.5021 22.628 41.6642 22.6864 43.8263 22.589C44.2548 22.5695 44.6639 21.9657 45.0924 21.6346C45.0729 21.5761 45.034 21.5177 45.0145 21.4593C44.4496 21.4593 43.8653 21.4787 43.3004 21.4593C42.4433 21.4398 41.9953 21.0113 41.9953 20.1542C41.9759 18.6933 41.9759 17.2325 41.9953 15.7716C41.9953 14.9145 42.4433 14.486 43.3004 14.4471C43.8847 14.4276 44.4496 14.4471 45.2482 14.4471C44.7223 13.9406 44.3133 13.5511 43.9432 13.1615C43.2614 12.4603 43.242 11.8759 43.9042 11.1942C44.8976 10.1618 45.9105 9.14895 46.9428 8.15555C47.5856 7.51277 48.1895 7.53224 48.8517 8.17503C49.2413 8.5646 49.6114 8.99312 50.1762 9.32425C50.1762 8.75938 50.1762 8.19451 50.1762 7.62964C50.1957 6.71415 50.6048 6.28563 51.5203 6.28563C52.9617 6.26615 54.3836 6.26615 55.825 6.28563C56.7405 6.28563 57.169 6.71415 57.1885 7.62964C57.2079 8.19451 57.1885 8.7399 57.1885 9.49956C57.6949 8.99312 58.0845 8.60355 58.4935 8.21399C59.1752 7.55172 59.7596 7.55172 60.4608 8.21399C61.4737 9.20738 62.4671 10.2008 63.441 11.2137C64.1033 11.8954 64.1033 12.4797 63.441 13.181C63.0514 13.5705 62.6619 13.9601 62.1554 14.4665C62.8956 14.4665 63.4605 14.4471 64.0254 14.4665C64.8824 14.486 65.3304 14.9145 65.3499 15.7716C65.3694 17.2325 65.3694 18.6933 65.3499 20.1542C65.3499 21.0502 64.9019 21.4593 63.9864 21.4787C63.4605 21.4982 62.9151 21.4982 62.3892 21.4982C62.3697 21.4982 62.3502 21.5177 62.2723 21.5761C62.7982 22.1215 63.1878 22.7643 64.1422 22.6864C64.4928 22.6669 65.0577 23.0175 65.2135 23.3487C66.7913 26.4068 68.3301 29.4844 69.8494 32.5814C70.2779 33.4579 69.752 34.276 68.7781 34.2955C67.6678 34.3345 66.5575 34.2955 65.3888 34.2955C65.3888 38.5418 65.3888 42.7491 65.3888 46.9759C65.5057 47.0149 65.6226 47.0733 65.7589 47.1123C67.7652 47.5213 69.2456 48.9822 69.5572 50.8521C69.8883 52.8584 69.0508 54.6893 67.2782 55.7412C64.2201 57.5332 61.1426 59.2862 58.065 61.0588C54.6952 63.0066 51.3255 64.935 47.9752 66.8828C46.5143 67.7398 44.956 68.1489 43.2614 68.1489C37.8659 68.1294 32.4704 68.1099 27.0749 68.1489C25.1855 68.1684 23.413 67.8372 21.7573 66.9023C21.5431 66.7854 21.3288 66.7075 20.9977 66.5517C20.9977 67.0776 20.9977 67.5256 20.9977 67.9736C20.9782 68.8306 20.5497 69.2981 19.6926 69.2981C16.6735 69.3176 13.6738 69.3176 10.6547 69.2981C9.77814 69.2981 9.36909 68.8501 9.33013 67.9931C9.31065 67.6814 9.33013 67.3698 9.33013 66.9607C9.03796 66.9607 8.76526 66.9607 8.51204 66.9607C6.17464 66.9607 3.83724 66.9607 1.51931 66.9607C0.409046 66.9607 0 66.5711 0 65.4804C0 60.2212 0 54.9815 0 49.7224C0 48.69 0.409045 48.281 1.46088 48.281C3.79828 48.281 6.13568 48.281 8.45361 48.281C8.70683 48.281 8.97952 48.281 9.33013 48.281C9.33013 47.8719 9.31065 47.5018 9.33013 47.1512C9.36909 46.411 9.79761 45.963 10.5183 45.963C13.5959 45.9436 16.693 45.9436 19.7705 45.963C20.5302 45.963 20.9392 46.4305 20.9782 47.2291C20.9977 47.5408 20.9782 47.8524 20.9782 48.1836C20.9782 48.4757 20.9782 48.7679 20.9782 49.138C21.7184 48.9238 22.4585 48.7484 23.2182 48.5537ZM20.9003 51.5339C20.9003 51.865 20.9003 52.1182 20.9003 52.3909C20.9003 55.897 20.9392 59.3836 20.8808 62.8897C20.8613 63.7078 21.134 64.0779 21.8352 64.409C23.2572 65.0518 24.5817 65.831 26.2179 65.831C31.9445 65.8115 37.6906 65.8504 43.4173 65.792C44.4107 65.7725 45.5209 65.5193 46.3974 65.0323C52.9227 61.3315 59.409 57.5721 65.8953 53.8128C67.1419 53.0921 67.5315 51.7092 66.8692 50.5599C66.2069 49.4302 64.8045 49.0796 63.5579 49.7808C59.8375 51.9234 56.1171 54.066 52.3968 56.2281C52.1825 56.345 51.9877 56.6956 51.9683 56.9488C51.8124 60.0459 49.1049 62.1106 46.0858 61.3315C41.5084 60.1433 36.9504 58.8967 32.373 57.6695C31.5549 57.4553 31.1848 56.8904 31.3602 56.1892C31.5355 55.5074 32.1588 55.2153 32.9963 55.4295C34.9636 55.9554 36.931 56.4814 38.8983 57.0073C41.4499 57.689 44.0016 58.3902 46.5533 59.072C48.3063 59.5395 49.8256 58.2539 49.5919 56.5203C49.4166 55.3321 48.5985 54.7673 47.4882 54.4751C42.4239 53.1311 37.379 51.7481 32.3146 50.4041C30.9511 50.0535 29.6071 49.4886 28.1657 49.8003C25.7699 50.3067 23.3546 50.93 20.9003 51.5339ZM51.1502 54.1829C51.4423 54.0271 51.6566 53.9102 51.8514 53.7933C55.3575 51.7676 58.8636 49.7224 62.3892 47.7161C62.7787 47.4824 62.9151 47.2486 62.9151 46.8201C62.8956 42.866 62.9151 38.8924 62.8956 34.9383C62.8956 34.724 62.8761 34.5292 62.8567 34.276C62.5255 34.276 62.2723 34.276 61.9996 34.276C57.8312 34.276 53.6434 34.2565 49.475 34.2955C48.5401 34.2955 47.9947 34.0033 47.6051 33.1463C46.9623 31.7438 46.2416 30.3804 45.5599 29.0169C45.5209 29.0363 45.482 29.0363 45.4625 29.0558C45.4625 36.516 45.4625 43.9762 45.4625 51.4365C47.4298 52.1766 49.7672 52.0987 51.1502 54.1829ZM43.0472 29.0948C43.0082 29.0753 42.9693 29.0558 42.9303 29.0364C42.2486 30.4193 41.5084 31.7828 40.8656 33.1852C40.4955 34.0033 39.9696 34.3345 39.0541 34.315C34.8273 34.276 30.6005 34.2955 26.3737 34.2955C26.1205 34.2955 25.8673 34.2955 25.5946 34.2955C25.5946 38.8924 25.5946 43.3724 25.5946 47.9498C25.8867 47.8914 26.14 47.833 26.3932 47.7745C28.0878 47.2876 29.7824 47.2681 31.4965 47.755C33.7365 48.3784 35.996 48.9822 38.236 49.5665C39.8138 49.9951 41.411 50.4041 43.0472 50.8326C43.0472 43.5282 43.0472 36.3018 43.0472 29.0948ZM36.0739 3.13014C36.0739 3.48075 36.0739 3.71449 36.0739 3.94823C36.0739 5.79867 36.0544 7.64911 36.0739 9.48008C36.0739 10.1423 35.8402 10.5903 35.2948 10.941C34.2624 11.6032 33.2301 12.3044 32.1977 13.0057C31.6523 13.3758 31.1459 13.3952 30.581 13.0057C29.5487 12.285 28.4968 11.5837 27.4255 10.902C26.8996 10.5709 26.7048 10.1034 26.7048 9.49956C26.7243 7.5712 26.7048 5.66232 26.7048 3.73396C26.7048 3.55866 26.6659 3.38335 26.6464 3.16909C22.4585 6.07137 22.03 12.1486 25.7504 15.6742C27.2307 17.0766 27.9709 18.6933 27.893 20.7191C27.8735 21.3424 27.893 21.9657 27.893 22.5695C28.7306 22.5695 29.4708 22.5695 30.2304 22.5695C30.2304 21.4982 30.2304 20.4659 30.2304 19.453C30.2304 18.4986 30.6784 17.9337 31.4381 17.9532C32.1588 17.9726 32.5678 18.4986 32.5678 19.4335C32.5678 20.4659 32.5678 21.5177 32.5678 22.5695C33.3859 22.5695 34.1261 22.5695 34.8468 22.5695C34.8663 22.4721 34.9052 22.4332 34.9052 22.3942C34.9052 22.1215 34.9247 21.8488 34.9052 21.5956C34.691 19.1219 35.5285 17.1546 37.3205 15.3431C40.8072 11.8564 40.1644 5.9545 36.0739 3.13014ZM11.6286 48.3394C11.6286 54.5725 11.6286 60.7471 11.6286 66.9218C13.966 66.9218 16.2644 66.9218 18.5434 66.9218C18.5434 60.7082 18.5434 54.5335 18.5434 48.3394C16.2255 48.3394 13.9465 48.3394 11.6286 48.3394ZM42.3459 24.9654C36.6583 24.9654 31.1069 24.9654 25.5751 24.9849C25.3413 24.9849 25.0102 25.2381 24.8933 25.4523C24.0753 26.9911 23.3156 28.5689 22.5365 30.1271C22.2443 30.7115 21.9716 31.2958 21.6405 31.9581C22.0105 31.9581 22.2832 31.9581 22.5365 31.9581C27.2697 31.9581 32.0224 31.8607 36.7557 32.0165C38.3918 32.0555 39.2294 31.588 39.8138 30.0882C40.515 28.3546 41.4499 26.7379 42.3459 24.9654ZM66.7718 31.9581C66.7328 31.8023 66.7328 31.7244 66.6939 31.6659C65.6421 29.5623 64.6097 27.4391 63.5189 25.3549C63.4021 25.1407 62.993 24.9654 62.7203 24.9654C57.4027 24.9459 52.0851 24.9459 46.7481 24.9459C46.5728 24.9459 46.3974 24.9848 46.1442 25.0043C47.274 27.2833 48.3648 29.4649 49.4945 31.6464C49.5724 31.8218 49.923 31.9386 50.1373 31.9386C51.4034 31.9581 52.6695 31.9581 53.9356 31.9581C58.1819 31.9581 62.4281 31.9581 66.7718 31.9581ZM9.19378 50.6768C6.85638 50.6768 4.55794 50.6768 2.27897 50.6768C2.27897 55.3516 2.27897 59.968 2.27897 64.6038C4.59689 64.6038 6.87586 64.6038 9.19378 64.6038C9.19378 59.9485 9.19378 55.3516 9.19378 50.6768ZM52.5916 22.6085C49.8451 21.4787 48.5401 19.5114 48.9491 17.2325C49.3582 15.0119 51.1307 13.3952 53.2928 13.2978C55.4938 13.2004 57.5001 14.6224 58.0455 16.726C58.3766 18.0116 58.2013 19.2193 57.5391 20.3685C56.8573 21.5177 55.825 22.18 54.5004 22.5695C56.3119 22.5695 58.0065 22.5695 59.9544 22.5695C59.6427 22.3358 59.5064 22.2384 59.3895 22.1215C58.5909 21.3229 58.5909 21.1476 58.961 20.1347C59.2726 19.2972 59.857 19.0829 60.6751 19.1219C61.3958 19.1608 62.1165 19.1219 62.8567 19.1219C62.8567 18.3038 62.8567 17.5831 62.8567 16.7845C61.9996 16.7845 61.162 16.765 60.3439 16.7845C59.6038 16.8039 59.2142 16.3949 58.9415 15.7521C58.6493 15.0704 58.6104 14.5055 59.1947 13.9796C59.7986 13.4147 60.4024 12.8109 60.9088 12.3044C60.344 11.6811 59.8375 11.1357 59.3116 10.5514C58.7272 11.1357 58.1624 11.6617 57.6365 12.246C57.0716 12.8693 56.4872 12.9083 55.7471 12.5966C55.0069 12.285 54.6757 11.837 54.7147 11.0383C54.7537 10.2397 54.7147 9.4606 54.7147 8.68147C53.8771 8.68147 53.1564 8.68147 52.3773 8.68147C52.3773 9.51904 52.3578 10.3176 52.3773 11.1163C52.3968 11.8759 52.0462 12.3044 51.345 12.5966C50.6437 12.8888 50.0594 12.9083 49.514 12.3044C48.9686 11.7006 48.3842 11.1163 47.8583 10.5709C47.235 11.1747 46.6896 11.6811 46.1247 12.2265C46.7091 12.8109 47.274 13.3952 47.8583 13.9406C48.4622 14.486 48.4622 15.0509 48.17 15.7716C47.8778 16.4533 47.4688 16.8429 46.6896 16.8234C45.8715 16.8039 45.0534 16.8234 44.2353 16.8234C44.2353 17.6415 44.2353 18.3622 44.2353 19.044C44.2938 19.1024 44.3133 19.1413 44.3133 19.1413C45.1314 19.1608 45.9689 19.1024 46.787 19.1998C47.1766 19.2387 47.722 19.4335 47.8778 19.7452C48.4816 20.8554 48.6959 21.284 47.6635 22.2384C47.5467 22.3358 47.4493 22.4721 47.2934 22.6669C49.1244 22.6085 50.7801 22.6085 52.5916 22.6085ZM55.9029 17.9532C55.9029 16.6871 54.8511 15.6352 53.585 15.6352C52.2799 15.6352 51.2281 16.7065 51.2476 18.0116C51.267 19.2777 52.3189 20.31 53.6044 20.2906C54.8511 20.2906 55.9029 19.2193 55.9029 17.9532Z" fill="#EF0D5E"/>
</svg>
