<svg width="228" height="73" viewBox="0 0 228 73" fill="none" xmlns="http://www.w3.org/2000/svg">
<path d="M65.8429 70.9861C65.5756 71.2378 65.2192 71.6154 65.041 71.8671C64.8628 72.1189 64.2391 72.4965 64.3282 72.2447C64.4173 71.993 64.7737 71.4895 64.8628 71.2378C64.9519 71.112 64.5064 70.7344 64.5064 70.4827C64.5064 70.4827 64.5064 70.4827 64.4173 70.3568C64.15 70.2309 64.15 70.2309 64.15 70.2309C63.9719 69.8533 63.7937 69.4758 63.7046 69.3499C63.6155 69.224 63.3482 69.6016 63.2591 69.8533C63.2591 69.8533 63.2591 69.8533 63.2591 70.1051C63.2591 70.2309 63.2591 70.2309 63.2591 70.2309C63.2591 70.3568 63.2591 70.7344 63.0809 71.112C62.9918 71.4895 62.9027 72.3706 62.9027 72.4964C62.8136 72.4964 62.7245 72.4964 62.6354 72.3706C62.5463 72.2447 62.3681 71.8671 62.1899 71.7413C62.0117 71.6154 62.6354 71.2378 62.6354 71.112C62.7245 70.9861 62.7245 70.7344 62.4572 70.9861C62.1899 71.2378 61.6553 70.6085 61.5662 70.7344C61.4771 70.7344 61.5662 71.3637 61.6553 71.4895C61.6553 71.4895 61.6553 71.4896 61.6553 71.6154C61.6553 71.7413 61.6553 71.7413 61.6553 71.7413C61.6553 71.8671 61.388 71.993 61.0316 71.993C61.0316 71.993 61.0316 71.993 60.7643 71.993C60.6753 71.993 60.6753 71.993 60.6753 71.993C60.6753 72.3706 60.4971 72.6223 60.4971 72.6223C60.408 72.6223 60.0516 72.6223 59.7843 72.6223C59.6952 72.2447 59.6952 72.2447 59.6952 72.2447C59.9625 72.2447 60.1407 71.993 60.0516 71.8671C59.9625 71.7413 59.7843 71.3637 59.6061 71.6154C59.4279 71.8671 58.8933 72.3706 58.7151 72.3706C58.4478 72.3706 57.9132 72.3706 57.8241 72.3706C57.8241 72.3706 57.9132 72.2447 58.0914 72.2447C58.2696 72.2447 58.7151 71.993 58.7151 71.7413C58.7151 71.4895 59.3388 71.2378 59.517 71.2378C59.6061 71.2378 59.9625 70.9861 60.0516 70.9861C60.0516 70.9861 60.0516 70.9861 60.0516 70.8602C60.0516 70.7344 59.9625 70.6085 59.8734 70.6085C59.2497 70.8602 58.626 71.112 58.0023 71.112C57.5568 71.112 57.5568 71.112 57.5568 71.112C57.3787 71.4895 57.1114 71.8671 56.9332 71.993C56.755 72.1189 56.5768 71.6154 56.5768 71.6154C56.4877 71.6154 56.2204 71.3637 56.1313 71.3637C56.0422 71.3637 55.6858 70.9861 55.7749 70.9861C55.864 70.9861 56.1313 70.7344 56.2204 70.8602C56.2204 70.8602 56.2204 70.8602 56.2204 70.9861C56.3986 71.4896 56.3986 71.4895 56.3986 71.4895C56.755 71.3637 57.1114 71.3637 57.1114 71.2378C57.2005 71.2378 57.2896 70.8602 57.2896 70.7344C57.2896 70.6085 56.8441 70.2309 56.6659 70.2309C56.4877 69.3499 56.1313 69.8533 56.0422 70.1051C55.864 70.6085 55.4185 70.7344 55.1512 70.9861C54.8839 71.2378 54.8839 71.2378 54.8839 71.2378C54.7057 71.6154 54.5275 71.7413 54.5275 71.4895C54.5275 71.4895 54.5275 71.4895 54.5275 71.3637C54.5275 71.112 54.5275 71.112 54.5275 71.112C54.2602 70.9861 53.8148 70.6085 53.5475 70.4827C53.5475 70.4827 53.5475 70.4827 53.5475 70.2309C53.4584 69.7275 53.1911 69.7275 52.7456 69.7275C52.5674 69.7275 52.3892 69.4758 52.3001 69.4758C52.211 69.4758 52.1219 69.8533 52.0328 69.9792C51.8546 69.9792 51.8546 70.1051 52.0328 70.2309C52.211 70.3568 52.3892 70.7344 52.3001 70.8602C52.211 70.9861 51.32 70.4827 51.4091 70.3568C51.4091 70.3568 51.4091 70.3568 51.4982 70.2309C51.6764 69.7275 51.4091 69.4758 51.0527 69.7275C50.6964 69.8533 50.6073 69.6016 50.4291 69.4758C50.1618 69.4758 50.1618 69.4758 50.1618 69.4758C49.8945 69.4758 49.2708 69.6016 48.9144 69.7275C48.9144 69.7275 48.9144 69.7275 48.7362 69.6016C48.4689 69.4758 48.4689 69.4758 48.4689 69.4758C48.2016 69.4758 47.8452 69.6016 47.667 69.7275C47.4888 69.8533 46.7761 69.4758 46.5979 69.4758C46.4197 69.4758 46.0633 69.4758 45.8851 69.4758C45.7069 69.4758 45.0832 69.3499 44.905 69.6016C44.7268 69.8533 44.0141 69.9792 43.7468 69.6016C43.7468 69.6016 43.7468 69.6016 43.3013 69.7275C43.034 69.8533 43.034 69.8533 43.034 69.8533C42.6776 69.8533 42.2321 69.7275 41.8757 69.7275C41.6084 69.7275 40.7175 69.9792 40.3611 70.1051C40.0047 70.2309 38.8464 69.9792 38.49 69.9792C38.49 69.9792 38.49 69.9792 38.0445 69.7275C37.4209 69.224 37.4209 69.224 37.4209 69.224C36.8863 69.3499 36.2626 69.6016 36.1735 69.6016C36.0844 69.6016 35.5498 69.6016 35.2825 69.6016C35.0152 69.6016 34.3024 69.7275 34.2134 69.7275C34.2134 69.6016 34.0352 69.4758 33.9461 69.6016C33.857 69.7275 33.5006 69.8533 33.4115 69.7275C33.4115 69.7275 33.4115 69.7275 33.3224 69.6016C33.2333 69.4758 33.2333 69.4758 33.2333 69.4758C33.1442 69.4758 32.966 69.4758 32.8769 69.6016C32.7878 69.7275 32.6096 69.8533 32.5205 69.7275C32.4314 69.6016 32.075 69.8533 32.075 69.8533C31.9859 69.8533 31.6295 69.9792 31.2731 70.1051C31.2731 70.1051 31.2731 70.1051 30.9168 69.9792C30.7386 69.8533 30.5604 69.8533 30.3822 69.7275C30.204 69.6016 30.0258 69.224 29.6694 69.6016C29.6694 69.6016 29.4912 69.6016 29.4021 69.4758C29.0457 69.0982 28.9566 68.9723 28.6002 69.6016C28.422 69.9792 28.422 69.9792 28.422 69.9792C28.2438 69.4758 28.0656 69.0982 27.9765 69.224C27.8874 69.3499 27.6202 69.6016 27.6202 69.4758C27.6202 69.3499 27.3529 68.9723 27.1747 68.9723C26.9965 68.9723 26.6401 69.3499 26.551 69.4758C26.4619 69.6016 26.1946 69.3499 26.1055 69.4758C26.1055 69.6016 26.0164 69.6016 26.0164 69.3499C26.0164 69.0982 25.4818 69.4758 25.4818 69.6016C25.1254 69.7275 25.1254 68.9723 24.6799 69.224C24.4126 69.3499 24.4126 69.3499 24.4126 69.3499C24.0563 69.3499 23.6999 69.3499 23.6108 69.3499C23.5217 69.3499 23.1653 69.4758 22.898 69.4758C22.6307 69.4758 22.007 69.224 21.8288 69.4758C21.8288 69.4758 21.8288 69.4758 21.6506 69.6016C21.5615 69.7275 21.5615 69.7275 21.5615 69.7275C21.3833 69.7275 21.116 69.4758 20.9379 69.3499C20.7597 69.224 19.8687 69.6016 19.7796 69.4758C19.6905 69.3499 19.3341 69.0982 19.245 69.224C19.1559 69.3499 18.7104 69.0982 18.7104 69.0982C18.7104 69.0982 18.7104 69.0982 18.6213 69.224C18.5322 69.3499 18.5322 69.4758 18.4431 69.4758C18.2649 69.4758 17.9085 69.6016 17.9085 69.224C17.9085 69.0982 17.9085 69.0982 17.9085 69.0982C18.1758 68.9723 18.2649 68.7206 18.1758 68.7206C18.0867 68.5947 17.7304 68.5947 17.6413 68.7206C17.5522 68.8464 17.1958 69.224 17.1958 68.8465C17.1958 68.8465 17.1958 68.8464 17.1958 68.7206C17.1958 68.5947 17.1067 68.4689 17.1067 68.4689C16.9285 68.4689 16.9285 68.4689 16.9285 68.4689C16.7503 68.4689 16.5721 68.343 16.6612 68.0913C16.6612 68.0913 16.6612 68.0913 16.3048 68.2171C16.2157 68.2171 16.2157 68.2171 16.2157 68.2171C16.1266 68.343 15.9484 68.343 15.6811 68.2171C15.4138 67.9654 14.5228 67.9654 14.3447 67.9654C14.0774 67.9654 13.3646 67.5878 13.0973 67.5878C12.9191 67.5878 12.3845 67.7137 12.2954 67.462C12.2063 67.2102 11.3153 66.9585 11.2262 67.0844C10.6917 66.3292 10.6917 66.3292 10.6917 66.3292C9.88979 66.2033 9.26611 66.0775 9.17701 66.0775C9.08791 66.0775 8.73152 66.0775 8.46423 66.0775C8.19694 66.0775 7.03867 66.2033 6.59319 66.2033C6.59319 66.2033 6.59319 66.2033 6.50409 65.4482C6.50409 65.3223 6.32589 65.1964 6.2368 65.3223C5.96951 65.4482 5.96951 65.4482 5.96951 65.4482C5.70221 65.3223 5.34582 65.0706 5.34582 64.9447C5.25673 64.8189 4.81124 64.5671 4.63305 64.5671C4.45485 64.5671 4.00937 64.1895 3.92027 64.3154C3.83117 64.3154 3.65298 64.3154 3.56388 64.0637C3.56388 64.0637 3.56388 64.0637 3.47478 63.9378C3.38568 63.812 3.20749 63.812 3.11839 63.9378C2.762 64.1896 2.40561 64.1896 2.22742 64.1896C1.69283 64.1896 1.96013 63.9378 1.96013 63.6861C1.96013 63.5602 1.69283 63.3085 2.04922 63.3085C2.22742 63.3085 2.40561 63.1827 2.58381 63.0568C2.762 62.9309 2.762 62.8051 2.58381 62.6792C2.40561 62.5533 2.40561 62.5533 2.40561 62.5533C2.58381 62.4275 2.8511 62.0499 3.11839 61.7982C3.38568 61.5464 3.56388 60.6654 3.38568 60.5395C3.38568 60.5395 3.38568 60.5395 3.20749 60.5395C3.02929 60.5395 3.02929 60.5395 3.02929 60.5395C2.8511 60.6654 2.49471 60.6654 2.31652 60.5395C2.13832 60.4137 2.13832 59.2809 2.22742 58.9033C2.31652 58.5258 2.49471 57.2671 2.40561 57.2671C2.40561 57.2671 2.13832 57.393 1.96013 57.6447C1.96013 57.6447 1.96013 57.6447 1.69283 57.2671C1.60374 57.0154 1.60374 57.0154 1.60374 57.0154C1.60374 56.7637 1.78193 56.512 1.87103 56.2602C1.87103 56.2602 1.87103 56.2602 1.69283 56.1344C1.60374 56.1344 1.60374 56.1344 1.60374 56.1344C1.33645 56.2602 1.15825 56.2602 1.24735 56.0085C1.24735 56.0085 1.24735 56.0085 1.24735 55.8827C1.24735 55.3792 1.24735 55.3792 1.24735 55.3792C1.06915 54.8758 0.890959 54.2464 0.890959 54.1206C0.890959 53.8689 1.15825 53.1137 1.51464 52.9878C1.87103 52.862 1.87103 51.6033 1.60374 51.7292C1.60374 51.7292 1.60374 51.7292 1.42554 51.8551C1.24735 51.9809 1.24735 51.9809 1.24735 51.9809C1.06915 52.1068 0.712765 51.8551 0.445473 51.4775C0.445473 51.4775 0.445473 51.4775 0.53457 51.0999C0.53457 50.974 0.53457 50.8482 0.623667 50.7223C0.890959 50.3447 1.06915 50.093 1.24735 49.8413C1.42554 49.5895 1.60374 50.2189 1.78193 49.8413C1.78193 49.7154 1.78193 49.7154 1.78193 49.7154C1.96013 49.7154 1.96013 49.5896 1.69283 49.4637C1.69283 49.4637 1.69283 49.4637 1.69283 49.3378C1.69283 49.212 1.78193 48.9602 1.87103 48.8344C1.96013 48.7085 2.04922 48.7085 2.13832 48.7085C2.49471 48.4568 2.49471 47.8275 2.31652 47.8275C2.04922 47.7016 1.96013 47.5758 1.87103 47.324C1.78193 47.1982 1.78193 47.1982 1.78193 47.1982C1.42554 47.1982 1.42554 46.9464 1.87103 46.8206C2.31652 46.6947 3.38568 45.9395 3.92027 46.3171C3.92027 46.3171 3.92027 46.3171 4.54395 46.1913C4.63305 46.1913 4.90034 46.443 4.98944 46.6947C5.07853 47.1982 5.07853 47.1982 5.07853 47.1982C5.34582 47.0723 5.52402 46.6947 5.43492 46.443C5.43492 46.443 5.43492 46.443 5.43492 46.1913C5.52402 45.562 5.61312 44.9327 5.70221 44.3033C5.70221 44.1775 5.70221 44.1775 5.70221 44.1775C6.0586 44.0516 6.2368 43.7999 6.32589 43.7999C6.41499 43.7999 6.68228 43.4223 6.77138 43.4223C6.94958 43.4223 7.39506 43.2964 7.48416 43.2964C7.57326 43.2964 7.75145 43.0447 7.84055 42.9189C7.92965 42.793 8.28604 43.1706 8.28604 43.2964C8.37513 43.2964 8.64243 43.4223 8.64243 43.1706C8.64243 42.9189 8.90972 42.4154 9.08791 42.6671C9.26611 42.793 9.80069 42.5413 9.80069 42.4154C9.80069 42.4154 9.71159 42.1637 9.88979 42.0378C9.88979 42.0378 9.88979 42.0378 9.97888 42.0378C10.2462 42.1637 10.6026 42.6671 10.6917 41.912C10.7808 41.912 10.959 41.912 11.1371 42.0378C11.3153 42.1637 11.8499 41.7861 12.0281 41.7861C12.2063 41.7861 12.6518 41.7861 12.9191 41.7861C13.1864 41.7861 13.6319 41.2827 13.4537 41.1568C13.2755 41.0309 12.9191 40.5275 13.0082 40.1499C13.0973 39.7723 12.1172 38.7654 12.2063 38.7654C12.2954 38.7654 12.3845 38.3878 12.1172 38.1361C12.1172 38.1361 12.1172 38.1361 12.1172 37.8844C12.1172 37.3809 12.1172 37.3809 12.1172 37.3809C11.8499 37.3809 11.5826 37.2551 11.4044 37.1292C11.4044 37.1292 11.4044 37.1292 11.3153 37.0033C11.1371 36.6258 11.1371 36.6258 11.1371 36.6258C11.2262 36.2482 11.2262 35.6189 11.1371 35.2413C11.1371 35.2413 11.1371 35.2413 11.0481 34.8637C11.0481 34.7378 11.0481 34.7378 11.0481 34.7378C11.0481 34.612 11.3153 34.612 11.5826 34.8637C11.8499 35.1154 12.6518 34.7378 12.6518 34.612C12.6518 34.4861 12.5627 34.2344 12.3845 34.2344C12.3845 34.2344 12.3845 34.2344 12.2954 34.2344C12.1172 34.3602 12.1172 34.3602 12.1172 34.3602C11.8499 34.4861 11.7608 34.4861 11.7608 34.3602C11.7608 34.3602 11.7608 34.3602 11.7608 34.2344C11.7608 34.1085 11.7608 34.1085 11.7608 34.1085C11.7608 33.9827 11.7608 33.8568 11.6717 33.8568C11.5826 33.8568 11.3153 33.9827 11.2262 33.8568C11.1372 33.7309 11.3153 33.1016 11.4935 32.724C11.4935 32.724 11.4935 32.724 11.8499 32.5982C11.939 32.5982 12.0281 32.5982 12.0281 32.4723C11.939 31.5913 11.939 31.5913 11.939 31.5913C12.5627 31.2137 12.83 30.962 12.7409 30.8361C12.5627 30.7102 12.0281 30.8361 11.939 30.8361C11.8499 30.8361 11.1371 30.4585 10.6026 30.2068C10.6026 30.2068 10.6026 30.2068 10.068 30.3327C9.80069 30.3327 9.80069 30.2068 9.71159 29.9551C9.80069 29.5775 9.80069 29.5775 9.80069 29.5775C9.6225 29.8292 9.3552 29.9551 9.08791 29.8292C8.82062 29.7033 8.10784 29.3258 8.01874 29.1999C8.19694 28.8223 8.19694 28.8223 8.19694 28.8223C8.10784 28.4447 7.92965 28.193 7.84055 28.0671C7.75145 27.9413 7.57326 27.9413 7.57326 27.9413C7.57326 27.9413 7.57326 27.9413 7.48416 28.0671C7.39506 28.193 7.39506 28.193 7.39506 28.193C7.30597 28.3189 7.03867 28.4447 6.86048 28.4447C6.68228 28.5706 6.0586 28.6964 5.96951 28.5706C5.88041 28.4447 5.70221 27.9413 5.79131 27.8154C5.88041 27.6896 6.59319 27.9413 6.86048 27.9413C6.86048 27.9413 6.86048 27.9413 6.86048 27.6896C6.94958 27.4378 6.77138 26.9344 6.68228 26.9344C5.43492 26.8085 5.43492 26.8085 5.43492 26.8085C5.61312 25.8016 5.61312 24.9206 5.43492 24.9206C5.25673 24.9206 4.98944 25.2982 4.90034 25.2982C4.81124 25.2982 4.72214 25.0464 4.72214 25.0464C4.72214 25.0464 4.63305 24.7947 4.54395 24.543C4.45485 24.2913 4.72214 23.662 4.81124 23.4102C4.81124 23.4102 4.81124 23.4102 4.81124 23.2844C4.81124 23.1585 4.81124 23.1585 4.81124 23.1585C4.81124 23.0327 4.63305 22.9068 4.54395 22.9068C4.54395 22.9068 4.54395 22.9068 4.45485 22.9068C4.36575 22.9068 4.36575 22.9068 4.36575 22.9068C4.27666 22.9068 4.18756 22.9068 4.09846 22.7809C4.27666 22.5292 4.27666 22.5292 4.27666 22.5292C4.54395 22.1516 4.54395 21.8999 4.18756 22.0258C4.18756 22.0258 4.18756 22.0258 4.00936 22.0258C3.65298 22.0258 3.65298 22.0258 3.65298 22.0258C3.29659 22.0258 2.9402 21.8999 2.8511 21.6482C2.8511 21.6482 2.8511 21.6482 2.8511 21.5223C2.9402 20.2637 2.9402 20.2637 2.9402 20.2637C2.49471 19.7602 2.04922 19.2568 1.96013 19.1309C1.96013 19.1309 1.96013 19.1309 1.96013 19.0051C1.87103 18.7533 1.87103 18.7533 1.87103 18.7533C1.87103 18.3758 1.78193 17.8723 1.69283 17.4947C1.69283 17.4947 1.69283 17.4947 1.51464 17.3689C0.890959 17.4947 0.890959 17.1171 0.980056 16.6137C0.980056 16.4878 0.980056 16.4878 0.980056 16.4878C0.980056 16.1102 0.712764 15.9844 0.356375 16.2361C0.356375 16.2361 0.356375 16.2361 0.53457 15.7327C0.712765 15.3551 0.356375 15.3551 0.267278 15.2292C0.267278 15.2292 -1.40145e-05 15.7327 -0.0891113 15.2292C-0.0891113 15.1033 -0.0891113 15.1033 -0.0891113 15.1033C0.0890833 14.9775 0.267278 14.8516 0.267278 14.8516C0.267278 14.8516 0.178181 14.3482 -1.40145e-05 13.9706C-1.40145e-05 13.9706 -1.40145e-05 13.9706 0.0890833 13.4671C0.0890833 13.3413 0.178181 13.2154 0.178181 13.0895C0.178181 12.9637 0.178181 12.9637 0.178181 12.9637C0.0890833 12.8378 0.0890833 12.712 0.178181 12.712C0.267278 12.712 0.712764 12.712 0.801862 12.4602C0.890959 12.2085 0.712764 11.5792 0.801862 11.4533C1.15825 11.8309 1.42554 11.8309 1.69283 11.3275C1.96013 10.9499 1.96013 10.9499 1.96013 10.9499C2.31652 11.3275 2.58381 11.3275 2.58381 11.2016C2.58381 11.0758 3.02929 10.5723 3.38568 10.3206C3.38568 10.3206 3.38568 10.3206 3.65298 10.9499C3.83117 11.3275 3.83117 11.3275 3.83117 11.3275C4.27666 11.0758 4.54395 10.6982 4.45485 10.6982C4.36575 10.6982 4.18756 10.4464 4.18756 10.4464C4.36575 10.4464 4.54395 10.4464 4.72214 10.5723C4.81124 10.5723 4.81124 10.5723 4.81124 10.5723C4.90034 10.5723 4.98944 10.5723 5.07853 10.4464C5.16763 10.3206 5.43492 10.4464 5.43492 10.3206C5.43492 10.1947 5.61312 9.943 5.70221 10.1947C5.79131 10.4464 6.2368 10.3206 6.41499 9.943C6.41499 9.943 6.41499 9.943 6.59319 9.69127C6.68228 9.56541 6.68228 9.56541 6.68228 9.56541C6.86048 9.56541 7.12777 9.56541 7.30597 9.69127C7.48416 9.81714 8.28604 9.56541 8.37513 9.69127C8.55333 9.81714 8.99881 10.0689 9.08791 9.69127C9.08791 9.69127 9.08791 9.69127 9.26611 9.43955C9.4443 9.18783 9.4443 9.18783 9.4443 9.18783C9.71159 9.18783 10.068 9.18783 10.1571 9.31369C10.3353 9.43955 10.6026 8.9361 10.7808 8.9361C10.959 8.9361 11.4044 9.06196 11.4935 9.18783C11.5826 9.31369 11.8499 9.31369 11.939 9.18783C12.0281 8.9361 12.2954 8.43265 12.4736 8.55852C12.6518 8.68438 13.0082 8.55851 13.1864 8.43265C13.2755 8.30679 13.721 8.55852 13.721 8.55852C13.721 8.55852 13.721 8.55851 13.721 8.43265C13.721 8.18093 13.721 8.18093 13.721 8.18093C13.8992 8.18093 14.2556 8.43265 14.6119 8.55852C14.6119 8.55852 14.6119 8.55852 14.6119 7.9292C14.701 7.9292 15.0574 7.80334 15.3247 7.67748C15.6811 7.55162 16.8394 7.80334 17.1067 7.80334C17.1067 7.80334 17.1067 7.80334 17.2849 7.9292C17.7304 7.9292 17.8194 8.30679 17.8194 7.80334L18.0867 7.67748C18.354 8.18093 18.7995 7.80334 18.7995 7.67748C19.0668 7.29989 19.4232 7.80334 19.6014 7.42576C19.6905 7.29989 19.6905 7.29989 19.6905 7.29989C20.136 7.42576 20.4924 7.67748 20.5815 7.67748C20.6706 7.67748 20.9379 7.42576 21.2051 7.17403C21.4724 6.92231 22.2743 7.29989 22.2743 7.29989C22.2743 6.67058 22.2743 6.67058 22.2743 6.67058C22.6307 6.79645 23.2544 6.79645 23.5217 6.54472C23.5217 6.54472 23.5217 6.54472 23.789 7.04817C24.0563 7.17403 24.0563 7.17403 24.0563 7.17403C24.3236 7.04817 24.6799 6.79645 24.8581 6.67058C24.8581 6.67058 24.8581 6.67058 25.0363 6.67058C25.1254 6.67058 25.1254 6.67058 25.1254 6.67058C25.2145 6.67058 25.3927 6.67058 25.5709 6.67058C25.7491 6.67058 26.4619 6.67058 26.6401 6.67058C26.8183 6.67058 27.3529 6.41886 27.3529 6.54472C27.442 6.67058 27.6202 6.79645 27.6202 6.67058C27.6202 6.67058 27.6202 6.67058 27.7092 6.54472C27.7983 6.41886 27.7983 6.41886 27.7983 6.41886C27.8874 6.293 27.8874 6.293 27.9765 6.41886C28.0656 6.54472 28.0656 6.67058 28.1547 6.79645C28.1547 6.79645 28.1547 6.79645 28.2438 6.79645C28.5111 6.54472 28.5111 6.54472 28.5111 6.54472C28.8675 6.41886 29.313 6.293 29.4021 6.293C29.4021 6.293 29.4021 6.293 29.4912 6.16714C29.8476 5.66369 29.8476 5.66369 29.8476 5.66369C30.0258 6.16714 30.2931 6.41886 30.3822 6.293C30.4713 6.16714 30.6495 5.91541 30.7386 5.91541C30.8277 5.91541 30.9167 5.66369 31.0058 5.16024C31.0058 5.16024 31.0058 5.16024 31.5404 5.78955C31.6295 5.91541 31.6295 5.91541 31.6295 5.91541C31.8968 5.78955 32.2532 5.78955 32.4314 5.78955C32.6096 5.78955 32.966 5.91541 32.966 5.78955C32.966 5.66369 33.5006 5.66369 33.5897 5.66369C33.6788 5.66369 33.857 5.53783 33.7679 5.03438C33.7679 5.03438 33.7679 5.03438 34.3024 5.66369C34.3915 5.66369 34.6588 5.53783 34.837 5.41196C34.9261 5.41196 34.9261 5.41196 34.9261 5.41196C35.0152 5.2861 35.4607 5.16024 35.8171 5.03438C36.2626 4.90851 37.2427 5.53783 37.3318 5.53783C37.4209 5.53783 37.9554 5.41196 38.2227 5.2861C38.49 5.16024 39.8265 5.2861 40.0938 5.2861C40.0938 5.2861 40.0938 5.2861 40.1829 5.16024C40.6284 5.03438 40.6284 5.03438 40.6284 5.03438C40.8956 5.16024 41.1629 5.2861 41.3411 5.41196C41.3411 5.41196 41.3411 5.41196 41.5193 5.41196C41.7866 5.41196 41.7866 5.41196 41.7866 5.41196C42.0539 5.2861 42.4103 5.03438 42.5885 5.03438C42.7667 5.03438 43.4795 4.90852 43.8359 4.90852C43.8359 4.90852 43.8359 4.90852 44.1922 4.90852C44.2813 4.90852 44.2813 4.90852 44.2813 4.90852C44.3704 4.78265 44.5486 4.90851 44.5486 5.03438C44.5486 5.16024 44.9941 5.03438 45.0832 5.03438C45.1723 4.90851 45.4396 4.78265 45.5287 4.78265C45.6178 4.78265 45.9742 5.03438 46.0633 5.03438C46.1524 5.03438 46.7761 4.65679 47.0434 4.65679C47.0434 4.65679 47.0434 4.65679 47.1325 4.78265C47.3107 5.16024 47.5779 4.40507 47.7561 4.90852C47.8452 5.16024 47.8452 5.16024 47.8452 5.16024C48.2016 4.90851 48.558 4.90852 48.6471 4.90852C48.7362 5.03438 49.0035 5.16024 49.0926 5.16024C49.0926 5.03438 49.2708 4.90852 49.2708 4.90852C49.2708 4.90852 49.5381 4.90851 49.6272 4.78265C49.7163 4.65679 50.4291 4.65679 50.9636 4.53093C50.9636 4.53093 50.9636 4.53093 51.4982 4.78265C51.9437 4.90851 52.4783 5.03438 53.0129 4.53093C53.2802 4.2792 53.2802 4.2792 53.2802 4.2792C53.7257 4.40507 54.1711 4.53093 54.1711 4.65679C54.2602 4.78265 54.5275 4.78265 54.6166 4.53093C54.7948 4.2792 55.4185 4.78265 55.4185 4.65679C55.4185 4.53093 55.5967 4.2792 55.6858 4.53093C55.6858 4.65679 55.864 4.90851 55.9531 4.65679C56.0422 4.40507 56.755 4.78265 57.1114 4.65679C57.1114 4.65679 57.1114 4.65679 57.4678 4.78265C57.9132 4.53093 57.9132 4.53093 57.9132 4.53093C58.4478 4.2792 58.9824 4.15334 59.0715 4.15334C59.0715 4.2792 59.2497 4.40507 59.3388 4.2792C59.4279 4.15334 59.6061 3.90162 59.6952 3.90162C60.0516 4.2792 60.0516 4.2792 60.0516 4.2792C60.4971 4.2792 61.1207 4.15334 61.388 4.2792C61.6553 4.2792 62.6354 4.15334 62.8136 4.40507C62.8136 4.40507 62.8136 4.40507 63.0809 4.02748C63.0809 3.90162 63.4373 4.15334 63.6155 4.15334C64.15 4.15334 64.15 4.15334 64.15 4.15334C64.7737 4.15334 65.6647 4.02748 66.0211 3.90162C66.0211 3.90162 66.0211 3.90162 66.3775 4.40507C66.4666 4.53093 66.4666 4.53093 66.4666 4.53093C66.6448 4.53093 67.0012 4.40507 67.1794 4.40507C67.3576 4.40507 67.803 4.53093 67.803 4.40507C67.803 4.2792 68.4267 4.2792 68.6049 4.65679C68.6049 4.65679 68.6049 4.65679 68.9613 4.2792C69.0504 4.15334 69.0504 4.15334 69.0504 4.15334C69.3177 4.2792 69.6741 4.2792 69.8523 4.2792C70.0305 4.2792 70.476 4.40507 70.6542 4.40507C70.6542 4.40507 70.6542 4.40507 70.8323 4.40507C70.9214 4.40507 71.0996 4.40507 71.1887 4.40507C71.2778 4.40507 71.456 4.2792 71.5451 4.2792C71.6342 4.2792 71.6342 4.2792 71.6342 4.2792C71.7233 4.2792 71.9015 4.2792 72.0797 4.2792C72.2579 4.2792 72.6143 4.40507 72.8816 4.65679C72.8816 4.65679 72.8816 4.65679 72.8816 4.15334C72.9707 4.15334 73.5053 4.2792 73.8617 4.53093C73.8617 4.53093 73.8617 4.53093 74.218 4.53093C74.4853 4.53093 74.4853 4.53093 74.4853 4.53093C74.8417 4.2792 75.1981 4.15334 75.2872 4.02748C75.3763 4.02748 75.6436 4.15334 75.8218 4.53093C75.8218 4.53093 75.8218 4.53093 76.1782 4.40507C76.3564 4.2792 76.7128 4.2792 76.8019 4.40507C77.1582 4.53093 77.2474 3.77576 77.5146 3.90162C77.7819 4.02748 77.7819 4.02748 77.7819 4.02748C78.1383 4.02748 78.5838 4.15334 78.762 4.2792C78.762 4.2792 78.762 4.2792 78.8511 4.15334C79.2075 3.77576 79.2075 3.77576 79.2075 3.77576C79.653 4.02748 80.0094 4.15334 80.0985 4.02748C80.1876 3.90162 80.4549 3.77576 80.544 3.90162C80.633 4.02748 80.9003 4.40507 80.9003 4.40507C80.9003 4.40507 81.1676 4.2792 81.3458 4.15334C81.524 4.02748 82.5041 4.02748 82.7714 4.02748C83.0387 4.02748 83.8406 4.02748 84.1078 4.15334C84.3751 4.2792 84.9097 3.90162 85.0879 4.02748C85.6225 3.14645 85.6225 3.14645 85.6225 3.14645C86.4244 3.39817 87.1372 3.77576 87.3153 3.77576C87.4935 3.77576 87.8499 3.64989 87.8499 3.90162C87.8499 4.15334 88.5627 3.64989 88.7409 3.52403C88.9191 3.39817 89.2755 3.52403 89.4537 3.52403C89.5428 3.52403 89.8992 3.39817 89.9883 3.52403C89.9883 3.64989 90.1665 3.77576 90.2556 3.77576C90.3447 3.64989 90.701 3.39817 91.0574 3.39817C91.0574 3.39817 91.0574 3.39817 91.3247 3.52403L92.1266 3.90162C92.3048 3.77576 92.3048 3.77576 92.3048 3.77576C92.5721 3.52403 92.7503 3.52403 92.7503 3.52403C92.7503 3.64989 93.1067 3.90162 93.2849 4.02748C93.2849 4.02748 93.2849 4.02748 93.7304 3.52403C93.8195 3.52403 93.8195 3.52403 93.8195 3.52403C93.9086 3.52403 94.0867 3.64989 94.1758 3.64989C94.2649 3.77576 94.9777 3.64989 95.4232 3.52403C95.6014 3.27231 95.6014 3.27231 95.6014 3.27231C95.7796 3.39817 95.9578 3.77576 95.8687 4.15334C95.8687 4.15334 95.8687 4.15334 96.4033 3.77576C96.7597 3.52403 96.7597 3.52403 96.7597 3.52403C96.7597 3.90162 96.7597 4.02748 96.7597 3.77576C96.7597 3.52403 97.3833 3.90162 97.3833 3.90162C97.3833 3.90162 97.6506 3.77576 97.9179 3.77576C98.0961 3.77576 98.898 4.02748 99.1653 4.02748C99.4326 4.02748 99.8781 3.77576 99.9672 3.77576C100.056 3.77576 100.234 4.15334 100.324 4.15334C100.324 4.15334 100.413 4.02748 100.502 3.90162C100.591 3.77576 101.036 3.64989 101.215 3.77576C101.215 3.77576 101.215 3.77576 101.393 3.77576C101.482 3.77576 101.66 3.52403 101.66 3.64989C101.927 3.90162 101.927 3.90162 101.927 3.90162C102.195 3.77576 102.729 3.77576 103.086 3.90162C103.086 3.90162 103.086 3.90162 103.442 4.02748C103.531 4.02748 103.531 4.02748 103.531 4.02748C103.709 4.02748 103.887 3.90162 103.977 3.90162C104.066 3.77576 104.422 3.77576 104.6 3.64989C104.689 3.52403 105.491 3.77576 105.848 3.77576C105.848 3.77576 105.848 3.77576 106.204 3.77576C106.471 3.77576 106.471 3.77576 106.471 3.77576C106.828 3.90162 107.095 3.90162 107.184 3.90162C107.273 3.90162 107.63 3.64989 107.897 3.64989C107.897 3.64989 107.897 3.64989 108.075 3.77576C108.253 3.90162 108.431 4.2792 108.431 3.64989C108.431 3.64989 108.61 3.64989 108.699 3.64989C109.144 3.64989 109.679 3.90162 110.124 3.77576C110.481 3.64989 110.481 3.64989 110.481 3.64989C110.748 3.77576 111.015 3.90162 111.104 3.90162C111.193 3.90162 111.55 3.77576 111.728 3.77576C111.906 3.64989 113.064 3.77576 113.421 3.90162C113.777 4.02748 114.668 3.39817 114.846 3.39817C115.025 3.39817 115.826 3.27231 116.094 3.14645C116.361 3.02058 116.985 3.64989 116.985 3.64989C117.074 3.64989 117.43 3.27231 117.608 3.52403C117.608 3.52403 117.608 3.52403 117.787 3.52403C117.965 3.52403 118.232 3.27231 118.41 3.39817C118.767 3.52403 118.767 3.52403 118.767 3.52403C118.945 3.27231 119.212 3.14645 119.301 3.14645C119.301 3.14645 119.301 3.14645 119.39 3.27231C119.569 3.39817 119.569 3.39817 119.569 3.39817C119.747 3.52403 119.925 3.64989 120.014 3.52403C120.103 3.39817 120.281 3.27231 120.37 3.39817C120.37 3.52403 120.905 3.52403 120.994 3.39817C121.083 3.27231 121.44 3.14645 121.529 3.27231C121.618 3.39817 121.885 3.77576 121.885 3.77576C122.152 3.14645 122.509 3.64989 122.865 3.64989C123.043 3.64989 123.043 3.64989 123.043 3.64989C123.311 3.52403 123.489 3.52403 123.667 3.52403C123.756 3.52403 124.023 3.52403 124.202 3.64989C124.38 3.77576 125.093 3.52403 125.449 3.52403C125.449 3.52403 125.449 3.52403 125.805 3.39817C125.984 3.39817 126.251 3.64989 126.429 3.52403C126.785 3.39817 126.785 3.39817 126.785 3.39817C127.142 3.52403 127.587 3.52403 127.855 3.64989C127.855 3.64989 127.855 3.64989 128.122 3.64989C128.567 3.52403 128.567 3.52403 128.567 3.52403C129.102 3.52403 129.547 3.39817 129.637 3.39817C129.726 3.39817 129.993 3.64989 130.082 3.77576C130.171 4.02748 130.795 3.64989 130.884 3.77576C130.973 3.90162 131.24 4.02748 131.329 4.02748C131.329 3.90162 131.151 3.52403 131.151 3.52403C131.419 3.39817 131.419 3.39817 131.419 3.39817C131.508 3.64989 131.597 3.90162 131.686 4.02748C131.775 4.02748 131.953 3.90162 132.042 3.90162C132.131 3.77576 132.399 3.64989 132.488 3.77576C132.577 3.90162 132.844 3.77576 132.844 3.39817C132.844 3.39817 132.844 3.39817 133.29 3.64989C133.2 3.90162 133.379 4.02748 133.735 3.90162C134.002 3.77576 134.804 4.2792 134.804 4.2792C134.804 4.2792 134.804 4.2792 134.804 4.15334C134.804 3.64989 134.804 3.64989 134.804 3.64989C135.072 3.77576 135.339 3.90162 135.428 4.02748C135.517 4.15334 135.695 4.2792 135.784 4.15334C135.873 4.02748 136.052 3.77576 136.23 3.90162C136.408 4.02748 137.21 3.77576 137.388 3.77576C137.566 3.77576 138.19 4.15334 138.19 4.2792C138.19 4.40507 138.814 4.15334 138.903 4.02748C138.992 3.90162 139.437 3.77576 139.526 4.2792C139.526 4.2792 139.526 4.2792 139.972 4.15334C140.417 4.02748 139.705 3.64989 140.061 3.64989C140.417 3.64989 140.417 3.64989 140.417 3.64989C140.774 3.64989 141.665 3.64989 142.377 3.64989C142.377 3.64989 142.377 3.64989 143.001 3.64989C143.358 3.64989 143.625 3.64989 143.981 3.64989C144.249 3.64989 144.249 3.64989 144.249 3.64989C144.516 3.77576 144.961 3.52403 145.229 3.27231C145.229 3.27231 145.229 3.27231 145.496 3.77576C145.674 4.02748 145.674 4.02748 145.674 4.02748C145.674 3.77576 145.852 3.39817 146.03 3.27231C146.03 3.27231 146.03 3.27231 146.209 3.52403C146.387 3.90162 146.387 3.90162 146.387 3.90162C146.654 3.77576 147.011 3.64989 147.278 3.64989C147.545 3.64989 148.169 3.39817 148.347 3.27231C148.525 3.14645 149.149 3.52403 149.327 3.52403C149.505 3.52403 150.129 3.64989 150.307 3.64989C150.396 3.52403 150.842 3.39817 151.109 3.27231C151.109 3.27231 151.109 3.27231 151.287 3.14645C151.733 2.89472 151.733 2.89472 151.733 2.89472C151.911 3.27231 152.089 3.39817 152.089 3.27231C152.089 3.14645 152.356 2.76886 152.624 2.89472C152.891 3.02058 153.693 3.27231 153.871 3.27231C154.138 3.27231 154.94 2.76886 155.386 2.76886C155.386 2.76886 155.386 2.76886 155.742 2.76886C156.098 2.76886 156.455 2.643 156.9 2.76886C157.168 2.76886 157.168 2.76886 157.168 2.76886C157.346 2.643 157.702 2.643 157.97 2.643C157.97 2.643 157.97 2.643 158.059 2.51714C158.415 2.26541 158.504 2.39127 158.593 2.76886C158.771 2.76886 159.306 2.51714 159.662 2.13955C159.662 2.13955 159.662 2.13955 160.197 2.643C160.286 2.643 160.286 2.643 160.286 2.643C160.375 2.643 160.375 2.51714 160.375 2.39127C160.375 2.26541 161.088 2.39127 161.266 2.51714C161.444 2.643 162.068 2.51714 162.246 2.51714C162.424 2.51714 162.959 2.26541 163.137 2.26541C163.315 2.26541 163.85 2.01369 164.117 2.13955C164.385 2.26541 165.365 2.13955 165.543 2.13955C165.632 2.26541 165.988 2.51714 165.988 2.39127C165.988 2.26541 166.166 2.13955 166.256 2.39127C166.256 2.39127 166.256 2.39127 166.345 2.39127C166.523 2.51714 166.523 2.51714 166.523 2.51714C166.701 2.51714 167.236 2.39127 167.592 2.39127C167.592 2.39127 167.592 2.39127 167.77 2.26541C168.038 2.01369 168.038 2.01369 168.038 2.01369C168.216 2.13955 168.483 2.26541 168.572 2.26541C168.661 2.26541 168.928 2.13955 169.018 2.01369C169.107 2.01369 169.641 2.13955 169.909 2.26541C170.176 2.39127 170.978 2.01369 171.067 2.01369C171.156 2.01369 171.512 2.51714 171.512 2.39127C171.512 2.26541 171.78 1.88783 172.047 1.88783C172.047 1.88783 172.047 1.88783 172.225 1.88783C172.492 1.88783 172.492 1.88783 172.492 1.88783C172.76 2.01369 173.205 2.13955 173.472 2.13955C173.74 2.13955 174.363 1.76196 174.542 1.76196C174.72 1.76196 175.165 1.88783 175.165 1.76196C175.165 1.6361 175.344 1.25851 175.344 1.25851C175.611 1.6361 175.878 2.01369 176.324 1.51024C176.502 1.38438 176.502 1.38438 176.502 1.38438C176.769 1.51024 177.125 1.51024 177.215 1.51024C177.304 1.51024 177.749 1.6361 177.838 1.6361C177.838 1.6361 177.838 1.6361 177.927 1.6361C178.195 1.51024 178.195 1.51024 178.195 1.51024C178.551 1.38438 178.996 1.38438 179.264 1.38438C179.264 1.38438 179.264 1.38438 179.531 1.38438C179.709 1.38438 179.709 1.38438 179.709 1.38438C179.977 1.13265 180.244 1.00679 180.333 1.13265C180.422 1.25851 180.689 1.51024 180.778 1.38438C180.868 1.25851 181.402 1.00679 181.491 1.13265C181.58 1.25851 182.026 1.51024 182.471 1.51024C182.471 1.51024 182.471 1.51024 182.739 1.6361C183.006 1.76196 183.006 1.76196 183.006 1.76196C183.184 1.6361 183.54 1.51024 183.808 1.51024C183.808 1.51024 183.808 1.51024 183.986 1.38438C184.075 1.38438 184.075 1.38438 184.075 1.38438C184.253 1.38438 184.699 1.25851 185.144 1.13265C185.144 1.13265 185.144 1.13265 185.59 1.51024C185.857 1.76196 185.857 1.76196 185.857 1.76196C186.302 1.76196 186.659 1.51024 186.659 1.25851C186.659 1.00679 187.193 1.13265 187.372 1.25851C187.461 1.38438 187.995 1.38438 188.174 1.38438C188.352 1.38438 188.797 1.13265 188.797 1.13265C188.797 1.13265 188.975 1.25851 189.064 1.38438C189.154 1.51024 189.866 1.6361 189.777 1.51024C189.688 1.38438 189.688 1.25851 190.045 1.38438C190.045 1.38438 190.045 1.38438 190.401 1.00679C190.579 0.880929 191.025 1.00679 191.292 1.00679C191.559 1.00679 191.559 1.00679 191.559 1.00679C191.737 1.25851 191.916 1.38438 192.005 1.38438C192.094 1.38438 192.539 1.38438 192.985 1.51024C192.985 1.51024 192.985 1.51024 193.252 1.00679C193.341 0.880929 193.341 0.880929 193.341 0.880929C193.787 1.13265 194.054 1.13265 194.054 1.00679C194.054 0.880929 193.965 0.503342 193.965 0.503342C193.965 0.503342 194.321 0.37748 194.589 0.37748C194.856 0.37748 195.658 0.629205 195.747 0.629205C195.747 0.629205 195.747 0.629205 195.836 0.629205C196.103 0.755067 196.103 0.755067 196.103 0.755067C196.46 0.755067 196.816 0.755067 196.994 0.880929C197.172 1.00679 197.707 0.37748 198.063 -0.000105888C198.063 -0.000105888 198.063 -0.000105888 198.42 0.125756C198.865 0.37748 198.865 0.37748 198.865 0.37748C199.132 0.125756 199.311 -0.125968 199.4 -0.125968C199.489 -0.125968 199.578 -0.125968 199.667 -0.25183C199.756 -0.377692 200.202 -0.125968 200.38 -0.000105888C200.469 0.125756 201.004 0.251618 200.914 -0.000105888C200.825 -0.25183 201.36 -0.000105888 201.449 -0.125968C201.538 -0.25183 201.984 -0.125968 202.073 -0.000105888C202.251 0.125756 202.785 0.125756 202.785 -0.000105888C202.785 -0.125968 203.231 -0.25183 204.033 -0.25183C204.033 -0.25183 204.033 -0.25183 204.3 -0.000105888C204.835 0.503342 204.835 0.503342 204.835 0.503342C204.924 -0.000105917 205.102 -0.125968 205.369 0.125756C205.369 0.125756 205.369 0.125756 205.815 -0.125968C206.349 -0.377692 206.973 -0.25183 207.508 0.125756C207.686 0.251618 208.042 0.503342 208.399 0.251618C208.577 0.125756 209.022 0.37748 209.29 0.629205C209.468 0.755067 208.933 0.880929 209.29 1.00679C209.379 1.00679 209.557 0.755067 209.646 0.880929C209.824 0.880929 210.181 1.00679 210.181 1.13265C210.359 1.6361 210.359 1.6361 210.359 1.6361C210.804 1.76196 211.339 2.01369 211.606 2.13955C211.873 2.26541 212.764 2.39127 212.853 2.39127C213.032 2.39127 213.477 2.51714 213.655 2.51714C213.744 2.51714 214.012 2.39127 214.012 2.643C214.012 2.89472 214.546 2.51714 214.635 2.51714C214.725 2.51714 215.17 2.51714 215.437 2.51714C215.794 2.51714 216.596 3.02058 216.685 3.02058C216.774 3.02058 217.041 3.02058 217.041 3.14645C217.041 3.27231 217.308 3.64989 217.665 3.52403C218.021 3.39817 219.001 3.90162 219.358 4.02748C219.358 4.02748 219.358 4.02748 219.447 4.65679C219.536 4.90851 220.07 5.03438 220.159 5.53783C220.249 5.78955 220.249 5.78955 220.249 5.78955C220.605 6.04127 220.961 6.16714 221.05 6.16714C221.14 6.16714 221.229 6.41886 221.14 6.67058C221.496 6.79645 221.496 6.79645 221.496 6.79645C221.407 7.04817 221.318 7.55162 221.318 7.80334C221.318 7.80334 221.318 7.80334 221.318 8.05507C221.407 8.55852 221.407 8.55852 221.407 8.55852C221.496 9.18783 221.674 9.69127 221.763 9.69127C221.763 9.69127 221.763 9.69127 221.852 9.69127C221.941 9.69127 221.941 9.69127 221.941 9.69127C222.03 9.69127 222.12 9.69127 222.12 9.81714C222.12 9.943 221.941 10.0689 221.763 10.1947C221.763 10.1947 221.763 10.1947 221.585 10.3206C221.585 10.3206 221.585 10.4464 221.585 10.5723C221.585 10.5723 221.674 10.5723 221.763 10.5723L221.852 10.4464C222.03 10.4464 222.03 10.4464 222.03 10.4464C222.209 10.4464 222.387 10.4464 222.387 10.5723C222.387 10.6982 222.565 11.0758 222.743 11.3275C222.743 11.3275 222.743 11.3275 222.921 11.5792C223.011 11.7051 223.011 11.7051 223.011 11.7051C223.011 12.0827 222.832 12.2085 222.565 12.0827C222.298 11.9568 221.674 12.0827 221.852 12.712C222.12 13.4671 222.12 15.3551 221.941 15.3551C221.674 15.4809 221.14 15.7327 221.229 15.7327C221.318 15.7327 221.585 15.9844 221.763 16.2361C221.763 16.2361 221.763 16.2361 221.852 16.4878C222.12 17.1171 222.209 16.1102 222.476 16.4878C222.565 16.6137 222.565 16.6137 222.565 16.6137C222.832 16.7395 223.011 16.9913 222.921 17.243C222.832 17.4947 223.1 18.5016 223.189 19.0051C223.189 19.0051 223.189 19.0051 223.011 19.5085C222.832 20.012 223.189 20.893 223.634 20.893C223.991 20.893 223.991 20.893 223.991 20.893C224.436 21.0189 224.614 21.1447 224.436 21.1447C224.258 21.1447 223.634 21.3964 223.634 21.5223C223.634 21.6482 223.812 22.2775 224.08 22.1516C224.08 22.1516 224.08 22.1516 224.347 22.1516C224.525 22.1516 224.525 22.1516 224.525 22.1516C224.703 22.1516 224.882 22.1516 225.06 22.2775C225.238 22.4033 225.951 22.2775 226.218 22.2775C226.574 22.2775 226.931 23.2844 226.931 23.4102C226.931 23.4102 226.931 23.4102 226.753 23.4102C226.396 23.2844 226.218 23.662 226.307 24.0396C226.396 24.2913 226.485 24.543 226.664 24.6689C227.02 24.9206 227.02 24.9206 227.02 24.9206C227.02 25.424 227.109 25.6758 227.198 25.5499C227.198 25.5499 227.198 25.5499 227.287 25.5499C227.376 25.5499 227.555 25.5499 227.644 25.6758C227.733 25.8016 227.733 25.9275 227.644 26.0533C227.465 26.3051 227.287 26.5568 226.931 26.4309C226.842 26.4309 226.753 26.5568 226.753 26.6827C226.753 26.8085 226.842 26.9344 226.931 26.9344C227.198 27.0602 227.198 27.0602 227.198 27.0602C227.465 27.1861 227.465 27.4378 227.198 27.6896C227.198 27.6896 227.198 27.6896 226.931 27.6896C226.664 27.6896 226.664 27.6896 226.664 27.6896C226.307 27.4378 226.04 27.5637 226.04 27.9413C226.04 27.9413 226.04 27.9413 225.951 28.193C225.862 28.5706 225.862 28.5706 225.862 28.5706C225.594 28.6964 225.149 28.8223 224.971 28.8223C224.792 28.8223 224.792 29.5775 224.971 30.0809C225.06 30.4585 225.327 31.843 225.149 31.9689C224.971 32.0947 225.149 32.8499 225.238 32.9758C225.327 33.1016 225.505 33.6051 225.416 33.6051C225.416 33.6051 225.416 33.6051 225.238 33.7309C225.06 33.8568 224.882 33.3533 224.703 33.7309C224.525 33.7309 224.258 33.6051 224.08 33.4792C223.902 33.3533 223.1 33.6051 222.832 33.6051C222.476 33.7309 221.496 33.3533 221.229 33.1016C220.961 32.9758 219.981 32.9758 219.803 32.9758C219.625 32.9758 219.09 32.5982 219.001 32.724C218.912 32.8499 218.823 33.3533 218.823 33.6051C218.823 33.8568 219.447 33.9827 219.625 33.9827C219.625 33.9827 219.625 33.9827 219.714 34.1085C219.892 34.2344 219.714 34.7378 220.159 34.612C220.249 34.612 220.249 34.612 220.249 34.612C220.338 34.8637 220.605 34.9896 220.783 34.7378C220.783 34.7378 220.783 34.7378 220.783 35.3671C220.783 35.493 220.783 35.493 220.783 35.493C221.05 35.6189 221.407 35.6189 221.674 35.6189C221.674 35.6189 221.674 35.6189 221.763 35.9964C221.763 36.2482 221.763 36.2482 221.763 36.2482C221.852 36.6258 221.763 36.7516 221.674 36.6258C221.585 36.4999 221.05 36.4999 220.961 36.4999C220.872 36.6258 220.516 36.7516 220.338 36.4999C220.159 36.374 219.625 35.7447 219.625 35.8706C219.714 36.2482 219.981 36.6258 219.981 37.0033C219.892 37.3809 219.892 37.3809 219.892 37.3809C219.536 37.8844 219.358 38.262 219.536 38.3878C219.625 38.5137 220.07 38.5137 220.249 38.262C220.249 38.262 220.249 38.262 220.338 38.0102C220.427 37.8844 220.427 37.8844 220.427 37.8844C220.427 37.6327 220.516 37.5068 220.516 37.5068C220.783 37.8844 220.783 37.8844 220.783 37.8844C221.05 37.6327 221.407 37.5068 221.496 37.6327C221.585 37.6327 221.585 38.0102 221.229 38.3878C221.229 38.3878 221.229 38.3878 221.407 38.8913C221.496 39.0171 221.496 39.0171 221.496 39.0171C221.763 38.8913 222.03 39.143 222.12 39.6465C222.209 40.024 222.387 40.5275 222.387 40.5275C222.387 40.5275 222.03 40.6533 221.852 40.4016C221.852 40.4016 221.852 40.4016 221.674 40.2758C221.585 40.2758 221.407 40.4016 221.407 40.5275C221.318 40.6533 221.318 41.0309 221.407 41.1568C221.496 41.2827 222.03 41.4085 221.941 41.5344C221.852 41.6602 221.407 42.1637 221.496 42.2895C221.585 42.4154 221.763 42.793 221.852 42.6671C221.852 42.6671 221.852 42.6671 221.941 42.6671C222.209 42.5413 222.476 42.9189 222.743 43.5482C222.832 43.7999 222.832 43.7999 222.832 43.7999C222.654 44.0516 222.565 44.3033 222.476 44.4292C222.387 44.4292 222.387 44.6809 222.565 44.8068C222.565 44.8068 222.565 44.8068 222.654 44.8068C223.011 44.8068 223.1 44.9327 222.921 45.3102C222.921 45.4361 222.832 45.562 222.832 45.562C223.011 45.6878 223.011 45.6878 223.011 45.6878C223.011 45.9395 222.743 46.0654 222.565 45.9395C222.565 45.9395 222.565 45.9395 222.476 45.6878C222.476 45.562 222.476 45.562 222.476 45.562C222.03 45.562 222.03 45.6878 222.476 45.9395C222.476 45.9395 222.476 45.9396 222.298 46.443C222.209 46.6947 222.209 46.6947 222.209 46.6947C222.12 47.0723 222.12 47.324 222.209 47.4499C222.298 47.5758 222.476 48.0792 222.387 48.3309C222.298 48.5827 221.674 48.8344 221.674 48.9602C221.674 48.9602 221.674 48.9602 221.763 49.0861C221.852 49.3378 221.852 49.3378 221.852 49.3378C221.941 49.7154 221.941 49.8413 221.852 49.7154C221.763 49.5896 221.318 49.4637 221.229 49.5896C221.14 49.5896 220.694 49.5896 220.516 49.5896C220.338 49.5896 219.981 49.5896 220.07 49.7154C220.159 49.8413 220.427 50.093 220.516 50.2189C220.605 50.3447 221.05 50.093 221.05 50.093C221.05 50.093 221.14 50.2189 221.14 50.4706C221.14 50.7223 221.763 50.4706 221.852 50.4706C221.941 50.4706 222.12 50.5964 221.941 50.7223C221.763 50.8482 221.229 51.0999 221.14 50.974C221.14 50.8482 220.872 50.7223 220.783 50.7223C220.694 50.7223 220.427 51.3516 220.338 51.3516C220.249 51.3516 219.892 51.6033 219.803 51.9809C219.803 51.9809 219.803 51.9809 219.892 52.3585C219.981 52.7361 220.159 52.862 220.427 52.9878C220.516 52.9878 220.516 52.9878 220.516 52.9878C220.605 53.1137 220.605 53.3654 220.427 53.4913C220.338 53.743 219.803 54.1206 219.714 54.2464C219.625 54.3723 219.625 54.7499 219.625 54.7499C219.536 54.7499 219.447 55.0016 219.447 55.0016C219.447 55.0016 219.447 55.2533 219.625 55.3792C219.714 55.5051 219.981 56.1344 219.981 56.512C219.981 56.512 219.981 56.512 219.803 56.7637C219.447 57.2671 219.536 57.6447 220.07 57.8964C220.516 58.1482 220.516 58.1482 220.516 58.1482C220.249 58.5258 219.981 59.0292 219.803 59.2809C219.714 59.5326 219.358 59.7844 219.625 59.7844C219.625 59.7844 219.625 59.7844 219.625 60.2878C219.625 60.5396 219.625 60.5395 219.625 60.5395C219.625 60.7913 219.714 61.2947 219.714 61.5464C219.714 61.5464 219.714 61.5464 219.892 61.6723C220.07 61.924 220.07 61.924 220.07 61.924C219.981 62.1758 219.892 62.6792 219.803 62.9309C219.803 62.9309 219.803 62.9309 219.981 63.1827C220.427 63.9378 220.427 63.9378 220.427 63.9378C220.07 64.3154 219.714 64.5671 219.714 64.5671C219.714 64.5671 219.981 65.3223 220.427 66.0775C220.427 66.0775 220.427 66.0775 220.783 66.8326C220.872 67.0844 220.872 67.0844 220.872 67.0844C220.694 66.9585 220.516 66.9585 220.427 66.9585C220.427 66.9585 220.249 66.9585 220.07 67.0844C219.892 67.2102 219.536 67.462 219.447 67.462C219.358 67.462 218.912 67.5878 218.734 67.7137C218.734 67.7137 218.734 67.7137 218.556 67.8396C218.288 67.9654 218.288 67.9654 218.288 67.9654C218.021 67.9654 217.308 68.0913 216.774 68.2171C216.239 68.343 214.368 68.5947 214.012 68.7206C214.012 68.7206 214.012 68.7206 213.744 68.7206C213.477 68.7206 213.477 68.7206 213.477 68.7206C213.121 68.8464 212.408 68.9723 211.695 68.9723C211.695 68.9723 211.695 68.9723 211.072 68.9723C210.804 68.9723 210.804 68.9723 210.804 68.9723C210.537 69.0982 210.091 69.4758 209.824 69.7275C209.824 69.7275 209.824 69.7275 209.557 69.224C209.557 69.0982 209.022 69.3499 209.022 69.3499C208.844 68.8464 208.577 69.7275 208.399 69.224C208.309 69.0982 208.31 69.0982 208.31 69.0982C207.953 69.3499 207.597 69.4758 207.419 69.4758C207.151 69.7275 207.151 69.7275 207.151 69.7275C206.795 69.7275 206.349 69.7275 206.171 69.8533C205.993 69.9792 205.369 69.7275 205.28 69.7275C205.102 69.7275 204.389 69.8533 204.033 69.8533C203.676 69.8533 202.607 70.2309 202.518 70.1051C202.429 69.9792 201.805 70.3568 201.449 70.4827C201.449 70.4827 201.449 70.4827 201.182 70.3568C200.825 70.2309 200.825 70.2309 200.825 70.2309C200.38 70.3568 199.934 70.3568 199.667 70.4827C199.4 70.4827 198.865 70.7344 198.865 70.6085C198.865 70.4827 198.42 70.6085 198.152 70.8602C197.885 71.112 196.994 70.7344 196.816 70.8602C196.816 70.8602 196.816 70.8602 196.727 70.7344C196.37 70.4827 196.37 70.4827 196.37 70.4827C196.103 70.7344 195.569 70.8602 195.212 70.7344C195.212 70.7344 195.212 70.7344 194.945 70.8602C194.678 70.9861 194.678 70.9861 194.678 70.9861C194.41 70.8602 193.876 70.7344 193.519 70.8602C193.519 70.8602 193.519 70.8602 193.252 70.8602C192.985 70.8602 192.985 70.8602 192.985 70.8602C192.628 70.9861 192.183 70.9861 191.916 70.7344C191.916 70.7344 191.916 70.7344 191.559 70.9861C191.292 71.112 191.292 71.112 191.292 71.112C190.936 71.112 190.223 71.112 189.777 71.2378C189.777 71.2378 189.777 71.2378 189.243 71.112C188.886 70.9861 188.886 70.9861 188.886 70.9861C188.441 71.112 187.995 71.3637 187.817 71.3637C187.639 71.3637 187.193 71.2378 187.104 71.2378C187.015 71.3637 186.481 71.2378 186.213 71.2378C185.946 71.2378 185.144 71.4895 185.055 71.3637C185.055 71.2378 184.966 71.2378 184.966 71.4895C184.966 71.7413 184.342 71.2378 184.253 71.2378C184.164 71.2378 183.54 71.2378 183.273 71.3637C183.006 71.4895 182.293 71.2378 182.115 71.3637C181.937 71.3637 181.224 71.2378 180.957 71.2378C180.689 71.2378 179.798 71.2378 179.531 71.2378C179.264 71.112 178.551 71.6154 178.462 71.6154C178.373 71.6154 177.927 71.4895 177.838 71.4895C177.66 71.4895 177.304 71.4895 176.947 71.4895C176.591 71.4895 175.7 71.3637 175.611 71.3637C175.522 71.3637 175.254 71.4895 175.165 71.3637C175.076 71.2378 174.363 71.3637 174.096 71.4895C173.829 71.4895 172.938 71.6154 172.581 71.8671C172.581 71.8671 172.581 71.8671 172.136 71.4895C171.869 71.2378 171.869 71.2378 171.869 71.2378C171.334 71.2378 170.621 71.3637 170.176 71.4895C170.176 71.4895 170.176 71.4895 169.73 71.2378C169.641 71.2378 169.641 71.2378 169.641 71.2378C169.463 71.4895 169.107 71.6154 168.839 71.3637C168.572 71.112 167.503 71.4896 166.968 71.6154C166.434 71.7413 165.097 71.2378 165.008 71.2378C164.919 71.2378 164.474 71.3637 164.028 71.3637C164.028 71.3637 164.028 71.3637 163.583 71.112C163.315 70.9861 163.315 70.9861 163.315 70.9861C163.137 71.3637 162.87 71.4895 162.692 71.3637C162.513 71.2378 161.979 70.9861 161.801 71.112C161.623 71.2378 161.177 71.6154 161.088 71.4895C160.999 71.3637 160.464 71.112 160.019 71.112C160.019 71.112 160.019 71.112 159.751 71.2378C159.395 71.3637 159.128 71.3637 158.86 71.2378C158.593 70.9861 158.593 70.9861 158.593 70.9861C158.326 71.112 158.059 71.2378 157.97 71.2378C157.88 71.2378 157.346 70.9861 157.257 70.9861C157.168 70.9861 156.633 71.112 156.544 71.2378C156.366 71.3637 155.92 71.2378 155.742 71.2378C155.564 71.2378 155.029 71.2378 154.851 71.2378C154.673 71.2378 154.227 71.112 154.227 70.9861C154.227 70.8602 154.138 70.4827 154.049 70.4827C153.96 70.4827 153.782 70.6085 153.782 70.4827C153.782 70.3568 153.426 70.2309 153.336 70.3568C153.336 70.3568 153.336 70.3568 153.247 70.6085C153.158 70.7344 152.891 70.8602 152.713 70.9861C152.178 71.3637 152.178 71.3637 151.644 70.8602C151.555 70.7344 151.555 70.7344 151.555 70.7344C151.465 70.6085 151.198 70.7344 151.109 70.8602C151.02 70.9861 150.485 71.2378 150.307 70.9861C150.129 70.8602 149.683 70.4827 149.683 70.6085C149.683 70.7344 149.416 71.2378 149.149 71.2378C148.882 71.2378 147.723 71.112 146.921 71.3637C146.921 71.3637 146.921 71.3637 146.12 70.9861C145.229 71.7413 145.229 71.7413 145.229 71.7413C144.783 71.993 144.427 72.1189 144.338 71.993C144.249 71.8671 143.892 72.1189 143.803 72.1189C143.803 72.1189 143.358 72.2447 143.001 72.1189C142.645 72.1189 141.576 71.8671 141.487 71.8671C141.397 71.8671 140.863 72.1189 140.685 72.2447C140.506 72.3706 139.705 72.3706 139.348 72.6223C139.348 72.6223 139.348 72.6223 138.903 72.1189C138.635 71.8671 138.635 71.8671 138.635 71.8671C138.368 71.993 138.012 71.993 137.834 71.8671C137.655 71.7413 137.121 72.2447 136.943 72.2447C136.764 72.2447 136.23 71.993 136.23 71.8671C136.23 71.7413 135.962 71.4895 135.695 71.7413C135.695 71.7413 135.695 71.7413 135.517 71.993C135.339 72.2447 135.339 72.2447 135.339 72.2447C135.072 72.1189 134.804 72.1189 134.715 72.1189C134.626 72.2447 134.27 72.2447 134.27 72.1189C134.27 71.993 134.181 71.8671 134.091 72.3706C134.091 72.3706 134.091 72.3706 133.735 72.1189C133.557 71.993 133.557 71.993 133.557 71.993C133.379 72.1189 133.111 72.1189 133.022 72.1189C132.933 72.1189 132.399 71.8671 132.309 71.993C132.131 71.993 131.597 71.993 131.419 71.8671C131.24 71.7413 130.706 71.8671 130.438 71.7413C130.438 71.7413 130.438 71.7413 130.171 71.7413C130.082 71.7413 129.904 71.8671 129.815 71.8671C129.637 71.6154 129.547 71.8671 129.369 71.8671C129.28 71.8671 129.102 71.7413 129.013 71.6154C129.013 71.6154 128.835 71.7413 128.835 71.8671C128.835 71.993 128.835 71.993 128.835 71.993C128.924 72.1189 128.924 72.1189 128.924 72.2447C128.924 72.2447 128.746 72.2447 128.567 72.2447C128.478 72.2447 127.944 72.2447 127.766 72.3706C127.766 72.3706 127.766 72.3706 127.587 72.3706C127.231 72.3706 126.875 72.1189 126.696 72.2447C126.34 72.4965 126.34 72.4964 126.34 72.4964C126.073 72.3706 125.716 72.2447 125.627 72.2447C125.449 72.2447 125.004 72.4964 124.914 72.6223C124.825 72.7482 124.647 72.2447 124.647 72.1189C124.647 72.1189 124.291 72.1189 124.023 72.1189C123.756 72.1189 122.598 72.3706 122.331 72.3706C122.063 72.3706 121.44 71.6154 121.351 71.7413C121.261 71.8671 121.083 72.3706 120.638 72.4964C120.281 72.4964 118.856 71.993 118.232 71.7413C118.232 71.7413 118.232 71.7413 117.698 72.3706C117.519 72.4964 117.519 72.4964 117.519 72.4964C117.163 72.3706 116.807 72.2447 116.717 72.2447C116.628 72.1189 116.272 72.2447 116.094 72.2447C115.916 72.1189 115.381 72.3706 115.292 72.4964C115.203 72.4964 114.757 72.4964 114.401 72.3706C114.045 72.2447 112.886 72.4964 112.352 72.6223C112.352 72.6223 112.352 72.6223 111.906 72.2447C111.906 72.2447 110.837 72.6223 110.748 72.6223C110.659 72.7482 110.659 72.7482 110.57 72.7482C110.302 72.874 110.302 72.874 110.302 72.874C110.035 72.7482 109.857 72.4964 109.857 72.3706C109.857 72.2447 109.768 71.8671 109.679 71.8671C109.59 71.8671 109.322 71.993 109.411 72.1189C109.411 72.1189 109.411 72.1189 109.411 72.2447C109.411 72.3706 109.411 72.3706 109.411 72.3706C109.411 72.6223 109.144 72.7482 108.877 72.7482C108.877 72.7482 108.877 72.7482 108.61 72.7482C108.431 72.7482 108.431 72.7482 108.431 72.7482C108.253 72.874 107.808 72.874 107.54 72.874C107.273 72.874 106.382 72.7482 106.204 72.7482C106.026 72.874 105.491 72.6223 105.313 72.7482C105.135 72.874 104.6 72.6223 104.511 72.7482C104.511 72.7482 104.511 72.7482 104.422 72.7482C103.977 72.874 103.62 72.7482 103.175 72.6223C102.818 72.4964 102.818 72.4964 102.818 72.4964C102.284 72.4964 101.749 72.4964 101.571 72.4964C101.393 72.4964 101.215 71.993 101.036 72.3706C101.036 72.3706 101.036 72.3706 100.947 72.4964C100.858 72.6223 100.858 72.6223 100.858 72.6223C100.769 72.7482 100.502 72.874 100.234 72.9999C99.9672 73.1258 99.0762 72.6223 98.898 72.6223C98.7198 72.6223 98.4525 72.6223 98.3634 72.6223C98.2743 72.6223 97.8288 72.6223 97.7397 72.6223C97.6506 72.6223 97.027 72.6223 96.7597 72.6223C96.4924 72.6223 95.7796 72.3706 95.7796 72.2447C95.7796 72.1189 95.6014 72.3706 95.4232 72.7482C95.4232 72.7482 95.4232 72.7482 94.9777 72.3706C94.8886 72.2447 94.5322 72.7482 94.2649 72.7482C93.9977 72.7482 93.9976 72.7482 93.9976 72.7482C93.7304 72.6223 93.2849 72.7482 93.0176 73.1258C93.0176 73.1258 93.0176 73.1258 92.6612 72.7482C92.483 72.4964 92.483 72.4964 92.483 72.4964C92.1266 72.3706 91.7702 72.2447 91.6811 72.3706C91.592 72.4964 91.3247 72.874 91.2356 72.6223C91.1465 72.4964 90.7901 72.2447 90.6119 72.4964C90.6119 72.4964 90.6119 72.4964 90.4338 72.6223C90.3447 72.6223 90.0774 72.6223 90.0774 72.6223C90.0774 71.993 90.0774 71.993 90.0774 71.993C89.6319 71.8671 89.1864 71.8671 89.1864 71.993C89.1864 72.2447 88.9191 72.4964 88.6518 72.4964C88.6518 72.4964 88.6518 72.4964 88.4736 72.6223C88.2954 72.6223 88.2063 72.874 88.2063 72.4964C88.2063 72.1189 87.939 72.1189 87.8499 72.2447C87.4044 72.6223 86.959 72.3706 86.5135 72.4964C86.1571 72.4964 86.1571 72.4964 86.1571 72.4964C85.8007 72.6223 85.4443 72.6223 85.4443 72.6223C85.4443 72.6223 85.4443 72.6223 85.3552 72.6223C84.9988 72.4964 84.9988 72.4964 84.9988 72.4964C84.4642 72.3706 84.1969 72.2447 84.3751 72.1189C84.5533 71.993 84.1969 71.6154 84.1969 71.4895C84.1969 71.3637 83.9296 71.2378 83.9296 71.4895C83.9296 71.7413 83.7515 72.4964 83.5733 72.3706C83.5733 72.3706 83.5733 72.3706 83.4842 72.2447C83.306 72.1189 83.306 72.1189 83.306 72.1189C83.2169 71.8671 82.8605 71.7413 82.6823 71.8671C82.5041 71.993 81.7913 72.1189 81.7022 71.993C81.6131 71.7413 81.2567 71.3637 81.0785 71.6154C81.0785 71.6154 81.0785 71.6154 81.0785 71.8671C81.0785 72.4964 81.0785 72.4964 81.0785 72.4964C80.8112 72.4964 80.2767 72.4964 80.0094 72.3706C79.7421 72.2447 78.8511 72.3706 78.762 72.3706C78.6729 72.3706 78.4056 72.2447 78.2274 72.1189C78.0492 71.993 77.3364 72.1189 77.0692 72.2447C77.0692 72.2447 77.0692 72.2447 76.891 72.1189C76.7128 71.993 76.7128 71.993 76.7128 71.993C76.5346 71.6154 76.2673 71.3637 76.0891 71.4895C75.9109 71.6154 75.4654 71.993 75.4654 72.1189C75.4654 72.1189 75.4654 72.1189 75.4654 72.2447C75.4654 72.3706 75.4654 72.3706 75.4654 72.3706C75.4654 72.4964 75.3763 72.4964 75.2872 72.4964C75.1981 72.4964 75.0199 72.2447 74.8417 71.993C74.6635 71.7413 74.1289 72.2447 74.0398 72.2447C73.9508 72.2447 73.5944 72.1189 73.4162 72.1189C73.4162 72.1189 73.4162 72.1189 73.4162 71.993C73.3271 71.6154 73.3271 71.6154 73.3271 71.6154C73.5944 71.6154 73.9508 71.6154 74.1289 71.6154C74.3071 71.6154 74.3962 70.8602 74.218 70.8602C74.0398 70.8602 73.4162 70.8602 73.4162 71.112C73.4162 71.112 73.4162 71.112 73.3271 71.3637C73.238 71.6154 73.0598 71.993 72.8816 71.993C72.4361 71.993 72.7925 71.4895 72.6143 71.2378C72.6143 71.2378 72.347 71.3637 72.1688 71.7413C71.9906 71.993 71.0105 71.993 70.7432 71.993C70.476 71.993 70.1196 71.3637 70.0305 71.6154C69.9414 71.8671 70.5651 72.1189 70.6542 72.1189C70.6542 72.1189 70.7432 72.3706 70.6542 72.4964C70.6542 72.4964 70.6541 72.4964 70.565 72.4964C70.3869 72.4964 70.3869 72.4964 70.3869 72.4964C70.2087 72.3706 69.8523 72.1189 69.585 71.7413C69.585 71.7413 69.585 71.7413 69.4959 70.6085C69.4959 70.4827 69.1395 70.2309 69.1395 70.2309C68.3376 70.9861 68.6049 70.1051 68.5158 69.7275C68.4267 69.6016 68.3376 69.7275 68.3376 69.9792C68.3376 70.2309 68.1594 70.7344 67.9812 70.4827C67.803 70.2309 67.5357 71.2378 67.4466 71.3637C67.3575 71.4895 67.0903 72.1189 67.0012 72.1189C66.9121 72.1189 66.2884 72.1189 65.8429 72.1189C65.8429 72.1189 65.8429 72.1189 65.3974 72.1189C65.3083 72.1189 65.3083 72.1189 65.3083 72.1189C65.2192 72.1189 65.1301 72.1189 65.1301 71.993C65.1301 71.8671 65.1301 71.6154 65.1301 71.4895C65.1301 71.3637 65.4865 70.8602 65.6647 70.9861C65.6647 70.9861 65.6647 70.9861 65.8429 70.9861C66.0211 70.9861 66.0211 70.9861 66.0211 70.9861C66.1102 71.112 66.3775 71.2378 66.6448 71.3637C66.6448 71.3637 66.6448 71.3637 66.823 71.3637C66.9121 71.3637 67.0903 71.3637 67.0903 71.2378C67.1794 70.9861 67.1794 70.9861 67.1794 70.9861C67.2685 70.6085 67.5357 70.3568 67.7139 70.3568C67.7139 70.3568 67.7139 70.3568 67.803 70.2309C67.9812 69.9792 67.9812 69.6016 68.0703 69.4758C68.4267 69.0982 68.4267 69.0982 68.4267 69.0982C68.2485 68.8465 67.9812 68.5947 67.8921 68.4689C67.803 68.4689 67.4466 68.5947 67.4466 68.9723C67.4466 69.3499 67.1794 70.3568 66.9121 70.3568C66.9121 70.3568 66.9121 70.3568 66.7339 70.6085C66.5557 70.8602 66.3775 70.9861 66.0211 70.7344C65.8429 70.9861 65.8429 70.9861 65.8429 70.9861ZM68.694 68.0913C68.5158 67.9654 68.2485 67.9654 68.2485 67.9654C68.2485 67.9654 68.2485 68.2171 68.4267 68.343C68.5158 68.4689 69.2286 68.5947 69.585 68.343C69.585 68.343 69.585 68.343 69.9414 68.7206C69.9414 68.7206 70.1196 68.7206 70.1196 68.5947C70.2087 68.4689 70.2087 68.4689 70.2087 68.4689C70.3869 68.2171 70.3869 67.9654 70.1196 67.9654C69.8523 67.9654 68.9613 68.2171 68.694 68.0913ZM62.279 68.7206C62.0117 68.8464 61.8335 69.0982 61.9226 69.3499C62.0117 69.6016 62.6354 69.0982 62.7245 68.9723C62.8136 68.8464 63.5264 68.8465 63.7046 68.8465C63.8828 68.8465 64.5955 68.7206 64.5064 68.4689C64.4173 68.2171 63.7937 68.4689 63.6155 68.4689C63.4373 68.4689 62.9918 68.4689 62.7245 68.343C62.7245 68.343 62.7245 68.343 62.4572 68.4689C62.279 68.7206 62.279 68.7206 62.279 68.7206ZM217.665 33.6051C217.932 33.7309 218.021 33.6051 217.932 33.3533C217.843 33.1016 217.397 32.2206 217.219 31.7171C217.219 31.7171 217.219 31.7171 216.863 32.3464C216.596 32.8499 216.596 32.8499 216.596 32.8499C216.328 32.724 216.239 32.5982 216.417 32.724C216.596 32.724 217.397 33.4792 217.665 33.6051ZM114.223 68.8465C113.955 68.8465 113.599 68.9723 113.599 69.0982C113.688 69.3499 113.688 69.3499 113.688 69.3499C113.599 69.6016 113.599 69.8533 113.777 69.9792C113.866 70.1051 114.312 69.7275 114.579 69.7275C114.668 69.4758 114.49 68.8465 114.223 68.8465ZM221.496 33.2275C221.318 32.8499 221.229 32.8499 221.318 33.2275C221.407 33.6051 222.12 33.9827 222.298 33.9827C222.298 33.9827 222.298 33.9827 222.298 33.6051C222.298 33.4792 222.298 33.4792 222.298 33.4792C222.476 33.1016 222.298 33.1016 221.852 33.4792C221.852 33.4792 221.852 33.4792 221.674 33.3533C221.496 33.2275 221.496 33.2275 221.496 33.2275ZM60.2298 68.343C59.6952 68.4689 59.4279 68.5947 59.6952 68.5947C59.8734 68.5947 60.4971 68.9723 60.5862 69.0982C60.7644 69.224 61.2098 69.3499 61.2098 69.224C61.2098 69.0982 61.0316 68.5947 60.7643 68.7206C60.7643 68.7206 60.7643 68.7206 60.6753 68.7206C60.2298 68.343 60.2298 68.343 60.2298 68.343ZM82.1477 69.6016C82.0586 69.6016 82.0586 69.9792 82.2368 70.4827C82.2368 70.4827 82.2368 70.4827 82.5041 70.6085C82.7714 70.8602 82.7714 70.8602 82.7714 70.8602C83.0387 71.112 83.3951 71.2378 83.5733 71.2378C83.5733 71.2378 83.5733 71.2378 83.5733 71.112C83.6624 70.9861 83.6624 70.9861 83.6624 70.9861C83.6624 70.7344 83.3951 70.6085 83.0387 70.6085C83.0387 70.6085 83.0387 70.6085 82.8605 70.4827C82.6823 70.3568 82.6823 70.3568 82.6823 70.3568C82.5932 69.9792 82.2368 69.6016 82.1477 69.6016ZM154.406 69.6016C154.584 69.4758 154.584 69.3499 154.495 69.224C154.406 69.0982 154.049 68.7206 153.96 68.5947C153.871 68.4689 153.515 68.5947 153.604 68.9723C153.693 69.3499 154.317 69.6016 154.406 69.6016ZM75.0199 70.2309C74.9308 69.8533 74.9308 69.8533 75.0199 70.2309C75.0199 70.4827 74.9308 71.2378 75.109 71.2378C75.2872 71.2378 75.0199 70.6085 75.0199 70.2309ZM6.68228 47.0723C6.86048 47.0723 6.94958 46.9464 6.94958 46.6947C6.59319 46.6947 6.50409 46.443 6.50409 46.0654C6.50409 45.9395 6.50409 45.9395 6.50409 45.9395C6.41499 45.6878 6.32589 45.8137 6.1477 46.0654C6.0586 46.443 6.50409 46.9464 6.68228 47.0723ZM3.65298 53.1137C3.65298 52.9878 3.47478 52.862 3.38568 52.7361C3.38568 52.7361 3.38568 52.7361 3.29659 52.6102C3.20749 52.4844 3.11839 52.3585 2.9402 52.4844C2.762 52.6102 2.67291 52.7361 2.9402 52.9878C3.11839 53.1137 2.762 53.743 3.20749 53.743C3.29659 53.743 3.47478 53.3654 3.65298 53.1137Z" fill="#EF0D5E"/>
</svg>
