<svg width="13" height="13" viewBox="0 0 13 13" fill="none" xmlns="http://www.w3.org/2000/svg">
<path d="M3.47067 8.25358L5.58215 10.3651L9.54118 6.40603C9.60572 6.33067 9.63944 6.23373 9.63561 6.13459C9.63178 6.03544 9.59068 5.9414 9.52053 5.87124C9.45037 5.80108 9.35632 5.75998 9.25718 5.75615C9.15804 5.75232 9.0611 5.78605 8.98574 5.85058L5.58215 9.23841L4.03005 7.68631C3.95469 7.62178 3.85776 7.58805 3.75861 7.59188C3.65947 7.59571 3.56542 7.63681 3.49526 7.70697C3.42511 7.77713 3.38401 7.87118 3.38018 7.97032C3.37635 8.06946 3.41007 8.1664 3.47461 8.24176L3.47067 8.25358Z" fill="white"/>
<path d="M3.15175 4.11827C3.25622 4.11827 3.35642 4.07676 3.4303 4.00288C3.50418 3.92901 3.54568 3.82881 3.54568 3.72433V1.36073C3.54568 1.25625 3.50418 1.15605 3.4303 1.08218C3.35642 1.0083 3.25622 0.966797 3.15175 0.966797C3.04727 0.966797 2.94707 1.0083 2.87319 1.08218C2.79932 1.15605 2.75781 1.25625 2.75781 1.36073V3.72433C2.75781 3.82881 2.79932 3.92901 2.87319 4.00288C2.94707 4.07676 3.04727 4.11827 3.15175 4.11827Z" fill="white"/>
<path d="M11.8181 5.38522V11.9954H0.787968V3.32888H1.96977V2.54102H0.689485C0.597398 2.54255 0.506516 2.56222 0.42203 2.59889C0.337545 2.63556 0.26111 2.68851 0.197092 2.75472C0.133075 2.82093 0.0827278 2.89911 0.0489276 2.98478C0.0151275 3.07046 -0.00146384 3.16195 0.000101261 3.25404V12.0703C-0.00146384 12.1624 0.0151275 12.2538 0.0489276 12.3395C0.0827278 12.4252 0.133075 12.5034 0.197092 12.5696C0.26111 12.6358 0.337545 12.6887 0.42203 12.7254C0.506516 12.7621 0.597398 12.7817 0.689485 12.7833H11.9166C12.0087 12.7817 12.0996 12.7621 12.184 12.7254C12.2685 12.6887 12.345 12.6358 12.409 12.5696C12.473 12.5034 12.5233 12.4252 12.5571 12.3395C12.5909 12.2538 12.6075 12.1624 12.606 12.0703V5.03855C12.3618 5.1922 12.0963 5.30901 11.8181 5.38522Z" fill="white"/>
<path d="M8.07587 2.54102H4.3335V3.32888H8.18617C8.114 3.07244 8.0769 2.80741 8.07587 2.54102Z" fill="white"/>
<path d="M11.0302 4.5116C12.118 4.5116 12.9999 3.62975 12.9999 2.54193C12.9999 1.45412 12.118 0.572266 11.0302 0.572266C9.9424 0.572266 9.06055 1.45412 9.06055 2.54193C9.06055 3.62975 9.9424 4.5116 11.0302 4.5116Z" fill="white"/>
</svg>
