<svg width="65" height="83" viewBox="0 0 65 83" fill="none" xmlns="http://www.w3.org/2000/svg">
<path d="M35.8216 0C37.35 0.589008 38.961 1.01553 40.3654 1.80765C45.6735 4.79331 48.5237 9.34289 48.8542 15.3751C48.9368 17 48.8748 18.6248 48.8955 20.2294C48.8955 20.5544 48.9574 20.9606 49.164 21.2043C51.6011 24.4337 49.8456 29.2676 45.4256 29.9582C45.2604 29.9785 45.1158 30.0191 44.9093 30.0394C44.5995 31.8877 44.0625 33.6547 42.9472 35.1577C42.2449 36.092 41.3981 36.8841 40.6546 37.7981C40.4067 38.1027 40.2002 38.5089 40.1589 38.8745C40.0763 39.6463 40.1796 40.4385 40.1176 41.2306C40.0556 41.8602 40.3448 42.1039 40.9024 42.3273C45.7767 44.1553 50.6304 46.0239 55.484 47.8518C60.3583 49.7001 63.2705 53.8841 63.2499 58.9821C63.2499 59.9773 62.9194 60.4444 62.1759 60.546C61.3291 60.6475 60.7921 60.1194 60.7714 59.0633C60.7508 57.5603 60.5442 56.0979 59.842 54.7371C58.83 52.7873 57.3429 51.2843 55.2982 50.4313C52.1175 49.1314 48.8748 47.9534 45.5909 46.6941C44.6821 48.4815 43.794 50.2485 42.8852 51.9952C42.4102 52.9092 41.9558 53.8232 41.4807 54.7371C40.6133 56.4229 39.3121 56.7479 37.7011 55.712C37.6185 55.6511 37.5152 55.5902 37.3706 55.5089C36.6684 56.3823 36.0901 57.1541 36.3586 58.454C37.0402 61.7646 37.5359 65.0956 38.0935 68.4265C38.1761 68.9546 38.362 69.2389 38.961 69.2592C39.6219 69.2795 40.2622 69.4217 40.9231 69.5436C42.6993 69.8889 43.2983 71.6762 42.0797 72.9964C41.646 73.4635 41.1296 73.8901 40.51 74.4791C42.658 74.4791 44.5788 74.4791 46.6649 74.4791C46.2311 74.0322 45.7974 73.687 45.4669 73.2604C45.1158 72.773 44.7027 72.2449 44.5788 71.6762C44.3723 70.681 45.1571 69.767 46.2931 69.5639C47.5323 69.3405 48.7715 69.178 50.1347 68.9749C50.1347 68.6702 50.1347 68.3859 50.1347 68.1015C50.1347 65.908 50.1347 63.7144 50.1347 61.5412C50.1347 60.5663 50.5684 60.0179 51.3326 59.9976C52.1175 59.9773 52.5925 60.546 52.6132 61.5412C52.6132 62.6989 52.6132 63.8566 52.6132 65.1768C52.799 64.9331 52.923 64.8112 53.0056 64.669C53.997 63.2473 55.7732 63.3082 56.62 64.8315C57.157 65.8064 57.694 66.7813 58.1071 67.8172C58.4582 68.6905 59.0158 69.0764 59.9453 69.0764C60.1725 69.0764 60.379 69.0967 60.7508 69.1171C60.7508 68.1625 60.7508 67.2282 60.7508 66.2939C60.7508 65.8877 60.7301 65.4815 60.7714 65.0752C60.854 64.2831 61.3291 63.8363 62.0313 63.8566C62.7335 63.8769 63.1879 64.3238 63.2086 65.1362C63.2499 66.3345 63.2292 67.5125 63.2086 68.7108C63.2086 69.1983 63.2705 69.503 63.8282 69.7467C65.15 70.3154 65.3979 71.8996 64.3445 72.9964C63.4564 73.9104 62.527 74.804 61.5769 75.6571C61.1845 76.0227 61.0812 76.368 61.1845 76.8554C61.4117 77.9725 61.5769 79.0896 61.7835 80.2067C61.9487 81.1409 61.8867 81.994 61.0399 82.6033C60.1931 83.2126 59.3463 83.0501 58.4995 82.583C57.5494 82.0549 56.5374 81.6081 55.5873 81.0597C55.0297 80.7347 54.5753 80.6941 53.997 81.0394C52.9849 81.6284 51.9109 82.1362 50.8782 82.6642C50.0521 83.0908 49.2466 83.1517 48.4824 82.5627C47.7182 81.994 47.5736 81.2019 47.7389 80.3082C47.9454 79.2318 48.1106 78.135 48.3172 76.9976C45.1778 76.9976 42.121 76.9976 38.961 76.9976C39.1469 78.074 39.3121 79.1302 39.5186 80.1863C39.7045 81.1409 39.6012 81.9737 38.7544 82.583C37.9489 83.172 37.1228 83.0501 36.276 82.6033C35.2433 82.0549 34.1693 81.5472 33.1573 80.9785C32.7029 80.7144 32.3311 80.7144 31.8767 80.9582C30.8027 81.5675 29.6874 82.0956 28.6134 82.6642C27.7873 83.0908 26.9818 83.1314 26.2176 82.5627C25.474 82.0143 25.3294 81.2425 25.474 80.3895C25.6599 79.2927 25.8664 78.2162 26.073 77.0382C22.9543 77.0382 19.8768 77.0382 16.7168 77.0382C16.9027 78.135 17.0679 79.2114 17.2745 80.2879C17.4603 81.2222 17.2951 82.0346 16.4896 82.6033C15.7254 83.172 14.8993 83.0705 14.0938 82.6439C12.9991 82.0752 11.9251 81.4862 10.8098 80.9582C10.5 80.816 10.0043 80.816 9.6945 80.9582C8.57919 81.4659 7.48454 82.0549 6.41054 82.6439C5.60504 83.0705 4.77888 83.172 4.01469 82.6236C3.20919 82.0549 3.06462 81.2222 3.22985 80.3082C3.43638 79.1099 3.68423 77.9116 3.82881 76.7132C3.87012 76.4086 3.70488 75.982 3.49835 75.7383C2.75481 74.9462 1.92866 74.215 1.14381 73.4635C-0.570459 71.8184 -0.36392 70.4779 1.80473 69.4217C1.80473 66.5376 1.80473 63.6129 1.80473 60.6881C1.80473 58.5555 1.76342 56.4229 2.63089 54.3919C3.93208 51.3453 6.16269 49.1923 9.24011 47.9737C14.1764 46.0239 19.154 44.1553 24.1315 42.307C24.7511 42.0836 24.8957 41.779 24.9577 41.1493C25.1229 39.3823 24.6892 38.0621 23.2228 36.8232C21.3846 35.2999 20.4345 33.1063 20.0421 30.7503C19.9388 30.2222 19.7529 29.9988 19.1953 29.8972C14.9199 29.1864 13.247 24.3321 15.6221 21.3465C15.808 21.1027 15.87 20.6965 15.8906 20.3716C15.9526 18.2389 15.8493 16.086 16.0765 13.9737C16.7581 7.37276 21.715 1.88889 28.2829 0.243728C28.5514 0.182796 28.7993 0.0812425 29.0471 0C29.3156 0 29.6048 0 29.8733 0C30.369 0.365591 30.8234 0.751493 30.6788 1.46237C30.5342 2.15293 29.9972 2.39665 29.3569 2.49821C29.2743 2.51852 29.1917 2.53883 29.1298 2.55914C21.8183 4.36678 17.3364 10.8053 18.4724 19.4576C19.0094 19.1935 19.691 19.0717 19.9181 18.6858C20.4965 17.6906 21.2813 17.325 22.3966 17.3047C23.925 17.3047 25.474 17.2843 27.0024 17.1015C30.8234 16.6547 34.3345 15.3142 37.5978 13.3238C39.0229 12.4504 40.0143 12.6332 41.1709 13.8518C42.2036 14.9486 43.2363 16.0251 44.2277 17.1422C44.4962 17.4468 44.868 17.7921 44.868 18.1374C44.9093 19.1732 45.6115 19.1529 46.3137 19.1935C46.3137 17.589 46.4996 15.9845 46.2724 14.4205C45.4463 8.30705 41.5221 4.08244 35.4911 2.53883C34.8715 2.37634 34.2519 2.21386 34.066 1.48268C33.9008 0.792114 34.3758 0.406213 34.8096 0C35.1607 0 35.4911 0 35.8216 0ZM19.4431 46.7347C19.2985 46.7754 19.1953 46.7957 19.092 46.8363C16.0146 47.994 12.8958 49.0502 9.90103 50.3703C6.4725 51.8733 4.44842 54.534 4.30385 58.2915C4.17992 61.724 4.26254 65.1565 4.26254 68.589C4.26254 68.7718 4.3245 68.9343 4.34515 69.1374C4.63431 69.1171 4.88215 69.0967 5.13 69.0764C5.97681 69.0561 6.51381 68.7312 6.84427 67.8984C7.23669 66.8626 7.79434 65.8877 8.33134 64.9128C8.84769 63.9379 9.75646 63.4301 10.7065 63.7754C11.3468 64.0191 11.8425 64.5878 12.4001 64.994C12.4001 63.8769 12.3795 62.6583 12.4001 61.4193C12.4208 60.5054 12.9578 59.957 13.7426 60.0179C14.4449 60.0788 14.8786 60.5866 14.8786 61.4396C14.8993 63.6738 14.8993 65.9283 14.8786 68.1625C14.8786 68.7921 14.9819 69.0764 15.7048 69.1171C16.6135 69.1577 17.5016 69.3811 18.3898 69.4827C19.3398 69.6045 20.0627 69.9904 20.3725 70.9247C20.6823 71.8793 20.2693 72.5902 19.5877 73.2401C19.1953 73.626 18.8028 74.0119 18.3485 74.4791C20.4345 74.4791 22.376 74.4791 24.524 74.4791C23.8837 73.8698 23.3467 73.4432 22.913 72.9558C21.7357 71.6559 22.3346 69.8889 24.0696 69.5436C24.7511 69.4014 25.4121 69.2795 26.0936 69.2389C26.6719 69.2186 26.8165 68.9343 26.8991 68.4468C27.4568 65.1362 27.9318 61.8255 28.6134 58.5555C28.8819 57.2353 28.3862 56.4026 27.6633 55.5496C27.1676 55.7933 26.7133 56.0979 26.2382 56.2198C25.1229 56.5042 24.1728 55.9964 23.5739 54.8184C22.1901 52.1577 20.8269 49.4564 19.4431 46.7347ZM39.1056 15.2533C33.9421 18.442 28.3656 19.9653 22.314 19.7622C22.2933 19.9857 22.2727 20.1075 22.2727 20.2294C22.2727 23.1135 22.2107 26.0179 22.314 28.902C22.4792 34.1422 26.8165 38.184 32.2691 38.2855C37.6391 38.3871 42.1417 34.5078 42.4515 29.2879C42.658 25.9773 42.5341 22.6463 42.5341 19.3154C42.5341 19.0717 42.4102 18.7873 42.2449 18.6045C41.2329 17.4874 40.1796 16.411 39.1056 15.2533ZM17.3158 71.8184C16.2211 71.6559 15.1678 71.4731 14.1144 71.3715C12.9991 71.27 12.2349 70.7622 11.7805 69.7467C11.3261 68.7515 10.8098 67.7766 10.2315 66.6595C9.67384 67.7562 9.1575 68.6905 8.74442 69.6451C8.24873 70.7622 7.44323 71.2903 6.22465 71.3918C5.19196 71.4731 4.15927 71.6965 3.18854 71.8387C4.03535 72.712 4.79954 73.5651 5.60504 74.3572C6.28661 75.0275 6.55511 75.7586 6.36923 76.6929C6.14204 77.81 5.97681 78.9474 5.77027 80.227C6.88557 79.6583 7.83565 79.2114 8.76507 78.663C9.75646 78.074 10.7065 78.0537 11.6979 78.6427C12.6273 79.1911 13.6187 79.6583 14.734 80.2067C14.5068 78.9474 14.3416 77.8303 14.1144 76.7335C13.9285 75.7789 14.1557 75.0071 14.8786 74.3166C15.7048 73.5448 16.469 72.712 17.3158 71.8184ZM50.3206 80.227C51.4359 79.6583 52.4273 79.1911 53.398 78.6427C54.3481 78.0944 55.2362 78.0944 56.1863 78.6427C57.1363 79.1911 58.1484 79.6583 59.2637 80.227C59.0572 78.9677 58.9126 77.8709 58.6854 76.8148C58.4375 75.7789 58.768 74.9868 59.5322 74.276C60.3377 73.5245 61.1019 72.712 61.9487 71.859C60.854 71.6965 59.8214 71.4934 58.768 71.4122C57.5701 71.3106 56.7852 70.7825 56.3102 69.6858C55.8765 68.7108 55.3601 67.7969 54.8231 66.7001C54.2655 67.8172 53.7491 68.7312 53.336 69.6858C52.861 70.7622 52.0762 71.3106 50.8782 71.4122C49.8249 71.4934 48.7922 71.7168 47.7389 71.859C48.5444 72.6917 49.2466 73.5042 50.0521 74.2353C50.8782 74.9868 51.1674 75.8399 50.9195 76.9163C50.6511 77.9522 50.5271 79.0083 50.3206 80.227ZM39.6012 71.8184C38.5272 71.6559 37.4533 71.4731 36.3586 71.3715C35.2639 71.2497 34.5204 70.7622 34.0867 69.767C33.6323 68.7718 33.1159 67.7969 32.5376 66.6595C31.98 67.7766 31.4636 68.7108 31.0299 69.6858C30.5549 70.7419 29.7907 71.2497 28.6341 71.3715C27.5601 71.4731 26.5067 71.6762 25.5153 71.8184C26.3621 72.712 27.147 73.5854 27.9731 74.3978C28.6341 75.0478 28.8613 75.7789 28.6754 76.6929C28.4482 77.81 28.2829 78.9474 28.0558 80.227C29.0471 79.7192 29.9353 79.3333 30.7408 78.8255C31.98 78.0537 33.1159 78.0537 34.3552 78.8255C35.1607 79.3333 36.0488 79.7192 37.0402 80.227C36.813 78.9474 36.6684 77.8506 36.4412 76.7742C36.214 75.7586 36.5238 74.9868 37.2467 74.2963C38.0109 73.5245 38.7544 72.6917 39.6012 71.8184ZM32.517 48.6439C33.9214 46.9379 35.14 45.2521 36.5858 43.7897C37.8044 42.5711 37.7218 41.2306 37.5978 39.687C34.2106 41.1087 30.844 41.0072 27.3122 39.7479C27.3948 40.7837 27.147 41.9008 27.6014 42.5508C29.0678 44.6428 30.8027 46.5723 32.517 48.6439ZM43.257 45.8208C41.9971 45.3333 40.7992 44.8662 39.6012 44.4396C39.4567 44.3787 39.1675 44.4803 39.0642 44.6021C37.4739 46.491 35.9042 48.4002 34.3139 50.35C35.9662 51.5077 37.5772 52.6248 39.2295 53.7825C40.5926 51.0812 41.9145 48.4815 43.257 45.8208ZM25.8045 53.7825C27.4774 52.6248 29.0678 51.4874 30.7201 50.35C29.1298 48.4002 27.5807 46.5113 26.011 44.6428C25.9078 44.5209 25.6186 44.399 25.474 44.4396C24.2554 44.8662 23.0369 45.3536 21.777 45.8208C23.1195 48.5221 24.4413 51.1218 25.8045 53.7825ZM29.832 66.0502C30.6168 65.0956 30.8853 63.7144 32.4963 63.6941C34.1486 63.6738 34.4171 65.0956 35.14 66.0705C34.8715 64.0597 34.5204 62.0896 34.1899 60.1194C33.8388 58.0275 33.8388 58.0478 31.7528 58.129C31.2984 58.1493 31.1125 58.3118 31.0506 58.718C30.906 59.632 30.7408 60.5257 30.5962 61.4396C30.3483 62.9832 30.0798 64.5269 29.832 66.0502ZM19.7116 27.4803C19.7116 25.5305 19.7116 23.5806 19.7116 21.6308C18.1006 21.8745 16.9646 23.1338 17.006 24.6165C17.0266 26.1195 18.1006 27.2975 19.7116 27.4803ZM35.3672 54.0872C34.4791 53.4576 33.6529 52.8686 32.8268 52.3202C32.6822 52.2186 32.3724 52.1983 32.2485 52.2795C31.381 52.8482 30.5549 53.4576 29.7907 53.9856C30.307 56.2198 32.0419 55.5902 33.5084 55.6917C34.7476 55.7933 34.7063 54.6356 35.3672 54.0872ZM45.0952 21.5496C45.0952 23.5603 45.0952 25.5305 45.0952 27.5209C46.7888 27.1756 47.8215 25.9976 47.7802 24.4743C47.7595 22.951 46.6649 21.7527 45.0952 21.5496Z" fill="#EF0D5E"/>
</svg>
