<svg width="22" height="22" viewBox="0 0 22 22" fill="none" xmlns="http://www.w3.org/2000/svg">
<path d="M22 11C22 4.92424 17.0758 0 11 0C4.92424 0 0 4.92424 0 11C0 16.4914 4.02187 21.0418 9.28125 21.8668V14.1797H6.48826V11H9.28125V8.57656C9.28125 5.8201 10.9227 4.29687 13.4363 4.29687C14.6394 4.29687 15.8984 4.51172 15.8984 4.51172V7.21875H14.5106C13.1441 7.21875 12.7188 8.0674 12.7188 8.9375V11H15.7695L15.2818 14.1797H12.7188V21.8668C17.9781 21.0418 22 16.4914 22 11Z" fill="#1877F2"/>
<path d="M15.2819 14.1797L15.7695 11H12.7188V8.9375C12.7188 8.0674 13.1442 7.21875 14.5106 7.21875H15.8985V4.51172C15.8985 4.51172 14.6395 4.29688 13.4363 4.29688C10.9227 4.29688 9.28127 5.8201 9.28127 8.57656V11H6.48828V14.1797H9.28127V21.8668C9.842 21.9549 10.4156 22 11 22C11.5844 22 12.158 21.9549 12.7188 21.8668V14.1797H15.2819Z" fill="white"/>
</svg>
