<svg width="1440" height="662" viewBox="0 0 1440 662" fill="none" xmlns="http://www.w3.org/2000/svg">
<rect width="1440" height="662" fill="#FBF1F3"/>
<g opacity="0.2" clip-path="url(#clip0_2485_7194)">
<path d="M0 523.972C59.3333 362.139 191.4 -16.3273 819 6.47266C1446.6 29.2727 1757.33 -226.194 1762.5 -387.027" stroke="#EF0D5E"/>
<path d="M223 912.472C282.333 750.639 557.9 432.672 1185.5 455.472C1813.1 478.272 1909.33 381.806 1914.5 220.973" stroke="#EF0D5E"/>
<path d="M0 1021.97C59.3333 860.139 248.4 617.673 876 640.473C1503.6 663.273 1757.33 271.806 1762.5 110.973" stroke="#EF0D5E"/>
<g opacity="0.5">
<path d="M924.41 317.383L919.83 321.973L924.41 326.563L923 327.973L917 321.973L923 315.973L924.41 317.383Z" fill="white"/>
<path d="M934.12 326.973V315.453H938.776C938.888 315.453 939.027 315.458 939.192 315.469C939.357 315.474 939.515 315.49 939.664 315.517C940.304 315.618 940.837 315.837 941.264 316.173C941.696 316.509 942.019 316.933 942.232 317.445C942.445 317.957 942.552 318.522 942.552 319.141C942.552 319.765 942.445 320.333 942.232 320.845C942.019 321.357 941.696 321.781 941.264 322.117C940.837 322.453 940.304 322.671 939.664 322.773C939.515 322.794 939.355 322.81 939.184 322.821C939.019 322.831 938.883 322.837 938.776 322.837H935.792V326.973H934.12ZM935.792 321.253H938.712C938.819 321.253 938.936 321.247 939.064 321.237C939.197 321.226 939.323 321.207 939.44 321.181C939.781 321.101 940.056 320.954 940.264 320.741C940.472 320.522 940.621 320.271 940.712 319.989C940.803 319.706 940.848 319.423 940.848 319.141C940.848 318.858 940.803 318.578 940.712 318.301C940.621 318.018 940.472 317.77 940.264 317.557C940.056 317.338 939.781 317.189 939.44 317.109C939.323 317.077 939.197 317.055 939.064 317.045C938.936 317.034 938.819 317.029 938.712 317.029H935.792V321.253ZM944.231 326.973V318.333H945.719V320.429L945.511 320.157C945.618 319.879 945.757 319.626 945.927 319.397C946.098 319.162 946.295 318.97 946.519 318.821C946.738 318.661 946.981 318.538 947.247 318.453C947.519 318.362 947.797 318.309 948.079 318.293C948.362 318.271 948.634 318.285 948.895 318.333V319.901C948.613 319.826 948.298 319.805 947.951 319.837C947.61 319.869 947.295 319.978 947.007 320.165C946.735 320.341 946.519 320.554 946.359 320.805C946.205 321.055 946.093 321.335 946.023 321.645C945.954 321.949 945.919 322.271 945.919 322.613V326.973H944.231ZM954.174 327.213C953.316 327.213 952.561 327.026 951.911 326.653C951.265 326.274 950.761 325.749 950.398 325.077C950.041 324.399 949.862 323.615 949.862 322.725C949.862 321.781 950.038 320.962 950.39 320.269C950.748 319.575 951.244 319.039 951.878 318.661C952.513 318.282 953.252 318.093 954.095 318.093C954.975 318.093 955.724 318.298 956.343 318.709C956.961 319.114 957.423 319.693 957.727 320.445C958.036 321.197 958.159 322.09 958.095 323.125H956.423V322.517C956.412 321.514 956.22 320.773 955.847 320.293C955.479 319.813 954.916 319.573 954.159 319.573C953.321 319.573 952.692 319.837 952.27 320.365C951.849 320.893 951.638 321.655 951.638 322.653C951.638 323.602 951.849 324.338 952.27 324.861C952.692 325.378 953.3 325.637 954.095 325.637C954.617 325.637 955.068 325.519 955.447 325.285C955.831 325.045 956.129 324.703 956.343 324.261L957.983 324.781C957.647 325.554 957.137 326.154 956.455 326.581C955.772 327.002 955.012 327.213 954.174 327.213ZM951.094 323.125V321.821H957.262V323.125H951.094ZM961.993 326.973L958.857 318.333H960.545L962.841 324.877L965.137 318.333H966.825L963.689 326.973H961.993ZM968.506 316.917V315.293H970.178V316.917H968.506ZM968.506 326.973V318.333H970.178V326.973H968.506ZM976.413 327.213C975.549 327.213 974.799 327.018 974.165 326.629C973.53 326.239 973.039 325.703 972.693 325.021C972.351 324.333 972.181 323.541 972.181 322.645C972.181 321.743 972.357 320.951 972.709 320.269C973.061 319.581 973.554 319.047 974.189 318.669C974.823 318.285 975.565 318.093 976.413 318.093C977.277 318.093 978.026 318.287 978.661 318.677C979.295 319.066 979.786 319.602 980.133 320.285C980.479 320.967 980.653 321.754 980.653 322.645C980.653 323.546 980.477 324.341 980.125 325.029C979.778 325.711 979.287 326.247 978.653 326.637C978.018 327.021 977.271 327.213 976.413 327.213ZM976.413 325.637C977.239 325.637 977.855 325.359 978.261 324.805C978.671 324.245 978.877 323.525 978.877 322.645C978.877 321.743 978.669 321.023 978.253 320.485C977.842 319.941 977.229 319.669 976.413 319.669C975.853 319.669 975.391 319.797 975.029 320.053C974.666 320.303 974.397 320.653 974.221 321.101C974.045 321.543 973.957 322.058 973.957 322.645C973.957 323.551 974.165 324.277 974.581 324.821C974.997 325.365 975.607 325.637 976.413 325.637ZM985.747 327.205C985.149 327.205 984.648 327.109 984.243 326.917C983.837 326.725 983.507 326.474 983.251 326.165C983 325.85 982.808 325.509 982.675 325.141C982.541 324.773 982.451 324.413 982.403 324.061C982.355 323.709 982.331 323.399 982.331 323.133V318.333H984.027V322.581C984.027 322.917 984.053 323.263 984.107 323.621C984.165 323.973 984.272 324.301 984.427 324.605C984.587 324.909 984.808 325.154 985.091 325.341C985.379 325.527 985.752 325.621 986.211 325.621C986.509 325.621 986.792 325.573 987.059 325.477C987.325 325.375 987.557 325.215 987.755 324.997C987.957 324.778 988.115 324.49 988.227 324.133C988.344 323.775 988.403 323.341 988.403 322.829L989.443 323.221C989.443 324.005 989.296 324.698 989.003 325.301C988.709 325.898 988.288 326.365 987.739 326.701C987.189 327.037 986.525 327.205 985.747 327.205ZM988.603 326.973V324.477H988.403V318.333H990.091V326.973H988.603ZM995.718 327.205C994.668 327.205 993.812 326.973 993.15 326.509C992.489 326.045 992.084 325.391 991.934 324.549L993.646 324.285C993.753 324.733 993.998 325.087 994.382 325.349C994.772 325.605 995.254 325.733 995.83 325.733C996.353 325.733 996.761 325.626 997.054 325.413C997.353 325.199 997.502 324.906 997.502 324.533C997.502 324.314 997.449 324.138 997.342 324.005C997.241 323.866 997.025 323.735 996.694 323.613C996.364 323.49 995.86 323.338 995.182 323.157C994.441 322.965 993.852 322.759 993.414 322.541C992.982 322.317 992.673 322.058 992.486 321.765C992.305 321.466 992.214 321.106 992.214 320.685C992.214 320.162 992.353 319.706 992.63 319.317C992.908 318.927 993.297 318.626 993.798 318.413C994.305 318.199 994.897 318.093 995.574 318.093C996.236 318.093 996.825 318.197 997.342 318.405C997.86 318.613 998.278 318.909 998.598 319.293C998.918 319.671 999.11 320.117 999.174 320.629L997.462 320.941C997.404 320.525 997.209 320.197 996.878 319.957C996.548 319.717 996.118 319.586 995.59 319.565C995.084 319.543 994.673 319.629 994.358 319.821C994.044 320.007 993.886 320.266 993.886 320.597C993.886 320.789 993.945 320.951 994.062 321.085C994.185 321.218 994.42 321.346 994.766 321.469C995.113 321.591 995.625 321.738 996.302 321.909C997.028 322.095 997.604 322.303 998.03 322.533C998.457 322.757 998.761 323.026 998.942 323.341C999.129 323.65 999.222 324.026 999.222 324.469C999.222 325.322 998.91 325.991 998.286 326.477C997.668 326.962 996.812 327.205 995.718 327.205Z" fill="white"/>
<rect x="897.5" y="304.473" width="114" height="35" rx="3.5" stroke="white"/>
</g>
<path d="M1033.12 326.973V315.453H1034.82L1040.49 324.013V315.453H1042.18V326.973H1040.49L1034.82 318.405V326.973H1033.12ZM1048.33 327.213C1047.47 327.213 1046.72 327.026 1046.06 326.653C1045.42 326.274 1044.92 325.749 1044.55 325.077C1044.2 324.399 1044.02 323.615 1044.02 322.725C1044.02 321.781 1044.19 320.962 1044.54 320.269C1044.9 319.575 1045.4 319.039 1046.03 318.661C1046.67 318.282 1047.41 318.093 1048.25 318.093C1049.13 318.093 1049.88 318.298 1050.5 318.709C1051.12 319.114 1051.58 319.693 1051.88 320.445C1052.19 321.197 1052.31 322.09 1052.25 323.125H1050.58V322.517C1050.57 321.514 1050.37 320.773 1050 320.293C1049.63 319.813 1049.07 319.573 1048.31 319.573C1047.48 319.573 1046.85 319.837 1046.42 320.365C1046 320.893 1045.79 321.655 1045.79 322.653C1045.79 323.602 1046 324.338 1046.42 324.861C1046.85 325.378 1047.45 325.637 1048.25 325.637C1048.77 325.637 1049.22 325.519 1049.6 325.285C1049.98 325.045 1050.28 324.703 1050.5 324.261L1052.14 324.781C1051.8 325.554 1051.29 326.154 1050.61 326.581C1049.93 327.002 1049.17 327.213 1048.33 327.213ZM1045.25 323.125V321.821H1051.42V323.125H1045.25ZM1052.85 326.973L1056.08 322.605L1052.92 318.333H1054.91L1057.06 321.301L1059.19 318.333H1061.17L1058.01 322.605L1061.25 326.973H1059.26L1057.06 323.909L1054.84 326.973H1052.85ZM1067.55 326.973C1067.01 327.079 1066.48 327.125 1065.95 327.109C1065.43 327.093 1064.96 326.991 1064.55 326.805C1064.14 326.618 1063.83 326.325 1063.63 325.925C1063.44 325.567 1063.34 325.205 1063.32 324.837C1063.31 324.463 1063.31 324.042 1063.31 323.573V315.933H1064.99V323.493C1064.99 323.839 1064.99 324.141 1064.99 324.397C1065 324.653 1065.06 324.869 1065.16 325.045C1065.35 325.375 1065.66 325.565 1066.07 325.613C1066.5 325.655 1066.99 325.637 1067.55 325.557V326.973ZM1061.65 319.677V318.333H1067.55V319.677H1061.65Z" fill="white"/>
<path d="M1077.59 326.563L1082.17 321.973L1077.59 317.383L1079 315.973L1085 321.973L1079 327.973L1077.59 326.563Z" fill="white"/>
<rect x="1020.5" y="304.473" width="84" height="35" rx="3.5" stroke="white"/>
</g>
<g opacity="0.16">
<circle cx="1227" cy="212.939" r="6" fill="#A1ADB3"/>
<circle cx="1247" cy="212.939" r="6" fill="#A1ADB3"/>
<circle cx="1267" cy="212.939" r="6" fill="#A1ADB3"/>
<circle cx="1287" cy="212.939" r="6" fill="#A1ADB3"/>
<circle cx="1307" cy="212.939" r="6" fill="#A1ADB3"/>
<circle cx="1327" cy="212.939" r="6" fill="#A1ADB3"/>
<circle cx="1347" cy="212.939" r="6" fill="#A1ADB3"/>
<circle cx="1367" cy="212.939" r="6" fill="#A1ADB3"/>
<circle cx="1227" cy="232.939" r="6" fill="#A1ADB3"/>
<circle cx="1247" cy="232.939" r="6" fill="#A1ADB3"/>
<circle cx="1267" cy="232.939" r="6" fill="#A1ADB3"/>
<circle cx="1287" cy="232.939" r="6" fill="#A1ADB3"/>
<circle cx="1307" cy="232.939" r="6" fill="#A1ADB3"/>
<circle cx="1327" cy="232.939" r="6" fill="#A1ADB3"/>
<circle cx="1347" cy="232.939" r="6" fill="#A1ADB3"/>
<circle cx="1367" cy="232.939" r="6" fill="#A1ADB3"/>
<circle cx="1227" cy="252.939" r="6" fill="#A1ADB3"/>
<circle cx="1247" cy="252.939" r="6" fill="#A1ADB3"/>
<circle cx="1267" cy="252.939" r="6" fill="#A1ADB3"/>
<circle cx="1287" cy="252.939" r="6" fill="#A1ADB3"/>
<circle cx="1307" cy="252.939" r="6" fill="#A1ADB3"/>
<circle cx="1327" cy="252.939" r="6" fill="#A1ADB3"/>
<circle cx="1347" cy="252.939" r="6" fill="#A1ADB3"/>
<circle cx="1367" cy="252.939" r="6" fill="#A1ADB3"/>
<circle cx="1227" cy="272.939" r="6" fill="#A1ADB3"/>
<circle cx="1247" cy="272.939" r="6" fill="#A1ADB3"/>
<circle cx="1267" cy="272.939" r="6" fill="#A1ADB3"/>
<circle cx="1287" cy="272.939" r="6" fill="#A1ADB3"/>
<circle cx="1307" cy="272.939" r="6" fill="#A1ADB3"/>
<circle cx="1327" cy="272.939" r="6" fill="#A1ADB3"/>
<circle cx="1347" cy="272.939" r="6" fill="#A1ADB3"/>
<circle cx="1367" cy="272.939" r="6" fill="#A1ADB3"/>
<circle cx="1227" cy="292.939" r="6" fill="#A1ADB3"/>
<circle cx="1247" cy="292.939" r="6" fill="#A1ADB3"/>
<circle cx="1267" cy="292.939" r="6" fill="#A1ADB3"/>
<circle cx="1287" cy="292.939" r="6" fill="#A1ADB3"/>
<circle cx="1307" cy="292.939" r="6" fill="#A1ADB3"/>
<circle cx="1327" cy="292.939" r="6" fill="#A1ADB3"/>
<circle cx="1347" cy="292.939" r="6" fill="#A1ADB3"/>
<circle cx="1367" cy="292.939" r="6" fill="#A1ADB3"/>
<circle cx="1227" cy="312.939" r="6" fill="#A1ADB3"/>
<circle cx="1247" cy="312.939" r="6" fill="#A1ADB3"/>
<circle cx="1267" cy="312.939" r="6" fill="#A1ADB3"/>
<circle cx="1287" cy="312.939" r="6" fill="#A1ADB3"/>
<circle cx="1307" cy="312.939" r="6" fill="#A1ADB3"/>
<circle cx="1327" cy="312.939" r="6" fill="#A1ADB3"/>
<circle cx="1347" cy="312.939" r="6" fill="#A1ADB3"/>
<circle cx="1367" cy="312.939" r="6" fill="#A1ADB3"/>
</g>
<defs>
<clipPath id="clip0_2485_7194">
<rect width="1440" height="656.054" fill="white" transform="translate(0 2.97266)"/>
</clipPath>
</defs>
</svg>
