<svg width="11" height="9" viewBox="0 0 11 9" fill="none" xmlns="http://www.w3.org/2000/svg">
<path d="M1.88233 7.81616C1.69261 7.65807 0.522705 6.64625 0.522705 5.03368C0.522705 3.54758 1.53452 2.59901 1.88233 2.28282C2.70442 1.52396 3.58976 1.23939 4.03242 1.14453C4.34862 1.14453 4.85452 1.17615 5.32881 1.4291C5.73986 1.65044 5.77147 1.84015 6.08767 2.02987C6.84652 2.53577 7.47891 1.99825 8.965 2.21958C9.50253 2.31444 10.1981 2.4093 10.3246 2.82034C10.4195 3.13653 10.1981 3.61082 9.85034 3.80054C9.15472 4.2432 8.11129 3.61082 7.98481 3.83215C7.88995 3.99025 8.42748 4.30644 8.33262 4.65425C8.26938 4.97044 7.92157 4.93882 7.76348 5.28663C7.54214 5.7293 8.01643 6.07711 7.7951 6.45654C7.60538 6.80435 7.1311 6.67787 7.03624 6.99406C6.94138 7.31025 7.35243 7.56321 7.25757 7.84778C7.16271 8.16397 6.62519 8.25883 6.27738 8.32207C4.85452 8.51178 2.92576 8.10073 1.88233 7.81616Z" fill="#ED155F"/>
<path d="M0.174685 4.87611C0.206305 4.6864 0.237924 4.49668 0.269543 4.30697C0.427638 3.70621 0.71221 3.16868 1.15488 2.75763C1.56593 2.31497 1.97697 1.90392 2.38802 1.52449C2.98878 0.986965 3.71602 0.765632 4.53812 0.892108C5.13888 0.986965 5.64479 1.23992 6.05584 1.68259C6.18231 1.80906 6.30879 1.90392 6.40365 2.0304C6.46689 2.09363 6.4985 2.09363 6.59336 2.09363C7.57355 2.09363 8.58536 2.09363 9.56556 2.09363C9.91337 2.09363 10.1979 2.22011 10.4193 2.50468C10.8303 3.01059 10.5774 3.83268 9.94499 4.0224C9.81851 4.05402 9.66041 4.08564 9.53394 4.08564C9.18613 4.08564 8.83832 4.08564 8.49051 4.08564C8.74346 4.71802 8.55375 5.1923 7.95298 5.54011C8.11108 5.79307 8.17432 6.10926 8.04784 6.39383C7.95298 6.6784 7.73165 6.89974 7.44708 7.02621C7.4787 7.15269 7.54193 7.24755 7.57355 7.3424C7.73165 7.94317 7.25736 8.54393 6.6566 8.57555C5.61317 8.57555 4.56974 8.60717 3.49469 8.57555C2.45126 8.54393 1.59754 8.13288 0.933544 7.3424C0.522496 6.86812 0.269543 6.29897 0.174685 5.66659C0.174685 5.57173 0.143066 5.5085 0.143066 5.41364C0.174685 5.22392 0.174685 5.03421 0.174685 4.87611ZM5.73965 2.09363C5.77127 2.09363 5.77127 2.09363 5.73965 2.09363C5.67641 1.99878 5.61317 1.93554 5.54993 1.8723C4.79107 1.17668 3.49469 1.17668 2.73583 1.90392C2.26155 2.31497 1.81888 2.75763 1.40783 3.23192C0.838686 3.8643 0.617353 4.62316 0.680591 5.44526C0.743829 6.0144 0.933544 6.52031 1.31297 6.96297C1.8505 7.62697 2.54612 8.0064 3.39983 8.03802C4.47488 8.06964 5.54993 8.03802 6.6566 8.03802C6.90955 8.03802 7.13089 7.81669 7.13089 7.56374C7.13089 7.27916 6.94117 7.08945 6.68822 7.05783C6.62498 7.05783 6.59336 7.05783 6.53012 7.02621C6.43527 6.96297 6.37203 6.86812 6.40365 6.74164C6.43527 6.64678 6.53012 6.55193 6.6566 6.55193C6.8147 6.55193 6.97279 6.55193 7.13089 6.55193C7.19412 6.55193 7.28898 6.52031 7.35222 6.52031C7.57355 6.42545 7.66841 6.20412 7.63679 5.95116C7.60517 5.72983 7.41546 5.57173 7.19412 5.57173C7.09927 5.57173 6.97279 5.57173 6.87793 5.54011C6.78308 5.54011 6.68822 5.44526 6.68822 5.3504C6.68822 5.25554 6.71984 5.16069 6.78308 5.09745C6.84631 5.06583 6.90955 5.06583 6.97279 5.06583C7.19412 5.06583 7.44708 5.06583 7.66841 5.06583C7.92136 5.06583 8.1427 4.84449 8.1427 4.59154C8.1427 4.33859 7.95298 4.08564 7.66841 4.08564C7.28898 4.08564 6.90955 4.08564 6.4985 4.08564C6.43527 4.08564 6.40365 4.08564 6.34041 4.08564C6.24555 4.05402 6.15069 3.99078 6.15069 3.89592C6.11907 3.73783 6.24555 3.61135 6.43527 3.61135C7.41546 3.61135 8.36403 3.61135 9.34422 3.61135C9.43908 3.61135 9.53394 3.61135 9.62879 3.61135C9.9766 3.57973 10.2296 3.26354 10.1031 2.94735C10.0398 2.72602 9.85013 2.63116 9.56556 2.63116C7.88974 2.63116 6.21393 2.63116 4.53812 2.63116C4.47488 2.63116 4.44326 2.63116 4.38003 2.63116C4.22193 2.59954 4.12707 2.47306 4.19031 2.31497C4.22193 2.18849 4.31679 2.12525 4.47488 2.12525C4.88593 2.09363 5.3286 2.09363 5.73965 2.09363Z" fill="white"/>
</svg>
