<svg width="18" height="17" viewBox="0 0 18 17" fill="none" xmlns="http://www.w3.org/2000/svg">
<path d="M4.79809 5.09171L3.49951 12.4556M15.9536 0.878906H1.87106C1.6447 0.878906 1.42762 0.968827 1.26756 1.12889C1.1075 1.28895 1.01758 1.50603 1.01758 1.73239V15.8149C1.01758 16.0413 1.1075 16.2583 1.26756 16.4184C1.42762 16.5785 1.6447 16.6684 1.87106 16.6684H15.9536C16.1799 16.6684 16.397 16.5785 16.5571 16.4184C16.7171 16.2583 16.8071 16.0413 16.8071 15.8149V1.73239C16.8071 1.50603 16.7171 1.28895 16.5571 1.12889C16.397 0.968827 16.1799 0.878906 15.9536 0.878906V0.878906ZM4.79809 5.09171H8.4796H4.79809ZM4.14901 8.77364H6.54176H4.14901Z" stroke="#fff" stroke-width="0.438597" stroke-linecap="round" stroke-linejoin="round"/>
<path d="M8.72266 11.6526C9.07045 12.2402 9.59791 12.4591 10.3857 12.4591H11.476C11.9908 12.4403 12.4843 12.2484 12.8765 11.9144C13.2688 11.5804 13.5368 11.1239 13.6374 10.6186V10.6186C13.6898 10.3943 13.6898 10.1609 13.6374 9.93654C13.5851 9.7122 13.4818 9.50293 13.3355 9.32492C13.1893 9.14692 13.0041 9.00497 12.7942 8.91006C12.5842 8.81516 12.3553 8.76984 12.1251 8.77764H10.9204C10.6902 8.78536 10.4613 8.74 10.2514 8.64507C10.0416 8.55013 9.85639 8.40817 9.71021 8.23018C9.56403 8.05218 9.46077 7.84293 9.40844 7.61862C9.35611 7.39432 9.35611 7.16098 9.40843 6.93667V6.93667C9.50895 6.43133 9.77701 5.97468 10.1693 5.64059C10.5615 5.30651 11.055 5.11452 11.5699 5.0957H12.6598C13.4475 5.0957 13.975 5.31462 14.3232 5.90267" stroke="#fff" stroke-width="0.438597" stroke-linecap="round" stroke-linejoin="round"/>
</svg>
