<svg width="45" height="46" viewBox="0 0 45 46" fill="none" xmlns="http://www.w3.org/2000/svg">
<g clip-path="url(#clip0_917_9095)">
<path d="M24.0109 25.5405C22.243 25.5405 20.6255 25.5405 18.9955 25.5405C18.82 25.5405 18.6319 25.6158 18.4564 25.6659C16.5004 26.3179 14.5444 26.9699 12.5885 27.6094C12.3126 27.6971 12.0117 27.7724 11.7233 27.7724C7.8866 27.7849 4.06241 27.7724 0.22569 27.7724C0.162998 27.7724 0.100306 27.7598 0 27.7598C0 27.2834 0 26.8069 0 26.2928C1.46698 26.2928 2.92143 26.2928 4.46364 26.2928C4.46364 26.0672 4.46364 25.8665 4.46364 25.6785C4.46364 17.9799 4.46364 10.2814 4.46364 2.58289C4.46364 0.877682 5.34132 0 7.07161 0C17.3656 0 27.6595 0 37.9535 0C39.6461 0 40.5238 0.877682 40.5238 2.58289C40.5238 10.2814 40.5238 17.9799 40.5238 25.6785C40.5238 25.8665 40.5238 26.0546 40.5238 26.2803C42.0284 26.2803 43.5079 26.2803 45 26.2803C45 26.7944 45 27.2583 45 27.7849C44.8495 27.7849 44.7116 27.7849 44.5612 27.7849C41.6021 27.7849 38.6431 27.7974 35.6966 27.7724C35.2953 27.7724 34.8941 27.6721 34.518 27.5467C32.9507 26.995 31.4085 26.4182 29.8537 25.854C28.0733 25.2145 26.4433 25.4904 24.9763 26.7066C23.4216 27.9981 21.8794 29.2895 20.3246 30.5809C19.8732 30.9571 19.6851 31.4335 19.8231 31.9978C19.9485 32.5118 20.287 32.8378 20.7885 32.9883C21.3026 33.1388 21.7414 32.9632 22.1301 32.6247C23.2586 31.6843 24.387 30.7439 25.5405 29.7785C27.484 31.7972 29.5528 31.9978 31.8097 30.2173C32.1106 30.5809 32.4115 30.9571 32.6999 31.3207C31.8598 32.2611 30.6311 32.7751 28.8005 32.9507C28.8883 33.0635 28.951 33.1513 29.0387 33.2391C30.1296 34.3299 31.2204 35.4333 32.3363 36.5116C32.4868 36.662 32.7626 36.7247 32.9883 36.7749C33.1638 36.8125 33.3644 36.7623 33.5525 36.7874C35.007 36.9253 36.336 36.662 37.4895 35.684C37.7905 35.4333 38.292 35.3079 38.7058 35.2953C40.737 35.2577 42.7682 35.2828 44.8119 35.2828C44.8746 35.2828 44.9373 35.2953 45.0251 35.3079C45.0251 35.7969 45.0251 36.2608 45.0251 36.7749C43.5456 36.7749 42.0786 36.7749 40.5489 36.7749C40.5489 36.9755 40.5489 37.1385 40.5489 37.3015C40.5489 39.0694 40.5489 40.8373 40.5489 42.6052C40.5489 44.1098 39.6211 45.0376 38.129 45.0502C35.7091 45.0502 33.2767 45.0502 30.8192 45.0502C30.8192 44.5486 30.8192 44.0847 30.8192 43.5456C30.9822 43.5456 31.1452 43.5456 31.3207 43.5456C33.5525 43.5456 35.7969 43.5456 38.0287 43.5456C38.7935 43.5456 39.0443 43.3073 39.0443 42.5425C39.0443 40.7746 39.0443 39.0067 39.0443 37.2388C39.0443 37.1009 39.0443 36.9629 39.0443 36.6746C38.6807 36.825 38.3672 36.9003 38.1039 37.0633C37.3015 37.5773 36.5366 38.1917 35.5461 38.2544C34.9693 38.292 34.3926 38.2669 33.7657 38.2669C33.9914 39.2198 33.8409 40.0348 33.1764 40.6994C32.5118 41.3639 31.6968 41.5144 30.7816 41.2761C30.1797 42.5801 29.1892 43.0942 27.7598 42.7933C27.4464 43.533 26.9323 44.0847 26.1173 44.3104C25.3148 44.5235 24.6127 44.3104 23.9356 43.7963C23.8729 43.8841 23.7977 43.9593 23.7476 44.0471C22.8824 45.326 21.265 45.5266 20.1365 44.4734C19.9108 44.2602 19.7228 44.1976 19.4093 44.2853C18.3059 44.6113 17.2151 44.1223 16.6885 43.0942C16.6383 42.9939 16.5882 42.9061 16.538 42.8183C14.5444 42.9312 13.8047 42.4171 13.3909 40.6492C12.0995 40.4611 11.3346 39.7088 11.1716 38.5804C10.5573 38.2168 10.0557 37.9284 9.55419 37.64C9.45389 37.5773 9.3285 37.5272 9.21566 37.5272C8.16244 37.5146 7.12176 37.5272 6.03093 37.5272C6.01839 37.6776 6.00585 37.803 6.00585 37.9409C6.00585 39.4706 6.00585 41.0128 6.00585 42.5425C6.00585 43.2948 6.25662 43.533 7.03399 43.533C9.25327 43.533 11.4726 43.533 13.7044 43.533C13.8799 43.533 14.0429 43.533 14.2435 43.533C14.2435 44.0346 14.2435 44.511 14.2435 44.9875C14.2059 45 14.1808 45.0251 14.1558 45.0251C11.6732 45.0251 9.17804 45.0502 6.69546 45.0251C5.4667 45.0125 4.52633 44.022 4.51379 42.7807C4.50125 41.2134 4.51379 39.6461 4.51379 38.0914C4.51379 37.9284 4.51379 37.7529 4.51379 37.5522C3.00919 37.5522 1.54221 37.5522 0.0501532 37.5522C0.0501532 37.0382 0.0501532 36.5743 0.0501532 36.0476C2.98412 36.0476 5.94316 36.0476 8.92728 36.0476C8.95235 35.17 9.39119 34.5431 9.99303 34.0039C10.3065 33.7155 10.5949 33.4146 10.8958 33.1137C12.3502 31.6592 14.068 31.9225 15.046 33.7908C15.861 33.5901 16.6383 33.6904 17.3154 34.2547C17.7668 34.6308 17.9925 35.0697 18.1555 35.9097C19.4344 36.1103 20.2243 36.825 20.4124 38.1792C21.2775 38.3045 22.0925 38.6431 22.3683 39.4957C22.6693 40.411 23.3213 40.9627 23.9356 41.5896C24.2616 41.9281 24.5876 42.2667 24.9387 42.5801C25.3399 42.9563 25.8038 42.9688 26.1549 42.6428C26.5185 42.3043 26.5185 41.7902 26.1173 41.4015C25.0892 40.3608 24.0359 39.3201 22.9953 38.2795C22.9451 38.2293 22.895 38.1666 22.8197 38.0914C23.1833 37.7654 23.5344 37.4519 23.9231 37.1009C23.9733 37.151 24.0986 37.2639 24.224 37.3767C25.365 38.5177 26.506 39.6587 27.647 40.7997C27.7097 40.8624 27.7849 40.9376 27.8476 41.0003C28.3115 41.4642 28.788 41.5144 29.1641 41.1382C29.5403 40.7746 29.5026 40.2856 29.0513 39.8217C28.6375 39.3954 28.2112 38.9816 27.7974 38.5553C26.7442 37.5021 25.691 36.4489 24.6503 35.3957C24.5375 35.2828 24.4372 35.17 24.3243 35.0571C24.6754 34.7061 25.0139 34.3801 25.365 34.0164C25.4904 34.1418 25.6158 34.2547 25.7412 34.3675C27.4464 36.0727 29.139 37.7779 30.8568 39.4706C31.0449 39.6587 31.3207 39.8217 31.5715 39.8593C32.1733 39.9345 32.6121 39.2575 32.3488 38.6932C32.2987 38.5929 32.236 38.5052 32.1608 38.4299C29.9666 36.2232 27.7598 34.029 25.528 31.7972C24.6879 32.4993 23.8604 33.214 22.9953 33.8785C22.0173 34.6434 20.939 34.7562 19.8356 34.1794C18.0426 33.2391 17.8044 30.7941 19.3466 29.4776C20.6631 28.3491 22.0173 27.2458 23.3463 26.1424C23.4843 25.9919 23.6974 25.8038 24.0109 25.5405ZM5.96824 26.2928C7.82391 26.2928 9.61688 26.3054 11.4224 26.2803C11.7108 26.2803 12.0117 26.2302 12.2875 26.1424C14.1808 25.5155 16.0741 24.8635 17.9799 24.2616C18.3937 24.1237 18.8325 24.061 19.2588 24.0485C22.1928 24.0359 25.1393 24.0109 28.0858 24.0485C28.7754 24.061 29.4901 24.1864 30.1546 24.3996C31.6091 24.8635 33.0384 25.4026 34.4678 25.9543C35.0947 26.1925 35.7091 26.3179 36.3862 26.2928C37.2513 26.2678 38.129 26.2803 39.0192 26.2803C39.0192 26.0546 39.0192 25.8791 39.0192 25.7035C39.0192 18.005 39.0192 10.3065 39.0192 2.62051C39.0192 1.69267 38.8186 1.49206 37.8908 1.49206C27.6344 1.49206 17.3656 1.49206 7.10922 1.49206C6.16885 1.49206 5.96824 1.69267 5.96824 2.60797C5.96824 10.3065 5.96824 18.005 5.96824 25.691C5.96824 25.8791 5.96824 26.0421 5.96824 26.2928ZM16.6885 35.9975C16.4753 35.7467 16.3123 35.4709 16.0741 35.2953C15.7481 35.0822 15.4096 35.195 15.1463 35.4583C14.4191 36.1856 13.6793 36.9003 12.9646 37.64C12.5634 38.0412 12.5508 38.5302 12.9019 38.8813C13.253 39.2324 13.742 39.2198 14.1432 38.8186C14.8704 38.1039 15.5851 37.3892 16.2873 36.662C16.4252 36.5241 16.513 36.2984 16.6885 35.9975ZM18.9454 38.2293C18.7072 37.9785 18.5316 37.7027 18.2809 37.5522C17.9423 37.3516 17.6163 37.5021 17.353 37.7654C16.6383 38.4801 15.9111 39.1948 15.1964 39.922C14.7952 40.3232 14.7952 40.8247 15.1588 41.1633C15.5099 41.5018 15.9863 41.4893 16.375 41.1006C17.1023 40.3859 17.8295 39.6712 18.5316 38.944C18.6821 38.781 18.7699 38.5302 18.9454 38.2293ZM13.6793 34.4804C13.4787 34.2421 13.3157 33.9663 13.09 33.8033C12.7765 33.5901 12.4255 33.6904 12.1496 33.9537C11.6606 34.4302 11.1716 34.9192 10.6952 35.4082C10.319 35.7969 10.3065 36.2733 10.6325 36.6244C10.971 36.988 11.4726 36.988 11.8738 36.5868C12.3628 36.1229 12.8392 35.6464 13.2906 35.1574C13.4411 35.007 13.5163 34.7687 13.6793 34.4804ZM20.3371 39.6336C20.0738 39.7465 19.8481 39.7841 19.7228 39.922C19.1711 40.4486 18.6194 40.9877 18.1053 41.5394C17.8044 41.8654 17.842 42.3293 18.1429 42.6428C18.4439 42.9563 18.9078 43.019 19.2463 42.718C19.8231 42.1914 20.3873 41.6523 20.8888 41.0504C21.0393 40.8624 21.0644 40.4486 20.9641 40.1978C20.8763 39.9721 20.5628 39.8217 20.3371 39.6336ZM22.1803 42.0786C21.754 42.4673 21.3653 42.8309 20.9641 43.207C21.2274 43.5205 21.5408 43.7838 21.9295 43.6208C22.1803 43.5205 22.4436 43.2572 22.5439 43.0064C22.7069 42.6052 22.4561 42.2792 22.1803 42.0786Z" fill="white"/>
<path d="M36.7372 7.54785C36.7372 8.04938 36.7372 8.5133 36.7372 8.98976C27.2457 8.98976 17.7667 8.98976 8.2627 8.98976C8.2627 8.52584 8.2627 8.04938 8.2627 7.54785C17.7417 7.54785 27.2206 7.54785 36.7372 7.54785Z" fill="white"/>
<path d="M8.25 11.9868C8.25 11.4978 8.25 11.0339 8.25 10.5449C17.754 10.5449 27.233 10.5449 36.7496 10.5449C36.7496 11.0339 36.7496 11.4978 36.7496 11.9868C27.2581 11.9868 17.7666 11.9868 8.25 11.9868Z" fill="white"/>
<path d="M8.25 14.9956C8.25 14.4941 8.25 14.0302 8.25 13.5537C13.491 13.5537 18.707 13.5537 23.9605 13.5537C23.9605 14.0176 23.9605 14.4941 23.9605 14.9956C18.732 14.9956 13.5161 14.9956 8.25 14.9956Z" fill="white"/>
<path d="M17.2529 5.22804C17.2529 4.73904 17.2529 4.27513 17.2529 3.78613C20.7511 3.78613 24.2242 3.78613 27.7224 3.78613C27.7224 4.27513 27.7224 4.72651 27.7224 5.22804C24.2493 5.22804 20.7762 5.22804 17.2529 5.22804Z" fill="white"/>
<path d="M17.2149 18.0547C17.2149 18.5437 17.2149 19.0076 17.2149 19.4966C14.2182 19.4966 11.2467 19.4966 8.25 19.4966C8.25 19.0076 8.25 18.5437 8.25 18.0547C11.2216 18.0547 14.1932 18.0547 17.2149 18.0547Z" fill="white"/>
<path d="M27.7725 19.4966C27.7725 18.9951 27.7725 18.5311 27.7725 18.0547C30.7566 18.0547 33.7281 18.0547 36.7248 18.0547C36.7248 18.5186 36.7248 18.9951 36.7248 19.4966C33.7532 19.4966 30.7817 19.4966 27.7725 19.4966Z" fill="white"/>
<path d="M14.2056 21.0645C14.2056 21.566 14.2056 22.0299 14.2056 22.5064C12.9769 22.5064 11.7607 22.5064 10.5068 22.5064C10.5068 22.0424 10.5068 21.566 10.5068 21.0645C11.7231 21.0645 12.9518 21.0645 14.2056 21.0645Z" fill="white"/>
<path d="M33.7408 21.0645C33.7408 21.566 33.7408 22.0174 33.7408 22.5064C32.512 22.5064 31.2958 22.5064 30.042 22.5064C30.042 22.0424 30.042 21.566 30.042 21.0645C31.2457 21.0645 32.4744 21.0645 33.7408 21.0645Z" fill="white"/>
</g>
<defs>
<clipPath id="clip0_917_9095">
<rect width="45" height="45.163" fill="white"/>
</clipPath>
</defs>
</svg>
