<svg width="41" height="40" viewBox="0 0 41 40" fill="none" xmlns="http://www.w3.org/2000/svg">
<path d="M7.35509 22.9208C7.50411 22.9208 7.65312 22.9208 7.81278 22.9208C14.4759 22.9208 21.139 22.9208 27.8128 22.9208C28.611 22.9208 28.6962 23.0098 28.6962 23.8555C28.6962 28.1726 28.6962 32.4897 28.6962 36.8068C28.6962 38.409 27.7702 39.6218 26.3439 39.9222C26.0991 39.9779 25.8436 39.9779 25.5882 39.9779C19.7979 39.9779 14.0076 39.9556 8.21725 40.0001C6.51422 40.0112 5.056 38.6983 5.08793 36.7066C5.14115 32.779 5.10922 28.8513 5.10922 24.9236C5.10922 24.7567 5.10922 24.6009 5.10922 24.3228C4.67282 24.6121 4.30028 24.8568 3.92774 25.1016C3.03365 25.7025 3.01236 25.6913 2.45888 24.7678C1.9799 23.9779 1.50092 23.199 1.03259 22.409C0.0852807 20.829 0.457819 19.0822 1.95861 18.0696C2.81013 17.4911 3.67229 16.9236 4.57702 16.3228C4.43865 16.2338 4.34286 16.167 4.24706 16.1114C3.12945 15.377 2.66111 13.9528 3.14009 12.6621C3.60843 11.3937 4.84312 10.626 6.13104 10.8819C7.53604 11.16 8.9304 11.5161 10.3248 11.8276C10.4525 11.861 10.5802 11.8833 10.7399 11.9055C10.974 10.7929 11.2082 9.71359 11.4424 8.63432C11.6552 7.64405 11.8575 6.65379 12.081 5.67465C12.4323 4.11693 13.816 3.1823 15.2955 3.48272C16.7324 3.77201 17.6584 5.21846 17.4243 6.78731C17.371 7.1211 17.3072 7.44378 17.254 7.76645C17.254 7.7887 17.2646 7.82208 17.2859 7.87771C18.031 7.38814 18.7654 6.89857 19.4998 6.409C21.2029 5.27409 22.8207 5.64127 23.9064 7.42152C24.4173 8.25601 24.9176 9.07938 25.4285 9.91387C25.7478 10.4368 25.7052 10.626 25.205 10.9598C19.3934 14.8207 13.5818 18.6927 7.78085 22.5536C7.64248 22.6427 7.50411 22.7428 7.36574 22.8429C7.34445 22.8652 7.35509 22.8986 7.35509 22.9208ZM19.6276 38.9765C19.7979 38.9765 19.9256 38.9765 20.064 38.9765C21.9054 38.9765 23.7574 38.9765 25.5988 38.9765C26.9612 38.9765 27.7382 38.1642 27.7382 36.7178C27.7382 32.6121 27.7382 28.4952 27.7382 24.3895C27.7382 24.256 27.7382 24.1114 27.7382 23.9445C25.024 23.9445 22.3311 23.9445 19.6276 23.9445C19.6276 28.9626 19.6276 33.9361 19.6276 38.9765ZM6.08846 23.9445C6.07782 24.0557 6.06718 24.1447 6.06718 24.2226C6.06718 28.4507 6.05653 32.69 6.06718 36.918C6.06718 38.142 6.88676 38.9653 8.05759 38.9765C9.33487 38.9876 10.6015 38.9765 11.8788 38.9765C12.1023 38.9765 12.3258 38.9765 12.5493 38.9765C12.5493 33.9361 12.5493 28.9514 12.5493 23.9445C10.3886 23.9445 8.25983 23.9445 6.08846 23.9445ZM18.6377 23.9556C16.9346 23.9556 15.2529 23.9556 13.5605 23.9556C13.5605 28.9737 13.5605 33.9584 13.5605 38.9653C15.2635 38.9653 16.9346 38.9653 18.6377 38.9653C18.6377 33.9584 18.6377 28.9848 18.6377 23.9556ZM10.9634 19.2268C10.0906 17.7804 9.23907 16.3895 8.37691 14.9765C6.33327 16.3339 4.31093 17.6691 2.30986 19.0265C1.51157 19.5606 1.20289 20.6288 1.6393 21.4855C2.13956 22.4646 2.73562 23.377 3.3104 24.3228C5.86494 22.6093 8.3982 20.9292 10.9634 19.2268ZM24.4706 10.2477C23.9703 9.4243 23.5126 8.65657 23.0336 7.88884C22.2992 6.68717 21.2348 6.44238 20.064 7.21012C18.6696 8.13362 17.2859 9.05713 15.9022 9.98063C15.3913 10.3256 14.8804 10.6594 14.3482 11.0043C15.221 12.4396 16.0725 13.8416 16.9346 15.2546C19.4573 13.5745 21.9479 11.9278 24.4706 10.2477ZM11.7723 18.6816C13.2518 17.6913 14.6781 16.7456 16.1363 15.7776C15.2635 14.3534 14.412 12.9514 13.5499 11.5272C12.081 12.5064 10.6441 13.4632 9.18585 14.4313C10.0587 15.8666 10.9102 17.2574 11.7723 18.6816ZM11.7936 11.4938C11.9533 11.4048 12.0597 11.3492 12.1555 11.2824C13.2199 10.5703 14.263 9.83599 15.3487 9.16839C15.8809 8.8346 16.2002 8.45629 16.2534 7.7887C16.2854 7.37702 16.4344 6.97646 16.4663 6.56478C16.4876 6.27549 16.4663 5.95282 16.3812 5.67465C16.1363 4.88467 15.4445 4.41735 14.6355 4.45073C13.8692 4.48411 13.2093 5.00706 13.0177 5.80817C12.7941 6.72055 12.6132 7.64405 12.4216 8.55643C12.2087 9.51332 12.0065 10.4702 11.7936 11.4938ZM9.899 12.7623C8.52593 12.4507 7.2593 12.1392 5.98202 11.8721C5.056 11.6719 4.16191 12.295 3.93839 13.2296C3.70422 14.2199 4.24706 15.1879 5.17309 15.4772C5.46047 15.5662 5.69464 15.555 5.95009 15.377C7.08899 14.6093 8.23854 13.8638 9.37744 13.1183C9.5371 13.0182 9.67547 12.918 9.899 12.7623Z" fill="white"/>
<path d="M33.7842 16.9568C33.7203 17.3129 33.6352 17.7023 33.6032 18.0806C33.5926 18.2475 33.6565 18.4589 33.7523 18.5813C33.9651 18.8483 34.2419 19.0486 34.4441 19.3157C34.5506 19.4603 34.6464 19.7051 34.5931 19.8609C34.5506 20.0166 34.3164 20.2058 34.1674 20.2058C33.2094 20.2058 32.5921 20.6286 32.3153 21.6189C32.2727 21.7635 32.0279 21.9415 31.8683 21.9415C31.7193 21.9415 31.4638 21.7746 31.4212 21.6189C31.1445 20.6397 30.5378 20.2058 29.5692 20.2058C29.4201 20.2058 29.186 20.0166 29.1434 19.8609C29.0902 19.7051 29.1753 19.4047 29.2924 19.3157C30.1227 18.726 30.293 17.9693 29.9949 17.0013C29.8566 16.5674 30.2823 16.267 30.6974 16.4561C31.0061 16.6008 31.3041 16.8122 31.6235 16.9457C31.7725 17.0125 31.9747 17.0125 32.1237 16.9457C32.4537 16.8122 32.7517 16.6008 33.0817 16.445C33.4542 16.3115 33.7842 16.5451 33.7842 16.9568ZM33.103 19.3713C32.5814 18.9819 32.475 18.4812 32.624 17.8692C32.1131 18.292 31.6341 18.2364 31.1338 17.8692C31.3361 18.5145 31.1551 18.993 30.6655 19.3824C31.3148 19.349 31.6873 19.6828 31.9002 20.3059C32.0918 19.6606 32.4643 19.3602 33.103 19.3713Z" fill="white"/>
<path d="M36.5622 2.51454C36.4983 2.60355 36.4344 2.7927 36.3067 2.87059C35.4871 3.34903 35.1891 4.02775 35.4126 4.98464C35.4552 5.15154 35.3275 5.46308 35.1997 5.54097C35.0401 5.61885 34.7314 5.58547 34.593 5.46308C33.9225 4.82887 33.2413 4.75098 32.4643 5.25167C32.3153 5.35181 31.964 5.32956 31.8576 5.2183C31.7298 5.08478 31.666 4.73985 31.7405 4.56183C32.0917 3.71621 31.964 3.03749 31.2934 2.43665C31.1551 2.31426 31.0486 1.95821 31.1125 1.79131C31.1764 1.62441 31.485 1.46864 31.6766 1.47977C32.5388 1.55765 33.1242 1.23498 33.4648 0.378237C33.5393 0.200211 33.8267 -0.0111935 33.997 -6.69474e-05C34.1673 0.0110596 34.4121 0.266971 34.4547 0.467249C34.6463 1.35737 35.1252 1.84694 36.0087 1.89145C36.3067 1.90258 36.5409 2.05835 36.5622 2.51454ZM32.8794 3.97212C33.4222 3.60494 33.9012 3.71621 34.3589 4.12789C34.3802 3.32678 34.3802 3.32678 34.9869 2.6258C34.3376 2.61468 33.9863 2.25863 33.8267 1.60216C33.6245 2.28088 33.1668 2.45891 32.5494 2.42553C33.0178 2.88171 33.1455 3.36016 32.8794 3.97212Z" fill="white"/>
<path d="M39.4042 12.1056C39.351 12.1723 39.2872 12.3615 39.1488 12.4394C38.3505 12.9067 38.0312 13.5632 38.2547 14.52C38.2973 14.6981 38.1695 15.0207 38.0312 15.1098C37.8928 15.1988 37.5628 15.1543 37.4351 15.0319C36.7752 14.4199 36.1046 14.3086 35.3276 14.8093C35.168 14.9095 34.8167 14.8872 34.689 14.7648C34.5613 14.6424 34.5293 14.2864 34.6038 14.0972C34.9338 13.2739 34.8167 12.5952 34.1568 12.0054C34.0078 11.8719 33.9013 11.527 33.9652 11.3601C34.0291 11.1932 34.3377 11.0263 34.5293 11.0374C35.4234 11.1264 35.9982 10.7704 36.3494 9.90252C36.4133 9.73562 36.69 9.54647 36.8603 9.5576C37.02 9.56872 37.2755 9.80238 37.3074 9.98041C37.4777 10.9595 38.0525 11.3824 38.9572 11.4714C39.2765 11.5159 39.4149 11.7273 39.4042 12.1056ZM35.7214 13.552C36.2643 13.196 36.7539 13.2405 37.2329 13.6856C37.1052 13.0291 37.3074 12.5729 37.8396 12.228C37.1903 12.1835 36.8497 11.8274 36.7007 11.1932C36.4559 11.8052 36.0301 12.0611 35.4021 12.0054C35.8811 12.4505 35.9875 12.9401 35.7214 13.552Z" fill="white"/>
<path d="M29.633 11.5381C30.6974 11.5381 31.7086 11.794 32.6879 12.2057C32.9859 12.3281 33.1668 12.5395 33.0391 12.8844C32.9114 13.2182 32.6453 13.2738 32.3472 13.1403C31.1658 12.6396 29.9523 12.3837 28.6964 12.6174C26.5995 13.0068 25.1626 14.3531 24.0662 16.1667C23.9917 16.3003 23.9385 16.4783 23.8214 16.5339C23.6511 16.6229 23.3957 16.7008 23.2679 16.6118C23.1402 16.5339 23.1083 16.2557 23.0444 16.0666C23.0338 16.0221 23.0763 15.9665 23.0976 15.922C24.2898 13.7857 25.9183 12.2279 28.2919 11.6716C28.4835 11.6271 28.6857 11.5937 28.8773 11.5715C29.1328 11.5492 29.3882 11.5492 29.633 11.5381Z" fill="white"/>
<path d="M29.2286 10.4364C28.739 10.3474 28.1323 10.2584 27.5363 10.136C27.1318 10.047 26.9508 9.79105 27.0466 9.47951C27.1637 9.11233 27.4405 9.07895 27.7598 9.16797C28.6752 9.41275 29.5905 9.49063 30.5166 9.25698C31.9322 8.90093 32.656 7.86616 32.9966 6.46422C33.0179 6.35296 33.0392 6.25282 33.0711 6.14155C33.1563 5.85226 33.3479 5.68537 33.6352 5.76325C33.9226 5.84114 34.0397 6.06367 33.9865 6.36408C33.6778 8.14433 32.7092 9.85781 30.4527 10.2917C30.0908 10.3585 29.7183 10.3808 29.2286 10.4364Z" fill="white"/>
<path d="M26.7912 17.5132C27.0573 17.5466 27.5575 17.6022 28.0472 17.7023C28.5474 17.8025 28.7284 18.0139 28.6645 18.3365C28.59 18.6703 28.3452 18.7705 27.8556 18.6703C26.6954 18.4256 25.5565 18.4478 24.4601 18.9708C23.7044 19.3268 23.0764 19.8386 22.5762 20.5285C22.342 20.8511 22.0653 20.9179 21.8311 20.7399C21.5863 20.5507 21.5756 20.2614 21.8098 19.9388C23.0232 18.3254 24.6198 17.5466 26.7912 17.5132Z" fill="white"/>
<path d="M28.3664 5.1625C28.3557 5.65206 27.9406 6.06375 27.4829 6.04149C27.0146 6.03037 26.6314 5.60756 26.6421 5.11799C26.6527 4.63955 27.0678 4.22786 27.5255 4.23899C27.9832 4.25012 28.377 4.68405 28.3664 5.1625Z" fill="white"/>
<path d="M20.7133 22.3755C20.245 22.3644 19.8618 21.9527 19.8618 21.4631C19.8725 20.9735 20.2769 20.5618 20.7346 20.573C21.1923 20.5841 21.5968 21.0069 21.5862 21.4854C21.5862 21.9749 21.1817 22.3866 20.7133 22.3755Z" fill="white"/>
<path d="M20.3622 17.313C20.3516 17.8026 19.9684 18.2143 19.5 18.2031C19.0317 18.2031 18.6485 17.7915 18.6592 17.2907C18.6592 16.8012 19.053 16.3895 19.5213 16.4006C19.9897 16.4117 20.3729 16.8234 20.3622 17.313Z" fill="white"/>
<path d="M39.6277 7.14328C39.1487 7.14328 38.7656 6.74272 38.7762 6.24202C38.7762 5.75245 39.17 5.35189 39.6384 5.36302C40.1173 5.36302 40.4899 5.76358 40.4899 6.26427C40.5005 6.75384 40.1067 7.1544 39.6277 7.14328Z" fill="white"/>
<path d="M38.2013 17.8801C38.6803 17.869 39.0635 18.2473 39.0742 18.748C39.0848 19.2487 38.7229 19.6492 38.2439 19.6604C37.7543 19.6715 37.3817 19.2932 37.3711 18.7925C37.3604 18.2918 37.7223 17.8912 38.2013 17.8801Z" fill="white"/>
</svg>
