<svg width="152" height="5" viewBox="0 0 152 5" fill="none" xmlns="http://www.w3.org/2000/svg">
<path d="M118.436 1.65397H72.6609C94.4171 1.27861 115.998 1 129.061 1C136.359 1 143.6 1.65397 150.811 1.65397H147.061H118.436Z" fill="#141414"/>
<path d="M8.06077 1C23.8118 2.20081 40.0193 1.65397 55.8734 1.65397C76.7276 1.65397 97.5819 1.65397 118.436 1.65397C127.978 1.65397 137.519 1.65397 147.061 1.65397C147.702 1.65397 151.935 1.65397 150.811 1.65397C143.6 1.65397 136.359 1 129.061 1C89.0329 1 -30.9675 3.61589 9.06077 3.61589C35.6895 3.61589 63.0761 4.80525 89.4985 2.99825C96.4413 2.52343 103.841 2.96191 110.811 2.96191C116.034 2.96191 122.568 3.68656 127.311 2.30794" stroke="#EF0D5E" stroke-width="2" stroke-linecap="round" stroke-linejoin="round"/>
</svg>
