<svg width="1400" height="974" viewBox="0 0 1400 974" fill="none" xmlns="http://www.w3.org/2000/svg">
<path opacity="0.1" d="M980.762 683.483C980.762 710.145 959.148 731.759 932.486 731.759C905.824 731.759 884.21 710.145 884.21 683.483C884.21 656.821 905.824 635.207 932.486 635.207C959.148 635.207 980.762 656.821 980.762 683.483ZM901.07 683.483C901.07 700.833 915.135 714.899 932.486 714.899C949.836 714.899 963.902 700.833 963.902 683.483C963.902 666.132 949.836 652.067 932.486 652.067C915.135 652.067 901.07 666.132 901.07 683.483Z" fill="#EF0D5E"/>
<path opacity="0.1" d="M237.81 972.987C271.044 974.154 304.171 968.584 335.195 956.611C366.22 944.638 394.501 926.511 418.335 903.32C442.169 880.129 461.063 852.355 473.88 821.67C486.697 790.984 493.172 758.022 492.915 724.769C492.657 691.515 485.673 658.658 472.382 628.175C459.091 597.691 439.768 570.213 415.578 547.395C391.387 524.576 362.829 506.889 331.623 495.398C300.417 483.907 267.208 478.85 233.996 480.532L238.349 566.496C259.962 565.402 281.573 568.692 301.881 576.17C322.189 583.648 340.773 595.158 356.516 610.007C372.258 624.857 384.832 642.739 393.481 662.576C402.13 682.413 406.676 703.795 406.843 725.436C407.011 747.076 402.797 768.526 394.456 788.495C386.116 808.464 373.82 826.538 358.31 841.629C342.799 856.721 324.395 868.518 304.206 876.309C284.016 884.101 262.459 887.726 240.831 886.966L237.81 972.987Z" fill="#EF0D5E"/>
<path opacity="0.1" d="M1153.54 0C1088.17 -7.79476e-07 1025.48 25.9663 979.264 72.1867C933.044 118.407 907.077 181.095 907.077 246.461C907.077 311.826 933.043 374.515 979.264 420.735C1025.48 466.956 1088.17 492.922 1153.54 492.922L1153.54 429.481C1105 429.481 1058.45 410.198 1024.12 375.875C989.801 341.553 970.518 295.001 970.518 246.461C970.518 197.921 989.801 151.369 1024.12 117.047C1058.45 82.7237 1105 63.4413 1153.54 63.4413L1153.54 0Z" fill="#EF0D5E"/>
</svg>
