<?xml version="1.0" encoding="utf-8"?>
<!-- Generator: Adobe Illustrator 25.0.1, SVG Export Plug-In . SVG Version: 6.00 Build 0)  -->
<svg version="1.1" id="Layer_1" xmlns="http://www.w3.org/2000/svg" xmlns:xlink="http://www.w3.org/1999/xlink" x="0px" y="0px"
	 viewBox="0 0 68 68" style="enable-background:new 0 0 68 68;" xml:space="preserve">
<style type="text/css">
	.st0{clip-path:url(#SVGID_2_);fill:none;stroke:#000000;stroke-width:3;stroke-miterlimit:10;}
	.st1{clip-path:url(#SVGID_4_);fill:none;stroke:#000000;stroke-width:3;stroke-miterlimit:10;}
</style>
<g>
	<defs>
		<polygon id="SVGID_1_" points="1.6,36.1 34.2,4.2 67.4,36.1 61.4,-7.7 3.4,-8.2 		"/>
	</defs>
	<clipPath id="SVGID_2_">
		<use xlink:href="#SVGID_1_"  style="overflow:visible;"/>
	</clipPath>
	<path class="st0" d="M34,7.1c-0.2,0.2-0.3,0.5-0.5,0.7C24.5,16.9,15.4,26,6.3,35.1c-0.7,0.7-1.4,1.1-2.4,0.9
		c-1.7-0.4-2.4-2.4-1.2-3.8c0.1-0.2,0.3-0.3,0.5-0.5c9.7-9.7,19.4-19.4,29.1-29.1c1.4-1.4,2.6-1.4,4,0c9.7,9.7,19.4,19.4,29.2,29.1
		c0.5,0.5,1,1.1,1,1.9c0,1-0.5,1.7-1.3,2.1c-0.9,0.4-1.7,0.3-2.4-0.3c-0.2-0.2-0.4-0.4-0.6-0.6c-9-9-18.1-18.1-27.1-27.1
		c-0.2-0.2-0.3-0.5-0.5-0.7C34.2,7.2,34.1,7.1,34,7.1z"/>
</g>
<g>
	<defs>
		<path id="SVGID_3_" d="M11.6,40.6l-0.8-4.9l-5.5,2.5L3.9,62.2l12,8.7l41.7,2.3l13.1-6.7l-1.5-17.7l-12-11.9l0,4.8l0.1,9.6
			l-0.1,6.2l-2.6,2.1l-1.5,3.3l-4.4,0.7l-11.5,0.2c-3.8-0.1-7.6-0.2-11.4-0.3c-3-0.2-6-0.5-8.9-0.8c-1.4-1.2-2.9-2.4-4.3-3.6
			c-0.3-2-0.7-3.9-1-5.9L11.6,40.6z"/>
	</defs>
	<clipPath id="SVGID_4_">
		<use xlink:href="#SVGID_3_"  style="overflow:visible;"/>
	</clipPath>
	<path class="st1" d="M34.2,65.9c-4.6,0-9.2,0-13.8,0C14.1,65.9,9,60.8,9,54.5c0-4.6,0-9.2,0-13.8c0-1.1,0.6-1.9,1.5-2.2
		c0.9-0.3,1.9-0.1,2.5,0.6c0.3,0.5,0.6,1.2,0.6,1.8c0,4.5,0,9,0,13.5c0,3.9,3,6.9,7,6.9c9.1,0,18.3,0,27.4,0c3.9,0,7-3,7-6.9
		c0-4.5,0-9.1,0-13.6c0-1.3,0.8-2.2,2-2.4c1.1-0.1,2.2,0.6,2.5,1.7c0.1,0.3,0.1,0.6,0.1,0.9c0,4.6,0,9.1,0,13.7
		c0,6.1-5.1,11.2-11.2,11.3c-2.3,0-4.7,0-7,0C38.9,65.9,36.5,65.9,34.2,65.9C34.2,65.9,34.2,65.9,34.2,65.9z"/>
</g>
</svg>
