<svg width="15" height="14" viewBox="0 0 15 14" fill="none" xmlns="http://www.w3.org/2000/svg">
<path d="M13.8356 6.07352L8.06916 1.20934C7.90882 1.07415 7.70585 1 7.49613 1C7.2864 1 7.08343 1.07415 6.9231 1.20934L1.15766 6.07352C1.08809 6.13231 1.03825 6.21105 1.01488 6.29909C0.991513 6.38713 0.995748 6.48022 1.02701 6.56577C1.05828 6.65133 1.11506 6.72522 1.18969 6.77745C1.26431 6.82968 1.35318 6.85773 1.44427 6.85781H2.96966V12.9868C2.96966 13.0799 3.00666 13.1693 3.07253 13.2351C3.1384 13.301 3.22773 13.338 3.32089 13.338H6.23469V11.1572C6.22787 10.8252 6.34739 10.503 6.56908 10.2557C6.79077 10.0085 7.09808 9.85466 7.42887 9.82535C7.60008 9.81619 7.77135 9.842 7.93226 9.90122C8.09316 9.96043 8.24032 10.0518 8.36475 10.1698C8.48917 10.2877 8.58827 10.4298 8.65599 10.5873C8.72371 10.7448 8.75863 10.9145 8.75862 11.0859V13.338H11.6724C11.7656 13.338 11.8549 13.301 11.9208 13.2351C11.9866 13.1693 12.0237 13.0799 12.0237 12.9868V6.85781H13.5487C13.6398 6.85773 13.7286 6.82968 13.8033 6.77745C13.8779 6.72522 13.9347 6.65133 13.9659 6.56577C13.9972 6.48022 14.0014 6.38713 13.9781 6.29909C13.9547 6.21105 13.9049 6.13231 13.8353 6.07352H13.8356Z" stroke="white" stroke-width="0.5" stroke-linecap="round" stroke-linejoin="round"/>
<path d="M7.4967 8.74927C8.37077 8.74927 9.07934 8.04069 9.07934 7.16662C9.07934 6.29256 8.37077 5.58398 7.4967 5.58398C6.62263 5.58398 5.91406 6.29256 5.91406 7.16662C5.91406 8.04069 6.62263 8.74927 7.4967 8.74927Z" stroke="white" stroke-width="0.5" stroke-linecap="round" stroke-linejoin="round"/>
</svg>
