<svg width="22" height="22" viewBox="0 0 22 22" fill="none" xmlns="http://www.w3.org/2000/svg">
<path d="M15.4461 0H6.55392C2.94007 0 0 2.94007 0 6.55392V15.4461C0 19.0599 2.94007 22 6.55392 22H15.4461C19.0599 22 22 19.0599 22 15.4461V6.55392C22 2.94007 19.0599 0 15.4461 0ZM19.7868 15.4461C19.7868 17.8434 17.8434 19.7868 15.4461 19.7868H6.55392C4.15663 19.7868 2.2132 17.8434 2.2132 15.4461V6.55392C2.2132 4.15659 4.15663 2.2132 6.55392 2.2132H15.4461C17.8434 2.2132 19.7868 4.15659 19.7868 6.55392V15.4461Z" fill="url(#paint0_linear_2607_7378)"/>
<path d="M11 5.30859C7.86258 5.30859 5.31006 7.86111 5.31006 10.9985C5.31006 14.136 7.86258 16.6885 11 16.6885C14.1375 16.6885 16.69 14.136 16.69 10.9985C16.69 7.86107 14.1375 5.30859 11 5.30859ZM11 14.4754C9.07985 14.4754 7.52326 12.9188 7.52326 10.9986C7.52326 9.07839 9.07989 7.52179 11 7.52179C12.9202 7.52179 14.4768 9.07839 14.4768 10.9986C14.4768 12.9187 12.9202 14.4754 11 14.4754Z" fill="url(#paint1_linear_2607_7378)"/>
<path d="M16.7011 6.71711C17.4541 6.71711 18.0645 6.10668 18.0645 5.35367C18.0645 4.60067 17.4541 3.99023 16.7011 3.99023C15.9481 3.99023 15.3376 4.60067 15.3376 5.35367C15.3376 6.10668 15.9481 6.71711 16.7011 6.71711Z" fill="url(#paint2_linear_2607_7378)"/>
<defs>
<linearGradient id="paint0_linear_2607_7378" x1="11" y1="21.936" x2="11" y2="0.170878" gradientUnits="userSpaceOnUse">
<stop stop-color="#E09B3D"/>
<stop offset="0.3" stop-color="#C74C4D"/>
<stop offset="0.6" stop-color="#C21975"/>
<stop offset="1" stop-color="#7024C4"/>
</linearGradient>
<linearGradient id="paint1_linear_2607_7378" x1="11" y1="21.9345" x2="11" y2="0.169456" gradientUnits="userSpaceOnUse">
<stop stop-color="#E09B3D"/>
<stop offset="0.3" stop-color="#C74C4D"/>
<stop offset="0.6" stop-color="#C21975"/>
<stop offset="1" stop-color="#7024C4"/>
</linearGradient>
<linearGradient id="paint2_linear_2607_7378" x1="16.7011" y1="21.9369" x2="16.7011" y2="0.171814" gradientUnits="userSpaceOnUse">
<stop stop-color="#E09B3D"/>
<stop offset="0.3" stop-color="#C74C4D"/>
<stop offset="0.6" stop-color="#C21975"/>
<stop offset="1" stop-color="#7024C4"/>
</linearGradient>
</defs>
</svg>
