<svg width="140" height="24" viewBox="0 0 140 24" fill="none" xmlns="http://www.w3.org/2000/svg">
<path opacity="0.35" d="M22.683 23.9088H3.52541C1.97118 23.9088 0.710236 22.6452 0.710236 21.0877V2.82115C0.712231 1.26362 1.97118 0 3.52541 0H22.683C24.2372 0 25.4981 1.26362 25.4981 2.82115V21.0897C25.4981 22.6472 24.2372 23.9088 22.683 23.9088Z" fill="#1B1464"/>
<path d="M21.9707 23.9088H2.81517C1.26094 23.9088 0 22.6452 0 21.0877V2.82115C0 1.26362 1.25895 0 2.81517 0H21.9727C23.527 0 24.7879 1.26362 24.7879 2.82115V21.0897C24.7859 22.6472 23.525 23.9088 21.9707 23.9088Z" fill="url(#paint0_linear_2941_7564)"/>
<path fill-rule="evenodd" clip-rule="evenodd" d="M15.9793 11.0268L10.2492 14.3518C10.2492 14.3518 9.99378 12.2664 11.3864 11.2188C12.5396 10.351 15.251 8.89746 15.251 8.89746" fill="#F4F4F4"/>
<path fill-rule="evenodd" clip-rule="evenodd" d="M5.75602 14.4817C5.89568 14.9535 6.09121 15.4154 6.34859 15.8593C6.46032 16.0532 6.58002 16.2392 6.70971 16.4151L4.42924 17.7387C4.42924 17.7387 4.17984 15.6633 5.57247 14.6156C5.63033 14.5737 5.69218 14.5277 5.75602 14.4817Z" fill="#EFEDEE"/>
<path fill-rule="evenodd" clip-rule="evenodd" d="M19.0937 10.7668C19.5226 13.336 18.1081 16.4891 15.7258 17.8686C12.6593 19.6421 8.73279 18.5884 6.96109 15.5153C5.19138 12.4423 6.24283 8.50745 9.30939 6.73199C12.376 4.95852 16.3024 6.0122 18.0741 9.08528C18.1021 9.13326 18.3475 9.55714 18.3575 9.65511L15.8655 11.0867C15.8216 10.9927 15.664 10.6008 15.6101 10.5089C14.6245 8.79936 12.356 8.0196 10.6501 9.0073C8.94428 9.99501 8.20607 12.4363 9.19168 14.1478C10.1773 15.8572 12.7072 16.677 14.413 15.6893C14.9677 15.3694 15.9872 14.6016 16.4401 13.44C17.0626 11.8385 17.6611 11.3446 19.0937 10.7668Z" fill="#F4F4F4"/>
<path d="M40.5463 11.7416C40.5384 11.9881 40.4432 12.2027 40.2687 12.3696C40.0942 12.5445 39.88 12.6319 39.6341 12.6399H33.2725C33.3122 12.7512 33.3598 12.8704 33.4312 12.9976C33.4788 13.093 33.5264 13.1804 33.574 13.2679C33.6215 13.3553 33.6691 13.4427 33.7167 13.5222C33.6691 13.4427 33.6295 13.3712 33.5898 13.2997C33.5502 13.2281 33.5105 13.1566 33.4788 13.0771C33.6295 13.3553 33.8278 13.6017 34.0657 13.8243C34.3037 14.0469 34.5734 14.2138 34.8669 14.341C35.1842 14.4761 35.5253 14.5477 35.906 14.5715H35.9615C36.2074 14.5715 36.4137 14.6589 36.5802 14.8259C36.7468 14.9928 36.8341 15.1995 36.8341 15.4459C36.8341 15.6923 36.7468 15.9069 36.5802 16.0739C36.4137 16.2487 36.2074 16.3282 35.9615 16.3282C35.906 16.3282 35.8505 16.3282 35.795 16.3282C35.7394 16.3282 35.6918 16.3203 35.6442 16.3123C35.2476 16.2805 34.851 16.201 34.4703 16.0659C34.0895 15.9308 33.7326 15.7559 33.4074 15.5413C33.0822 15.3267 32.7807 15.0723 32.511 14.7782C32.2413 14.4841 32.0192 14.1502 31.8368 13.7925C31.4878 13.0771 31.3212 12.3219 31.3609 11.527C31.3926 10.7321 31.6226 9.99285 32.043 9.31719C32.0827 9.26154 32.1224 9.19796 32.162 9.13437C32.2017 9.07077 32.2493 9.01513 32.2969 8.95153C32.6459 8.47459 33.0742 8.08509 33.5819 7.78303C34.0895 7.48097 34.621 7.28224 35.2 7.17095C35.9298 7.05966 36.6596 7.11531 37.3735 7.34584C38.0874 7.57636 38.7061 7.95791 39.2137 8.4905C39.6341 8.91974 39.9594 9.40463 40.1894 9.95311C40.4194 10.4936 40.5384 11.066 40.5384 11.6701V11.7019V11.7416H40.5463ZM34.4465 9.33309C34.1689 9.51592 33.9309 9.73849 33.7326 10.0008C33.5343 10.2631 33.3836 10.5493 33.2725 10.8514H38.6426C38.595 10.7083 38.5316 10.5572 38.4443 10.3903C38.2619 10.0485 38.016 9.75438 37.7066 9.50797C37.3973 9.26155 37.0482 9.08667 36.6675 8.98333C36.2947 8.87999 35.9139 8.85614 35.5253 8.91974C35.1366 8.99128 34.7796 9.12642 34.4465 9.33309Z" fill="url(#paint1_linear_2941_7564)"/>
<path d="M54.4039 7.25846C54.4356 7.27435 54.4594 7.29819 54.4911 7.32999C54.499 7.33794 54.507 7.34589 54.5228 7.34589L54.2928 7.18691C54.3007 7.18691 54.3087 7.19486 54.3245 7.20281L54.4039 7.25846C54.499 7.3141 54.5784 7.38564 54.6418 7.47307C54.7053 7.56051 54.7529 7.6559 54.7925 7.75924C54.8084 7.80693 54.8243 7.84668 54.8243 7.87847C54.8243 7.91027 54.8243 7.95001 54.8243 7.99771C54.8243 8.18054 54.7767 8.34747 54.6815 8.4985C54.6418 8.55414 54.618 8.60184 54.6101 8.62568L54.4356 8.88005C54.3959 8.94364 54.3563 9.01518 54.3245 9.07083C54.2849 9.13442 54.2452 9.19801 54.1976 9.2616L52.754 11.5986C52.6746 11.702 52.6112 11.8132 52.5477 11.9245C52.4843 12.0358 52.4129 12.1551 52.3415 12.2663L50.1284 15.8195C50.1125 15.8593 50.0887 15.8831 50.0729 15.907C49.9618 16.0978 49.8032 16.2249 49.6049 16.2806C49.5176 16.3124 49.4224 16.3203 49.3193 16.3203C49.1765 16.3203 49.0417 16.2885 48.9227 16.217C48.772 16.1534 48.6451 16.0342 48.5499 15.8752L47.9788 14.961C47.9312 14.8736 47.8757 14.7862 47.8201 14.7067C47.7646 14.6192 47.7091 14.5318 47.6615 14.4364C47.598 14.341 47.5346 14.2456 47.4791 14.1503C47.4235 14.0549 47.3601 13.9515 47.2966 13.8482L46.9 13.2202C46.8366 13.1089 46.7652 12.9897 46.7017 12.8864C46.6383 12.7751 46.5669 12.6638 46.4875 12.5525C46.4082 12.4412 46.3448 12.322 46.2813 12.2107C46.2178 12.0994 46.1465 11.9881 46.0751 11.8848L45.6626 11.2091C45.5833 11.1058 45.5198 10.9945 45.4564 10.8832C45.3929 10.7719 45.3294 10.6686 45.266 10.5573L44.5838 9.45238C44.5362 9.37289 44.4886 9.30135 44.449 9.23775C44.4093 9.17416 44.3617 9.10262 44.3141 9.02313L43.9968 8.52234C43.9651 8.47465 43.9413 8.419 43.9175 8.36336C43.8937 8.30772 43.8699 8.24413 43.8541 8.18054C43.8461 8.14079 43.8382 8.08515 43.8382 8.00566C43.8382 7.67975 43.973 7.42538 44.2507 7.2505C44.3855 7.15511 44.5442 7.10742 44.7187 7.10742C44.9249 7.10742 45.1073 7.17101 45.2581 7.29024C45.3056 7.32999 45.3453 7.36974 45.385 7.41744C45.4246 7.46513 45.4643 7.52077 45.496 7.57642L45.6388 7.79104C45.6785 7.84668 45.7102 7.91027 45.7498 7.97387C45.7816 8.03746 45.8212 8.0931 45.8688 8.15669L46.9238 9.85778C47.0507 10.0645 47.1856 10.295 47.3363 10.5334C47.4156 10.6447 47.487 10.764 47.5505 10.8753C47.6139 10.9865 47.6853 11.1058 47.7488 11.2171L48.1612 11.8609C48.2168 11.9643 48.2802 12.0676 48.3437 12.163C48.4071 12.2584 48.4706 12.3617 48.534 12.4651L49.2638 13.6574C49.2797 13.6733 49.3035 13.7051 49.3193 13.7449L49.3907 13.6574L50.1205 12.4651C50.1839 12.3617 50.2474 12.2584 50.3108 12.163C50.3743 12.0676 50.4298 11.9643 50.4933 11.8609L50.9058 11.2171C50.9692 11.1058 51.0406 10.9865 51.1041 10.8753C51.1675 10.764 51.2389 10.6447 51.3182 10.5334C51.3976 10.4301 51.461 10.3188 51.5245 10.2075C51.5879 10.0963 51.6514 9.97701 51.7307 9.86573L52.7857 8.16464C52.8333 8.10899 52.8729 8.04541 52.9047 7.98181C52.9364 7.91822 52.9761 7.86257 53.0157 7.79898L53.1585 7.58436C53.214 7.47308 53.2933 7.37769 53.4044 7.2982C53.5551 7.17102 53.7376 7.11537 53.9438 7.11537C54.1104 7.11537 54.269 7.16307 54.4039 7.25846Z" fill="url(#paint2_linear_2941_7564)"/>
<path d="M67.4761 11.7416C67.4682 11.9881 67.373 12.2027 67.1985 12.3696C67.024 12.5445 66.8098 12.6319 66.5639 12.6399H60.2023C60.242 12.7512 60.2896 12.8704 60.361 12.9976C60.4085 13.093 60.4561 13.1804 60.5037 13.2679C60.5513 13.3553 60.5989 13.4427 60.6465 13.5222C60.5989 13.4427 60.5593 13.3712 60.5196 13.2997C60.4799 13.2281 60.4403 13.1566 60.4085 13.0771C60.5593 13.3553 60.7576 13.6017 60.9955 13.8243C61.2335 14.0469 61.5032 14.2138 61.7967 14.341C62.114 14.4761 62.455 14.5477 62.8358 14.5715H62.8913C63.1372 14.5715 63.3434 14.6589 63.51 14.8259C63.6766 14.9928 63.7639 15.1995 63.7639 15.4459C63.7639 15.6923 63.6766 15.9069 63.51 16.0739C63.3434 16.2487 63.1372 16.3282 62.8913 16.3282C62.8358 16.3282 62.7803 16.3282 62.7247 16.3282C62.6692 16.3282 62.6216 16.3203 62.574 16.3123C62.1774 16.2805 61.7808 16.201 61.4001 16.0659C61.0193 15.9308 60.6624 15.7559 60.3372 15.5413C60.0119 15.3267 59.7105 15.0723 59.4408 14.7782C59.1711 14.4841 58.949 14.1502 58.7666 13.7925C58.4176 13.0771 58.251 12.3219 58.2907 11.527C58.3224 10.7321 58.5524 9.99285 58.9728 9.31719C59.0125 9.26154 59.0521 9.19796 59.0918 9.13437C59.1315 9.07077 59.1791 9.01513 59.2266 8.95153C59.5757 8.47459 60.004 8.08509 60.5117 7.78303C61.0193 7.48097 61.5508 7.28224 62.1298 7.17095C62.8596 7.05966 63.5893 7.11531 64.3032 7.34584C65.0171 7.57636 65.6358 7.95791 66.1435 8.4905C66.5639 8.91974 66.8891 9.40463 67.1192 9.95311C67.3492 10.4936 67.4682 11.066 67.4682 11.6701V11.7019V11.7416H67.4761ZM61.3763 9.33309C61.0986 9.51592 60.8607 9.73849 60.6624 10.0008C60.4641 10.2631 60.3134 10.5493 60.2023 10.8514H65.5724C65.5248 10.7083 65.4613 10.5572 65.3741 10.3903C65.1916 10.0485 64.9457 9.75438 64.6364 9.50797C64.327 9.26155 63.978 9.08667 63.5973 8.98333C63.2245 8.87999 62.8437 8.85614 62.455 8.91974C62.0743 8.99128 61.7094 9.12642 61.3763 9.33309Z" fill="url(#paint3_linear_2941_7564)"/>
<path d="M78.7477 7.11542C78.9936 7.11542 79.2078 7.20287 79.3823 7.37774C79.5568 7.55262 79.6441 7.76725 79.6441 8.01367V11.2807V11.5112V15.446L79.6282 15.4619V15.5175V15.5573V15.597C79.6203 15.605 79.6123 15.6209 79.6123 15.6368C79.6123 15.6447 79.6123 15.6527 79.6044 15.6606C79.5965 15.6686 79.5965 15.6765 79.5965 15.6845C79.5965 15.6924 79.5886 15.7004 79.5806 15.7163C79.5806 15.7481 79.5727 15.764 79.5648 15.7719C79.5648 15.7799 79.5568 15.7878 79.5489 15.8037C79.5489 15.8196 79.541 15.8434 79.5172 15.8593V15.8752C79.5092 15.8832 79.5013 15.8911 79.4934 15.907C79.4854 15.915 79.4775 15.9229 79.4696 15.9388V15.9547C79.4616 15.9627 79.4537 15.9706 79.4458 15.9865C79.4378 15.9945 79.4299 16.0024 79.4061 16.0183V16.0342L79.3506 16.0899L79.3189 16.1217L79.2871 16.1535C79.2713 16.1614 79.2475 16.1853 79.2157 16.2091C79.1999 16.2171 79.184 16.225 79.1761 16.2329C79.1681 16.2409 79.1602 16.2488 79.1364 16.2568H79.1205C79.1047 16.2727 79.0809 16.2886 79.065 16.2886C79.0571 16.2886 79.0492 16.2965 79.0492 16.3045C79.0333 16.3045 79.0174 16.3045 79.0095 16.3124C79.0016 16.3204 78.9936 16.3204 78.9698 16.3204L78.9381 16.3363C78.9302 16.3363 78.9222 16.3363 78.9143 16.3442C78.9064 16.3522 78.8985 16.3522 78.8747 16.3522H78.8429C78.835 16.3522 78.8271 16.3522 78.8191 16.3601C78.8112 16.3681 78.8033 16.3681 78.7795 16.3681H78.7477H78.6922H78.6763H78.6605H78.605H78.6367C78.6288 16.3681 78.6208 16.3681 78.6129 16.3601C78.605 16.3522 78.597 16.3522 78.5891 16.3522H78.5494C78.5415 16.3442 78.5256 16.3363 78.5098 16.3363C78.5018 16.3363 78.4939 16.3363 78.486 16.3283C78.478 16.3204 78.4701 16.3204 78.4622 16.3204C78.4542 16.3204 78.4463 16.3204 78.4384 16.3124C78.4305 16.3045 78.4225 16.3045 78.4146 16.3045C78.4067 16.3045 78.3987 16.3045 78.3987 16.2965C78.3987 16.2886 78.3908 16.2886 78.3829 16.2886L78.3273 16.2568L78.3115 16.2409C78.2956 16.2409 78.2718 16.233 78.2559 16.2091L78.2401 16.1932L78.1846 16.1614C78.1846 16.1535 78.1846 16.1455 78.1766 16.1455C78.1687 16.1455 78.1687 16.1376 78.1687 16.1296C78.1608 16.1296 78.1449 16.1217 78.129 16.0978L78.0973 16.066L78.0814 16.0501L73.0366 10.3666V11.2807V11.5112V15.446C73.0366 15.6924 72.9493 15.907 72.7827 16.074C72.6082 16.2488 72.402 16.3283 72.1561 16.3283C71.9102 16.3283 71.696 16.2409 71.5215 16.074C71.347 15.8991 71.2598 15.6924 71.2598 15.446V11.5112V11.2807V8.01367V7.98187V7.92622L71.2756 7.91033C71.2915 7.68775 71.3867 7.49698 71.5612 7.338C71.7436 7.17902 71.9578 7.09953 72.2037 7.10748C72.4496 7.11543 72.6558 7.21876 72.8145 7.40953L77.8593 13.0772V11.5033V11.2728V8.00571C77.8593 7.75929 77.9466 7.54467 78.1132 7.36979C78.2956 7.20286 78.5018 7.11542 78.7477 7.11542Z" fill="url(#paint4_linear_2941_7564)"/>
<path d="M91.3123 7.37767C91.4868 7.55255 91.5661 7.76718 91.5661 8.0136C91.5661 8.26002 91.4788 8.47463 91.3123 8.64156C91.1378 8.81644 90.9315 8.89594 90.6856 8.89594H89.583H88.3932V15.438C88.3932 15.6844 88.306 15.899 88.1315 16.0659C87.957 16.2408 87.7428 16.3203 87.4969 16.3203C87.251 16.3203 87.0368 16.2329 86.8702 16.0659C86.6957 15.8911 86.6164 15.6844 86.6164 15.438V8.90388H85.5297H84.3319C84.086 8.90388 83.8719 8.81645 83.7053 8.64952C83.5308 8.47464 83.4515 8.26796 83.4515 8.02154C83.4515 7.77512 83.5387 7.5605 83.7053 7.38562C83.8798 7.21074 84.086 7.1233 84.3319 7.1233H85.5297H89.583H90.6856C90.9315 7.11535 91.1378 7.2028 91.3123 7.37767Z" fill="url(#paint5_linear_2941_7564)"/>
<path d="M96.3651 6.65426C96.1192 6.65426 95.9051 6.56683 95.7385 6.39195C95.564 6.21707 95.4846 6.00245 95.4846 5.75603C95.4846 5.50961 95.5719 5.30294 95.7385 5.12011C95.9051 4.93728 96.1192 4.85779 96.3651 4.85779C96.611 4.85779 96.8252 4.94523 96.9997 5.12011C97.1742 5.29499 97.2615 5.50961 97.2615 5.75603C97.2615 6.00245 97.1742 6.21707 96.9997 6.39195C96.8252 6.56683 96.6189 6.65426 96.3651 6.65426ZM96.3651 7.72738C96.611 7.72738 96.8252 7.81483 96.9997 7.9897C97.1742 8.16458 97.2615 8.37921 97.2615 8.62563V12.306V12.4094V12.4968V12.8863V15.422C97.2615 15.6685 97.1742 15.8831 96.9997 16.058C96.8252 16.2328 96.611 16.3203 96.3651 16.3203C96.1192 16.3203 95.9051 16.2328 95.7385 16.058C95.564 15.8831 95.4846 15.6685 95.4846 15.422V12.8863V12.4968V12.4094V12.306V8.62563C95.4846 8.37921 95.5719 8.16458 95.7385 7.9897C95.913 7.82277 96.1192 7.72738 96.3651 7.72738Z" fill="url(#paint6_linear_2941_7564)"/>
<path d="M112.182 14.8259C112.356 14.9928 112.436 15.1995 112.436 15.4459C112.436 15.6924 112.348 15.907 112.182 16.0739C112.007 16.2488 111.801 16.3283 111.555 16.3283H104.139C103.893 16.3283 103.679 16.2408 103.512 16.0739C103.337 15.899 103.258 15.6924 103.258 15.4459C103.258 15.2631 103.314 15.0962 103.417 14.9292L103.504 14.8418L109.445 8.87209H104.17C103.924 8.87209 103.718 8.7926 103.552 8.61772C103.385 8.45079 103.298 8.24412 103.298 7.9977C103.298 7.75128 103.377 7.53665 103.552 7.36972C103.718 7.19484 103.924 7.11536 104.17 7.11536H111.603C111.849 7.11536 112.055 7.20279 112.221 7.36972C112.388 7.5446 112.475 7.75128 112.475 7.9977C112.475 8.18052 112.42 8.34745 112.317 8.51438C112.301 8.53028 112.277 8.55413 112.253 8.58593C112.229 8.61772 112.206 8.64157 112.174 8.67336L109.556 11.2965V11.2806L106.272 14.5715H111.555C111.801 14.5715 112.015 14.659 112.182 14.8259Z" fill="url(#paint7_linear_2941_7564)"/>
<path d="M124.976 11.7416C124.968 11.9881 124.873 12.2027 124.699 12.3696C124.524 12.5445 124.31 12.6319 124.064 12.6399H117.703C117.742 12.7512 117.79 12.8704 117.861 12.9976C117.909 13.093 117.956 13.1804 118.004 13.2679C118.052 13.3553 118.099 13.4427 118.147 13.5222C118.099 13.4427 118.06 13.3712 118.02 13.2997C117.98 13.2281 117.941 13.1566 117.909 13.0771C118.06 13.3553 118.258 13.6017 118.496 13.8243C118.734 14.0469 119.003 14.2138 119.297 14.341C119.614 14.4761 119.955 14.5477 120.336 14.5715H120.392C120.638 14.5715 120.844 14.6589 121.01 14.8259C121.177 14.9928 121.264 15.1995 121.264 15.4459C121.264 15.6923 121.177 15.9069 121.01 16.0739C120.844 16.2487 120.638 16.3282 120.392 16.3282C120.336 16.3282 120.281 16.3282 120.225 16.3282C120.17 16.3282 120.122 16.3203 120.074 16.3123C119.678 16.2805 119.281 16.201 118.9 16.0659C118.52 15.9308 118.163 15.7559 117.837 15.5413C117.512 15.3267 117.211 15.0723 116.941 14.7782C116.671 14.4841 116.449 14.1502 116.267 13.7925C115.918 13.0771 115.751 12.3219 115.791 11.527C115.823 10.7321 116.053 9.99285 116.473 9.31719C116.513 9.26154 116.552 9.19796 116.592 9.13437C116.632 9.07077 116.679 9.01513 116.727 8.95153C117.076 8.47459 117.504 8.08509 118.012 7.78303C118.52 7.48097 119.051 7.28224 119.63 7.17095C120.36 7.05966 121.09 7.11531 121.804 7.34584C122.517 7.57636 123.136 7.95791 123.644 8.4905C124.064 8.91974 124.389 9.40463 124.619 9.95311C124.849 10.4936 124.968 11.066 124.968 11.6701V11.7019V11.7416H124.976ZM118.869 9.33309C118.591 9.51592 118.353 9.73849 118.155 10.0008C117.956 10.2631 117.806 10.5493 117.695 10.8514H123.065C123.017 10.7083 122.954 10.5572 122.866 10.3903C122.684 10.0485 122.438 9.75438 122.129 9.50797C121.819 9.26155 121.47 9.08667 121.09 8.98333C120.717 8.87999 120.336 8.85614 119.947 8.91974C119.567 8.99128 119.202 9.12642 118.869 9.33309Z" fill="url(#paint8_linear_2941_7564)"/>
<path d="M133.464 7.39356C133.63 7.56049 133.718 7.76716 133.718 8.00563C133.718 8.25205 133.63 8.46667 133.456 8.64155C133.281 8.81643 133.067 8.90387 132.821 8.90387H132.75C132.377 8.91977 132.028 9.00721 131.703 9.15824C131.378 9.30927 131.092 9.51595 130.846 9.77032C130.6 10.0247 130.41 10.3188 130.275 10.6527C130.14 10.9865 130.069 11.3442 130.069 11.7258V15.4459C130.069 15.6923 129.982 15.907 129.807 16.0739C129.633 16.2488 129.418 16.3283 129.173 16.3283C128.927 16.3283 128.713 16.2408 128.546 16.0739C128.371 15.899 128.292 15.6923 128.292 15.4459V11.7258C128.292 11.0978 128.411 10.5096 128.641 9.9611C128.871 9.41261 129.188 8.92772 129.593 8.51437C129.99 8.10102 130.466 7.76716 131.005 7.52074C131.544 7.27432 132.131 7.13919 132.75 7.12329H132.837H132.853H132.885C133.099 7.13124 133.297 7.22663 133.464 7.39356Z" fill="url(#paint9_linear_2941_7564)"/>
<path d="M137.874 15.3983C137.874 14.7544 138.334 14.2775 138.937 14.2775C139.54 14.2775 140 14.7544 140 15.3983C140 16.0342 139.54 16.5111 138.937 16.5111C138.334 16.5111 137.874 16.0342 137.874 15.3983Z" fill="url(#paint10_linear_2941_7564)"/>
<defs>
<linearGradient id="paint0_linear_2941_7564" x1="-0.000253386" y1="11.9545" x2="24.786" y2="11.9545" gradientUnits="userSpaceOnUse">
<stop stop-color="#D4145A"/>
<stop offset="0.306" stop-color="#C51967"/>
<stop offset="0.6839" stop-color="#A8217E"/>
<stop offset="1" stop-color="#93278F"/>
</linearGradient>
<linearGradient id="paint1_linear_2941_7564" x1="31.3609" y1="11.7332" x2="40.5453" y2="11.7332" gradientUnits="userSpaceOnUse">
<stop stop-color="#D4145A"/>
<stop offset="0.306" stop-color="#C51967"/>
<stop offset="0.6839" stop-color="#A8217E"/>
<stop offset="1" stop-color="#93278F"/>
</linearGradient>
<linearGradient id="paint2_linear_2941_7564" x1="43.8029" y1="11.7261" x2="54.819" y2="11.7261" gradientUnits="userSpaceOnUse">
<stop stop-color="#D4145A"/>
<stop offset="0.306" stop-color="#C51967"/>
<stop offset="0.6839" stop-color="#A8217E"/>
<stop offset="1" stop-color="#93278F"/>
</linearGradient>
<linearGradient id="paint3_linear_2941_7564" x1="58.2938" y1="11.7332" x2="67.4781" y2="11.7332" gradientUnits="userSpaceOnUse">
<stop stop-color="#D4145A"/>
<stop offset="0.306" stop-color="#C51967"/>
<stop offset="0.6839" stop-color="#A8217E"/>
<stop offset="1" stop-color="#93278F"/>
</linearGradient>
<linearGradient id="paint4_linear_2941_7564" x1="71.2644" y1="11.7258" x2="79.6516" y2="11.7258" gradientUnits="userSpaceOnUse">
<stop stop-color="#D4145A"/>
<stop offset="0.306" stop-color="#C51967"/>
<stop offset="0.6839" stop-color="#A8217E"/>
<stop offset="1" stop-color="#93278F"/>
</linearGradient>
<linearGradient id="paint5_linear_2941_7564" x1="83.4377" y1="11.7261" x2="91.5677" y2="11.7261" gradientUnits="userSpaceOnUse">
<stop stop-color="#D4145A"/>
<stop offset="0.306" stop-color="#C51967"/>
<stop offset="0.6839" stop-color="#A8217E"/>
<stop offset="1" stop-color="#93278F"/>
</linearGradient>
<linearGradient id="paint6_linear_2941_7564" x1="95.4825" y1="10.5949" x2="97.2685" y2="10.5949" gradientUnits="userSpaceOnUse">
<stop stop-color="#D4145A"/>
<stop offset="0.306" stop-color="#C51967"/>
<stop offset="0.6839" stop-color="#A8217E"/>
<stop offset="1" stop-color="#93278F"/>
</linearGradient>
<linearGradient id="paint7_linear_2941_7564" x1="103.255" y1="11.7261" x2="112.471" y2="11.7261" gradientUnits="userSpaceOnUse">
<stop stop-color="#D4145A"/>
<stop offset="0.306" stop-color="#C51967"/>
<stop offset="0.6839" stop-color="#A8217E"/>
<stop offset="1" stop-color="#93278F"/>
</linearGradient>
<linearGradient id="paint8_linear_2941_7564" x1="115.788" y1="11.7332" x2="124.973" y2="11.7332" gradientUnits="userSpaceOnUse">
<stop stop-color="#D4145A"/>
<stop offset="0.306" stop-color="#C51967"/>
<stop offset="0.6839" stop-color="#A8217E"/>
<stop offset="1" stop-color="#93278F"/>
</linearGradient>
<linearGradient id="paint9_linear_2941_7564" x1="128.273" y1="11.7261" x2="133.717" y2="11.7261" gradientUnits="userSpaceOnUse">
<stop stop-color="#D4145A"/>
<stop offset="0.306" stop-color="#C51967"/>
<stop offset="0.6839" stop-color="#A8217E"/>
<stop offset="1" stop-color="#93278F"/>
</linearGradient>
<linearGradient id="paint10_linear_2941_7564" x1="137.877" y1="15.3916" x2="140.004" y2="15.3916" gradientUnits="userSpaceOnUse">
<stop stop-color="#D4145A"/>
<stop offset="0.306" stop-color="#C51967"/>
<stop offset="0.6839" stop-color="#A8217E"/>
<stop offset="1" stop-color="#93278F"/>
</linearGradient>
</defs>
</svg>
