<svg width="68" height="82" viewBox="0 0 68 82" fill="none" xmlns="http://www.w3.org/2000/svg">
<g clip-path="url(#clip0_249_6756)">
<path d="M34.9576 0.00175867C35.3834 0.129498 35.8305 0.235948 36.235 0.384977C38.9814 1.34302 40.7484 3.85523 40.791 6.92098C40.8123 8.09193 40.8336 9.26287 40.791 10.4338C40.7697 11.0086 40.9613 11.2428 41.5149 11.4344C49.456 14.266 54.6082 19.7375 56.9714 27.8277C57.6101 29.978 57.7804 32.1921 57.7804 34.4489C57.8017 38.3875 57.6739 42.3261 57.9294 46.2435C58.3126 52.3537 60.9526 57.4845 65.4022 61.6999C65.7428 62.0193 66.126 62.3386 66.4667 62.6793C67.957 64.1696 68.4466 66.3624 67.595 68.2572C66.7009 70.2585 65.1254 71.3869 62.9325 71.3869C57.4397 71.4294 51.9469 71.4081 46.4329 71.4081C46.2412 71.4081 46.0709 71.4081 45.8154 71.4081C45.1767 74.9849 43.3884 77.8377 40.3014 79.7964C38.1511 81.1589 35.7879 81.7338 33.2544 81.5847C28.379 81.2867 23.2694 77.71 22.1836 71.4081C21.9069 71.4081 21.6301 71.4081 21.3533 71.4081C15.9883 71.4081 10.6232 71.4294 5.25815 71.4081C1.46855 71.3869 -1.04367 67.7463 0.425339 64.3825C0.765977 63.5947 1.38338 62.8283 2.02208 62.2535C6.2162 58.5065 8.87744 53.9291 9.83548 48.3725C10.091 46.8822 10.1761 45.3706 10.2187 43.859C10.2826 40.3249 10.1974 36.7907 10.2613 33.2566C10.4529 23.5058 17.0102 14.6066 26.2713 11.5196C26.9952 11.2854 27.2506 10.9661 27.2293 10.1996C27.1868 8.85837 27.1442 7.47452 27.2932 6.13326C27.5913 3.04622 29.6777 0.810776 32.7009 0.129498C32.8286 0.108208 32.935 0.0443385 33.0628 -0.0195312C33.6802 0.00175867 34.3189 0.00175867 34.9576 0.00175867ZM34.0208 68.0018C34.0208 67.9805 34.0208 67.9805 34.0208 67.9592C37.4272 67.9592 40.8123 67.9592 44.2187 67.9592C50.3076 67.9592 56.3752 67.9805 62.4642 68.0018C63.337 68.0018 64.1035 67.8102 64.4654 66.8947C64.7848 66.1283 64.5506 65.4896 63.7203 64.7444C57.4397 59.1239 54.374 52.0982 54.3953 43.6887C54.3953 40.5591 54.4166 37.4294 54.3953 34.2998C54.3953 33.2353 54.3527 32.1708 54.2037 31.1276C52.4153 18.9924 40.6846 11.2428 28.7622 14.3086C20.0759 16.5227 13.7315 24.5916 13.6251 33.5334C13.5825 37.3656 13.6677 41.1765 13.5825 45.0086C13.4335 51.0124 11.5174 56.3988 7.74907 61.0825C6.642 62.4664 5.32202 63.6586 4.06591 64.936C3.51238 65.4896 3.23561 66.107 3.53367 66.8734C3.81044 67.6398 4.42784 67.9592 5.19428 68.0018C5.44976 68.0231 5.72653 68.0018 5.98201 68.0018C15.3283 68.0018 24.6746 68.0018 34.0208 68.0018ZM25.7603 71.4294C26.1436 75.0487 30.0822 78.2635 34.0421 78.1996C38.0446 78.1571 41.962 74.921 42.2174 71.4294C36.7459 71.4294 31.2531 71.4294 25.7603 71.4294ZM37.3633 10.2848C37.3633 10.157 37.3846 10.0293 37.3846 9.90157C37.3846 8.75192 37.4272 7.62355 37.3633 6.47389C37.2782 4.81328 35.8943 3.5146 34.1912 3.38686C32.5944 3.28041 30.9125 4.45135 30.7209 6.0481C30.5506 7.45323 30.6783 8.87965 30.6783 10.2848C32.8925 10.2848 35.0853 10.2848 37.3633 10.2848Z" fill="black"/>
</g>
<defs>
<clipPath id="clip0_249_6756">
<rect width="68" height="81.6043" fill="white"/>
</clipPath>
</defs>
</svg>
