<svg width="13" height="16" viewBox="0 0 13 16" fill="none" xmlns="http://www.w3.org/2000/svg">
<path d="M11.2036 16C7.91708 16 4.63054 16 1.34886 16C1.32456 15.9903 1.30511 15.9757 1.2808 15.9708C0.439718 15.7909 0.00216078 15.2513 0.00216078 14.3956C0.00216078 12.0377 0.00216078 9.67973 0.00216078 7.32179C0.00216078 6.11607 -0.00270097 4.9055 0.00216078 3.69979C0.00702252 2.91218 0.561261 2.2364 1.33914 2.13431C1.80101 2.07596 2.2726 2.10514 2.73932 2.09541C2.83656 2.09541 2.93379 2.09541 3.04075 2.09541C3.04075 1.88149 3.04075 1.69189 3.04075 1.50228C3.04075 1.31267 3.13312 1.20085 3.31787 1.16196C3.40052 1.14737 3.48317 1.14251 3.56582 1.14251C3.85266 1.14251 4.1395 1.13765 4.42149 1.14251C4.52358 1.14737 4.57706 1.11334 4.62082 1.0161C4.85418 0.505621 5.25284 0.189608 5.78764 0.0437557C5.83625 0.0291705 5.88487 0.0145852 5.93349 0C6.13282 0 6.32729 0 6.52662 0C6.56551 0.00972349 6.60441 0.0243087 6.6433 0.0340322C7.21699 0.145852 7.64482 0.452142 7.88305 0.991796C7.94139 1.1182 8.00945 1.14251 8.12614 1.14251C8.48104 1.14251 8.83109 1.13765 9.18599 1.16196C9.4145 1.17654 9.51173 1.30781 9.51173 1.53631C9.51173 1.72106 9.51173 1.9058 9.51173 2.10027C9.99304 2.10027 10.45 2.10027 10.9071 2.10027C11.8405 2.10514 12.5455 2.80523 12.5455 3.73868C12.5455 7.32179 12.5406 10.9 12.5503 14.4831C12.5503 15.2416 12.0496 15.7277 11.5245 15.9125C11.4224 15.9417 11.3106 15.9708 11.2036 16ZM9.51659 2.87329C9.51659 3.14555 9.51659 3.40322 9.51659 3.66576C9.51659 4.04983 9.37074 4.19569 8.99152 4.19569C7.17809 4.19569 5.36466 4.19569 3.55123 4.19569C3.17688 4.19569 3.04075 4.05956 3.04075 3.67548C3.04075 3.41294 3.04075 3.14555 3.04075 2.88301C2.5011 2.88301 1.98089 2.88301 1.46555 2.88301C1.4461 2.88301 1.42665 2.89274 1.4072 2.8976C1.00854 3.00456 0.770316 3.33516 0.770316 3.7873C0.770316 7.34123 0.770316 10.8903 0.770316 14.4442C0.770316 14.4783 0.770316 14.5172 0.770316 14.5512C0.78004 14.7991 0.896722 14.9839 1.11064 15.1103C1.29538 15.2221 1.49958 15.2416 1.70863 15.2416C4.75695 15.2416 7.8004 15.2416 10.8487 15.2416C10.9022 15.2416 10.9508 15.2416 11.0043 15.2367C11.5294 15.2075 11.7968 14.9256 11.7968 14.4005C11.7968 10.8806 11.7968 7.36068 11.7968 3.83592C11.7968 3.7873 11.7968 3.74354 11.7968 3.69493C11.7773 3.27195 11.4613 2.8976 11.0578 2.87815C10.5473 2.85871 10.0417 2.87329 9.51659 2.87329ZM8.73385 1.9058C8.40812 1.9058 8.10183 1.9058 7.79554 1.9058C7.45521 1.9058 7.35798 1.83288 7.26561 1.50714C7.10031 0.933455 6.5169 0.588271 5.97238 0.758432C5.57372 0.879976 5.32577 1.1571 5.21395 1.55576C5.14589 1.80857 5.01462 1.9058 4.75695 1.9058C4.58192 1.9058 4.40204 1.9058 4.22702 1.9058C4.09089 1.9058 3.9499 1.9058 3.81863 1.9058C3.81863 2.42601 3.81863 2.91705 3.81863 3.41294C5.4619 3.41294 7.10031 3.41294 8.73871 3.41294C8.73385 2.90732 8.73385 2.41629 8.73385 1.9058Z" fill="#3B3B3B"/>
<path d="M8.09252 6.28611C8.80233 6.28611 9.51701 6.28611 10.2268 6.28611C10.4991 6.28611 10.6644 6.46113 10.6449 6.71395C10.6255 6.90842 10.4699 7.04454 10.2463 7.05427C10.0712 7.05913 9.89136 7.05427 9.71634 7.05427C8.47173 7.05427 7.22226 7.05427 5.97766 7.05427C5.74429 7.05427 5.58386 6.95703 5.53524 6.78201C5.45745 6.51948 5.63734 6.28125 5.92904 6.28125C6.64858 6.28125 7.37298 6.28611 8.09252 6.28611Z" fill="#3B3B3B"/>
<path d="M8.1017 12.3781C8.80665 12.3781 9.51647 12.3781 10.2214 12.3781C10.4645 12.3781 10.6298 12.5142 10.6444 12.7233C10.659 12.9275 10.5472 13.0879 10.343 13.1365C10.2895 13.1511 10.2311 13.1511 10.1728 13.1511C8.78234 13.1511 7.38702 13.1511 5.99656 13.1511C5.96253 13.1511 5.92364 13.1511 5.88961 13.1463C5.6611 13.122 5.51039 12.9567 5.51525 12.7427C5.52497 12.5288 5.68541 12.3781 5.91878 12.3733C6.49246 12.3684 7.06129 12.3733 7.63497 12.3733C7.79055 12.3781 7.94612 12.3781 8.1017 12.3781Z" fill="#3B3B3B"/>
<path d="M8.08272 10.098C7.35346 10.098 6.62906 10.098 5.8998 10.098C5.71505 10.098 5.5692 9.9862 5.52544 9.82576C5.48169 9.66046 5.54003 9.48544 5.68588 9.40279C5.75881 9.36389 5.85118 9.33958 5.93869 9.33958C7.36804 9.33472 8.7974 9.33472 10.2219 9.33958C10.4601 9.33958 10.6157 9.46599 10.64 9.6556C10.6692 9.85007 10.5768 10.0202 10.3969 10.0786C10.3288 10.1029 10.2559 10.1029 10.183 10.1029C9.48776 10.098 8.78281 10.098 8.08272 10.098Z" fill="#3B3B3B"/>
<path d="M3.09451 6.57804C3.46401 6.22313 3.85295 5.85364 4.24189 5.48415C4.36343 5.36746 4.49956 5.30912 4.66486 5.37233C4.94684 5.47928 5.02949 5.79044 4.81557 5.99949C4.32454 6.47594 3.82378 6.94753 3.32302 7.41912C3.14799 7.58442 2.95352 7.56983 2.78336 7.39967C2.53541 7.14686 2.28746 6.89405 2.04438 6.64124C1.86935 6.4565 1.86449 6.20855 2.02493 6.05783C2.18051 5.91198 2.40901 5.93629 2.59375 6.11617C2.74933 6.26689 2.91949 6.4176 3.09451 6.57804Z" fill="#3B3B3B"/>
<path d="M3.07987 9.64075C3.46881 9.27126 3.85289 8.89691 4.24183 8.53228C4.40713 8.3767 4.60646 8.35725 4.76203 8.47394C4.97595 8.63437 4.99054 8.87746 4.78634 9.07679C4.37309 9.47545 3.95985 9.86439 3.54174 10.2631C3.46881 10.3311 3.40074 10.404 3.32782 10.4673C3.1528 10.6228 2.9486 10.6228 2.7833 10.4575C2.52563 10.1999 2.27282 9.93732 2.02001 9.67479C1.85957 9.50463 1.85957 9.25668 2.01029 9.11082C2.16586 8.96011 2.3895 8.9747 2.56452 9.15458C2.72496 9.31016 2.87568 9.47546 3.03611 9.63103C3.04584 9.63103 3.0507 9.63103 3.07987 9.64075Z" fill="#3B3B3B"/>
<path d="M3.09426 12.6745C3.46375 12.3196 3.85269 11.9501 4.24163 11.5855C4.41665 11.4202 4.59167 11.4007 4.76184 11.5223C4.96117 11.6633 5.00492 11.9161 4.82504 12.0911C4.32428 12.5822 3.8138 13.0635 3.29845 13.5399C3.14288 13.6858 2.94841 13.6663 2.79769 13.5156C2.54002 13.2579 2.28721 13.0003 2.0344 12.7329C1.8691 12.5578 1.8691 12.3099 2.02467 12.1592C2.17539 12.0133 2.40389 12.0376 2.58377 12.2029C2.74421 12.3536 2.91437 12.5044 3.09426 12.6745Z" fill="#3B3B3B"/>
</svg>
