<svg width="16" height="18" viewBox="0 0 16 18" fill="none" xmlns="http://www.w3.org/2000/svg">
<path d="M15.872 4.5801C15.7834 4.43442 15.6596 4.31337 15.512 4.2281L8.47198 0.260111C8.32701 0.181691 8.1648 0.140625 7.99998 0.140625C7.83516 0.140625 7.67294 0.181691 7.52798 0.260111L0.487999 4.2201C0.340366 4.30537 0.216565 4.42642 0.128 4.5721C0.0456379 4.71879 0.00161292 4.88388 0 5.0521V12.9401C0.000916608 13.1105 0.0464483 13.2777 0.132064 13.4251C0.21768 13.5725 0.340395 13.6949 0.487999 13.7801L7.52798 17.7401C7.66462 17.8177 7.81885 17.859 7.97598 17.8601H8.02398C8.18016 17.8525 8.33292 17.8116 8.47198 17.7401L15.512 13.7801C15.6612 13.6968 15.7853 13.5748 15.8712 13.427C15.957 13.2792 16.0015 13.111 16 12.9401V5.0601C15.9983 4.89188 15.9543 4.72679 15.872 4.5801ZM7.84798 0.82011C7.89466 0.794655 7.94682 0.780927 7.99998 0.78011C8.05565 0.781166 8.11036 0.794843 8.15998 0.82011L15.032 4.6841L11.936 6.4441L4.81599 2.52411L7.84798 0.82011ZM8.07198 8.63609L0.975997 4.6841L4.15999 2.8921L11.28 6.82009L8.07198 8.63609ZM0.807998 13.2281C0.756864 13.2015 0.714098 13.1612 0.684444 13.1118C0.654789 13.0624 0.639405 13.0057 0.639998 12.9481V5.2281L7.75198 9.18809L7.68798 17.1001L0.807998 13.2281ZM15.2 13.2281L8.32798 17.0921L8.39198 9.18809L11.6 7.37209V10.9641C11.6 11.049 11.6337 11.1303 11.6937 11.1904C11.7537 11.2504 11.8351 11.2841 11.92 11.2841C12.0048 11.2841 12.0862 11.2504 12.1462 11.1904C12.2063 11.1303 12.24 11.049 12.24 10.9641V7.00409L15.36 5.2361V12.9481C15.3605 13.0047 15.3459 13.0605 15.3178 13.1097C15.2897 13.1589 15.249 13.1998 15.2 13.2281Z" fill="#3B3B3B"/>
</svg>
