<svg width="36" height="34" viewBox="0 0 36 34" fill="none" xmlns="http://www.w3.org/2000/svg">
<path d="M15.9666 26.7334L10.0111 20.7779C9.82904 20.5653 9.73392 20.2919 9.74473 20.0123C9.75553 19.7326 9.87145 19.4674 10.0693 19.2695C10.2672 19.0716 10.5325 18.9557 10.8121 18.9449C11.0918 18.9341 11.3652 19.0292 11.5777 19.2112L15.9666 23.5557L25.5666 13.9557C25.7792 13.7736 26.0526 13.6785 26.3322 13.6893C26.6119 13.7001 26.8771 13.816 27.075 14.0139C27.2729 14.2118 27.3888 14.4771 27.3996 14.7567C27.4104 15.0363 27.3153 15.3098 27.1333 15.5223L15.9666 26.7334Z" fill="white"/>
<path d="M33.8333 4.6665H30.2222V6.88873H33.5555V31.3332H2.44443V6.88873H5.77777V4.6665H2.16665C1.90692 4.67084 1.65058 4.72631 1.41228 4.82973C1.17399 4.93316 0.958399 5.08251 0.777833 5.26927C0.597268 5.45603 0.455262 5.67653 0.359927 5.91817C0.264592 6.15982 0.217795 6.41788 0.222209 6.67762V31.5443C0.217795 31.804 0.264592 32.0621 0.359927 32.3037C0.455262 32.5454 0.597268 32.7659 0.777833 32.9526C0.958399 33.1394 1.17399 33.2887 1.41228 33.3922C1.65058 33.4956 1.90692 33.5511 2.16665 33.5554H33.8333C34.0931 33.5511 34.3494 33.4956 34.5877 33.3922C34.826 33.2887 35.0416 33.1394 35.2221 32.9526C35.4027 32.7659 35.5447 32.5454 35.64 32.3037C35.7354 32.0621 35.7822 31.804 35.7778 31.5443V6.67762C35.7822 6.41788 35.7354 6.15982 35.64 5.91817C35.5447 5.67653 35.4027 5.45603 35.2221 5.26927C35.0416 5.08251 34.826 4.93316 34.5877 4.82973C34.3494 4.72631 34.0931 4.67084 33.8333 4.6665Z" fill="white"/>
<path d="M9.11111 9.11106C9.4058 9.11106 9.68841 8.99399 9.89679 8.78562C10.1052 8.57725 10.2222 8.29463 10.2222 7.99995V1.33328C10.2222 1.03859 10.1052 0.755979 9.89679 0.547605C9.68841 0.339231 9.4058 0.222168 9.11111 0.222168C8.81643 0.222168 8.53381 0.339231 8.32544 0.547605C8.11706 0.755979 8 1.03859 8 1.33328V7.99995C8 8.29463 8.11706 8.57725 8.32544 8.78562C8.53381 8.99399 8.81643 9.11106 9.11111 9.11106Z" fill="white"/>
<path d="M26.8889 9.11106C27.1836 9.11106 27.4662 8.99399 27.6746 8.78562C27.883 8.57725 28.0001 8.29463 28.0001 7.99995V1.33328C28.0001 1.03859 27.883 0.755979 27.6746 0.547605C27.4662 0.339231 27.1836 0.222168 26.8889 0.222168C26.5943 0.222168 26.3116 0.339231 26.1033 0.547605C25.8949 0.755979 25.7778 1.03859 25.7778 1.33328V7.99995C25.7778 8.29463 25.8949 8.57725 26.1033 8.78562C26.3116 8.99399 26.5943 9.11106 26.8889 9.11106Z" fill="white"/>
<path d="M12.4443 4.6665H23.5554V6.88873H12.4443V4.6665Z" fill="white"/>
</svg>
