<svg width="15" height="21" viewBox="0 0 15 21" fill="none" xmlns="http://www.w3.org/2000/svg">
<path d="M7.65474 0.867188C8.08142 0.969009 8.52264 1.02234 8.92508 1.1775C10.7045 1.87085 11.7324 3.18483 12.0282 5.0661C12.067 5.30854 12.0718 5.55582 12.0718 5.79825C12.067 6.88919 12.1058 7.98013 12.0331 9.06623C11.9506 10.3269 11.3591 11.3645 10.3797 12.1645C10.1809 12.3294 10.0791 12.4845 10.1081 12.7463C10.1324 12.9597 10.113 13.1827 10.113 13.43C10.4718 13.43 10.8063 13.4106 11.1409 13.4348C12.7943 13.5367 14.0113 14.7925 14.0404 16.4507C14.0598 17.7356 14.0452 19.0205 14.0452 20.3005C14.0452 20.572 13.9386 20.6787 13.6719 20.6787C9.53601 20.6787 5.40012 20.6787 1.26424 20.6787C1.00726 20.6787 0.895745 20.572 0.895745 20.3151C0.895745 19.0253 0.886047 17.7356 0.900593 16.4458C0.91029 15.5731 1.24 14.8313 1.88002 14.2252C1.98669 14.1234 2.09821 14.0603 2.24366 14.1137C2.45216 14.1912 2.48125 14.4337 2.31639 14.6228C2.14669 14.8216 1.96244 15.0155 1.82183 15.2385C1.57455 15.6167 1.48728 16.0483 1.48728 16.4943C1.48243 17.6483 1.48728 18.8023 1.48728 19.9611C1.48728 19.9999 1.49213 20.0338 1.49698 20.0872C2.07881 20.0872 2.6558 20.0872 3.25218 20.0872C3.25218 19.8738 3.25218 19.6702 3.25218 19.4665C3.25218 19.0544 3.25218 18.6423 3.25218 18.2301C3.25218 17.8956 3.33946 17.755 3.5431 17.7501C3.74674 17.7453 3.83886 17.8907 3.83886 18.2204C3.83886 18.7683 3.83886 19.3162 3.83886 19.8641C3.83886 19.932 3.83886 20.0047 3.83886 20.0872C4.58071 20.0872 5.30315 20.0872 6.04984 20.0872C6.27773 18.7296 6.50076 17.3719 6.7335 15.9901C6.46197 15.9852 6.38925 15.7864 6.35046 15.5828C6.23409 14.9282 5.88014 14.4725 5.28376 14.1767C5.10436 14.0894 4.9492 14.007 4.74556 14.0215C4.251 14.0555 3.75644 14.0797 3.26188 14.1137C3.05339 14.1282 2.90793 14.0555 2.87884 13.8809C2.84974 13.7161 2.95641 13.5609 3.1649 13.5367C3.60613 13.4882 4.04736 13.4591 4.48858 13.43C4.5904 13.4203 4.69222 13.43 4.82314 13.43C4.82314 13.0906 4.82799 12.7706 4.81829 12.4506C4.81829 12.3972 4.74556 12.3342 4.69222 12.2954C3.8825 11.6748 3.31521 10.8845 3.05823 9.89534C2.94187 9.45897 2.88853 8.9935 2.87399 8.54257C2.84489 7.77164 2.86429 6.99586 2.86914 6.22008C2.86914 6.09886 2.85459 6.01644 2.71883 5.97765C2.53943 5.92916 2.4764 5.79825 2.4764 5.60915C2.50064 3.33999 4.11524 1.40054 6.33106 0.959312C6.51531 0.925371 6.69956 0.896279 6.88381 0.867188C7.14078 0.867188 7.39776 0.867188 7.65474 0.867188ZM3.43643 6.25402C3.43643 6.3219 3.43643 6.38493 3.43643 6.44796C3.43643 7.13647 3.42188 7.82982 3.44128 8.51833C3.45582 8.90622 3.49461 9.30381 3.59158 9.682C4.04736 11.5293 5.95772 12.8385 7.84868 12.6251C9.94814 12.3875 11.4609 10.7099 11.4852 8.59106C11.49 8.07711 11.4755 7.5583 11.49 7.04435C11.5046 6.52069 11.2961 6.07947 11.0342 5.65764C10.8209 5.31338 10.4863 5.20671 10.0936 5.2552C9.95784 5.2746 9.82693 5.29884 9.70086 5.34248C8.96872 5.5946 8.24627 5.86613 7.51413 6.10371C6.51531 6.42857 5.49225 6.57403 4.44494 6.43342C4.11039 6.39463 3.78553 6.31705 3.43643 6.25402ZM8.20263 15.9804C8.43537 17.3719 8.66325 18.7344 8.89114 20.0872C9.64268 20.0872 10.3603 20.0872 11.0973 20.0872C11.0973 20.0047 11.0973 19.9369 11.0973 19.8641C11.0973 19.2629 11.0973 18.6665 11.0973 18.0653C11.0973 17.8713 11.2185 17.7453 11.3882 17.7453C11.553 17.7453 11.6694 17.8713 11.684 18.0653C11.6888 18.1089 11.684 18.1574 11.684 18.2011C11.684 18.7635 11.684 19.3211 11.684 19.8835C11.684 19.9514 11.684 20.0193 11.684 20.092C12.2852 20.092 12.8525 20.092 13.4343 20.092C13.4392 20.0484 13.4537 20.0096 13.4537 19.9757C13.4537 18.8071 13.4731 17.6435 13.4489 16.4749C13.4246 15.2822 12.6828 14.3318 11.5627 14.0991C11.0924 14.0021 10.5882 14.0361 10.0984 14.0264C9.98208 14.0264 9.84632 14.07 9.7445 14.133C9.45843 14.3076 9.11903 14.4531 8.92508 14.7052C8.73113 14.9622 8.6778 15.3307 8.57113 15.6555C8.51295 15.8301 8.44022 15.9804 8.20263 15.9804ZM11.4221 5.19702C11.4415 5.18732 11.4609 5.17277 11.4803 5.16308C11.393 4.84307 11.3252 4.51336 11.2136 4.1982C10.4815 2.12783 8.05717 0.935068 5.98196 1.66236C4.251 2.26844 3.28127 3.51454 3.05823 5.34248C3.04369 5.46369 3.09702 5.49278 3.194 5.53157C4.40131 5.97765 5.62801 6.03583 6.85956 5.67703C7.60625 5.46369 8.33355 5.16792 9.07054 4.92549C9.38085 4.82367 9.70086 4.73155 10.0209 4.67821C10.5688 4.59094 11.0488 4.75579 11.4221 5.19702ZM8.28991 20.092C8.06202 18.715 7.83414 17.3525 7.60625 15.9901C7.49958 15.9901 7.41231 15.9901 7.31533 15.9901C7.08745 17.3622 6.85956 18.7199 6.63168 20.092C7.19897 20.092 7.73232 20.092 8.28991 20.092ZM7.16018 13.2797C6.55895 13.1197 5.98681 12.9645 5.40497 12.8094C5.40497 13.0179 5.40012 13.2603 5.40982 13.5027C5.40982 13.5512 5.47285 13.6094 5.51649 13.6433C5.74923 13.8033 5.98681 13.9585 6.22439 14.1137C6.26318 14.1427 6.32136 14.1815 6.36015 14.167C6.62198 14.0846 6.88381 13.9924 7.14563 13.9003C7.15048 13.7015 7.16018 13.5027 7.16503 13.3039C7.16503 13.2845 7.16018 13.2651 7.16018 13.2797ZM7.75656 13.2797C7.75656 13.4251 7.75171 13.6142 7.76141 13.7985C7.76626 13.847 7.81474 13.9149 7.85838 13.9294C8.06687 14.0118 8.28021 14.0797 8.4984 14.1427C8.55174 14.1573 8.62446 14.1476 8.67295 14.1185C8.92993 13.9585 9.17721 13.7888 9.42934 13.6142C9.46813 13.5852 9.51176 13.527 9.51176 13.4785C9.52146 13.2409 9.51661 13.0033 9.51661 12.7997C8.93963 12.9645 8.36749 13.1148 7.75656 13.2797ZM6.88865 15.3791C7.27655 15.3791 7.65474 15.3791 8.03778 15.3791C8.11051 15.1513 8.18809 14.9282 8.25597 14.7246C7.71777 14.39 7.19412 14.3949 6.67047 14.7197C6.73835 14.9331 6.80623 15.1464 6.88865 15.3791Z" fill="#fff"/>
</svg>
