<svg width="13" height="13" viewBox="0 0 13 13" fill="none" xmlns="http://www.w3.org/2000/svg">
<path d="M11.0882 10.2791H2.67647C2.56176 10.2791 2.44706 10.2026 2.37059 10.1261C2.29412 10.0497 2.29412 9.89671 2.33235 9.78201L3.05882 7.94671L2.33235 1.1026H0V0.337891H2.67647C2.86765 0.337891 3.02059 0.490832 3.05882 0.682008L3.82353 7.94671C3.82353 8.02318 3.82353 8.06142 3.78529 8.13789L3.25 9.51436H11.4706L11.0882 10.2791Z" fill="white"/>
<path d="M3.51759 8.36719L3.36465 7.60248L12.2352 5.76719V2.63189H3.05877V1.86719H12.6176C12.847 1.86719 12.9999 2.02013 12.9999 2.24954V6.07307C12.9999 6.26425 12.8852 6.41719 12.6941 6.45542L3.51759 8.36719ZM11.4705 12.5731C10.6294 12.5731 9.94112 11.8848 9.94112 11.0437C9.94112 10.2025 10.6294 9.51425 11.4705 9.51425C12.3117 9.51425 12.9999 10.2025 12.9999 11.0437C12.9999 11.8848 12.3117 12.5731 11.4705 12.5731ZM11.4705 10.279C11.0499 10.279 10.7058 10.6231 10.7058 11.0437C10.7058 11.4642 11.0499 11.8084 11.4705 11.8084C11.8911 11.8084 12.2352 11.4642 12.2352 11.0437C12.2352 10.6231 11.8911 10.279 11.4705 10.279ZM2.29406 12.5731C1.45288 12.5731 0.764648 11.8848 0.764648 11.0437C0.764648 10.2025 1.45288 9.51425 2.29406 9.51425C3.13524 9.51425 3.82347 10.2025 3.82347 11.0437C3.82347 11.8848 3.13524 12.5731 2.29406 12.5731ZM2.29406 10.279C1.87347 10.279 1.52935 10.6231 1.52935 11.0437C1.52935 11.4642 1.87347 11.8084 2.29406 11.8084C2.71465 11.8084 3.05877 11.4642 3.05877 11.0437C3.05877 10.6231 2.71465 10.279 2.29406 10.279Z" fill="white"/>
</svg>
