<svg width="70" height="69" viewBox="0 0 70 69" fill="none" xmlns="http://www.w3.org/2000/svg">
<path d="M36.9975 0.0117188C38.311 0.188896 39.6245 0.312919 40.938 0.543249C46.3873 1.46457 51.2863 3.66156 55.6706 7.01021C56.4161 7.57717 56.5758 8.32132 56.1321 8.95915C55.6706 9.61471 54.8363 9.7033 54.0908 9.11861C50.6118 6.47868 46.7601 4.58288 42.5178 3.55526C25.7795 -0.484376 8.82821 9.5084 4.69245 26.2162C1.74594 38.087 4.8877 48.4342 13.674 57.0095C13.816 57.1513 13.9757 57.2576 14.0645 57.3462C17.579 46.4144 24.7855 40.3195 36.5183 40.7801C45.6951 41.1345 53.6293 47.9204 55.8126 57.4348C55.9901 57.293 56.1498 57.1867 56.2741 57.0627C62.2204 51.4816 65.5929 44.6249 66.2496 36.4747C66.7821 29.9015 65.3444 23.7711 62.0251 18.0838C61.9541 17.9775 61.9009 17.8534 61.8299 17.7294C61.4749 17.0207 61.6524 16.312 62.2736 15.9222C62.9126 15.5324 63.7291 15.6919 64.1019 16.4006C65.0249 18.1901 65.9834 19.9618 66.7466 21.8222C68.0069 24.8696 68.6636 28.0765 68.9121 31.3543C68.9299 31.5315 68.9831 31.691 69.0186 31.8681C69.0186 33.2855 69.0186 34.703 69.0186 36.1204C68.9654 36.5633 68.9121 36.9885 68.8589 37.4315C68.0779 44.5894 65.3799 50.9324 60.6406 56.354C55.3688 62.378 48.7658 66.0987 40.8671 67.4984C39.6245 67.711 38.382 67.8528 37.1395 68.0122C35.7195 68.0122 34.2995 68.0122 32.8795 68.0122C32.2405 67.9236 31.6193 67.835 30.9803 67.7642C23.117 66.8074 16.3187 63.5828 10.834 57.8954C2.20744 48.948 -0.739064 38.2288 1.94119 26.0744C4.83445 13.0697 15.9637 2.70481 29.081 0.525532C30.3413 0.312919 31.6193 0.171178 32.8795 0.0117188C34.2463 0.0117188 35.6308 0.0117188 36.9975 0.0117188ZM34.8853 65.39C41.1866 65.3368 46.9198 63.6891 52.1206 60.305C53.5228 59.3837 53.5228 59.3837 53.1323 57.736C50.5408 46.751 39.163 40.5498 28.584 44.4831C21.9987 46.9282 18.1115 51.7828 16.6737 58.6396C16.5672 59.1711 16.6737 59.5077 17.153 59.8444C22.549 63.5296 28.4953 65.3368 34.8853 65.39Z" fill="black"/>
<path d="M23.0469 26.0394C23.0469 19.4484 28.4251 14.0977 35.0104 14.0977C41.5957 14.0977 46.9562 19.4838 46.9562 26.0748C46.9562 32.6658 41.5779 38.0343 34.9927 38.0165C28.4074 38.0165 23.0469 32.6304 23.0469 26.0394ZM44.3114 26.0217C44.2937 20.9013 40.1224 16.7376 34.9927 16.7553C29.8806 16.7553 25.7094 20.9367 25.7094 26.0571C25.7094 31.1952 29.8984 35.3766 35.0459 35.3589C40.1579 35.3412 44.3114 31.1421 44.3114 26.0217Z" fill="black"/>
<path d="M60.7818 12.2192C60.7996 12.9456 60.1783 13.5657 59.4506 13.5657C58.7406 13.5657 58.1548 12.981 58.1371 12.2723C58.1193 11.5459 58.7406 10.9258 59.4683 10.9258C60.1606 10.9258 60.7641 11.5105 60.7818 12.2192Z" fill="black"/>
</svg>
