<svg width="328" height="399" viewBox="0 0 328 399" fill="none" xmlns="http://www.w3.org/2000/svg">
<g filter="url(#filter0_d_2097_6854)">
<path d="M164.678 379.985C157.299 380.186 150.086 378.342 143.842 374.587C124.809 363.12 96.6933 344.21 71.3827 319.466C39.2937 288.016 20.8283 256.097 16.7879 224.714L16.7211 224.211L15.9531 90.3981C15.9531 63.9439 33.1163 42.4856 65.3723 28.37C92.0185 16.702 127.347 10.9351 164.645 12.008C201.509 13.0809 235.635 20.7255 260.912 33.4664C290.931 48.5878 306.691 69.8785 306.691 95.0921L305.99 222.97L305.923 223.44C302.25 253.481 285.254 284.529 255.269 315.912C231.227 341.092 204.013 361.041 185.347 373.414C179.203 377.504 172.058 379.784 164.678 379.985Z" fill="url(#paint0_linear_2097_6854)"/>
<path d="M171.991 379.985C164.711 380.187 157.566 378.343 151.422 374.587C132.656 363.121 104.908 344.21 79.9308 319.466C48.2425 288.05 30.0442 256.097 26.0706 224.748L26.0038 224.245L25.2358 90.4322C25.2358 63.9781 42.1986 42.5197 74.0206 28.4042C100.3 16.7362 135.16 10.9693 171.991 12.0422C208.387 13.1151 242.046 20.7597 266.989 33.5005C296.607 48.622 312.168 69.9126 312.168 95.1262L311.466 222.971L311.4 223.44C307.76 253.482 291.031 284.529 261.413 315.912C237.671 341.092 210.858 361.042 192.426 373.414C186.349 377.504 179.27 379.784 171.991 379.985Z" fill="url(#paint1_linear_2097_6854)"/>
<path d="M35.019 90.4989L35.787 223.641C44.5022 291.57 124.04 346.591 158.667 367.479C168.584 373.481 181.273 373.112 191.123 366.607C225.016 344.21 300.179 287.815 308.227 222.501L308.928 94.9917C308.928 0.373831 35.019 -8.27656 35.019 90.4989Z" fill="url(#paint2_linear_2097_6854)"/>
<g opacity="0.3">
<path opacity="0.3" d="M174.796 262.802C180.206 203.054 211.393 177.907 209.289 124.362C207.753 85.4019 189.321 50.5321 163.109 20.1216C97.3283 20.3563 34.0518 43.0216 34.0518 90.4982L34.8198 223.641C43.5349 291.57 123.073 346.59 157.7 367.478C167.617 373.48 180.306 373.111 190.156 366.607C190.924 366.104 191.726 365.567 192.527 365.031C175.598 324.931 172.292 290.832 174.796 262.802Z" fill="white"/>
</g>
<path d="M173.96 346.96C173.326 346.96 172.358 346.859 171.389 346.289C157.131 337.605 129.483 319.466 105.441 295.728C79.463 270.112 64.5037 245.201 61.0644 221.798L60.2964 90.8682C60.3298 78.2949 70.247 67.5658 89.6474 58.9489C111.318 49.3597 142.105 44.2969 173.96 45.068C205.515 45.8057 235.367 52.2096 256.07 62.5029C274.368 71.6227 283.651 82.3854 283.684 94.5228L282.983 220.926C279.778 243.558 265.72 267.966 241.044 293.616C217.837 317.723 190.723 336.868 176.532 346.155C175.563 346.792 174.595 346.96 173.96 346.96Z" fill="url(#paint3_linear_2097_6854)"/>
<path d="M170.689 338.007C156.297 329.088 130.686 311.922 108.347 289.826C83.938 265.719 69.8135 242.551 66.5077 221.126L65.7397 90.9341C65.7731 81.9484 73.9874 73.7004 90.1154 66.5252C110.651 57.4054 140.069 52.5773 170.689 53.2814C201.008 53.952 229.624 59.9871 249.259 69.744C264.518 77.3215 272.265 85.603 272.265 94.354L271.564 220.288C268.459 241.075 255.135 263.808 231.828 287.949C210.224 310.446 185.047 328.518 170.689 338.007Z" fill="url(#paint4_linear_2097_6854)"/>
<path opacity="0.8" d="M163.108 269.743C157.365 270.112 152.055 267.43 149.084 262.669L99.2637 182.368C94.5889 174.857 97.1266 164.53 104.873 159.333C112.62 154.136 122.704 156.048 127.379 163.558L161.906 219.283L207.485 126.107C211.559 117.758 221.409 113.902 229.423 117.523C237.437 121.144 240.643 130.868 236.569 139.216L177.667 259.785C174.962 265.317 169.619 269.106 163.676 269.71C163.475 269.71 163.308 269.743 163.108 269.743Z" fill="white"/>
<g opacity="0.3">
<path opacity="0.3" d="M174.795 262.803C180.205 203.055 211.392 177.908 209.288 124.363C208.287 99.2835 200.273 75.8805 187.718 54.2881C182.141 53.7851 176.465 53.4499 170.721 53.3493C140.102 52.6452 110.684 57.4733 90.1481 66.5931C74.0201 73.7682 65.8059 82.0163 65.7725 91.002L66.5405 221.194C69.8462 242.619 83.9707 265.753 108.38 289.894C130.719 311.956 156.33 329.156 170.721 338.075C173.693 336.096 177.133 333.749 180.872 331.101C174.127 305.317 173.025 282.551 174.795 262.803Z" fill="white"/>
</g>
</g>
<defs>
<filter id="filter0_d_2097_6854" x="0.953125" y="0.881348" width="326.214" height="398.119" filterUnits="userSpaceOnUse" color-interpolation-filters="sRGB">
<feFlood flood-opacity="0" result="BackgroundImageFix"/>
<feColorMatrix in="SourceAlpha" type="matrix" values="0 0 0 0 0 0 0 0 0 0 0 0 0 0 0 0 0 0 127 0" result="hardAlpha"/>
<feOffset dy="4"/>
<feGaussianBlur stdDeviation="7.5"/>
<feComposite in2="hardAlpha" operator="out"/>
<feColorMatrix type="matrix" values="0 0 0 0 0 0 0 0 0 0 0 0 0 0 0 0 0 0 0.25 0"/>
<feBlend mode="normal" in2="BackgroundImageFix" result="effect1_dropShadow_2097_6854"/>
<feBlend mode="normal" in="SourceGraphic" in2="effect1_dropShadow_2097_6854" result="shape"/>
</filter>
<linearGradient id="paint0_linear_2097_6854" x1="331.885" y1="1.79859" x2="247.751" y2="82.334" gradientUnits="userSpaceOnUse">
<stop stop-color="#AA80F9"/>
<stop offset="0.9964" stop-color="#6165D7"/>
</linearGradient>
<linearGradient id="paint1_linear_2097_6854" x1="82.8072" y1="20.229" x2="369.381" y2="487.02" gradientUnits="userSpaceOnUse">
<stop stop-color="#AA80F9"/>
<stop offset="0.9964" stop-color="#6165D7"/>
</linearGradient>
<linearGradient id="paint2_linear_2097_6854" x1="234.853" y1="286.597" x2="1.97207" y2="-179.761" gradientUnits="userSpaceOnUse">
<stop stop-color="#AA80F9"/>
<stop offset="0.9964" stop-color="#6165D7"/>
</linearGradient>
<linearGradient id="paint3_linear_2097_6854" x1="360.948" y1="93.0791" x2="206.939" y2="166.463" gradientUnits="userSpaceOnUse">
<stop stop-color="#AA80F9"/>
<stop offset="0.9964" stop-color="#6165D7"/>
</linearGradient>
<linearGradient id="paint4_linear_2097_6854" x1="243.628" y1="43.261" x2="-4.37539" y2="427.022" gradientUnits="userSpaceOnUse">
<stop stop-color="#AA80F9"/>
<stop offset="0.9964" stop-color="#6165D7"/>
</linearGradient>
</defs>
</svg>
