<svg width="447" height="753" viewBox="0 0 447 753" fill="none" xmlns="http://www.w3.org/2000/svg">
<path d="M52 264.5C52 301.8 22.43 332 -14 332C-50.43 332 -80 301.8 -80 264.5C-80 227.2 -50.43 197 -14 197C22.43 197 52 227.2 52 264.5Z" stroke="white" stroke-opacity="0.2" stroke-width="2"/>
<path d="M98 455.5C98 464.09 91.2555 471 83 471C74.7445 471 68 464.09 68 455.5C68 446.91 74.7445 440 83 440C91.2555 440 98 446.91 98 455.5Z" stroke="white" stroke-opacity="0.2" stroke-width="2"/>
<circle cx="83.5" cy="455.5" r="8.5" fill="white" fill-opacity="0.2"/>
<circle cx="431.5" cy="15.5" r="15.5" fill="white" fill-opacity="0.2"/>
<circle cx="431" cy="16" r="5" fill="white" fill-opacity="0.5"/>
<circle cx="4" cy="542" r="2" fill="white" fill-opacity="0.2"/>
<circle cx="4" cy="718" r="2" fill="white" fill-opacity="0.2"/>
<circle cx="4" cy="630" r="2" fill="white" fill-opacity="0.2"/>
<circle cx="4" cy="586" r="2" fill="white" fill-opacity="0.2"/>
<circle cx="4" cy="674" r="2" fill="white" fill-opacity="0.2"/>
<circle cx="4" cy="564" r="2" fill="white" fill-opacity="0.2"/>
<circle cx="4" cy="740" r="2" fill="white" fill-opacity="0.2"/>
<circle cx="4" cy="652" r="2" fill="white" fill-opacity="0.2"/>
<circle cx="4" cy="608" r="2" fill="white" fill-opacity="0.2"/>
<circle cx="4" cy="696" r="2" fill="white" fill-opacity="0.2"/>
<circle cx="4" cy="553" r="2" fill="white" fill-opacity="0.2"/>
<circle cx="4" cy="729" r="2" fill="white" fill-opacity="0.2"/>
<circle cx="4" cy="641" r="2" fill="white" fill-opacity="0.2"/>
<circle cx="4" cy="597" r="2" fill="white" fill-opacity="0.2"/>
<circle cx="4" cy="685" r="2" fill="white" fill-opacity="0.2"/>
<circle cx="4" cy="575" r="2" fill="white" fill-opacity="0.2"/>
<circle cx="4" cy="751" r="2" fill="white" fill-opacity="0.2"/>
<circle cx="4" cy="663" r="2" fill="white" fill-opacity="0.2"/>
<circle cx="4" cy="619" r="2" fill="white" fill-opacity="0.2"/>
<circle cx="4" cy="707" r="2" fill="white" fill-opacity="0.2"/>
<circle cx="26" cy="542" r="2" fill="white" fill-opacity="0.2"/>
<circle cx="26" cy="718" r="2" fill="white" fill-opacity="0.2"/>
<circle cx="26" cy="630" r="2" fill="white" fill-opacity="0.2"/>
<circle cx="26" cy="586" r="2" fill="white" fill-opacity="0.2"/>
<circle cx="26" cy="674" r="2" fill="white" fill-opacity="0.2"/>
<circle cx="26" cy="564" r="2" fill="white" fill-opacity="0.2"/>
<circle cx="26" cy="740" r="2" fill="white" fill-opacity="0.2"/>
<circle cx="26" cy="652" r="2" fill="white" fill-opacity="0.2"/>
<circle cx="26" cy="608" r="2" fill="white" fill-opacity="0.2"/>
<circle cx="26" cy="696" r="2" fill="white" fill-opacity="0.2"/>
<circle cx="26" cy="553" r="2" fill="white" fill-opacity="0.2"/>
<circle cx="26" cy="729" r="2" fill="white" fill-opacity="0.2"/>
<circle cx="26" cy="641" r="2" fill="white" fill-opacity="0.2"/>
<circle cx="26" cy="597" r="2" fill="white" fill-opacity="0.2"/>
<circle cx="26" cy="685" r="2" fill="white" fill-opacity="0.2"/>
<circle cx="26" cy="575" r="2" fill="white" fill-opacity="0.2"/>
<circle cx="26" cy="751" r="2" fill="white" fill-opacity="0.2"/>
<circle cx="26" cy="663" r="2" fill="white" fill-opacity="0.2"/>
<circle cx="26" cy="619" r="2" fill="white" fill-opacity="0.2"/>
<circle cx="26" cy="707" r="2" fill="white" fill-opacity="0.2"/>
<circle cx="48" cy="707" r="2" fill="white" fill-opacity="0.2"/>
<circle cx="48" cy="751" r="2" fill="white" fill-opacity="0.2"/>
<circle cx="48" cy="729" r="2" fill="white" fill-opacity="0.2"/>
<circle cx="48" cy="718" r="2" fill="white" fill-opacity="0.2"/>
<circle cx="48" cy="740" r="2" fill="white" fill-opacity="0.2"/>
<circle cx="140" cy="707" r="2" fill="white" fill-opacity="0.2"/>
<circle cx="140" cy="751" r="2" fill="white" fill-opacity="0.2"/>
<circle cx="140" cy="729" r="2" fill="white" fill-opacity="0.2"/>
<circle cx="140" cy="718" r="2" fill="white" fill-opacity="0.2"/>
<circle cx="140" cy="740" r="2" fill="white" fill-opacity="0.2"/>
<circle cx="72" cy="707" r="2" fill="white" fill-opacity="0.2"/>
<circle cx="72" cy="751" r="2" fill="white" fill-opacity="0.2"/>
<circle cx="72" cy="729" r="2" fill="white" fill-opacity="0.2"/>
<circle cx="72" cy="718" r="2" fill="white" fill-opacity="0.2"/>
<circle cx="72" cy="740" r="2" fill="white" fill-opacity="0.2"/>
<circle cx="164" cy="707" r="2" fill="white" fill-opacity="0.2"/>
<circle cx="164" cy="751" r="2" fill="white" fill-opacity="0.2"/>
<circle cx="164" cy="729" r="2" fill="white" fill-opacity="0.2"/>
<circle cx="164" cy="718" r="2" fill="white" fill-opacity="0.2"/>
<circle cx="164" cy="740" r="2" fill="white" fill-opacity="0.2"/>
<circle cx="96" cy="707" r="2" fill="white" fill-opacity="0.2"/>
<circle cx="96" cy="751" r="2" fill="white" fill-opacity="0.2"/>
<circle cx="96" cy="729" r="2" fill="white" fill-opacity="0.2"/>
<circle cx="96" cy="718" r="2" fill="white" fill-opacity="0.2"/>
<circle cx="96" cy="740" r="2" fill="white" fill-opacity="0.2"/>
<circle cx="188" cy="707" r="2" fill="white" fill-opacity="0.2"/>
<circle cx="188" cy="751" r="2" fill="white" fill-opacity="0.2"/>
<circle cx="188" cy="729" r="2" fill="white" fill-opacity="0.2"/>
<circle cx="188" cy="718" r="2" fill="white" fill-opacity="0.2"/>
<circle cx="188" cy="740" r="2" fill="white" fill-opacity="0.2"/>
<circle cx="118" cy="707" r="2" fill="white" fill-opacity="0.2"/>
<circle cx="118" cy="751" r="2" fill="white" fill-opacity="0.2"/>
<circle cx="118" cy="729" r="2" fill="white" fill-opacity="0.2"/>
<circle cx="118" cy="718" r="2" fill="white" fill-opacity="0.2"/>
<circle cx="118" cy="740" r="2" fill="white" fill-opacity="0.2"/>
<circle cx="210" cy="707" r="2" fill="white" fill-opacity="0.2"/>
<circle cx="210" cy="751" r="2" fill="white" fill-opacity="0.2"/>
<circle cx="210" cy="729" r="2" fill="white" fill-opacity="0.2"/>
<circle cx="210" cy="718" r="2" fill="white" fill-opacity="0.2"/>
<circle cx="210" cy="740" r="2" fill="white" fill-opacity="0.2"/>
<circle cx="15" cy="542" r="2" fill="white" fill-opacity="0.2"/>
<circle cx="15" cy="718" r="2" fill="white" fill-opacity="0.2"/>
<circle cx="15" cy="630" r="2" fill="white" fill-opacity="0.2"/>
<circle cx="15" cy="586" r="2" fill="white" fill-opacity="0.2"/>
<circle cx="15" cy="674" r="2" fill="white" fill-opacity="0.2"/>
<circle cx="15" cy="564" r="2" fill="white" fill-opacity="0.2"/>
<circle cx="15" cy="740" r="2" fill="white" fill-opacity="0.2"/>
<circle cx="15" cy="652" r="2" fill="white" fill-opacity="0.2"/>
<circle cx="15" cy="608" r="2" fill="white" fill-opacity="0.2"/>
<circle cx="15" cy="696" r="2" fill="white" fill-opacity="0.2"/>
<circle cx="15" cy="553" r="2" fill="white" fill-opacity="0.2"/>
<circle cx="15" cy="729" r="2" fill="white" fill-opacity="0.2"/>
<circle cx="15" cy="641" r="2" fill="white" fill-opacity="0.2"/>
<circle cx="15" cy="597" r="2" fill="white" fill-opacity="0.2"/>
<circle cx="15" cy="685" r="2" fill="white" fill-opacity="0.2"/>
<circle cx="15" cy="575" r="2" fill="white" fill-opacity="0.2"/>
<circle cx="15" cy="751" r="2" fill="white" fill-opacity="0.2"/>
<circle cx="15" cy="663" r="2" fill="white" fill-opacity="0.2"/>
<circle cx="15" cy="619" r="2" fill="white" fill-opacity="0.2"/>
<circle cx="15" cy="707" r="2" fill="white" fill-opacity="0.2"/>
<circle cx="37" cy="542" r="2" fill="white" fill-opacity="0.2"/>
<circle cx="37" cy="718" r="2" fill="white" fill-opacity="0.2"/>
<circle cx="37" cy="630" r="2" fill="white" fill-opacity="0.2"/>
<circle cx="37" cy="586" r="2" fill="white" fill-opacity="0.2"/>
<circle cx="37" cy="674" r="2" fill="white" fill-opacity="0.2"/>
<circle cx="37" cy="564" r="2" fill="white" fill-opacity="0.2"/>
<circle cx="37" cy="740" r="2" fill="white" fill-opacity="0.2"/>
<circle cx="37" cy="652" r="2" fill="white" fill-opacity="0.2"/>
<circle cx="37" cy="608" r="2" fill="white" fill-opacity="0.2"/>
<circle cx="37" cy="696" r="2" fill="white" fill-opacity="0.2"/>
<circle cx="37" cy="553" r="2" fill="white" fill-opacity="0.2"/>
<circle cx="37" cy="729" r="2" fill="white" fill-opacity="0.2"/>
<circle cx="37" cy="641" r="2" fill="white" fill-opacity="0.2"/>
<circle cx="37" cy="597" r="2" fill="white" fill-opacity="0.2"/>
<circle cx="37" cy="685" r="2" fill="white" fill-opacity="0.2"/>
<circle cx="37" cy="575" r="2" fill="white" fill-opacity="0.2"/>
<circle cx="37" cy="751" r="2" fill="white" fill-opacity="0.2"/>
<circle cx="37" cy="663" r="2" fill="white" fill-opacity="0.2"/>
<circle cx="37" cy="619" r="2" fill="white" fill-opacity="0.2"/>
<circle cx="37" cy="707" r="2" fill="white" fill-opacity="0.2"/>
<circle cx="59" cy="707" r="2" fill="white" fill-opacity="0.2"/>
<circle cx="59" cy="751" r="2" fill="white" fill-opacity="0.2"/>
<circle cx="59" cy="729" r="2" fill="white" fill-opacity="0.2"/>
<circle cx="59" cy="718" r="2" fill="white" fill-opacity="0.2"/>
<circle cx="59" cy="740" r="2" fill="white" fill-opacity="0.2"/>
<circle cx="151" cy="707" r="2" fill="white" fill-opacity="0.2"/>
<circle cx="151" cy="751" r="2" fill="white" fill-opacity="0.2"/>
<circle cx="151" cy="729" r="2" fill="white" fill-opacity="0.2"/>
<circle cx="151" cy="718" r="2" fill="white" fill-opacity="0.2"/>
<circle cx="151" cy="740" r="2" fill="white" fill-opacity="0.2"/>
<circle cx="83" cy="707" r="2" fill="white" fill-opacity="0.2"/>
<circle cx="83" cy="751" r="2" fill="white" fill-opacity="0.2"/>
<circle cx="83" cy="729" r="2" fill="white" fill-opacity="0.2"/>
<circle cx="83" cy="718" r="2" fill="white" fill-opacity="0.2"/>
<circle cx="83" cy="740" r="2" fill="white" fill-opacity="0.2"/>
<circle cx="175" cy="707" r="2" fill="white" fill-opacity="0.2"/>
<circle cx="175" cy="751" r="2" fill="white" fill-opacity="0.2"/>
<circle cx="175" cy="729" r="2" fill="white" fill-opacity="0.2"/>
<circle cx="175" cy="718" r="2" fill="white" fill-opacity="0.2"/>
<circle cx="175" cy="740" r="2" fill="white" fill-opacity="0.2"/>
<circle cx="107" cy="707" r="2" fill="white" fill-opacity="0.2"/>
<circle cx="107" cy="751" r="2" fill="white" fill-opacity="0.2"/>
<circle cx="107" cy="729" r="2" fill="white" fill-opacity="0.2"/>
<circle cx="107" cy="718" r="2" fill="white" fill-opacity="0.2"/>
<circle cx="107" cy="740" r="2" fill="white" fill-opacity="0.2"/>
<circle cx="199" cy="707" r="2" fill="white" fill-opacity="0.2"/>
<circle cx="199" cy="751" r="2" fill="white" fill-opacity="0.2"/>
<circle cx="199" cy="729" r="2" fill="white" fill-opacity="0.2"/>
<circle cx="199" cy="718" r="2" fill="white" fill-opacity="0.2"/>
<circle cx="199" cy="740" r="2" fill="white" fill-opacity="0.2"/>
<circle cx="129" cy="707" r="2" fill="white" fill-opacity="0.2"/>
<circle cx="129" cy="751" r="2" fill="white" fill-opacity="0.2"/>
<circle cx="129" cy="729" r="2" fill="white" fill-opacity="0.2"/>
<circle cx="129" cy="718" r="2" fill="white" fill-opacity="0.2"/>
<circle cx="129" cy="740" r="2" fill="white" fill-opacity="0.2"/>
<circle cx="221" cy="707" r="2" fill="white" fill-opacity="0.2"/>
<circle cx="221" cy="751" r="2" fill="white" fill-opacity="0.2"/>
<circle cx="221" cy="729" r="2" fill="white" fill-opacity="0.2"/>
<circle cx="221" cy="718" r="2" fill="white" fill-opacity="0.2"/>
<circle cx="221" cy="740" r="2" fill="white" fill-opacity="0.2"/>
</svg>
