<svg width="45" height="45" viewBox="0 0 45 45" fill="none" xmlns="http://www.w3.org/2000/svg">
<g clip-path="url(#clip0_917_9084)">
<path d="M0.610647 45C0.152662 44.7182 0 44.3191 0 43.7908C0.0117432 29.5969 0.0117432 15.4031 0.0117432 1.20924C0.0117432 0.281764 0.281837 0 1.20955 0C12.0251 0 22.8288 0 33.6443 0C34.5485 0 34.8186 0.270023 34.8186 1.18576C34.8186 2.20715 34.8186 3.24028 34.8186 4.26167C34.8186 4.8839 34.4898 5.25959 33.9614 5.27133C33.4329 5.28307 33.0689 4.87216 33.0571 4.24993C33.0454 3.43986 33.0571 2.61805 33.0571 1.7845C22.6174 1.7845 12.2247 1.7845 1.79671 1.7845C1.79671 15.5909 1.79671 29.3973 1.79671 43.2155C8.73695 43.2155 15.6654 43.2155 22.6292 43.2155C22.6996 42.6167 22.7701 42.0063 22.8406 41.4075C22.9932 40.0104 23.1341 38.6133 23.2985 37.2163C23.3338 36.958 23.4629 36.688 23.5921 36.4532C26.6688 31.1114 29.7573 25.7814 32.8223 20.4396C32.9632 20.2048 33.0454 19.8996 33.0454 19.6178C33.0571 17.305 33.0571 14.9922 33.0571 12.6794C33.0571 12.5385 33.0454 12.3859 33.0689 12.245C33.1276 11.7519 33.5269 11.4114 33.9966 11.4349C34.4546 11.4701 34.8069 11.8106 34.8069 12.3037C34.8186 13.6421 34.8069 14.9687 34.8186 16.3071C34.8186 16.4832 34.8186 16.6593 34.8891 16.8706C34.9713 16.7415 35.0535 16.6241 35.124 16.4949C36.1339 14.7456 37.1203 12.9846 38.1654 11.2588C38.917 10.0143 40.0913 9.42734 41.5358 9.52126C42.9332 9.61518 43.9666 10.3196 44.589 11.564C44.7769 11.9397 44.8591 12.3624 45 12.7498C45 13.0433 45 13.3368 45 13.6303C44.6242 14.4521 44.3189 15.2974 43.8727 16.0723C40.9486 21.191 37.9893 26.2862 35.0535 31.4049C34.9126 31.6397 34.8304 31.9449 34.8304 32.2267C34.8186 36.0892 34.8186 39.9635 34.8304 43.826C34.8304 44.366 34.6895 44.7652 34.1962 45.0117C23.005 45 11.8019 45 0.610647 45ZM28.7239 38.8129C33.0102 31.3814 37.2965 23.9734 41.5827 16.5419C40.4671 15.8962 39.375 15.2622 38.2359 14.6047C33.9379 22.048 29.6634 29.456 25.3653 36.8875C26.5162 37.5333 27.5966 38.1555 28.7239 38.8129ZM33.0219 43.2155C33.0219 40.4448 33.0219 37.7211 33.0219 34.88C32.2234 36.2536 31.4366 37.498 30.7672 38.8129C30.1213 40.0926 29.2523 41.1023 28.0193 41.8536C27.3969 42.2411 26.8215 42.7224 26.1521 43.2155C28.5243 43.2155 30.7672 43.2155 33.0219 43.2155ZM42.4752 15.0156C42.7101 14.5813 42.9567 14.2056 43.1093 13.7947C43.4499 12.9024 43.0154 11.881 42.1581 11.4584C41.3244 11.0357 40.2792 11.2823 39.739 12.0454C39.5159 12.3624 39.3398 12.7146 39.1166 13.0785C40.244 13.7242 41.3361 14.3582 42.4752 15.0156ZM24.5081 42.2293C25.518 41.4897 26.4575 40.8088 27.4321 40.0926C26.5632 39.5878 25.7411 39.1182 24.8956 38.6368C24.7664 39.8578 24.649 40.9849 24.5081 42.2293Z" fill="white"/>
<path d="M17.4031 11.0706C14.5612 11.0706 11.7194 11.0706 8.88926 11.0706C8.74834 11.0706 8.59568 11.0823 8.45476 11.0589C8.00852 11.0002 7.67971 10.6245 7.66797 10.1901C7.66797 9.7557 7.99678 9.38002 8.44302 9.32132C8.5722 9.30958 8.70137 9.30958 8.84229 9.30958C14.5612 9.30958 20.2919 9.30958 26.0109 9.30958C26.14 9.30958 26.281 9.29784 26.4101 9.32132C26.8681 9.38002 27.1852 9.74396 27.1852 10.1901C27.1852 10.6362 26.8799 11.0002 26.4219 11.0589C26.281 11.0823 26.1283 11.0706 25.9874 11.0706C23.1103 11.0706 20.2567 11.0706 17.4031 11.0706Z" fill="white"/>
<path d="M17.3914 15.9905C14.4908 15.9905 11.5903 15.9905 8.70143 15.9905C7.99684 15.9905 7.53885 15.5092 7.67977 14.9339C7.77372 14.5347 8.03207 14.2999 8.43134 14.2412C8.57226 14.2178 8.72492 14.2295 8.86584 14.2295C14.5613 14.2295 20.2568 14.2295 25.9405 14.2295C26.0814 14.2295 26.2341 14.2178 26.375 14.2412C26.833 14.2999 27.1383 14.6639 27.1383 15.11C27.1383 15.5561 26.8212 15.9201 26.3632 15.9788C26.2223 16.0023 26.0697 15.9905 25.9287 15.9905C23.0986 15.9905 20.245 15.9905 17.3914 15.9905Z" fill="white"/>
<path d="M17.4504 25.8401C14.585 25.8401 11.708 25.8401 8.84261 25.8401C8.70169 25.8401 8.54903 25.8518 8.40811 25.8284C7.98535 25.7579 7.66829 25.394 7.65654 24.9831C7.6448 24.5487 7.98535 24.1613 8.41985 24.1026C8.54903 24.0791 8.6782 24.0908 8.81912 24.0908C14.5616 24.0908 20.2922 24.0908 26.0347 24.0908C26.1169 24.0908 26.2108 24.0908 26.293 24.0908C26.8097 24.126 27.162 24.4665 27.162 24.9479C27.1738 25.4527 26.8097 25.8049 26.2813 25.8401C26.1638 25.8518 26.0464 25.8401 25.929 25.8401C23.0989 25.8401 20.2805 25.8401 17.4504 25.8401Z" fill="white"/>
<path d="M12.4357 33.917C13.6453 33.917 14.8666 33.917 16.0761 33.917C16.7572 33.917 17.1448 34.2457 17.1448 34.7975C17.1448 35.3493 16.7572 35.6663 16.0644 35.6663C13.6218 35.6663 11.1792 35.6663 8.73663 35.6663C8.07901 35.6663 7.65625 35.3141 7.65625 34.7858C7.65625 34.2575 8.07901 33.917 8.74837 33.917C9.98141 33.917 11.2144 33.917 12.4357 33.917Z" fill="white"/>
<path d="M23.0284 20.9212C21.995 20.9212 20.9498 20.9212 19.9164 20.9212C19.2823 20.9212 18.883 20.569 18.8948 20.0289C18.9065 19.5124 19.2941 19.1602 19.893 19.1602C21.9833 19.1602 24.0735 19.1602 26.1638 19.1602C26.7745 19.1602 27.1503 19.5006 27.162 20.0289C27.162 20.5807 26.7862 20.9094 26.1404 20.9212C25.107 20.9212 24.0735 20.9212 23.0284 20.9212Z" fill="white"/>
<path d="M11.473 19.1602C12.4007 19.1602 13.3167 19.1602 14.2444 19.1602C14.8668 19.1602 15.2896 19.5241 15.2778 20.0407C15.2778 20.569 14.8668 20.9094 14.2327 20.9094C12.389 20.9094 10.5453 20.9094 8.70161 20.9094C8.07922 20.9094 7.65646 20.5455 7.66821 20.0289C7.66821 19.5124 8.09096 19.1602 8.71335 19.1602C9.62932 19.1602 10.557 19.1602 11.473 19.1602Z" fill="white"/>
<path d="M19.7751 28.998C20.6441 28.998 21.5014 28.998 22.3704 28.998C23.0162 28.998 23.392 29.3503 23.3803 29.8903C23.3685 30.4186 22.9928 30.7473 22.3704 30.7473C20.6324 30.7473 18.8826 30.7473 17.1446 30.7473C16.534 30.7473 16.1582 30.4069 16.1582 29.8786C16.1582 29.3385 16.5222 28.998 17.1446 28.998C18.0136 28.998 18.8944 28.998 19.7751 28.998Z" fill="white"/>
<path d="M10.7917 30.7591C10.0754 30.7591 9.35902 30.7591 8.64268 30.7591C8.05552 30.7473 7.65625 30.3716 7.65625 29.8668C7.66799 29.3737 8.06726 29.0098 8.61919 29.0098C10.0636 28.998 11.508 28.998 12.9524 29.0098C13.5396 29.0098 13.9389 29.3855 13.9389 29.902C13.9271 30.3951 13.5396 30.7591 12.9759 30.7708C12.2478 30.7591 11.5198 30.7591 10.7917 30.7591Z" fill="white"/>
<path d="M34.8183 8.35929C34.8183 8.84063 34.4308 9.22806 33.9493 9.22806C33.4796 9.22806 33.0803 8.82889 33.0686 8.35929C33.0568 7.87794 33.4913 7.4553 33.9728 7.46704C34.4425 7.47878 34.8183 7.87794 34.8183 8.35929Z" fill="white"/>
</g>
<defs>
<clipPath id="clip0_917_9084">
<rect width="45" height="45" fill="white"/>
</clipPath>
</defs>
</svg>
