<svg width="41" height="37" viewBox="0 0 41 37" fill="none" xmlns="http://www.w3.org/2000/svg">
<path d="M24.1435 10.5333C24.1435 11.3361 24.1435 12.0898 24.1435 12.8828C24.9297 12.8828 25.6837 12.8926 26.4484 12.8828C28.1502 12.8534 29.4749 13.4701 30.4982 14.6938C32.0922 16.6027 33.697 18.4921 35.3126 20.3814C35.4419 20.5283 35.6142 20.6653 35.7973 20.7436C37.316 21.4485 38.8346 22.1435 40.3641 22.8288C40.741 22.9952 40.9026 23.2203 40.8918 23.6021C40.8811 25.4719 40.8918 27.3416 40.8811 29.2114C40.8811 30.3078 40.0625 31.0518 38.8562 31.0616C37.833 31.0714 36.8098 31.0616 35.7973 31.0714C35.7758 31.0714 35.7435 31.0812 35.7004 31.091C35.2265 33.2936 33.7724 34.6543 31.349 35.1633C34.5156 35.1633 37.6714 35.1633 40.8595 35.1633C40.8595 35.5549 40.8595 35.9269 40.8595 36.3185C27.5578 36.3185 14.256 36.3185 0.932724 36.3185C0.932724 35.9563 0.932724 35.5843 0.932724 35.1731C4.09929 35.1731 7.26586 35.1731 10.4432 35.1731C7.85825 34.4977 6.66271 33.3915 6.08109 31.0616C5.95185 31.0616 5.81183 31.0616 5.66104 31.0616C4.72399 31.0616 3.77618 31.0714 2.83913 31.0616C1.72975 31.0518 0.900412 30.298 0.900412 29.2897C0.889641 27.9486 0.889641 26.6074 0.900412 25.2565C0.911183 23.5238 2.18212 22.1141 4.05621 21.7617C5.98416 21.3897 7.9121 21.0275 9.84005 20.6359C10.0662 20.587 10.3032 20.4402 10.4432 20.2835C12.0373 18.4235 13.6205 16.5636 15.1823 14.684C15.7747 13.9792 16.5071 13.4506 17.4226 13.1275C17.5303 13.0884 17.6488 12.9513 17.6488 12.8632C17.6703 12.1094 17.6595 11.3556 17.6595 10.5529C17.4872 10.5529 17.3472 10.5529 17.2072 10.5529C15.0746 10.5529 12.9312 10.5529 10.7986 10.5529C10.1201 10.5529 9.91544 10.3669 9.91544 9.7404C9.91544 6.76444 9.91544 3.77869 9.91544 0.802726C9.91544 0.185998 10.1201 0 10.8094 0C17.5303 0 24.2404 0 30.9613 0C31.6506 0 31.8445 0.185998 31.8445 0.802726C31.8445 3.77869 31.8445 6.76444 31.8445 9.7404C31.8445 10.3669 31.6398 10.5431 30.9613 10.5431C28.8395 10.5431 26.7177 10.5431 24.5958 10.5431C24.4666 10.5333 24.3158 10.5333 24.1435 10.5333ZM16.3671 29.8575C19.3936 29.8575 22.4202 29.8575 25.4467 29.8575C25.996 27.1067 28.3117 25.8928 30.2504 25.7851C31.4029 25.7264 32.4584 25.9809 33.417 26.5585C34.7095 27.3514 35.4419 28.4772 35.7004 29.8771C36.8205 29.8771 37.9084 29.8869 38.9854 29.8673C39.3409 29.8575 39.5563 29.6519 39.5886 29.3289C39.6101 29.1331 39.5886 28.9275 39.5886 28.7024C38.9962 28.7024 38.4469 28.7024 37.8976 28.7024C37.219 28.7024 37.0144 28.5164 37.0144 27.8898C37.0144 26.2648 37.0036 24.6398 37.0252 23.0148C37.0252 22.6917 36.9067 22.5351 36.6051 22.4176C36.0774 22.2022 35.5604 21.9771 35.0541 21.7128C34.8064 21.5855 34.5587 21.4093 34.3864 21.2037C32.7277 19.2654 31.0798 17.3271 29.4426 15.3693C28.6887 14.4687 27.7193 14.0183 26.4699 14.0281C24.0358 14.0477 21.6016 14.0477 19.1782 14.0281C17.9288 14.0183 16.9594 14.4589 16.2055 15.3595C14.5576 17.3369 12.8881 19.2948 11.2079 21.2429C11.0464 21.4387 10.7556 21.5855 10.4971 21.654C9.93699 21.8107 9.3446 21.8988 8.77376 22.0065C7.25509 22.3001 5.72566 22.5938 4.207 22.8973C3.51768 23.0343 2.97915 23.377 2.56986 23.9839C3.08685 23.9839 3.53922 23.9839 3.99159 23.9839C4.51935 23.9937 4.7563 24.1993 4.7563 24.6789C4.76707 25.3642 4.7563 26.0494 4.7563 26.7347C4.7563 27.3123 4.54089 27.4983 3.90542 27.5081C3.33458 27.5081 2.76373 27.5081 2.17135 27.5081C2.17135 28.1248 2.16058 28.6828 2.17135 29.2408C2.18212 29.6226 2.42984 29.8379 2.87144 29.8477C3.59307 29.8575 4.32548 29.8477 5.04711 29.8477C5.39177 29.8477 5.73643 29.8477 6.07032 29.8477C6.56577 27.1752 8.89223 25.8145 11.0464 25.746C13.1574 25.7166 15.7747 26.9207 16.3671 29.8575ZM11.2402 9.32925C17.7026 9.32925 24.1219 9.32925 30.5412 9.32925C30.5412 6.58823 30.5412 3.87658 30.5412 1.16493C24.0896 1.16493 17.6811 1.16493 11.2402 1.16493C11.2402 3.89616 11.2402 6.60781 11.2402 9.32925ZM29.7765 35.1438C28.6671 34.9284 27.687 34.4781 26.89 33.7341C26.0822 32.9901 25.6298 32.0797 25.4575 31.0714C22.3986 31.0714 19.3828 31.0714 16.3671 31.0714C15.8824 33.2936 14.4283 34.6445 11.8972 35.1438C17.9396 35.1438 23.8527 35.1438 29.7765 35.1438ZM15.0961 30.4547C15.0961 28.5164 13.3513 26.9403 11.2187 26.9403C9.08611 26.9403 7.35203 28.5262 7.35203 30.4644C7.35203 32.3929 9.09688 33.9788 11.2295 33.9788C13.3621 33.9788 15.0961 32.3929 15.0961 30.4547ZM30.5628 26.9501C28.4302 26.9501 26.6961 28.5359 26.7069 30.4742C26.7069 32.4027 28.4517 33.9886 30.5843 33.9788C32.7061 33.9788 34.451 32.3929 34.4402 30.4547C34.4402 28.5262 32.6954 26.9403 30.5628 26.9501ZM18.9951 10.5529C18.9951 11.3459 18.9951 12.0996 18.9951 12.8534C20.2876 12.8534 21.5585 12.8534 22.8187 12.8534C22.8187 12.0703 22.8187 11.3165 22.8187 10.5529C21.537 10.5529 20.2768 10.5529 18.9951 10.5529ZM39.5994 27.5179C39.5994 26.304 39.5994 25.1293 39.5994 23.9447C39.5994 23.8762 39.5455 23.7685 39.4809 23.7392C39.1147 23.563 38.7269 23.3965 38.3392 23.2203C38.3392 24.6887 38.3392 26.0886 38.3392 27.5179C38.7592 27.5179 39.1578 27.5179 39.5994 27.5179ZM2.2252 25.1978C2.2252 25.6089 2.2252 25.9809 2.2252 26.3333C2.65603 26.3333 3.05454 26.3333 3.45306 26.3333C3.45306 25.9418 3.45306 25.5796 3.45306 25.1978C3.033 25.1978 2.64526 25.1978 2.2252 25.1978Z" fill="white"/>
<path d="M22.8401 22.2609C19.9105 22.2609 16.9917 22.2609 14.062 22.2609C13.7282 22.2609 13.4158 22.2413 13.2435 21.9281C13.0711 21.6246 13.2435 21.3897 13.4266 21.1547C14.6544 19.5688 15.8823 17.983 17.0994 16.3873C17.7025 15.5846 18.5211 15.2126 19.5874 15.2224C21.7738 15.2419 23.9603 15.2419 26.1575 15.2224C27.213 15.2126 28.01 15.6041 28.6024 16.3873C29.8195 17.983 31.0474 19.5688 32.2752 21.1547C32.4583 21.3897 32.6306 21.6246 32.4583 21.9281C32.286 22.2413 31.9736 22.2707 31.6397 22.2609C28.6886 22.2511 25.759 22.2609 22.8401 22.2609ZM22.1723 16.3971C21.2676 16.3971 20.406 16.4069 19.5335 16.3873C18.9196 16.3775 18.4888 16.5929 18.1441 17.0432C17.1963 18.2962 16.2269 19.5395 15.2576 20.7925C15.2037 20.8708 15.1499 20.9491 15.0745 21.0568C17.4656 21.0568 19.8136 21.0568 22.1723 21.0568C22.1723 19.5101 22.1723 17.983 22.1723 16.3971ZM23.5079 16.3971C23.5079 17.983 23.5079 19.5199 23.5079 21.0568C25.8774 21.0568 28.2147 21.0568 30.6058 21.0568C29.4964 19.6178 28.4301 18.2081 27.3207 16.8376C27.1376 16.6124 26.7391 16.4362 26.4375 16.4167C25.4682 16.3677 24.4988 16.3971 23.5079 16.3971Z" fill="white"/>
<path d="M23.4649 23.4551C23.4649 23.8467 23.4649 24.2089 23.4649 24.5809C22.6248 24.5809 21.7955 24.5809 20.9338 24.5809C20.9338 24.2187 20.9338 23.8467 20.9338 23.4551C21.7632 23.4551 22.5925 23.4551 23.4649 23.4551Z" fill="white"/>
<path d="M32.4801 24.5809C31.6184 24.5809 30.7891 24.5809 29.949 24.5809C29.949 24.1991 29.949 23.8467 29.949 23.4551C30.7783 23.4551 31.6184 23.4551 32.4801 23.4551C32.4801 23.8173 32.4801 24.1893 32.4801 24.5809Z" fill="white"/>
<path d="M23.4755 4.94353C23.4755 4.09186 23.4755 3.24018 23.4755 2.35914C23.8956 2.35914 24.3049 2.35914 24.7465 2.35914C24.7573 2.45704 24.768 2.55493 24.768 2.66261C24.768 4.24849 24.768 5.83436 24.768 7.42023C24.768 7.87054 24.6065 8.12506 24.2403 8.17401C23.8202 8.23275 23.6156 8.00759 23.4432 7.69433C23.0555 6.97971 22.657 6.26509 22.2046 5.56026C22.2046 6.42172 22.2046 7.27339 22.2046 8.16422C21.763 8.16422 21.3645 8.16422 20.9229 8.16422C20.9121 8.06633 20.9014 7.96844 20.9014 7.86075C20.9014 6.27488 20.9014 4.68901 20.9014 3.10313C20.9014 2.65282 21.0629 2.3983 21.4184 2.34935C21.8384 2.28083 22.0538 2.51577 22.2154 2.82903C22.6031 3.54365 23.0016 4.25828 23.4002 4.9729C23.4217 4.96311 23.454 4.95332 23.4755 4.94353Z" fill="white"/>
<path d="M15.8824 5.84446C16.5718 6.52971 16.3456 7.35202 16.3887 8.15475C15.9578 8.15475 15.5593 8.15475 15.0962 8.15475C15.0962 7.86106 15.0962 7.5576 15.0962 7.26391C15.0962 6.59824 14.9023 6.42203 14.1591 6.43182C14.0514 6.43182 13.9545 6.43182 13.8145 6.43182C13.8145 7.01918 13.8145 7.57717 13.8145 8.16453C13.3837 8.16453 12.9744 8.16453 12.5328 8.16453C12.522 8.06664 12.5112 7.96875 12.5112 7.86106C12.5112 6.27519 12.5112 4.68932 12.5112 3.10344C12.5112 2.52587 12.7266 2.33008 13.3513 2.33008C13.9114 2.33008 14.4823 2.32029 15.0423 2.33987C15.9255 2.36924 16.3671 2.79018 16.3779 3.58312C16.3779 3.8768 16.3671 4.17048 16.3779 4.46416C16.4102 4.96342 16.2702 5.41373 15.8824 5.84446ZM13.8145 5.2571C14.0622 5.2571 14.2776 5.26689 14.4823 5.2571C14.7946 5.23752 15.0423 5.0711 15.0746 4.797C15.1177 4.37606 15.0854 3.95512 15.0854 3.53417C14.633 3.53417 14.2345 3.53417 13.8145 3.53417C13.8145 4.10196 13.8145 4.65016 13.8145 5.2571Z" fill="white"/>
<path d="M20.2446 2.32964C20.2446 2.74079 20.2446 3.0932 20.2446 3.48478C19.6199 3.48478 18.9952 3.48478 18.349 3.48478C18.349 3.89593 18.349 4.26793 18.349 4.6595C18.7582 4.6595 19.1568 4.6595 19.5876 4.6595C19.5876 5.05107 19.5876 5.42307 19.5876 5.83422C19.1891 5.83422 18.7798 5.83422 18.349 5.83422C18.349 6.23558 18.349 6.59779 18.349 6.99915C18.9629 6.99915 19.5876 6.99915 20.2338 6.99915C20.2338 7.41031 20.2338 7.7823 20.2338 8.18367C19.3614 8.18367 18.489 8.20324 17.6165 8.17388C17.2503 8.16409 17.0349 7.91935 17.0349 7.58651C17.0242 6.0398 17.0242 4.48329 17.0349 2.93657C17.0349 2.59395 17.2396 2.34921 17.6058 2.33942C18.4782 2.31006 19.3399 2.32964 20.2446 2.32964Z" fill="white"/>
<path d="M28.0102 8.17425C27.5471 8.17425 27.1485 8.17425 26.7069 8.17425C26.7069 6.61774 26.7069 5.08081 26.7069 3.51452C26.2653 3.51452 25.8668 3.51452 25.4468 3.51452C25.4468 3.12294 25.4468 2.75095 25.4468 2.35938C26.7069 2.35938 27.9779 2.35938 29.2596 2.35938C29.2596 2.72158 29.2596 3.08379 29.2596 3.48515C28.8611 3.48515 28.4518 3.48515 28.0102 3.48515C28.0102 5.06123 28.0102 6.59816 28.0102 8.17425Z" fill="white"/>
<path d="M13.8037 30.4642C13.8037 31.7564 12.6404 32.8137 11.2187 32.8137C9.79699 32.8137 8.64453 31.7466 8.64453 30.4544C8.6553 29.1818 9.80776 28.1344 11.2079 28.1246C12.6404 28.1148 13.8037 29.1623 13.8037 30.4642ZM12.5112 30.474C12.5112 29.8377 11.9403 29.2993 11.2403 29.2993C10.5402 29.2895 9.94778 29.8084 9.93701 30.4447C9.92624 31.1005 10.5079 31.639 11.2295 31.639C11.9296 31.6292 12.5112 31.1103 12.5112 30.474Z" fill="white"/>
<path d="M33.1477 30.4744C33.1477 31.7666 31.9737 32.8141 30.552 32.8141C29.1302 32.8043 27.9778 31.7373 27.9993 30.4451C28.0101 29.1725 29.1733 28.125 30.5735 28.125C31.9952 28.125 33.1585 29.1725 33.1477 30.4744ZM31.866 30.4744C31.866 29.8381 31.2951 29.3095 30.595 29.2997C29.895 29.2899 29.3026 29.8088 29.2918 30.4451C29.281 31.101 29.8626 31.6394 30.5843 31.6394C31.2736 31.6296 31.8552 31.1108 31.866 30.4744Z" fill="white"/>
</svg>
