<svg width="86" height="85" viewBox="0 0 86 85" fill="none" xmlns="http://www.w3.org/2000/svg">
<path d="M23.5904 49.0351C23.5904 44.2353 23.5904 39.4748 23.5904 34.6356C22.5217 34.6356 21.453 34.6356 20.4041 34.6356C19.0583 34.6356 18.5635 33.8487 19.1375 32.6684C20.6218 29.6784 22.1259 26.708 23.6299 23.7179C23.9268 23.1277 24.3424 22.813 25.0351 22.8523C25.3319 22.872 25.609 22.8523 25.9454 22.8523C25.9454 21.8098 26.0048 20.8065 25.9256 19.8033C25.8465 18.8394 25.1934 18.1312 24.5007 17.4624C19.3354 12.4855 20.5426 3.9677 26.836 0.544864C28.538 -0.379697 29.7056 -0.241996 29.5869 2.15793C29.4682 4.34146 29.5473 6.525 29.5869 8.70853C29.5869 8.98394 29.7848 9.35769 30.0223 9.51507C30.616 9.96751 31.2889 10.6757 31.942 10.6757C32.5753 10.6757 33.2086 9.94784 33.8814 9.57408C34.2575 9.35769 34.3366 9.08229 34.3366 8.66919C34.3168 6.28894 34.3168 3.90869 34.3366 1.52844C34.3366 0.171106 35.1085 -0.340354 36.3553 0.23012C42.9851 3.16117 44.786 11.9543 39.6999 17.1279C37.8593 19.0164 37.7802 19.7639 37.9583 22.8523C40.1353 22.8523 42.332 22.9114 44.5288 22.813C44.9642 22.7933 45.3798 22.1835 45.8152 21.8491C45.7954 21.7901 45.7558 21.7311 45.736 21.672C45.1621 21.672 44.5684 21.6917 43.9944 21.672C43.1236 21.6524 42.6685 21.2196 42.6685 20.3541C42.6487 18.8787 42.6487 17.4033 42.6685 15.928C42.6685 15.0624 43.1236 14.6297 43.9944 14.5903C44.5881 14.5706 45.1621 14.5903 45.9735 14.5903C45.4391 14.0789 45.0235 13.6854 44.6475 13.292C43.9548 12.5838 43.9351 11.9937 44.6079 11.3052C45.6172 10.2626 46.6464 9.23967 47.6953 8.23642C48.3483 7.58726 48.9619 7.60693 49.6347 8.25609C50.0305 8.64952 50.4066 9.08229 50.9805 9.41671C50.9805 8.84624 50.9805 8.27576 50.9805 7.70529C51.0003 6.78073 51.4159 6.34796 52.346 6.34796C53.8105 6.32828 55.2553 6.32828 56.7198 6.34796C57.6499 6.34796 58.0853 6.78073 58.1051 7.70529C58.1249 8.27576 58.1051 8.82656 58.1051 9.59375C58.6196 9.08229 59.0155 8.68886 59.4311 8.29543C60.1237 7.6266 60.7174 7.6266 61.4299 8.29543C62.459 9.29868 63.4683 10.3019 64.4579 11.3248C65.1307 12.0133 65.1307 12.6035 64.4579 13.3117C64.0621 13.7051 63.6662 14.0985 63.1517 14.61C63.9037 14.61 64.4777 14.5903 65.0516 14.61C65.9224 14.6297 66.3776 15.0624 66.3973 15.928C66.4171 17.4033 66.4171 18.8787 66.3973 20.3541C66.3973 21.2589 65.9422 21.6721 65.012 21.6917C64.4777 21.7114 63.9235 21.7114 63.3892 21.7114C63.3694 21.7114 63.3496 21.7311 63.2704 21.7901C63.8048 22.3409 64.2006 22.99 65.1703 22.9114C65.5266 22.8917 66.1005 23.2458 66.2588 23.5802C67.8618 26.6686 69.4253 29.7767 70.969 32.9045C71.4044 33.7897 70.87 34.6159 69.8805 34.6356C68.7524 34.6749 67.6244 34.6356 66.4369 34.6356C66.4369 38.924 66.4369 43.173 66.4369 47.4417C66.5557 47.4811 66.6744 47.5401 66.8129 47.5794C68.8514 47.9925 70.3555 49.4679 70.6721 51.3563C71.0085 53.3825 70.1575 55.2316 68.3566 56.2939C65.2495 58.1037 62.1226 59.8741 58.9957 61.6642C55.5719 63.6314 52.1481 65.5788 48.7442 67.546C47.2599 68.4115 45.6766 68.8246 43.9548 68.8246C38.4729 68.805 32.9909 68.7853 27.5089 68.8246C25.5892 68.8443 23.7883 68.5099 22.1061 67.5657C21.8884 67.4476 21.6707 67.3689 21.3342 67.2116C21.3342 67.7427 21.3342 68.1951 21.3342 68.6476C21.3144 69.5131 20.879 69.9852 20.0083 69.9852C16.9407 70.0049 13.893 70.0049 10.8254 69.9852C9.93486 69.9852 9.51926 69.5328 9.47968 68.6673C9.45989 68.3525 9.47968 68.0378 9.47968 67.6247C9.18282 67.6247 8.90575 67.6247 8.64848 67.6247C6.27361 67.6247 3.89874 67.6247 1.54366 67.6247C0.415602 67.6247 0 67.2312 0 66.1296C0 60.8183 0 55.5267 0 50.2154C0 49.1728 0.415602 48.7597 1.48429 48.7597C3.85916 48.7597 6.23403 48.7597 8.58911 48.7597C8.84638 48.7597 9.12345 48.7597 9.47968 48.7597C9.47968 48.3466 9.45989 47.9728 9.47968 47.6188C9.51926 46.8712 9.95465 46.4188 10.6869 46.4188C13.8138 46.3991 16.9605 46.3991 20.0874 46.4188C20.8593 46.4188 21.2749 46.8909 21.3144 47.6974C21.3342 48.0122 21.3144 48.3269 21.3144 48.6613C21.3144 48.9564 21.3144 49.2515 21.3144 49.6252C22.0665 49.4089 22.8185 49.2318 23.5904 49.0351ZM21.2353 52.0448C21.2353 52.3793 21.2353 52.635 21.2353 52.9104C21.2353 56.4513 21.2749 59.9725 21.2155 63.5133C21.1957 64.3395 21.4728 64.7133 22.1852 65.0477C23.6299 65.6969 24.9757 66.4837 26.6381 66.4837C32.4565 66.464 38.2947 66.5034 44.1132 66.4444C45.1225 66.4247 46.2505 66.169 47.1411 65.6772C53.771 61.9396 60.3612 58.143 66.9515 54.3464C68.2181 53.6186 68.6139 52.2219 67.941 51.0613C67.2681 49.9203 65.8432 49.5662 64.5766 50.2744C60.7966 52.4383 57.0166 54.6021 53.2366 56.7857C53.0189 56.9037 52.821 57.2578 52.8012 57.5135C52.6429 60.6413 49.892 62.7265 46.8245 61.9396C42.1737 60.7396 37.5427 59.4807 32.8919 58.2414C32.0607 58.025 31.6847 57.4545 31.8628 56.7463C32.0409 56.0578 32.6742 55.7628 33.5252 55.9791C35.5241 56.5103 37.5229 57.0414 39.5218 57.5725C42.1143 58.261 44.7069 58.9692 47.2994 59.6577C49.0806 60.1298 50.6243 58.8315 50.3868 57.0807C50.2087 55.8808 49.3775 55.3103 48.2494 55.0152C43.1038 53.6579 37.9781 52.2612 32.8325 50.9039C31.4472 50.5498 30.0817 49.9793 28.6172 50.2941C26.1829 50.8055 23.7289 51.435 21.2353 52.0448ZM51.97 54.7202C52.2669 54.5628 52.4846 54.4448 52.6825 54.3267C56.2448 52.2809 59.8071 50.2154 63.3892 48.1892C63.785 47.9532 63.9235 47.7171 63.9235 47.2843C63.9037 43.291 63.9235 39.278 63.9037 35.2847C63.9037 35.0683 63.8839 34.8716 63.8642 34.6159C63.5277 34.6159 63.2704 34.6159 62.9934 34.6159C58.7582 34.6159 54.5032 34.5962 50.268 34.6356C49.3181 34.6356 48.7639 34.3405 48.3681 33.4749C47.715 32.0586 46.9828 30.6816 46.2901 29.3046C46.2505 29.3243 46.211 29.3243 46.1912 29.3439C46.1912 36.8781 46.1912 44.4123 46.1912 51.9465C48.19 52.694 50.5649 52.6153 51.97 54.7202ZM43.7371 29.3833C43.6976 29.3636 43.658 29.3439 43.6184 29.3243C42.9257 30.7209 42.1737 32.0979 41.5206 33.5143C41.1446 34.3405 40.6102 34.6749 39.6801 34.6552C35.3855 34.6159 31.091 34.6356 26.7964 34.6356C26.5391 34.6356 26.2819 34.6356 26.0048 34.6356C26.0048 39.278 26.0048 43.8025 26.0048 48.4253C26.3017 48.3663 26.5589 48.3073 26.8162 48.2482C28.538 47.7565 30.2598 47.7368 32.0013 48.2286C34.2773 48.8581 36.573 49.4679 38.8489 50.058C40.4519 50.4908 42.0747 50.9039 43.7371 51.3367C43.7371 43.9599 43.7371 36.6617 43.7371 29.3833ZM36.6521 3.16117C36.6521 3.51526 36.6521 3.75132 36.6521 3.98738C36.6521 5.85617 36.6323 7.72496 36.6521 9.57408C36.6521 10.2429 36.4146 10.6954 35.8605 11.0494C34.8116 11.7183 33.7627 12.4264 32.7138 13.1346C32.1597 13.5084 31.6451 13.5281 31.0712 13.1346C30.0223 12.4068 28.9536 11.6986 27.8651 11.0101C27.3308 10.6757 27.1329 10.2036 27.1329 9.59375C27.1527 7.64627 27.1329 5.71847 27.1329 3.77099C27.1329 3.59395 27.0933 3.4169 27.0735 3.20052C22.8185 6.13157 22.3831 12.2691 26.1631 15.8296C27.6672 17.246 28.4192 18.8787 28.3401 20.9245C28.3203 21.554 28.3401 22.1835 28.3401 22.7933C29.1911 22.7933 29.9431 22.7933 30.715 22.7933C30.715 21.7114 30.715 20.6688 30.715 19.6459C30.715 18.682 31.1701 18.1115 31.942 18.1312C32.6742 18.1509 33.0898 18.682 33.0898 19.6262C33.0898 20.6688 33.0898 21.7311 33.0898 22.7933C33.921 22.7933 34.6731 22.7933 35.4053 22.7933C35.4251 22.695 35.4647 22.6556 35.4647 22.6163C35.4647 22.3409 35.4845 22.0655 35.4647 21.8098C35.247 19.3115 36.098 17.3246 37.9187 15.4952C41.4612 11.974 40.8081 6.01354 36.6521 3.16117ZM11.815 48.8187C11.815 55.1136 11.815 61.3495 11.815 67.5853C14.1898 67.5853 16.5251 67.5853 18.8406 67.5853C18.8406 61.3101 18.8406 55.0743 18.8406 48.8187C16.4855 48.8187 14.17 48.8187 11.815 48.8187ZM43.0247 25.2129C37.2458 25.2129 31.6055 25.2129 25.985 25.2326C25.7475 25.2326 25.4111 25.4883 25.2923 25.7047C24.4611 27.2588 23.6893 28.8521 22.8977 30.4259C22.6008 31.016 22.3238 31.6062 21.9873 32.275C22.3633 32.275 22.6404 32.275 22.8977 32.275C27.7068 32.275 32.5357 32.1766 37.3448 32.334C39.0072 32.3733 39.8582 31.9012 40.4519 30.3865C41.1644 28.6358 42.1143 27.003 43.0247 25.2129ZM67.842 32.275C67.8025 32.1176 67.8025 32.0389 67.7629 31.9799C66.6942 29.8554 65.6453 27.7112 64.537 25.6064C64.4183 25.39 64.0027 25.2129 63.7256 25.2129C58.3228 25.1932 52.92 25.1933 47.4974 25.1933C47.3192 25.1933 47.1411 25.2326 46.8838 25.2523C48.0317 27.5538 49.14 29.757 50.2878 31.9602C50.367 32.1373 50.7232 32.2553 50.9409 32.2553C52.2273 32.275 53.5137 32.275 54.8001 32.275C59.1144 32.275 63.4288 32.275 67.842 32.275ZM9.34115 51.1793C6.96628 51.1793 4.63099 51.1793 2.3155 51.1793C2.3155 55.9005 2.3155 60.5626 2.3155 65.2444C4.67057 65.2444 6.98607 65.2444 9.34115 65.2444C9.34115 60.5429 9.34115 55.9005 9.34115 51.1793ZM53.4345 22.8327C50.6441 21.6917 49.3181 19.7049 49.7337 17.4033C50.1493 15.1608 51.9502 13.5281 54.147 13.4297C56.3833 13.3313 58.4217 14.7674 58.9759 16.8919C59.3123 18.1902 59.1342 19.4098 58.4613 20.5704C57.7687 21.7311 56.7198 22.3999 55.374 22.7933C57.2145 22.7933 58.9363 22.7933 60.9154 22.7933C60.5987 22.5573 60.4602 22.4589 60.3414 22.3409C59.53 21.5344 59.53 21.3573 59.906 20.3344C60.2227 19.4885 60.8164 19.2721 61.6476 19.3115C62.3799 19.3508 63.1121 19.3115 63.8642 19.3115C63.8642 18.4853 63.8642 17.7574 63.8642 16.9509C62.9934 16.9509 62.1424 16.9312 61.3112 16.9509C60.5591 16.9706 60.1633 16.5575 59.8862 15.9083C59.5894 15.2198 59.5498 14.6493 60.1435 14.1182C60.757 13.5477 61.3705 12.9379 61.8851 12.4264C61.3112 11.797 60.7966 11.2462 60.2623 10.656C59.6685 11.2462 59.0946 11.7773 58.5603 12.3674C57.9864 12.9969 57.3926 13.0363 56.6406 12.7215C55.8886 12.4068 55.5521 11.9543 55.5917 11.1478C55.6313 10.3413 55.5917 9.55441 55.5917 8.76755C54.7407 8.76755 54.0084 8.76755 53.2168 8.76755C53.2168 9.61342 53.197 10.42 53.2168 11.2265C53.2366 11.9937 52.8804 12.4264 52.1679 12.7215C51.4555 13.0166 50.8617 13.0363 50.3076 12.4264C49.7535 11.8166 49.1598 11.2265 48.6254 10.6757C47.9921 11.2855 47.438 11.797 46.8641 12.3478C47.4578 12.9379 48.0317 13.5281 48.6254 14.0789C49.2389 14.6297 49.2389 15.2001 48.9421 15.928C48.6452 16.6165 48.2296 17.0099 47.438 16.9902C46.6068 16.9706 45.7756 16.9902 44.9444 16.9902C44.9444 17.8164 44.9444 18.5443 44.9444 19.2328C45.0037 19.2918 45.0235 19.3311 45.0235 19.3311C45.8547 19.3508 46.7057 19.2918 47.5369 19.3902C47.9327 19.4295 48.4869 19.6262 48.6452 19.941C49.2587 21.0622 49.4764 21.495 48.4275 22.4589C48.3088 22.5573 48.2098 22.695 48.0515 22.8917C49.9118 22.8327 51.594 22.8327 53.4345 22.8327ZM56.7989 18.1312C56.7989 16.8525 55.7302 15.7903 54.4438 15.7903C53.1179 15.7903 52.0492 16.8722 52.069 18.1902C52.0888 19.4688 53.1575 20.5114 54.4636 20.4918C55.7302 20.4918 56.7989 19.4098 56.7989 18.1312Z" fill="#EF0D5E" fill-opacity="0.78"/>
<ellipse cx="69.2565" cy="69" rx="16.2565" ry="16" fill="black"/>
<path d="M69.1954 65.84L66.5334 66.34L66.2083 64.98L69.8253 64H70.821V74.06H69.1954V65.84Z" fill="white"/>
</svg>
