<svg width="94" height="85" viewBox="0 0 94 85" fill="none" xmlns="http://www.w3.org/2000/svg">
<path d="M7.47625 49.0565C5.27906 46.2315 5.02173 45.5107 5.00193 42.0039C3.93303 42.0039 2.84433 42.0039 1.75563 42.0039C0.647131 42.0039 0.231445 41.6142 0.231445 40.5037C0.231445 31.386 0.231445 22.2683 0.231445 13.1701C0.231445 12.079 0.627337 11.6699 1.75563 11.6699C3.12145 11.6699 4.46748 11.6699 5.83331 11.6699C6.9418 11.6699 7.35749 12.0596 7.35749 13.1701C7.35749 17.1055 7.35749 21.0409 7.35749 24.9763C7.35749 25.2296 7.35749 25.5024 7.35749 25.853C7.65441 25.6972 7.87215 25.5803 8.07009 25.4634C10.2673 24.1191 12.4645 22.7748 14.6617 21.4111C15.1565 21.0994 15.6514 20.8266 16.2452 21.1773C16.8391 21.5085 16.8589 22.054 16.8589 22.6385C16.8391 23.671 16.8589 24.7231 16.8589 25.853C17.1162 25.7167 17.3142 25.6387 17.4923 25.5218C19.7093 24.1581 21.9263 22.7943 24.1433 21.4306C24.6381 21.1188 25.1132 20.8461 25.7268 21.1773C26.3207 21.5085 26.3603 22.0345 26.3603 22.619C26.3603 28.5416 26.3603 34.4837 26.3603 40.4063C26.3603 41.6532 25.9842 42.0039 24.7371 42.0233C23.7078 42.0233 22.6785 42.0233 21.7877 42.0233C21.57 43.3481 21.5304 44.6729 21.1147 45.8419C20.699 47.0303 19.8874 48.0823 19.1946 49.2513C19.0759 49.1928 19.1353 49.2318 19.1946 49.2513C22.1044 50.1085 23.8662 52.2126 23.9453 55.2129C24.0443 59.7328 23.9849 64.2527 23.9849 68.7726C23.9849 69.6298 23.4901 70.0194 22.5201 70.0194C18.4029 70.0194 14.2658 70.0194 10.1485 70.0194C8.14927 70.0194 6.15002 70.0194 4.15077 70.0194C3.08186 70.0194 2.66618 69.6103 2.66618 68.5582C2.66618 64.0578 2.66618 59.5574 2.66618 55.0765C2.60679 52.0178 4.22995 50.0111 7.47625 49.0565ZM2.64638 39.666C3.63611 39.666 4.56645 39.6855 5.4968 39.6465C5.67495 39.6465 5.91248 39.4322 6.01146 39.2374C9.43592 33.5485 17.0964 33.5485 20.5605 39.2569C20.6594 39.4127 20.8574 39.627 21.0157 39.6465C21.9659 39.6855 22.9358 39.666 23.9057 39.666C23.9057 34.5421 23.9057 29.4767 23.9057 24.3139C22.9754 24.8789 22.1242 25.4049 21.2731 25.931C19.7489 26.8661 18.2247 27.8013 16.7005 28.7559C16.1859 29.0676 15.6712 29.3793 15.0576 29.0287C14.4439 28.678 14.4439 28.0935 14.4637 27.4896C14.4835 27.0999 14.4637 26.7103 14.4637 26.3206C14.4637 25.6777 14.4637 25.0543 14.4637 24.2945C11.93 25.853 9.55468 27.2947 7.17934 28.7754C6.68447 29.0871 6.18961 29.3599 5.59577 29.0287C5.00193 28.6975 4.98214 28.1519 4.98214 27.5675C4.98214 23.3203 4.98214 19.0732 4.98214 14.8066C4.98214 14.5533 4.98214 14.3 4.98214 14.0468C4.15077 14.0468 3.41837 14.0468 2.64638 14.0468C2.64638 22.5605 2.64638 31.0548 2.64638 39.666ZM4.98214 67.6036C10.5642 67.6036 16.0473 67.6036 21.57 67.6036C21.57 63.4539 21.6096 59.3431 21.5502 55.2518C21.5304 53.4205 20.4219 51.9204 18.9373 51.5697C17.9674 51.3554 16.9578 51.3943 15.8494 51.3164C16.1265 53.2257 16.4036 54.9596 16.6213 56.713C16.7203 57.4728 16.8589 58.3106 16.6213 58.9924C16.0077 60.8043 15.1961 62.5577 14.4835 64.3306C14.246 64.8956 13.9095 65.3047 13.2563 65.3047C12.6228 65.2852 12.3061 64.8956 12.0884 64.3501C11.5143 62.9084 10.9799 61.4472 10.3069 60.0445C9.77242 58.934 9.73283 57.843 9.93078 56.6546C10.2475 54.9206 10.4454 53.1672 10.7028 51.3164C9.93078 51.3164 9.25776 51.2969 8.56496 51.3164C6.48653 51.3554 4.98214 52.836 4.96235 54.8817C4.94255 57.0247 4.96235 59.1483 4.96235 61.2913C4.98214 63.3954 4.98214 65.48 4.98214 67.6036ZM7.51584 44.3417C8.0305 47.1472 10.6632 49.1344 13.5928 48.998C16.2452 48.8811 18.7987 46.6796 18.9769 44.3417C16.8589 44.4002 14.9586 43.7573 13.2761 42.452C11.5935 43.7573 9.69325 44.3807 7.51584 44.3417ZM7.51584 41.9844C9.21818 42.0818 10.6632 41.5753 11.9102 40.5037C13.1969 39.3932 13.3552 39.3932 14.6023 40.4842C15.8494 41.5753 17.3142 42.0818 18.9967 41.9844C18.581 39.4127 16.1265 37.406 13.4344 37.3476C10.584 37.2697 8.08989 39.1984 7.51584 41.9844ZM13.2761 60.9796C13.6126 60.1809 13.8897 59.5574 14.1272 58.934C14.246 58.6028 14.4044 58.2326 14.3648 57.9014C14.1272 55.9337 13.8303 53.966 13.5334 51.9983C13.4938 51.784 13.4146 51.5892 13.3552 51.3749C13.1375 51.6086 13.0583 51.8035 13.0187 52.0178C12.801 53.5374 12.7218 55.0765 12.3457 56.5571C11.9102 58.1547 12.6228 59.4405 13.2761 60.9796Z" fill="#EF0D5E" fill-opacity="0.78"/>
<path d="M33.427 52.544C33.427 52.1544 33.427 51.9206 33.427 51.6868C33.427 38.9259 33.427 26.165 33.427 13.4041C33.427 12.0014 33.7437 11.6702 35.1491 11.6702C37.663 11.6702 40.1769 11.6702 42.7106 11.6702C42.9482 11.6702 43.1857 11.6702 43.4232 11.6702C43.443 11.6117 43.4628 11.5728 43.5024 11.5143C43.0273 11.1052 42.5523 10.6961 42.0376 10.2675C42.7106 9.66352 43.2649 9.15698 43.8191 8.66992C44.9672 9.78041 46.2143 10.9299 47.3821 12.1183C47.8374 12.5859 47.778 13.1703 47.3227 13.6379C46.1747 14.8068 44.987 15.9368 43.7993 17.1058C43.2847 16.5408 42.77 15.9953 42.1762 15.3523C42.5721 15.0406 43.0669 14.651 43.5816 14.2613C43.542 14.2029 43.5024 14.125 43.443 14.0665C40.9291 14.0665 38.4152 14.0665 35.8419 14.0665C35.8419 19.4436 35.8419 24.8402 35.8419 30.2758C38.3558 30.2758 40.8697 30.2758 43.6212 30.2758C42.9877 29.7887 42.4731 29.3991 41.9386 28.9705C42.6512 28.2886 43.1857 27.8015 43.8191 27.2171C44.6703 28.0743 45.561 28.9705 46.4716 29.8667C48.0749 31.4447 48.0749 31.5811 46.4518 33.1786C45.561 34.0553 44.6703 34.932 43.7597 35.8282C43.2055 35.2438 42.7106 34.7177 42.1564 34.1333C42.5523 33.7241 42.9877 33.2566 43.5024 32.7306C40.9093 32.7306 38.3954 32.7306 35.8419 32.7306C35.8419 38.4973 35.8419 44.303 35.8419 50.1282C38.3558 50.1282 40.8697 50.1282 43.5816 50.1282C42.9877 49.6217 42.5127 49.2126 42.0178 48.784C42.6908 48.18 43.2649 47.6735 43.8191 47.1864C44.9474 48.2579 46.1747 49.4074 47.3623 50.6153C47.8374 51.1023 47.7384 51.7063 47.2634 52.1934C46.1351 53.3428 44.9672 54.4728 43.8191 55.5833C43.2847 55.0183 42.77 54.4728 42.1762 53.8299C42.5523 53.5376 43.0471 53.148 43.5618 52.7778C43.5222 52.6999 43.4628 52.622 43.4232 52.544C40.1175 52.544 36.8119 52.544 33.427 52.544Z" fill="#EF0D5E" fill-opacity="0.78"/>
<path d="M50.015 10.4427C50.0347 4.6565 54.8646 -0.0387237 60.7832 0.000240776C66.6226 0.0392053 71.3733 4.77339 71.3535 10.5596C71.3337 16.3459 66.5038 21.0411 60.5852 21.0021C54.7459 20.9631 49.9952 16.229 50.015 10.4427ZM66.7018 16.0147C68.8792 14.2028 69.6116 10.3258 68.3447 7.34505C66.9591 4.09151 63.5544 2.06536 59.9914 2.35759C56.4086 2.66931 53.4196 5.24097 52.5882 8.72829C51.8558 11.826 53.3602 15.1574 54.7656 16.0147C54.6073 14.2807 55.1615 12.8975 56.7253 12.0403C55.5178 9.3712 55.8148 7.30609 57.5765 5.82543C59.1996 4.46168 61.5156 4.30582 63.2773 5.47475C64.1681 6.05922 64.7817 6.85799 65.138 7.85159C65.6724 9.33224 65.3557 10.7155 64.6035 12.0013C66.1871 13.1118 66.2069 13.1508 66.7018 16.0147ZM60.6842 14.008C59.9122 14.008 59.16 13.9885 58.388 14.008C57.5963 14.0275 57.1608 14.4561 57.1212 15.2354C57.1014 15.9172 57.141 16.5991 57.1014 17.2615C57.0816 17.7096 57.2202 17.9434 57.6754 18.0993C59.4965 18.7616 61.3176 18.8006 63.1783 18.2746C64.0097 18.0408 64.366 17.6706 64.2472 16.8134C64.1681 16.2874 64.2472 15.7419 64.2274 15.2159C64.1879 14.4561 63.7524 14.008 62.9606 13.9885C62.2084 13.9885 61.4562 14.008 60.6842 14.008ZM60.7238 11.6701C62.0105 11.6506 63.0596 10.5986 63.0596 9.33224C63.0596 8.06589 61.9907 7.01385 60.704 7.01385C59.3778 7.01385 58.3089 8.08538 58.3287 9.39069C58.3485 10.6376 59.4372 11.6701 60.7238 11.6701Z" fill="#EF0D5E" fill-opacity="0.78"/>
<path d="M50.015 33.7826C50.0347 27.9963 54.8646 23.3011 60.7832 23.3401C66.6226 23.379 71.3733 28.1132 71.3535 33.8995C71.3337 39.6857 66.5038 44.381 60.5852 44.342C54.7459 44.303 49.9952 39.5493 50.015 33.7826ZM66.6028 39.413C68.8396 37.5816 69.5918 33.7241 68.3645 30.7434C67.0383 27.4898 63.6534 25.4442 60.0508 25.678C56.4878 25.9312 53.479 28.4834 52.5882 31.9707C51.8163 35.01 53.2811 38.3999 54.7459 39.335C54.5677 37.6011 55.1417 36.2179 56.7055 35.3607C55.498 32.6526 55.8148 30.568 57.6161 29.0874C59.259 27.7431 61.575 27.6262 63.3169 28.8146C64.1681 29.3991 64.7817 30.1784 65.1182 31.1525C65.6527 32.6331 65.3557 34.0164 64.564 35.3607C66.2465 36.2374 66.7414 37.6596 66.6028 39.413ZM57.1212 39.6857C57.1212 39.9 57.1608 40.1338 57.1212 40.3481C57.0024 41.0495 57.3191 41.3612 57.9922 41.5755C59.8133 42.1405 61.6146 42.1405 63.4357 41.556C64.0295 41.3612 64.3462 41.1079 64.267 40.4455C64.1879 39.8805 64.267 39.2766 64.2472 38.6921C64.2274 37.7959 63.792 37.3673 62.8814 37.3478C61.7729 37.3284 60.6644 37.3478 59.5559 37.3478C57.2202 37.3284 57.1212 37.4063 57.1212 39.6857ZM60.7238 30.3342C59.4372 30.3147 58.3485 31.3473 58.3287 32.6137C58.3089 33.88 59.3382 34.9515 60.6248 34.9905C61.9313 35.0295 63.0596 33.9579 63.0596 32.6721C63.0596 31.4058 62.0105 30.3537 60.7238 30.3342Z" fill="#EF0D5E" fill-opacity="0.78"/>
<path d="M60.704 46.6602C66.583 46.6602 71.3732 51.4139 71.3534 57.2196C71.3337 62.9669 66.5236 67.6621 60.6644 67.6621C54.7854 67.6621 49.9952 62.9084 50.015 57.1027C50.0347 51.3554 54.8448 46.6602 60.704 46.6602ZM66.583 62.7721C68.8593 60.8628 69.5917 56.9858 68.3249 54.005C66.9393 50.7515 63.5148 48.7253 59.9716 49.0175C56.369 49.3292 53.3206 51.9788 52.5487 55.4467C51.836 58.6028 53.4196 61.8759 54.7656 62.6552C54.5875 60.9212 55.1615 59.538 56.7253 58.6808C55.5178 56.0117 55.8148 53.9466 57.5765 52.4659C59.1996 51.1021 61.5156 50.9463 63.2773 52.1152C64.1482 52.6802 64.7619 53.4595 65.1182 54.4336C65.6724 55.9338 65.3755 57.3365 64.5837 58.6808C66.2069 59.577 66.7611 60.9602 66.583 62.7721ZM57.1212 62.9084C57.1212 63.1812 57.1608 63.4539 57.1212 63.7072C56.9628 64.4281 57.3587 64.6813 57.9724 64.8762C59.7143 65.4412 61.4364 65.4411 63.1981 64.9541C64.0295 64.7203 64.3858 64.3501 64.267 63.4929C64.1878 63.0253 64.267 62.5188 64.2472 62.0317C64.2274 61.0966 63.8117 60.668 62.8418 60.668C61.7135 60.668 60.5852 60.668 59.4371 60.668C57.2598 60.668 57.1212 60.7849 57.1212 62.9084ZM63.0595 55.9922C63.0595 54.7259 61.9906 53.6738 60.704 53.6738C59.4174 53.6738 58.3484 54.7064 58.3287 55.9727C58.3089 57.278 59.3976 58.3496 60.7238 58.3301C61.9906 58.3106 63.0595 57.2586 63.0595 55.9922Z" fill="#EF0D5E" fill-opacity="0.78"/>
<path d="M34.5553 69.9999C33.4468 69.9999 32.3383 70.0194 31.2298 69.9999C30.3192 69.9804 29.8838 69.5518 29.864 68.6361C29.8442 66.4152 29.8442 64.2137 29.864 61.9927C29.864 61.0965 30.3192 60.6679 31.2496 60.6484C33.5062 60.6289 35.743 60.6289 37.9996 60.6484C38.9101 60.6484 39.3456 61.0965 39.3654 62.0122C39.3852 64.2331 39.3852 66.4346 39.3654 68.6556C39.3654 69.5518 38.9101 69.9804 37.9798 69.9999C36.8317 69.9999 35.7034 69.9999 34.5553 69.9999ZM36.9307 67.6426C36.9307 66.0645 36.9307 64.5643 36.9307 63.0642C35.3471 63.0642 33.8031 63.0642 32.2789 63.0642C32.2789 64.6228 32.2789 66.1229 32.2789 67.6426C33.8427 67.6426 35.3471 67.6426 36.9307 67.6426Z" fill="#EF0D5E" fill-opacity="0.78"/>
<path d="M4.94259 9.31261C4.1706 9.31261 3.4382 9.31261 2.46826 9.31261C2.72559 8.41643 2.86415 7.55921 3.24025 6.7994C4.21019 4.81221 5.89273 3.64327 8.14931 3.54586C10.9799 3.42896 13.8502 3.50689 16.76 3.50689C16.76 4.2667 16.76 4.98755 16.76 5.82528C16.5026 5.82528 16.2453 5.82528 15.988 5.82528C13.6522 5.82528 11.2967 5.82528 8.96089 5.82528C6.60533 5.82528 5.27909 6.95526 4.94259 9.31261Z" fill="#EF0D5E" fill-opacity="0.78"/>
<path d="M19.2341 5.78636C19.2341 5.00707 19.2341 4.28623 19.2341 3.5459C20.7781 3.5459 22.3023 3.5459 23.8859 3.5459C23.8859 4.26674 23.8859 5.00707 23.8859 5.78636C22.3617 5.78636 20.8177 5.78636 19.2341 5.78636Z" fill="#EF0D5E" fill-opacity="0.78"/>
<path d="M33.4666 54.8623C34.2187 54.8623 34.9511 54.8623 35.7429 54.8623C35.7429 55.9923 35.7429 57.1028 35.7429 58.2717C35.0105 58.2717 34.2583 58.2717 33.4666 58.2717C33.4666 57.1417 33.4666 56.0312 33.4666 54.8623Z" fill="#EF0D5E" fill-opacity="0.78"/>
<ellipse cx="77.2565" cy="69" rx="16.2565" ry="16" fill="black"/>
<path d="M73.1924 73.5C74.3032 72.6333 75.2989 71.7867 76.1795 70.96C76.5588 70.6133 76.9246 70.2533 77.2768 69.88C77.6426 69.5067 77.9677 69.14 78.2522 68.78C78.5367 68.42 78.7602 68.08 78.9228 67.76C79.0989 67.4267 79.187 67.1267 79.187 66.86C79.187 66.4333 79.0447 66.0867 78.7602 65.82C78.4893 65.54 77.9474 65.4 77.1346 65.4C76.7146 65.4 76.3082 65.4333 75.9153 65.5C75.5225 65.5667 75.1703 65.6333 74.8587 65.7C74.4929 65.7933 74.1407 65.8933 73.802 66L73.3143 64.72C73.6665 64.5867 74.0662 64.4667 74.5132 64.36C74.879 64.2667 75.3057 64.1867 75.7934 64.12C76.2947 64.04 76.823 64 77.3784 64C77.8255 64 78.259 64.0467 78.6789 64.14C79.1124 64.22 79.4918 64.3667 79.8169 64.58C80.1556 64.78 80.4197 65.0533 80.6094 65.4C80.8126 65.7467 80.9142 66.1867 80.9142 66.72C80.9142 67.0267 80.8465 67.3533 80.711 67.7C80.5755 68.0333 80.3994 68.3733 80.1827 68.72C79.9795 69.0533 79.7356 69.3933 79.4511 69.74C79.1802 70.0733 78.9025 70.3933 78.618 70.7C77.9542 71.42 77.1955 72.1333 76.3421 72.84C76.6672 72.8267 77.0059 72.8133 77.3581 72.8C77.6697 72.7867 78.0219 72.78 78.4148 72.78C78.8212 72.7667 79.2411 72.76 79.6746 72.76H81.219V74.26H73.1924V73.5Z" fill="white"/>
</svg>
