<svg width="88" height="76" viewBox="0 0 88 76" fill="none" xmlns="http://www.w3.org/2000/svg">
<path d="M71.3127 44.9641C71.0343 46.1627 70.8255 47.3614 70.4776 48.5257C69.8861 50.5634 68.8596 52.3956 67.5374 54.0566C67.0328 54.6901 66.4587 54.8442 65.9368 54.4846C65.3974 54.1079 65.3626 53.4915 65.902 52.8066C68.2681 49.7757 69.3641 46.3682 69.2075 42.5497C68.9118 35.1696 62.5964 28.7655 55.1154 28.2689C47.8083 27.7723 41.5451 31.8477 39.1268 38.6627C36.7085 45.4949 40.0663 53.6456 46.6775 56.8477C52.123 59.4846 57.4467 59.1593 62.5442 55.8887C62.666 55.8203 62.7704 55.7346 62.8922 55.6661C63.4837 55.3408 64.0404 55.4435 64.371 55.923C64.7015 56.4024 64.6145 57.0189 64.0404 57.3442C62.7878 58.0805 61.5699 58.9024 60.2129 59.399C53.8453 61.7107 47.9475 60.7689 42.589 56.6422C42.2584 56.3853 41.7713 56.2312 41.3537 56.2312C29.4537 56.2141 17.5536 56.197 5.65357 56.2141C3.8616 56.2141 2.3306 55.7175 1.19974 54.2963C0.434242 53.3203 0.190674 52.1901 0.190674 50.9744C0.190674 40.512 0.190674 30.0668 0.190674 19.6045C0.190674 18.5086 0.190674 17.4127 0.190674 16.3168C0.190674 15.512 0.60822 15.0326 1.23454 15.0326C1.86086 15.0326 2.26101 15.512 2.26101 16.3168C2.2784 17.0703 2.26101 17.8237 2.26101 18.6285C22.0422 18.6285 41.8061 18.6285 61.5525 18.6285C61.5699 18.5942 61.6221 18.56 61.6221 18.5257C61.6221 16.0942 61.6743 13.6456 61.6047 11.2141C61.5525 9.75861 60.4565 8.78259 58.9951 8.69697C58.2122 8.6456 57.4293 8.67985 56.5768 8.67985C56.5768 9.6045 56.6116 10.4607 56.5768 11.3168C56.4898 13.4401 54.9066 15.0155 52.6797 15.2209C50.8181 15.3922 48.9392 14.0566 48.4694 12.1559C48.3476 11.6593 48.3476 11.1114 48.3128 10.5977C48.2954 9.98122 48.3128 9.3819 48.3128 8.71409C46.5209 8.71409 44.7811 8.71409 42.8847 8.71409C42.8847 9.72437 42.9717 10.7346 42.8674 11.7107C42.6412 13.7483 40.884 15.2381 38.8311 15.2552C36.8129 15.2723 35.021 13.7826 34.7426 11.7792C34.6382 11.0429 34.673 10.2723 34.6556 9.53601C34.6556 9.26204 34.6556 9.00519 34.6556 8.69697C32.8462 8.69697 31.1239 8.69697 29.2797 8.69697C29.2797 9.48464 29.2971 10.2552 29.2797 11.0257C29.2101 13.3374 27.8183 14.9127 25.6088 15.2038C23.3645 15.512 21.1898 13.7826 21.0506 11.5394C20.9984 10.6148 21.0332 9.69012 21.0332 8.71409C20.7026 8.69697 20.4764 8.67985 20.2503 8.67985C18.7367 8.67985 17.2057 8.67985 15.6051 8.67985C15.6051 9.62163 15.6399 10.4778 15.6051 11.334C15.5355 13.1148 14.3872 14.5531 12.6649 15.0668C10.9947 15.5634 9.2201 14.9983 8.15884 13.5942C7.53252 12.7723 7.34115 11.8305 7.34115 10.8374C7.34115 10.1524 7.34115 9.46752 7.34115 8.61135C6.24509 8.69697 5.16643 8.6456 4.15736 8.88533C2.99171 9.17642 2.41759 10.1011 2.2958 11.2655C2.2784 11.4196 2.2958 11.5908 2.2784 11.7449C2.24361 12.5155 1.87826 12.9607 1.26933 12.9778C0.625617 12.9949 0.225469 12.5155 0.208072 11.7278C0.155878 8.95382 2.10443 6.84765 4.92286 6.6593C5.70576 6.60793 6.48866 6.6593 7.41074 6.6593C7.41074 5.59766 7.34115 4.63875 7.42814 3.69697C7.56732 1.60793 9.42888 -0.0187835 11.5166 0.0154631C13.6565 0.0497097 15.4485 1.67642 15.5877 3.74834C15.6399 4.673 15.6051 5.59766 15.6051 6.60793C17.1709 6.60793 18.6497 6.60793 20.1285 6.60793C20.4069 6.60793 20.6678 6.60793 21.0332 6.60793C21.0332 5.64902 20.981 4.75861 21.0506 3.88533C21.155 2.19012 22.0248 0.940121 23.6428 0.323682C25.2434 -0.309879 26.7396 -0.00166019 28.0097 1.1456C28.9492 2.00176 29.3145 3.09765 29.2971 4.34765C29.2797 5.06683 29.2971 5.78601 29.2971 6.55656C31.1239 6.55656 32.8636 6.55656 34.673 6.55656C34.673 5.70039 34.6382 4.87848 34.673 4.05656C34.7426 2.19012 35.8561 0.734641 37.561 0.203819C39.2486 -0.309879 40.9884 0.220943 42.0845 1.60793C42.7282 2.41272 42.9543 3.3545 42.9543 4.36478C42.9543 5.08396 42.9543 5.80313 42.9543 6.57368C44.7637 6.57368 46.4861 6.57368 48.365 6.57368C48.365 5.59766 48.2954 4.63875 48.3824 3.69697C48.5564 1.59081 50.3658 -0.00166018 52.4709 0.0154631C54.6456 0.0325864 56.455 1.72779 56.5768 3.8682C56.629 4.75861 56.5768 5.6319 56.5768 6.60793C57.2031 6.60793 57.7772 6.60793 58.3513 6.60793C61.7265 6.62505 63.7446 8.59423 63.7446 11.9333C63.7446 17.4298 63.762 22.9093 63.7273 28.4059C63.7273 28.9881 63.9012 29.3477 64.371 29.7072C68.3203 32.7038 70.5646 36.6764 71.1909 41.5394C71.2083 41.6764 71.2605 41.7963 71.3127 41.9333C71.3127 42.9607 71.3127 43.9538 71.3127 44.9641ZM36.3084 44.4504C33.1246 44.4504 30.0104 44.4504 26.9136 44.4504C26.9136 47.7038 26.9136 50.8888 26.9136 54.1079C31.2978 54.1079 35.6299 54.1079 40.0663 54.1079C37.7698 51.2141 36.5694 48.0292 36.3084 44.4504ZM12.4387 42.31C12.4387 39.0566 12.4387 35.8374 12.4387 32.6011C9.02873 32.6011 5.67096 32.6011 2.3306 32.6011C2.3306 35.8716 2.3306 39.0908 2.3306 42.31C5.72316 42.31 9.06353 42.31 12.4387 42.31ZM24.7389 42.3271C24.7389 39.0566 24.7389 35.8374 24.7389 32.584C24.4953 32.5668 24.304 32.5497 24.0952 32.5497C21.155 32.5497 18.2321 32.5668 15.2919 32.5326C14.7004 32.5326 14.5612 32.7038 14.5612 33.2689C14.5786 36.06 14.5786 38.8682 14.5786 41.6593C14.5786 41.8819 14.6134 42.0874 14.6308 42.3271C18.0234 42.3271 21.3463 42.3271 24.7389 42.3271ZM26.8788 30.4435C30.3062 30.4435 33.6639 30.4435 37.0217 30.4435C37.0217 27.1901 37.0217 23.9881 37.0217 20.8031C33.6117 20.8031 30.254 20.8031 26.8788 20.8031C26.8788 24.0394 26.8788 27.2072 26.8788 30.4435ZM26.931 32.584C26.931 35.8716 26.931 39.1079 26.931 42.31C30.08 42.31 33.1768 42.31 36.204 42.31C37.0739 39.0908 37.2827 35.8716 37.0217 32.584C33.6465 32.584 30.2888 32.584 26.931 32.584ZM2.2958 30.4435C5.72316 30.4435 9.08092 30.4435 12.4387 30.4435C12.4387 27.1901 12.4387 23.9881 12.4387 20.8031C9.02873 20.8031 5.67096 20.8031 2.2958 20.8031C2.2958 24.0394 2.2958 27.2244 2.2958 30.4435ZM14.6134 20.7689C14.6134 24.0394 14.6134 27.2244 14.6134 30.4435C18.0234 30.4435 21.3811 30.4435 24.7389 30.4435C24.7389 27.1901 24.7389 23.9881 24.7389 20.7689C21.3637 20.7689 18.0234 20.7689 14.6134 20.7689ZM14.596 54.1251C18.0234 54.1251 21.3811 54.1251 24.7389 54.1251C24.7389 50.8716 24.7389 47.6696 24.7389 44.4675C21.3463 44.4675 17.9712 44.4675 14.596 44.4675C14.596 47.6867 14.596 50.8716 14.596 54.1251ZM12.4387 54.1251C12.4387 50.8716 12.4387 47.6524 12.4387 44.4333C9.04613 44.4333 5.70576 44.4333 2.2784 44.4333C2.2784 44.6559 2.2784 44.8614 2.2784 45.0668C2.2784 47.0703 2.2784 49.0737 2.2784 51.0771C2.2784 53.0463 3.40926 54.1593 5.41 54.1764C7.53252 54.1935 9.67245 54.1764 11.795 54.1764C12.0037 54.1764 12.1951 54.1422 12.4387 54.1251ZM49.3393 26.4881C49.3393 24.7072 49.3393 22.7552 49.3393 20.8031C45.9294 20.8031 42.5716 20.8031 39.2138 20.8031C39.2138 24.0566 39.2138 27.2415 39.2138 30.4778C40.8144 30.512 42.415 30.8203 43.5981 29.4161C43.7198 29.262 43.9286 29.1593 44.1026 29.0737C45.8076 28.2175 47.5125 27.3785 49.3393 26.4881ZM51.4966 26.2997C55.0458 25.8888 58.4035 26.4367 61.6221 27.9607C61.6221 25.4778 61.6221 23.1319 61.6221 20.7689C58.2122 20.7689 54.8718 20.7689 51.4966 20.7689C51.4966 22.6011 51.4966 24.399 51.4966 26.2997ZM40.8666 7.6182C40.8666 6.52231 40.884 5.44355 40.8666 4.34765C40.8492 3.01204 39.9967 2.08738 38.7963 2.07026C37.5958 2.07026 36.7259 2.99492 36.7259 4.33053C36.7085 6.53944 36.7085 8.74834 36.7259 10.9401C36.7259 12.2757 37.5784 13.2004 38.7789 13.2175C39.9619 13.2175 40.8492 12.2929 40.8666 10.9572C40.884 9.84423 40.8666 8.73122 40.8666 7.6182ZM13.5347 7.66957C13.5347 6.50519 13.5521 5.35793 13.5347 4.19355C13.5173 2.97779 12.6997 2.12163 11.5514 2.07026C10.4379 2.01889 9.46367 2.85793 9.44628 4.05656C9.39408 6.4367 9.39408 8.83396 9.44628 11.2141C9.48107 12.4127 10.4379 13.2518 11.5514 13.2004C12.6997 13.149 13.5173 12.2757 13.5347 11.0771C13.5521 9.94697 13.5347 8.79971 13.5347 7.66957ZM54.5064 7.70382C54.5064 6.53944 54.5238 5.39218 54.5064 4.22779C54.489 2.97779 53.654 2.08738 52.4883 2.07026C51.3748 2.05313 50.4354 2.89218 50.4006 4.09081C50.3484 6.45382 50.3484 8.81683 50.4006 11.1798C50.418 12.3785 51.3748 13.2346 52.4883 13.2004C53.654 13.1661 54.489 12.2757 54.5064 11.0429C54.5238 9.92985 54.5064 8.81683 54.5064 7.70382ZM23.1035 7.63533C23.1035 8.76546 23.0861 9.91272 23.1035 11.0429C23.1209 12.2929 23.956 13.1833 25.1042 13.2004C26.2525 13.2346 27.1746 12.3442 27.1746 11.1114C27.2094 8.79971 27.2094 6.47094 27.1746 4.1593C27.1572 2.9093 26.2525 2.03601 25.1042 2.07026C23.9386 2.08738 23.1035 2.97779 23.0861 4.22779C23.0861 5.35793 23.1035 6.50519 23.1035 7.63533ZM40.1359 32.584C39.7532 32.584 39.4922 32.584 39.2312 32.584C39.2312 32.9778 39.2312 33.3203 39.2312 33.8168C39.5966 33.3374 39.8401 33.012 40.1359 32.584Z" fill="#EF0D5E" fill-opacity="0.78"/>
<path d="M53.8106 56.1625C45.9121 56.0768 39.875 49.1933 41.0407 41.4878C41.2843 39.8268 41.8758 38.2686 42.7457 36.8303C43.111 36.2138 43.6503 36.0084 44.1897 36.2652C44.7464 36.5392 44.9378 37.1556 44.5724 37.7892C43.4764 39.6727 42.9196 41.6762 42.9892 43.8508C43.1806 49.6385 48.3999 54.3474 54.2804 54.0049C58.9952 53.731 62.8749 50.7515 64.1797 46.4193C65.5019 42.0186 63.8839 37.4125 60.0564 34.6899C56.4551 32.1214 51.3402 32.07 47.6866 34.5871C47.53 34.6899 47.3909 34.8097 47.2343 34.9125C46.608 35.3234 45.9816 35.2549 45.6511 34.7584C45.3205 34.2789 45.4249 33.6625 46.0164 33.2858C46.9211 32.7036 47.8432 32.0871 48.8349 31.6933C55.8984 28.8337 63.7795 32.4296 66.1108 39.57C68.3899 46.5221 64.1449 53.9193 56.8204 55.7173C55.8462 55.9741 54.8197 56.0255 53.8106 56.1625Z" fill="#EF0D5E" fill-opacity="0.78"/>
<path d="M54.8197 43.8852C57.064 43.8852 59.2213 43.8852 61.3786 43.8852C61.657 43.8852 61.9353 43.9023 62.1963 43.9537C62.753 44.0907 63.014 44.4674 62.9618 45.0153C62.9096 45.529 62.5965 45.8373 62.0571 45.9058C61.9005 45.9229 61.7266 45.9229 61.57 45.9229C59.0995 45.9229 56.6116 45.9229 54.1412 45.9229C53.0799 45.9229 52.7319 45.5804 52.7319 44.5188C52.7319 42.1044 52.7319 39.69 52.7319 37.2756C52.7319 37.1386 52.7319 37.0016 52.7493 36.8647C52.8537 36.1968 53.2539 35.8373 53.8628 35.8886C54.5065 35.94 54.8023 36.3338 54.8023 36.9503C54.8197 38.5599 54.8023 40.1866 54.8023 41.7962C54.8197 42.464 54.8197 43.1318 54.8197 43.8852Z" fill="#EF0D5E" fill-opacity="0.78"/>
<ellipse cx="71.2565" cy="60" rx="16.2565" ry="16" fill="black"/>
<path d="M67.7004 65.1C67.9578 65.22 68.2016 65.32 68.4319 65.4C68.6758 65.4933 68.9061 65.56 69.1228 65.6C69.3531 65.6533 69.5834 65.6933 69.8137 65.72C70.0576 65.7467 70.315 65.76 70.5859 65.76C70.9381 65.76 71.2768 65.7067 71.6019 65.6C71.9271 65.4933 72.2116 65.3333 72.4554 65.12C72.6993 64.9067 72.8957 64.6333 73.0447 64.3C73.1937 63.98 73.2682 63.6 73.2682 63.16C73.2682 62.28 72.9025 61.6 72.1709 61.12C71.4529 60.64 70.5046 60.3933 69.326 60.38V58.98C70.4775 58.98 71.392 58.74 72.0693 58.26C72.7602 57.78 73.1057 57.08 73.1057 56.16C73.1057 55.9067 73.0718 55.6733 73.0041 55.46C72.9499 55.2467 72.8415 55.06 72.6789 54.9C72.5299 54.74 72.3267 54.62 72.0693 54.54C71.8119 54.4467 71.4868 54.4 71.0939 54.4C70.7688 54.4 70.4572 54.42 70.1592 54.46C69.8747 54.5 69.6173 54.54 69.387 54.58C69.1296 54.6333 68.879 54.6867 68.6351 54.74L68.2287 53.44C68.4861 53.36 68.7774 53.2867 69.1025 53.22C69.3735 53.1667 69.6986 53.12 70.0779 53.08C70.4572 53.0267 70.8704 53 71.3175 53C72.3741 53 73.2208 53.2533 73.8575 53.76C74.5078 54.2533 74.8329 55.0467 74.8329 56.14C74.8329 56.6733 74.7449 57.14 74.5688 57.54C74.3926 57.9267 74.1759 58.26 73.9185 58.54C73.6746 58.82 73.4037 59.0467 73.1057 59.22C72.8212 59.38 72.557 59.5 72.3132 59.58V59.64C72.6518 59.76 72.9837 59.92 73.3089 60.12C73.634 60.32 73.9185 60.5667 74.1623 60.86C74.4197 61.1533 74.6229 61.4933 74.772 61.88C74.921 62.2533 74.9955 62.68 74.9955 63.16C74.9955 63.9467 74.8465 64.5933 74.5484 65.1C74.2639 65.62 73.9049 66.0333 73.4714 66.34C73.0379 66.6467 72.557 66.86 72.0287 66.98C71.5139 67.1 71.033 67.16 70.5859 67.16C70.0711 67.16 69.6038 67.12 69.1838 67.04C68.7774 66.9733 68.4252 66.8933 68.1271 66.8C67.7749 66.6933 67.4633 66.5733 67.1924 66.44L67.7004 65.1Z" fill="white"/>
</svg>
