<svg width="17" height="21" viewBox="0 0 17 21" fill="none" xmlns="http://www.w3.org/2000/svg">
<path d="M8.85135 0.724609C8.98595 0.7552 9.12055 0.779673 9.24903 0.816382C9.89144 0.999927 10.3564 1.39149 10.6195 2.00943C10.6685 2.11955 10.7235 2.1685 10.852 2.16238C11.2374 2.15626 11.6229 2.15626 12.0083 2.16238C12.1123 2.16238 12.2163 2.1685 12.3204 2.19297C12.5528 2.24803 12.6446 2.37652 12.6507 2.61512C12.6569 2.85373 12.6507 3.09234 12.6507 3.35542C13.2258 3.35542 13.7826 3.34931 14.3332 3.36154C14.5596 3.36766 14.7921 3.38601 15.0124 3.4472C15.8567 3.67357 16.4685 4.47505 16.4685 5.34995C16.4746 9.89575 16.4746 14.4416 16.4685 18.9874C16.4685 19.8867 15.7832 20.6393 14.8594 20.7861C14.7003 20.8106 14.5351 20.8228 14.3699 20.8228C10.5033 20.8228 6.63658 20.8228 2.76989 20.8228C2.32326 20.8228 1.90111 20.7249 1.52178 20.4802C0.977266 20.1192 0.683594 19.6114 0.683594 18.9384C0.683594 16.9255 0.683594 14.9065 0.683594 12.8937C0.683594 10.4158 0.683594 7.93793 0.683594 5.45396C0.683594 4.23032 1.55849 3.35542 2.78824 3.34931C3.28994 3.34931 3.79774 3.34931 4.29943 3.34931C4.36062 3.34931 4.42792 3.34319 4.50745 3.34319C4.50745 3.1107 4.50745 2.89044 4.50745 2.67019C4.50745 2.32757 4.64205 2.18073 4.99079 2.1685C5.41294 2.15626 5.84121 2.16238 6.26337 2.16238C6.37961 2.16238 6.43468 2.12567 6.48362 2.02166C6.80177 1.33031 7.34628 0.908155 8.09882 0.761318C8.12941 0.7552 8.16 0.736846 8.18447 0.724609C8.40473 0.724609 8.6311 0.724609 8.85135 0.724609ZM12.6691 4.32821C12.6569 4.35269 12.6507 4.36492 12.6507 4.37716C12.6507 4.6953 12.6446 5.01957 12.6446 5.33771C12.6446 5.80269 12.4611 5.98624 11.99 5.98624C9.7079 5.98624 7.42582 5.98624 5.14374 5.98624C4.67876 5.98624 4.50745 5.81493 4.50745 5.34383C4.50745 5.00733 4.50745 4.67083 4.50745 4.32821C4.44627 4.32209 4.40344 4.30986 4.36673 4.31598C3.77939 4.31598 3.18593 4.29762 2.59858 4.33433C2.02959 4.36492 1.63191 4.83602 1.63191 5.42337C1.63191 9.9141 1.63191 14.411 1.63191 18.9017C1.63191 19.3544 1.84605 19.6604 2.28044 19.795C2.45175 19.85 2.64141 19.8684 2.81884 19.8684C6.64881 19.8745 10.4849 19.8745 14.3149 19.8684C14.4128 19.8684 14.5107 19.8623 14.6086 19.85C15.2081 19.7766 15.514 19.434 15.514 18.8283C15.514 14.3865 15.514 9.9447 15.514 5.5029C15.514 5.44784 15.514 5.39889 15.514 5.34383C15.4957 4.82378 15.1041 4.3588 14.5963 4.33433C13.96 4.30374 13.3237 4.32821 12.6691 4.32821ZM5.48024 5.01957C7.56042 5.01957 9.61613 5.01957 11.6718 5.01957C11.6718 4.38328 11.6718 3.75922 11.6718 3.11681C11.268 3.11681 10.8765 3.11681 10.4849 3.11681C10.0811 3.11681 9.94039 3.00669 9.83026 2.61512C9.65283 1.98495 9.07773 1.56892 8.45367 1.61786C7.88468 1.66069 7.41358 2.07061 7.24227 2.66407C7.1505 2.98833 6.98531 3.11681 6.64881 3.11681C6.52645 3.11681 6.39797 3.11681 6.2756 3.11681C6.01252 3.11681 5.74332 3.11681 5.48024 3.11681C5.48024 3.76534 5.48024 4.38939 5.48024 5.01957Z" fill="white"/>
<path d="M10.8453 8.61702C11.7385 8.61702 12.6379 8.61702 13.5311 8.61702C13.8065 8.61702 13.9961 8.7455 14.0573 8.96576C14.1307 9.22884 13.9655 9.50416 13.6902 9.55922C13.6046 9.57146 13.5189 9.57758 13.4394 9.57758C11.714 9.57758 9.98872 9.57758 8.2634 9.57758C8.1961 9.57758 8.13491 9.57758 8.06761 9.57146C7.79842 9.54087 7.62099 9.3512 7.62711 9.08812C7.63322 8.83116 7.81677 8.63538 8.08597 8.61702C8.25728 8.60479 8.42859 8.6109 8.59378 8.6109C9.34631 8.61702 10.0988 8.61702 10.8453 8.61702Z" fill="white"/>
<path d="M10.8335 17.2379C9.95246 17.2379 9.07145 17.2379 8.18431 17.2379C7.85393 17.2379 7.65203 17.0727 7.62756 16.8096C7.60309 16.5527 7.75604 16.3446 8.00688 16.2896C8.05583 16.2773 8.11089 16.2773 8.15984 16.2773C9.95246 16.2773 11.739 16.2773 13.5316 16.2773C13.8497 16.2773 14.0578 16.4548 14.07 16.724C14.0822 16.9687 13.9293 17.1706 13.6907 17.2195C13.605 17.2379 13.5194 17.2379 13.4398 17.2379C12.571 17.2379 11.7023 17.2379 10.8335 17.2379Z" fill="white"/>
<path d="M10.833 13.4073C9.93975 13.4073 9.04038 13.4073 8.14713 13.4073C7.82898 13.4073 7.62097 13.2115 7.62708 12.924C7.6332 12.6792 7.80451 12.4896 8.04924 12.4651C8.08595 12.459 8.12877 12.459 8.16548 12.459C9.95811 12.459 11.7446 12.459 13.5372 12.459C13.8431 12.459 14.0389 12.6119 14.0756 12.8628C14.1185 13.1687 13.8982 13.4073 13.5617 13.4073C12.8336 13.4134 12.1117 13.4073 11.3836 13.4073C11.2001 13.4073 11.0166 13.4073 10.833 13.4073Z" fill="white"/>
<path d="M4.57474 12.8155C5.02748 12.3811 5.49858 11.9283 5.98192 11.4756C6.06757 11.3961 6.1777 11.3165 6.29394 11.2859C6.50196 11.2248 6.7161 11.341 6.82011 11.5307C6.93023 11.7264 6.89964 11.9222 6.7161 12.0996C6.1777 12.6136 5.6393 13.1275 5.09478 13.6414C5.00913 13.721 4.92959 13.8066 4.83782 13.88C4.6298 14.0513 4.39119 14.0452 4.20153 13.8617C3.86503 13.5313 3.54077 13.1948 3.2165 12.8522C3.02072 12.6442 3.03296 12.3383 3.2165 12.1608C3.40617 11.9773 3.68148 11.9956 3.90174 12.2037C4.12199 12.4056 4.34225 12.6013 4.57474 12.8155Z" fill="white"/>
<path d="M4.5625 8.99663C4.97854 8.59895 5.41293 8.18903 5.84732 7.773C5.92073 7.7057 5.98803 7.63228 6.06145 7.5711C6.28171 7.38755 6.55091 7.39979 6.74669 7.60169C6.93635 7.79747 6.93023 8.06667 6.72221 8.26245C6.10428 8.85591 5.48634 9.44326 4.86229 10.0306C4.64204 10.2325 4.39731 10.2203 4.18317 10.0122C3.87115 9.70022 3.55912 9.38208 3.25321 9.05781C3.03296 8.82532 3.02072 8.5133 3.22874 8.32363C3.42452 8.14621 3.71207 8.1768 3.94456 8.40317C4.14035 8.60507 4.34836 8.79473 4.5625 8.99663Z" fill="white"/>
<path d="M4.56165 16.6541C5.03887 16.2013 5.52832 15.7363 6.01166 15.2714C6.21356 15.0817 6.41546 15.0511 6.61736 15.1612C6.90491 15.3264 6.97221 15.6752 6.7336 15.9077C6.10955 16.5134 5.47938 17.1068 4.84309 17.7003C4.63507 17.8961 4.38423 17.8777 4.18233 17.6697C3.8703 17.3577 3.55827 17.0395 3.25236 16.7153C3.02599 16.4828 3.01987 16.1707 3.22177 15.9811C3.41756 15.7975 3.70511 15.8342 3.9376 16.0606C4.1395 16.2564 4.34752 16.4461 4.56165 16.6541Z" fill="white"/>
</svg>
