<svg width="45" height="45" viewBox="0 0 45 45" fill="none" xmlns="http://www.w3.org/2000/svg">
<g clip-path="url(#clip0_917_9105)">
<path d="M32.6137 0C33.4871 0.262938 34.1726 0.741861 34.4073 1.68093C34.4731 1.96265 34.4919 2.26315 34.4919 2.55426C34.5013 7.0336 34.4919 11.5129 34.4919 15.9923C34.4919 16.1425 34.4919 16.2834 34.4637 16.4336C34.398 16.828 34.1256 17.0722 33.75 17.0722C33.3462 17.0628 33.0927 16.8562 33.0269 16.4524C32.9987 16.2646 32.9894 16.0768 32.9894 15.889C32.9894 11.4848 32.9894 7.07116 32.9894 2.66694C32.9894 1.7091 32.7828 1.51189 31.8249 1.51189C22.1056 1.51189 12.3863 1.51189 2.65755 1.51189C1.7091 1.51189 1.5025 1.72788 1.5025 2.68573C1.5025 15.9078 1.5025 29.1298 1.5025 42.3424C1.5025 43.2909 1.7091 43.4975 2.66694 43.4975C12.3863 43.4975 22.1056 43.4975 31.8343 43.4975C32.7828 43.4975 32.98 43.2909 32.98 42.3331C32.98 40.1075 32.98 37.8819 32.98 35.6563C32.98 35.5061 32.98 35.3652 32.9987 35.2149C33.0645 34.7642 33.3368 34.5106 33.75 34.52C34.1538 34.5294 34.4449 34.7924 34.4637 35.2525C34.4919 35.9098 34.4825 36.5672 34.4825 37.2245C34.4825 38.9712 34.4825 40.7085 34.4825 42.4551C34.4825 44.1079 33.5904 45 31.9282 45C22.1525 45 12.3675 45 2.59182 45C0.882721 45 0.00939065 44.1173 0.00939065 42.3894C0.0187813 29.2143 0.028172 16.0486 0 2.89232C0 1.45555 0.450751 0.450751 1.85935 0C12.1139 0 22.3591 0 32.6137 0Z" fill="white"/>
<path d="M45 11.682C44.7934 12.1328 44.5868 12.5741 44.3614 13.0624C44.8403 13.485 44.6807 13.9452 44.3896 14.4429C43.8261 15.3819 43.2909 16.3398 42.7274 17.3164C42.934 17.4385 43.1218 17.5512 43.3003 17.6639C44.4647 18.3775 44.8309 19.6171 44.1736 20.8003C43.2251 22.5 42.2391 24.1716 41.2625 25.8525C40.9902 26.3126 40.577 26.4535 40.2013 26.2375C39.8069 26.0121 39.713 25.5896 39.9948 25.0919C40.8775 23.5424 41.7696 22.0023 42.6617 20.4529C43.2439 19.4387 43.1312 19.1194 41.995 18.6217C41.9198 18.7532 41.8353 18.8846 41.7508 19.0161C39.9572 22.1338 38.1354 25.2327 36.3794 28.3786C35.6844 29.6182 34.7829 30.6793 33.9096 31.778C33.2523 32.6138 32.6231 33.4777 32.0315 34.3604C31.4587 35.215 30.7168 35.6563 29.665 35.5624C29.5148 35.553 29.3082 35.6563 29.2049 35.769C28.7072 36.3606 28.2377 36.9804 27.7493 37.5814C26.8854 38.6426 25.5707 38.4548 25.0354 37.187C24.904 36.8771 24.7819 36.5672 24.6316 36.201C24.5377 36.3231 24.4626 36.4076 24.4063 36.4921C23.9555 37.1588 23.3357 37.45 22.6972 37.2809C22.0117 37.1025 21.5985 36.5391 21.5327 35.7033C21.467 34.8581 21.3919 34.0224 21.2322 33.1584C21.1853 33.2805 21.1289 33.4026 21.0914 33.5247C20.5655 35.1211 20.0396 36.7175 19.5044 38.3045C19.2978 38.9055 18.8188 39.1027 18.3493 38.7834C18.03 38.5674 17.9455 38.2482 18.0582 37.8913C18.6686 36.0508 19.2696 34.2008 19.9082 32.3602C20.1429 31.6841 20.8097 31.3179 21.514 31.4024C22.1431 31.4775 22.6972 31.994 22.7817 32.6795C22.9038 33.6467 22.9695 34.6234 23.0634 35.6751C23.2231 35.4591 23.3451 35.2807 23.4766 35.1211C24.1433 34.3229 25.3735 34.4074 25.89 35.3183C26.1248 35.7315 26.2844 36.1916 26.491 36.6705C27.0169 36.0226 27.5334 35.4028 28.0311 34.7736C28.0874 34.6985 28.0874 34.5201 28.0405 34.4356C27.6273 33.6374 27.6554 32.8579 28.1062 32.0879C29.0546 30.4727 29.543 28.6697 30.2379 26.9512C30.3318 26.7071 30.4445 26.4629 30.5759 26.2375C32.548 22.8193 34.52 19.3917 36.492 15.9735C36.5672 15.8327 36.6517 15.6918 36.7268 15.5603C35.7502 14.8748 35.5718 14.5837 35.8347 14.1424C36.0882 13.701 36.4169 13.7104 37.4968 14.2081C37.572 14.0954 37.6471 13.9827 37.7222 13.8606C38.2481 12.9685 38.774 12.067 39.2998 11.1749C39.5064 10.8181 39.7788 10.6115 40.2201 10.649C40.3422 10.6584 40.5394 10.4988 40.6145 10.3767C40.9902 9.70998 41.4785 9.1841 42.2485 9.01507C43.4223 8.76152 44.5398 9.41887 44.9061 10.5645C44.9342 10.6584 44.9718 10.7523 45.0094 10.8462C45 11.1561 45 11.4191 45 11.682ZM38.0697 16.3398C36.0695 19.8049 34.0786 23.2513 32.069 26.7258C32.9518 27.2329 33.7969 27.7212 34.6609 28.2189C36.6611 24.7538 38.6425 21.3168 40.6521 17.8329C39.7976 17.3352 38.9524 16.8469 38.0697 16.3398ZM40.3234 12.452C39.8163 13.3348 39.328 14.1705 38.8303 15.0439C39.713 15.551 40.5582 16.0393 41.4221 16.5464C41.9386 15.6543 42.4175 14.8091 42.9152 13.9545C42.0325 13.4475 41.2061 12.9591 40.3234 12.452ZM31.8718 31.8062C32.5198 31.0268 33.149 30.2661 33.8157 29.4585C33.0175 28.9984 32.2569 28.557 31.4587 28.0969C31.0924 29.0735 30.7544 29.9938 30.3975 30.9422C30.8952 31.2333 31.3741 31.5151 31.8718 31.8062ZM41.7226 11.5318C42.164 11.7853 42.5772 12.0201 43.0185 12.283C43.2251 11.8229 43.6853 11.4566 43.3754 10.9402C43.2533 10.7336 42.9152 10.5551 42.6805 10.5457C42.0889 10.5364 41.995 11.1092 41.7226 11.5318ZM29.7777 32.3414C29.5242 32.811 29.0922 33.2054 29.4397 33.7219C29.5617 33.9097 29.8904 34.0693 30.1252 34.0599C30.7074 34.0412 30.8201 33.4965 31.0642 33.0739C30.6323 32.8298 30.2285 32.6044 29.7777 32.3414Z" fill="white"/>
<path d="M8.29206 6.00044C8.29206 6.52632 8.29206 6.98646 8.29206 7.50295C8.49866 7.50295 8.68647 7.50295 8.86489 7.50295C14.7622 7.50295 20.6689 7.50295 26.5663 7.50295C26.7823 7.50295 27.0076 7.51234 27.2142 7.55929C27.5711 7.6532 27.7401 7.93492 27.7307 8.28237C27.7119 8.62983 27.5241 8.89276 27.1579 8.9585C26.9889 8.98667 26.8104 8.99606 26.632 8.99606C20.3778 8.99606 14.1331 8.99606 7.87887 8.99606C6.96798 8.99606 6.77078 8.78947 6.77078 7.88796C6.77078 7.0522 6.76138 6.21643 6.77078 5.38066C6.78017 4.79844 7.0431 4.52611 7.62532 4.48855C7.72862 4.47916 7.83192 4.48855 7.93522 4.48855C14.1612 4.48855 20.3778 4.48855 26.6038 4.48855C26.8104 4.48855 27.017 4.49794 27.2142 4.54489C27.5805 4.62941 27.7495 4.91113 27.7401 5.25858C27.7307 5.63421 27.5241 5.89715 27.1297 5.95349C26.9419 5.98166 26.7541 5.98166 26.5569 5.98166C20.6689 5.98166 14.7904 5.98166 8.90245 5.98166C8.71464 6.00044 8.52683 6.00044 8.29206 6.00044Z" fill="white"/>
<path d="M9.43718 29.2521C10.7237 29.2709 11.9069 29.6372 12.9775 30.3696C13.4752 30.7077 13.6254 31.1021 13.3813 31.5059C13.1371 31.9003 12.6863 31.966 12.198 31.6374C11.4374 31.1303 10.6204 30.8204 9.70012 30.764C7.02379 30.595 4.78881 32.5295 4.52587 35.2434C4.28172 37.807 6.18802 40.0983 8.86436 40.4552C11.3529 40.7932 13.7475 38.9715 14.1795 36.4078C14.2264 36.1449 14.2264 35.8819 14.2546 35.619C14.3109 35.1401 14.6396 34.8396 15.0622 34.8771C15.4754 34.9053 15.7289 35.2246 15.7383 35.6941C15.8134 39.2907 12.3671 42.3803 8.76106 41.9483C5.56824 41.5633 3.23936 39.1499 3.01398 36.004C2.76982 32.3698 5.75605 29.224 9.43718 29.2521Z" fill="white"/>
<path d="M20.9785 17.2408C18.3773 17.2408 15.7667 17.2408 13.1655 17.2408C13.0058 17.2408 12.8462 17.2408 12.6865 17.222C12.3015 17.1751 12.0761 16.9497 12.0386 16.5647C11.9916 16.1796 12.2076 15.8885 12.5926 15.7852C12.7429 15.7477 12.9119 15.7383 13.0716 15.7383C18.3679 15.7383 23.6642 15.7383 28.9605 15.7383C29.1483 15.7383 29.3455 15.7477 29.524 15.8134C29.862 15.9355 30.0217 16.2078 29.9841 16.574C29.9465 16.9215 29.7493 17.1375 29.4113 17.2126C29.2422 17.2502 29.0638 17.2408 28.8854 17.2408C26.2466 17.2408 23.6079 17.2408 20.9785 17.2408Z" fill="white"/>
<path d="M13.4942 21.7486C11.1277 21.7486 8.75189 21.7486 6.38544 21.7486C5.6248 21.7486 5.27734 21.5044 5.27734 20.9973C5.27734 20.4903 5.63419 20.2461 6.39483 20.2461C11.1371 20.2461 15.87 20.2461 20.6123 20.2461C20.8001 20.2461 20.9973 20.2555 21.1757 20.293C21.5513 20.3776 21.7392 20.6405 21.7298 21.0255C21.7204 21.3918 21.5232 21.6359 21.1663 21.7016C20.9785 21.7392 20.7907 21.7392 20.6029 21.7392C18.2271 21.7486 15.8606 21.7486 13.4942 21.7486Z" fill="white"/>
<path d="M17.2698 10.5081C19.6362 10.5081 22.0121 10.5081 24.3785 10.5081C25.1391 10.5081 25.496 10.7522 25.4866 11.2593C25.4866 11.7664 25.1204 12.0106 24.3691 12.0106C19.6268 12.0106 14.8939 12.0106 10.1517 12.0106C9.94507 12.0106 9.73847 12.0012 9.54127 11.9542C9.18443 11.8603 9.01539 11.588 9.02478 11.2312C9.03418 10.8743 9.22199 10.6208 9.58822 10.5456C9.77604 10.5081 9.96385 10.5081 10.1517 10.5081C12.5369 10.4987 14.9033 10.5081 17.2698 10.5081Z" fill="white"/>
<path d="M9.75688 25.4865C8.57366 25.4865 7.39044 25.4865 6.19782 25.4865C5.59682 25.4865 5.26815 25.2048 5.27754 24.7259C5.28693 24.2751 5.6156 23.9934 6.18843 23.9934C8.57366 23.9934 10.9589 23.984 13.3441 23.9934C13.8982 23.9934 14.2456 24.2939 14.2456 24.7447C14.2456 25.1954 13.9075 25.4865 13.3535 25.4865C12.1515 25.4865 10.9495 25.4865 9.75688 25.4865Z" fill="white"/>
<path d="M9.17471 36.286C10.048 35.4032 10.8369 34.5862 11.6632 33.7974C11.8511 33.619 12.1422 33.4406 12.3769 33.4594C12.6023 33.4782 12.931 33.7035 12.9873 33.9007C13.0531 34.1449 12.9779 34.5299 12.8089 34.7271C12.2173 35.3938 11.5693 36.0042 10.9402 36.6334C10.7054 36.8682 10.4706 37.1217 10.2171 37.3377C9.59729 37.8824 8.7897 37.8918 8.18869 37.3471C7.62526 36.84 7.09938 36.2953 6.5735 35.7413C6.25422 35.4032 6.26361 34.9713 6.54533 34.6802C6.84583 34.3703 7.2778 34.3609 7.63465 34.7083C8.15113 35.1966 8.63006 35.7225 9.17471 36.286Z" fill="white"/>
<path d="M26.6036 21.739C25.7678 21.739 24.9415 21.7484 24.1057 21.739C23.5986 21.7296 23.3169 21.4761 23.2793 21.0723C23.2417 20.6591 23.4765 20.3304 23.9179 20.2834C24.3686 20.2365 24.8194 20.2459 25.2701 20.2459C26.4721 20.2459 27.6647 20.2459 28.8668 20.2459C29.0264 20.2459 29.186 20.2459 29.3457 20.2741C29.7589 20.3492 30.0124 20.6403 29.9842 21.0347C29.9561 21.4385 29.7307 21.7014 29.3269 21.7202C28.6695 21.7484 28.0122 21.739 27.3549 21.7484C27.1013 21.7484 26.8478 21.7484 26.6036 21.739Z" fill="white"/>
<path d="M19.1197 25.4865C18.3027 25.4865 17.4857 25.4865 16.6593 25.4865C16.1053 25.4865 15.7578 25.1954 15.7578 24.7446C15.7578 24.3033 16.1053 23.9934 16.6593 23.9934C18.3121 23.984 19.9648 23.984 21.6176 23.9934C22.1622 23.9934 22.5097 24.3127 22.5003 24.7634C22.4909 25.1954 22.1529 25.4865 21.627 25.4865C20.7912 25.4865 19.9554 25.4865 19.1197 25.4865Z" fill="white"/>
</g>
<defs>
<clipPath id="clip0_917_9105">
<rect width="45" height="44.9812" fill="white"/>
</clipPath>
</defs>
</svg>
