<svg width="92" height="85" viewBox="0 0 92 85" fill="none" xmlns="http://www.w3.org/2000/svg">
<path d="M34.7873 70.0685C32.9488 69.6482 31.3518 68.7343 29.829 67.6925C27.9906 66.4313 26.0035 65.9744 23.7937 66.1389C22.6609 66.2303 21.5281 66.1937 20.3953 66.1389C18.3154 66.0292 16.7555 64.9874 15.6599 63.3059C15.0471 62.3555 14.4714 61.3502 13.9514 60.3267C13.0786 58.5538 11.7787 57.2378 9.9588 56.3971C9.06742 55.9767 8.19461 55.4832 7.34038 54.9897C5.05623 53.6555 3.94201 51.645 3.96058 49.0496C3.96058 47.8616 4.01629 46.6735 4.05343 45.4855C4.09058 44.0781 3.73774 42.7804 2.97636 41.5924C2.28926 40.5141 1.60215 39.4174 0.970763 38.3208C-0.254878 36.1458 -0.273448 33.9525 0.970763 31.7958C1.62072 30.6443 2.34497 29.5294 3.05064 28.3962C3.75631 27.263 4.09058 26.0201 4.07201 24.6859C4.05344 23.1688 3.99772 21.6335 4.05343 20.1165C4.14629 17.9964 5.26051 16.4245 7.06183 15.3279C8.06462 14.7247 9.10456 14.1581 10.1445 13.6281C11.593 12.897 12.8186 11.9283 13.58 10.4661C13.8028 10.0274 14.1743 9.75327 14.6942 9.8081C15.4742 9.88121 15.827 10.6671 15.4185 11.4165C14.5828 12.9335 13.45 14.1764 11.8901 14.9989C10.8316 15.5655 9.79166 16.1503 8.71458 16.6987C6.80184 17.6856 5.92904 19.2209 6.02189 21.3228C6.05903 22.456 6.09617 23.6075 6.11474 24.7407C6.13331 26.4405 5.70619 28.0306 4.79625 29.4745C4.23914 30.3518 3.71917 31.2292 3.14349 32.0882C1.825 34.0439 1.80643 35.9996 3.12492 37.9735C3.53347 38.5767 3.8863 39.2346 4.31342 39.8195C5.79904 41.8849 6.28187 44.2061 6.09617 46.6918C6.02189 47.8067 6.05903 48.9216 6.11474 50.0366C6.17045 51.1515 6.70899 52.0653 7.65608 52.6685C8.71458 53.363 9.81023 54.0027 10.943 54.5693C13.1343 55.6294 14.7314 57.2196 15.7899 59.3763C16.1613 60.1622 16.6255 60.8933 17.0341 61.661C17.9997 63.4339 19.5225 64.2381 21.5281 64.1832C22.7352 64.1467 23.9422 64.1101 25.1493 64.0918C26.8392 64.0553 28.3991 64.4757 29.8476 65.3347C30.9061 65.9744 31.9832 66.6141 33.0603 67.2538C34.7687 68.2774 36.4772 68.2591 38.1857 67.2355C38.9099 66.7969 39.6713 66.3948 40.377 65.9196C42.5311 64.4208 44.9453 63.9091 47.5451 64.1101C48.6222 64.1832 49.7178 64.1467 50.7949 64.0918C51.9834 64.0187 52.9305 63.4704 53.5805 62.5017C54.2118 61.5696 54.8061 60.6191 55.2889 59.6139C56.4217 57.2744 58.1302 55.538 60.5258 54.4597C61.3057 54.1124 62.03 53.6555 62.7728 53.2534C64.4255 52.3395 65.2055 50.9321 65.1869 49.0861C65.1683 47.8981 65.1312 46.7101 65.0941 45.5221C65.0383 43.6943 65.5212 42.0128 66.5054 40.4592C67.1368 39.4722 67.7496 38.4853 68.3439 37.48C69.3095 35.8716 69.3095 34.2449 68.3439 32.6182C67.8796 31.8506 67.4525 31.0647 66.9325 30.3518C65.4283 28.2317 64.9083 25.9104 65.0941 23.3516C65.1683 22.2915 65.1312 21.2132 65.0755 20.1531C65.0198 18.9285 64.407 17.9598 63.3856 17.3018C62.4385 16.6987 61.4543 16.1138 60.4515 15.6386C58.1116 14.5419 56.4031 12.8787 55.3075 10.5757C54.9361 9.78982 54.4718 9.05873 54.0447 8.29108C53.1162 6.6644 51.6863 5.91502 49.8107 5.9333C48.5665 5.95158 47.3037 6.00641 46.0595 6.02469C44.3324 6.06124 42.7168 5.62259 41.2312 4.727C40.117 4.05073 38.9842 3.37447 37.8328 2.71649C36.3101 1.85745 34.7873 1.89401 33.2645 2.73476C32.4474 3.1917 31.5932 3.64863 30.8318 4.17868C28.6777 5.6957 26.2821 6.18918 23.6637 6.00641C22.568 5.9333 21.4352 5.96986 20.3396 6.02469C19.4111 6.07952 18.6126 6.48162 17.9626 7.15788C17.3683 7.76104 16.8112 7.81587 16.3284 7.35893C15.8456 6.902 15.9199 6.3354 16.477 5.73225C17.7769 4.34317 19.4854 3.90451 21.3053 3.86796C22.5123 3.84968 23.7194 3.92279 24.9079 3.95935C26.3378 3.9959 27.6563 3.66691 28.8819 2.91754C30.089 2.18644 31.2775 1.45535 32.5217 0.797364C34.5273 -0.262722 36.5701 -0.262722 38.5756 0.779087C39.8384 1.43707 41.0641 2.18644 42.2711 2.93582C43.4968 3.68519 44.8153 3.97762 46.2452 3.95935C47.7494 3.94107 49.2536 3.88624 50.7578 3.94107C52.8562 4.03246 54.4347 5.09254 55.5489 6.81061C56.1432 7.72448 56.7003 8.69318 57.1831 9.66188C58.0745 11.5079 59.4115 12.8604 61.3057 13.7377C62.1785 14.1398 63.0142 14.6333 63.8684 15.1085C66.1711 16.4062 67.2482 18.3985 67.2482 20.9938C67.2482 22.1636 67.1925 23.3151 67.1554 24.4848C67.0996 25.9653 67.4525 27.3361 68.2881 28.5789C68.4181 28.78 68.5481 29.0176 68.6781 29.2187C69.7181 30.7905 70.7209 32.3624 71.1665 34.2266C71.1665 34.775 71.1665 35.3233 71.1665 35.8716C70.7023 36.9865 70.2752 38.1014 69.7366 39.1798C69.3467 39.9657 68.8081 40.6968 68.3253 41.4462C67.4711 42.7256 67.0996 44.133 67.1554 45.6683C67.1925 46.7832 67.2482 47.8981 67.2482 49.013C67.2668 51.6815 66.134 53.7103 63.757 55.0263C62.9028 55.5015 62.0671 55.9767 61.1943 56.3971C59.4115 57.2378 58.1116 58.5172 57.2574 60.2719C56.7374 61.3137 56.1617 62.3372 55.5303 63.3059C54.4347 65.0057 52.8748 66.011 50.7949 66.1389C49.6807 66.1937 48.5665 66.2303 47.4708 66.1572C45.2424 65.9744 43.2182 66.4131 41.3612 67.7108C39.857 68.7526 38.2599 69.6847 36.4215 70.0868C35.9015 70.0685 35.3444 70.0685 34.7873 70.0685Z" fill="#EF0D5E" fill-opacity="0.78"/>
<path d="M21.1195 34.9208C21.4166 29.2366 23.9979 24.8134 29.2904 22.2729C34.5273 19.7506 39.6155 20.3538 44.351 23.6803C44.6667 23.8996 44.9638 24.2834 45.0381 24.6307C45.0938 24.9048 44.8709 25.3618 44.611 25.5445C44.3695 25.709 43.9239 25.6542 43.571 25.6359C43.4039 25.6176 43.2553 25.4532 43.1068 25.3435C35.6786 19.9334 25.335 23.8082 23.4408 32.7093C22.0109 39.4353 26.8949 46.1979 33.8216 47.1118C41.7511 48.1536 48.455 42.0124 47.9536 34.1532C47.8422 32.4351 47.3408 30.7901 46.5237 29.2731C46.3751 28.999 46.1523 28.6334 46.2266 28.3958C46.3566 28.0303 46.6537 27.6282 46.988 27.4819C47.4894 27.2443 47.9165 27.5733 48.1765 28.0303C49.0493 29.529 49.6249 31.1374 49.8849 32.8372C51.0177 40.2761 46.2637 47.2032 38.817 48.9396C30.6089 50.8587 22.2894 45.1561 21.2495 36.9131C21.2124 36.2733 21.1752 35.6336 21.1195 34.9208Z" fill="#EF0D5E" fill-opacity="0.78"/>
<path d="M34.3045 33.7877C36.273 31.8321 38.1857 29.9495 40.0984 28.0669C41.027 27.1531 41.3984 27.1531 42.3454 28.0852C43.404 29.1087 44.4439 30.1505 45.4838 31.1741C46.1709 31.8503 46.1524 32.3621 45.4653 33.0384C42.0669 36.4014 38.65 39.7462 35.233 43.1092C34.5459 43.7854 34.0445 43.7854 33.3388 43.1092C32.7446 42.5243 32.1503 41.9577 31.5747 41.3728C31.0547 40.8428 31.0176 40.2396 31.4632 39.801C31.8904 39.3806 32.5218 39.4172 33.0603 39.9472C33.4503 40.331 33.8031 40.7514 34.1374 41.117C37.2758 38.0281 40.3027 35.0306 43.3297 32.0514C42.6797 31.4117 41.9555 30.6989 41.1941 29.9312C41.027 30.0774 40.8413 30.2419 40.6741 30.4247C38.8914 32.1793 37.1086 33.934 35.3073 35.6886C34.5273 36.438 34.0817 36.4562 33.3203 35.7069C32.2432 34.6468 31.1661 33.5867 30.1262 32.5632C29.3462 33.3125 28.6406 34.0253 27.7492 34.8844C28.232 35.3048 28.7706 35.7434 29.2905 36.2186C29.8848 36.7852 29.9405 37.3701 29.4948 37.827C29.0305 38.3205 28.4363 38.2474 27.8049 37.6443C27.1178 36.968 26.4307 36.2917 25.7436 35.6155C25.1122 34.9758 25.1122 34.464 25.725 33.8426C26.8578 32.7094 28.0092 31.5762 29.1605 30.4613C29.7919 29.8398 30.2933 29.8398 30.9433 30.4795C32.0575 31.5579 33.1346 32.6363 34.3045 33.7877Z" fill="#EF0D5E" fill-opacity="0.78"/>
<path d="M26.0964 16.6436C25.4464 17.0091 24.8336 17.3564 24.1651 17.722C24.685 18.4348 25.1679 19.0745 25.6321 19.7142C26.0964 20.3539 26.0221 20.9753 25.5021 21.3409C24.9822 21.6881 24.4065 21.5419 23.9608 20.9205C22.9766 19.6045 21.9923 18.2703 21.0267 16.936C19.8382 15.2728 20.3767 13.1892 22.2152 12.1474C24.0351 11.1238 26.115 11.727 26.9878 13.5364C27.6934 15.0169 28.362 16.5157 29.0305 18.0144C29.3462 18.7272 29.1605 19.3304 28.5662 19.568C27.9906 19.8056 27.4706 19.5497 27.1363 18.8734C26.7835 18.1423 26.4492 17.4295 26.0964 16.6436ZM25.205 14.7245C25.0007 14.0848 24.6479 13.6827 23.9979 13.7009C23.3294 13.7192 22.8094 14.0482 22.5309 14.6696C22.2895 15.218 22.5495 15.6201 22.9394 16.0039C23.7194 15.5835 24.4436 15.1631 25.205 14.7245Z" fill="#EF0D5E" fill-opacity="0.78"/>
<path d="M38.5756 55.5379C39.6341 55.3003 40.6184 55.081 41.5655 54.8617C42.3454 54.6789 42.8839 54.9165 43.0511 55.5562C43.1996 56.1411 42.8839 56.6346 42.1226 56.8356C41.0269 57.1098 39.9313 57.3474 38.7613 57.6216C38.7985 58.115 38.8542 58.6268 38.9099 59.2665C40.0984 59.0106 41.194 58.773 42.2897 58.5354C42.5125 58.4806 42.7354 58.3892 42.9582 58.3526C43.5339 58.2795 43.961 58.4989 44.1467 59.0655C44.3139 59.6321 44.1096 60.1621 43.5525 60.2718C41.6769 60.6739 39.8013 61.0394 37.9071 61.3319C37.3314 61.4232 36.96 60.9663 36.9043 60.3997C36.6629 57.9505 36.44 55.5014 36.2358 53.0522C36.1801 52.4125 36.5886 52.0104 37.2571 51.9007C38.3714 51.6997 39.4856 51.4986 40.5812 51.2793C41.2498 51.1514 41.7697 51.4073 41.9369 51.9921C42.0854 52.5405 41.7883 53.0705 41.1569 53.235C40.2655 53.4726 39.3742 53.6736 38.3899 53.893C38.4642 54.3865 38.5014 54.8982 38.5756 55.5379Z" fill="#EF0D5E" fill-opacity="0.78"/>
<path d="M53.729 18.3066C53.2462 18.727 52.8562 19.0743 52.4662 19.4033C53.1905 20.3354 53.8961 21.1945 54.5647 22.0901C55.0475 22.748 54.9918 23.3329 54.4718 23.6985C53.9333 24.064 53.3762 23.9178 52.8748 23.2598C52.2805 22.4739 51.6677 21.7062 51.0177 20.8837C50.5906 21.3224 50.2378 21.6879 49.8478 22.1083C50.3678 22.7663 50.9063 23.4243 51.4263 24.1188C51.9277 24.7951 51.872 25.4348 51.3149 25.7821C50.7763 26.1293 50.2564 25.9466 49.7364 25.3069C49.1236 24.5392 48.4922 23.7898 47.8237 23.0588C47.1366 22.3094 47.118 21.889 47.8051 21.1762C49.4207 19.5312 51.0363 17.9045 52.6519 16.2779C53.3762 15.5468 53.8962 15.5285 54.5833 16.2779C55.6789 17.4842 56.7188 18.7453 57.7402 20.0064C58.223 20.5913 58.1487 21.2127 57.6659 21.5783C57.146 21.9621 56.5331 21.7976 56.0689 21.1945C55.2518 20.2258 54.4718 19.2571 53.729 18.3066Z" fill="#EF0D5E" fill-opacity="0.78"/>
<path d="M44.7781 51.8282C45.001 52.3034 45.2238 52.7603 45.5024 53.3269C46.3938 52.7603 47.2109 52.1755 48.0837 51.7002C48.4179 51.5175 48.9379 51.3895 49.2907 51.4992C50.0707 51.7551 50.145 52.7421 49.4207 53.2538C48.4736 53.9301 47.4708 54.5332 46.4123 55.2278C46.6166 55.6664 46.8394 56.1599 47.118 56.7265C48.1022 56.1051 49.0307 55.5202 49.9593 54.9353C50.1821 54.8074 50.3678 54.6246 50.5907 54.515C51.1106 54.2225 51.5749 54.3139 51.9649 54.7526C52.3363 55.1729 52.2991 55.8309 51.7977 56.1416C50.2192 57.1286 48.6222 58.079 46.988 58.9929C46.4495 59.2853 45.9295 59.0295 45.6509 58.4811C44.5739 56.233 43.4968 54.0032 42.4383 51.7368C42.1783 51.1702 42.4197 50.7133 42.9211 50.4025C43.9239 49.7994 44.9453 49.1962 45.9481 48.6114C46.5052 48.2824 47.0994 48.3738 47.4337 48.849C47.7494 49.3059 47.6565 49.9273 47.1366 50.2929C46.3938 50.8047 45.6138 51.2799 44.7781 51.8282Z" fill="#EF0D5E" fill-opacity="0.78"/>
<path d="M30.5533 57.2559C30.349 58.0235 30.1262 58.8095 29.9034 59.5954C29.6805 60.363 29.1791 60.692 28.5477 60.5275C27.9349 60.363 27.6749 59.833 27.8792 59.1019C28.5106 56.8172 29.142 54.5326 29.7734 52.2662C29.9962 51.4985 30.4233 51.2609 31.2404 51.4254C31.8347 51.5533 32.4104 51.663 33.0046 51.7727C35.1588 52.2113 36.143 54.5143 34.9545 56.342C34.8616 56.47 34.7688 56.5979 34.6759 56.7441C35.5302 57.987 35.1959 59.3395 35.0473 60.6555C34.9916 61.1855 34.5088 61.4597 33.9703 61.4048C33.3574 61.3317 33.0232 60.9296 33.0232 60.3265C33.0232 59.7782 33.0975 59.2298 33.116 58.6998C33.1346 57.987 32.856 57.6397 32.1689 57.4935C31.6861 57.4021 31.2219 57.3107 30.739 57.2193C30.7019 57.2193 30.6647 57.2376 30.5533 57.2559ZM31.129 55.2271C31.649 55.3185 32.0761 55.3916 32.5032 55.4647C32.9675 55.5378 33.2832 55.3368 33.3574 54.8798C33.4317 54.4229 33.3017 54.0025 32.8003 53.838C32.4103 53.7284 32.0018 53.6918 31.5747 53.6187C31.4076 54.1487 31.2776 54.6239 31.129 55.2271Z" fill="#EF0D5E" fill-opacity="0.78"/>
<path d="M20.2281 20.9756C19.7639 21.5239 19.3368 22.0539 18.8539 22.6205C19.5782 23.0957 20.2467 23.5344 20.9152 23.9913C21.5838 24.4482 21.7509 25.0331 21.3609 25.5632C21.0081 26.0749 20.4138 26.148 19.7639 25.7277C17.7769 24.4117 15.8084 23.0957 13.8399 21.7798C13.2086 21.3411 13.0414 20.7928 13.3757 20.2627C13.71 19.7327 14.3413 19.6596 15.0099 20.08C15.6784 20.5186 16.3469 20.9756 17.0898 21.4508C17.6469 20.7928 18.204 20.1531 18.9654 19.2758C18.334 18.7457 17.684 18.2522 17.0712 17.6856C16.4769 17.119 16.4398 16.5342 16.9226 16.0772C17.4054 15.6203 17.9626 15.6751 18.5568 16.2783C20.2096 17.9415 21.8623 19.6047 23.4965 21.2863C24.0536 21.8529 24.0722 22.4743 23.5894 22.913C23.1437 23.3151 22.5494 23.2602 21.9923 22.7302C21.4538 22.1453 20.8781 21.5787 20.2281 20.9756Z" fill="#EF0D5E" fill-opacity="0.78"/>
<path d="M31.8903 8.83984C32.2989 8.93123 32.6703 8.96778 33.0231 9.09573C33.5988 9.29678 33.8402 9.82682 33.6917 10.3569C33.5431 10.8686 33.0231 11.1062 32.4289 11.0697C31.8718 11.0331 31.2775 11.088 30.739 11.1793C30.2933 11.2525 29.9033 11.5997 30.1076 12.0567C30.2376 12.3491 30.6647 12.5867 30.999 12.7329C31.2218 12.8243 31.5375 12.6964 31.8161 12.6415C33.4131 12.3674 34.7502 13.2264 35.1216 14.7252C35.493 16.2604 34.6387 17.7775 33.1531 18.2344C32.2989 18.4903 31.4632 18.5086 30.6461 18.143C29.9776 17.8506 29.7176 17.2474 29.9776 16.6991C30.219 16.1691 30.7576 15.9863 31.4447 16.2422C32.206 16.5163 32.8189 16.3518 33.0417 15.7852C33.3203 15.109 32.9117 14.5789 32.1875 14.652C31.7604 14.6886 31.3147 14.7983 30.8875 14.78C29.4762 14.7617 28.1949 13.6833 27.9906 12.3857C27.7863 10.9783 28.5663 9.69888 29.9776 9.24194C30.5904 9.05917 31.259 8.96779 31.8903 8.83984Z" fill="#EF0D5E" fill-opacity="0.78"/>
<path d="M39.5041 8.7666C40.3212 9.04076 41.194 9.24181 41.974 9.58908C42.6425 9.88152 42.7911 10.5578 42.4568 11.0878C42.1411 11.5813 41.6026 11.6361 40.9341 11.362C40.4327 11.1609 39.8756 10.9964 39.337 10.9964C39.0399 10.9964 38.5385 11.3254 38.5014 11.5813C38.4456 11.8555 38.7613 12.2576 39.0213 12.4769C39.2256 12.6414 39.5784 12.6597 39.8756 12.7145C41.4726 13.0435 42.4383 14.2133 42.2897 15.712C42.1597 17.229 40.8969 18.417 39.337 18.4353C38.3342 18.4353 37.4057 18.1612 36.7557 17.3387C36.3286 16.8086 36.3472 16.1872 36.7929 15.8034C37.22 15.4378 37.7957 15.4927 38.2785 15.9313C38.9656 16.571 39.8013 16.5162 40.117 15.8217C40.3398 15.3282 40.1727 14.9078 39.6341 14.7616C39.3927 14.6885 39.1327 14.6702 38.8913 14.6154C37.3314 14.3046 36.1986 12.879 36.3472 11.4168C36.4958 9.93635 37.8143 8.85799 39.5041 8.7666Z" fill="#EF0D5E" fill-opacity="0.78"/>
<path d="M17.814 38.7958C17.8326 40.8977 16.0498 42.6706 13.8957 42.6889C11.7601 42.6889 9.95874 40.916 9.97732 38.8141C9.99589 36.7122 11.7229 34.9941 13.8585 34.9576C15.9941 34.921 17.814 36.6757 17.814 38.7958ZM12.0572 38.7958C12.0572 39.8011 12.9114 40.6418 13.9142 40.6236C14.8984 40.6053 15.7155 39.7828 15.7341 38.8324C15.7527 37.8454 14.8799 37.0047 13.8771 37.0047C12.8929 37.0229 12.0758 37.8271 12.0572 38.7958Z" fill="#EF0D5E" fill-opacity="0.78"/>
<path d="M53.4319 38.8137C53.4319 36.6935 55.2332 34.9389 57.3874 34.9572C59.5601 34.9755 61.3243 36.7484 61.2871 38.8502C61.25 40.9521 59.5044 42.6702 57.3874 42.6702C55.2332 42.6885 53.4319 40.9156 53.4319 38.8137ZM59.1887 38.8137C59.1887 37.845 58.3902 37.0225 57.4059 37.0042C56.4031 36.9677 55.5303 37.8084 55.5303 38.7954C55.5303 39.7824 56.4031 40.6232 57.3874 40.6232C58.3716 40.6049 59.1887 39.7824 59.1887 38.8137Z" fill="#EF0D5E" fill-opacity="0.78"/>
<path d="M25.3536 51.1696C25.0565 51.59 24.7408 52.0104 24.3694 52.5221C25.2979 52.9973 26.1892 53.4177 27.0435 53.8929C27.3406 54.0574 27.712 54.2768 27.7863 54.5326C27.8791 54.8434 27.8049 55.3003 27.6192 55.5927C27.3592 55.9948 26.8949 56.0679 26.4492 55.8486C25.3721 55.3186 24.2951 54.7885 23.1623 54.2219C22.7166 54.8434 22.2338 55.5013 21.7509 56.1593C21.2681 56.8173 20.6924 56.9635 20.1539 56.6163C19.6339 56.269 19.5782 55.6293 20.0425 54.9896C21.3981 53.0887 22.7537 51.1879 24.1279 49.3053C24.6479 48.5742 25.1122 48.5194 25.9107 48.9763C26.8021 49.5064 27.712 49.9999 28.622 50.4751C29.3462 50.8589 29.6062 51.3889 29.3091 51.9555C29.0305 52.5038 28.4548 52.6683 27.7491 52.3394C26.9506 51.9921 26.1707 51.59 25.3536 51.1696Z" fill="#EF0D5E" fill-opacity="0.78"/>
<path d="M44.4996 18.106C45.3167 18.6177 46.0781 19.0747 46.7838 19.5681C47.4152 19.9885 47.5451 20.5734 47.1923 21.0852C46.8395 21.5969 46.2452 21.6335 45.5953 21.2497C44.6668 20.7013 43.7382 20.1713 42.7911 19.6412C42.0855 19.2391 41.8998 18.8005 42.234 18.0694C43.2183 15.9127 44.2025 13.7559 45.1867 11.5992C45.5024 10.9047 46.0595 10.6853 46.6166 10.9412C47.1923 11.1971 47.378 11.7637 47.0623 12.44C46.2267 14.3225 45.3539 16.2051 44.4996 18.106Z" fill="#EF0D5E" fill-opacity="0.78"/>
<ellipse cx="75.2565" cy="69" rx="16.2565" ry="16" fill="black"/>
<path d="M72.8383 62H79.28V63.4H74.3421L73.9763 67.86C74.1253 67.82 74.2811 67.7867 74.4437 67.76C74.6062 67.72 74.7891 67.6933 74.9923 67.68C75.1955 67.6533 75.4191 67.64 75.6629 67.64C76.9363 67.64 77.9456 67.9733 78.6907 68.64C79.4358 69.3067 79.8083 70.3067 79.8083 71.64C79.8083 72.5067 79.6728 73.22 79.4019 73.78C79.131 74.34 78.772 74.78 78.3249 75.1C77.8779 75.42 77.3698 75.64 76.8009 75.76C76.2454 75.8933 75.6765 75.96 75.0939 75.96C73.7663 75.9333 72.4658 75.5667 71.1924 74.86L71.741 73.52C73.0416 74.2133 74.166 74.56 75.1143 74.56C76.1709 74.56 76.9296 74.3067 77.3902 73.8C77.8508 73.3067 78.0811 72.5867 78.0811 71.64C78.0811 71.2533 78.0336 70.9 77.9388 70.58C77.844 70.26 77.695 69.9867 77.4918 69.76C77.2886 69.5333 77.0176 69.36 76.6789 69.24C76.3538 69.1067 75.9542 69.04 75.48 69.04C75.1549 69.04 74.8433 69.0667 74.5453 69.12C74.2472 69.16 73.9695 69.2133 73.7121 69.28C73.4683 69.3467 73.2312 69.4267 73.0009 69.52L72.2084 69.4L72.8383 62Z" fill="white"/>
</svg>
