<?xml version="1.0" encoding="utf-8"?>
<!-- Generator: Adobe Illustrator 25.0.1, SVG Export Plug-In . SVG Version: 6.00 Build 0)  -->
<svg version="1.1" id="Layer_1" xmlns="http://www.w3.org/2000/svg" xmlns:xlink="http://www.w3.org/1999/xlink" x="0px" y="0px"
	 viewBox="0 0 1140 490" style="enable-background:new 0 0 1140 490;" xml:space="preserve">
<style type="text/css">
	.st0{fill:#FFFFFF;fill-opacity:0.31;}
</style>
<path class="st0" d="M296.1,470.7c-19.7-6.5-40.2,0.3-59.9,7.1c-18,6-36.8,12.3-54.9,8.4c-29.6-6.3-46.2-36.9-51.5-61.3
	c-3.8-16.9-4.3-34.6-4.6-51.9c-0.2-11-0.5-22.2-1.5-33.3c-3.8-37.4-18-74-41.3-105.8C60.5,204.1,32,180.4,0,165.4v2.1
	c65.9,31.5,114.5,99.8,121.6,172.4c1.2,10.9,1.3,22.3,1.6,33.1c0.5,17.3,0.9,35.1,4.6,52.3c4.4,20.1,16.3,44.4,36.8,56.4
	c5,2.9,10.3,5.2,16.1,6.6c18.5,4,37.5-2.3,55.9-8.5c20.4-6.8,39.7-13.4,58.8-7.1c18.6,6.1,17.9,3.1,26.9,17.3h2
	C315.3,475.9,315.4,477,296.1,470.7z"/>
<path class="st0" d="M687.9,0.7L620.3,58c-19.4,16.4-42,33.6-66.5,29.7c-16.5-2.6-30-14.2-43-25.4c-14.5-12.4-29.2-25.3-48.1-25.6
	c-17.5-0.4-32.4,10.2-46.7,20.5c-13.1,9.3-26.7,19-42.3,20.4c-25.5,2.2-46.5-18.5-56.7-36.8c-7.1-12.5-11.8-26.4-16.3-40h-1.7
	c4.6,13.8,9.3,27.9,16.5,40.8c8.5,15.2,24.1,31.8,43.7,36.5c4.7,1.1,9.6,1.6,14.7,1.4c16-1.3,29.8-11.1,43.1-20.7
	c14.8-10.5,28.8-20.7,45.8-20.2c18.2,0.4,32.3,12.4,47,25.2c13.3,11.3,26.8,23,43.7,25.8c25.2,3.9,48.2-13.5,67.8-30.1l69.2-58.7
	H687.9z"/>
<path class="st0" d="M922.1,461.1c-23.7-20.1-56-22.2-87.2-23.9c-28.4-1.7-58-3.6-81.1-19.2c-37.6-25.5-43.5-77.4-37-114.1
	c4.2-25.6,13.6-50.6,22.8-74.7c5.9-15.4,11.8-31.2,16.6-47.1C772,128,772.7,69.2,758.3,11.9c-1-4-2.1-7.9-3.2-11.9h-3.3
	c17.3,59,18.7,122.8,1.4,181.2c-4.5,15.8-10.7,31.7-16.3,46.9c-9.1,24.4-18.5,49.3-23.1,75.3c-5.2,30.4-2.3,70.9,19.4,99.1
	c5.2,6.8,11.4,13,18.7,18.2c23.5,16,53.5,18,82.5,19.6c32.2,2,62.7,3.6,85.7,23.3c9.1,7.7,15.6,16.9,20.6,27.2h3.4
	C938.8,479.5,931.9,469.4,922.1,461.1z"/>
<path class="st0" d="M665.8,0l-42.5,36c-19.4,16.4-42,33.6-66.5,29.7c-16.5-2.6-30-14.2-43-25.4c-14.5-12.4-29.2-25.3-48.1-25.6
	c-17.5-0.4-32.4,10.2-46.7,20.5c-13.1,9.3-26.7,19-42.3,20.4c-25.5,2.2-46.5-18.5-56.7-36.8c-3.4-6-6.3-12.3-8.8-18.8h-1.7
	c2.6,6.7,5.5,13.3,9,19.5c8.5,15.2,24.1,31.8,43.7,36.5c4.7,1.1,9.6,1.6,14.7,1.4c16-1.3,29.8-11.1,43.1-20.7
	c14.8-10.5,28.8-20.7,45.8-20.2c18.2,0.4,32.3,12.4,47,25.2c13.3,11.3,26.8,23,43.7,25.8c25.2,3.9,48.2-13.5,67.8-30.1L668.2,0
	H665.8z"/>
<path class="st0" d="M1141.1,219.9c-4.8-5.3-10.4-9.7-17.3-12.5c-16.2-6.7-33.9-2.1-50.9,2.4c-15.5,4-31.7,8.1-46.8,3.8
	c-24.6-7.1-36.8-33.9-39.7-54.8c-2.2-14.5-1.5-29.5-0.8-44c0.5-9.3,0.9-18.8,0.7-28.1c-0.9-29.7-9.5-59.2-25.1-86h-2
	c15.4,26.2,24.6,55.9,25.3,86c0.3,9.2-0.2,18.9-0.6,28c-0.6,14.6-1.3,29.6,0.7,44.4c2.5,17.2,11.1,38.4,27.6,49.8
	c4,2.8,8.4,5,13.2,6.5c15.4,4.5,31.8,0.3,47.6-3.9c17.6-4.5,34.2-9,50-2.4c7.3,3,13,7.7,18,13.5V219.9z"/>
</svg>
