<svg width="65" height="83" viewBox="0 0 65 83" fill="none" xmlns="http://www.w3.org/2000/svg">
<path d="M3.98871 83C3.44625 82.7727 2.88783 82.6103 2.39323 82.3181C0.893471 81.4088 0.111684 80.045 0.0159548 78.259C0.0159548 78.1291 0.0159548 77.983 0.0159548 77.8531C0 53.6123 0 29.3877 0 5.16315C0 2.50039 1.56357 0.535798 4.00466 0.0811815C4.38758 0.0162363 4.80241 0.0162363 5.20128 0.0162363C20.837 0.0162363 36.4728 0.0162363 52.1085 0C52.9062 0 53.5285 0.243545 54.0869 0.828052C57.4534 4.28639 60.8358 7.71225 64.2182 11.1381C64.7447 11.6739 65 12.2422 65 13.0053C64.9841 19.7271 65 26.4489 64.9841 33.187C64.9841 33.528 64.9522 33.9014 64.8245 34.2099C64.5692 34.8918 63.8194 35.2977 63.1493 35.1516C62.3994 34.9892 61.9207 34.5346 61.8091 33.739C61.7771 33.4468 61.7931 33.1383 61.7931 32.8461C61.7931 27.0172 61.7931 21.1721 61.7931 15.3433C61.7931 15.0186 61.7931 14.7101 61.7931 14.2879C61.474 14.2717 61.1868 14.2555 60.9156 14.2555C59.2722 14.2555 57.6289 14.2717 55.9855 14.2555C53.0818 14.223 51.0395 12.1448 51.0076 9.18975C50.9917 7.25763 51.0076 5.30927 51.0076 3.27973C50.6407 3.27973 50.3535 3.27973 50.0822 3.27973C35.1964 3.27973 20.2946 3.27973 5.40869 3.27973C3.73343 3.27973 3.23883 3.78306 3.23883 5.50411C3.23883 29.4851 3.23883 53.4824 3.23883 77.4634C3.23883 79.2332 3.73343 79.7365 5.45656 79.7365C23.5015 79.7365 41.5624 79.7365 59.6073 79.7365C61.3304 79.7365 61.825 79.2332 61.825 77.4634C61.825 67.7379 61.825 58.0123 61.825 48.2868C61.825 48.0108 61.8091 47.751 61.825 47.475C61.8888 46.5495 62.543 45.8838 63.4045 45.8838C64.2661 45.8838 64.9362 46.5495 65.016 47.4587C65.0319 47.7347 65.0319 47.9945 65.0319 48.2705C65.0319 57.8662 65.0319 67.4456 65.0319 77.0413C65.0319 80.5483 64.2182 81.766 61.0432 83C41.9931 83 22.9909 83 3.98871 83ZM59.1446 10.9595C57.5012 9.28717 55.8579 7.61483 54.2305 5.97496C54.2305 7.07903 54.1826 8.31299 54.2465 9.54695C54.2943 10.375 54.8368 10.9108 55.6345 10.9595C56.8471 11.0082 58.0597 10.9595 59.1446 10.9595Z" fill="#EF0D5E"/>
<path d="M18.334 56.9886C16.8821 56.9886 15.4143 57.0048 13.9624 56.9886C12.6062 56.9724 12.0159 56.3716 12.0159 55.0078C11.9999 52.3125 11.9999 49.6011 12.0159 46.9058C12.0159 45.5907 12.6381 44.9575 13.9145 44.9575C16.8821 44.9413 19.8497 44.9413 22.8332 44.9575C24.0777 44.9575 24.684 45.6069 24.7 46.8571C24.7159 49.5848 24.7159 52.3125 24.7 55.0402C24.7 56.3554 24.1096 56.9724 22.8013 56.9886C21.3016 57.0048 19.8178 56.9886 18.334 56.9886ZM21.4452 53.6601C21.4452 51.8254 21.4452 50.0719 21.4452 48.2859C19.371 48.2859 17.3288 48.2859 15.2866 48.2859C15.2866 50.1206 15.2866 51.8742 15.2866 53.6601C17.3607 53.6601 19.371 53.6601 21.4452 53.6601Z" fill="#EF0D5E"/>
<path d="M18.334 42.0511C16.8502 42.0511 15.3664 42.0673 13.8826 42.0511C12.6062 42.0349 12.0159 41.4504 12.0159 40.1677C11.9999 37.4075 11.9999 34.6636 12.0159 31.9034C12.0318 30.6532 12.6541 30.0362 13.9145 30.02C16.8821 30.0038 19.8497 30.0038 22.8332 30.02C24.0777 30.02 24.7 30.6694 24.7 31.9196C24.7159 34.6798 24.7159 37.4238 24.7 40.1839C24.7 41.4179 24.1096 42.0186 22.8971 42.0511C21.3654 42.0673 19.8497 42.0511 18.334 42.0511ZM21.4292 38.7389C21.4292 36.9204 21.4292 35.1669 21.4292 33.3647C19.3551 33.3647 17.3288 33.3647 15.2707 33.3647C15.2707 35.1831 15.2707 36.9367 15.2707 38.7389C17.3448 38.7389 19.371 38.7389 21.4292 38.7389Z" fill="#EF0D5E"/>
<path d="M18.3463 73.4366C16.8306 73.4366 15.3149 73.4528 13.8151 73.4366C12.6504 73.4204 12.0122 72.8196 12.0122 71.6506C11.9803 68.8417 11.9803 66.0328 12.0122 63.224C12.0282 62.0387 12.6504 61.438 13.7992 61.438C16.8306 61.4217 19.846 61.4217 22.8775 61.438C24.0741 61.438 24.6804 62.0712 24.6804 63.3051C24.6963 66.0653 24.6963 68.8092 24.6804 71.5694C24.6804 72.8359 24.0581 73.4528 22.8136 73.4528C21.3139 73.4366 19.8301 73.4366 18.3463 73.4366ZM21.4256 70.1244C21.4256 68.2897 21.4256 66.5037 21.4256 64.7177C19.3355 64.7177 17.3092 64.7177 15.283 64.7177C15.283 66.5362 15.283 68.3059 15.283 70.1244C17.3411 70.1244 19.3674 70.1244 21.4256 70.1244Z" fill="#EF0D5E"/>
<path d="M29.7414 23.7686C28.9756 23.1841 28.13 22.6645 27.4599 21.9826C26.8376 21.3656 26.9493 20.5376 27.5078 20.0505C28.0502 19.5634 28.6884 19.6446 29.2947 20.359C29.9169 21.0896 30.6987 21.252 31.5284 21.0409C31.8953 20.9435 32.3102 20.4888 32.4538 20.1154C32.6612 19.5796 32.1666 19.3036 31.7198 19.1575C30.97 18.9139 30.1882 18.7191 29.4383 18.4431C27.9385 17.9073 27.2206 16.9006 27.2046 15.3582C27.1887 13.7995 27.9864 12.5818 29.3904 12.0297C29.5659 11.9648 29.7255 11.8998 29.9488 11.8187C29.9488 11.2991 29.9169 10.7958 29.9488 10.2762C29.9967 9.59429 30.3637 9.17214 31.0497 9.1072C31.672 9.04225 32.1506 9.54558 32.2304 10.26C32.2463 10.3736 32.2623 10.471 32.2463 10.5847C32.1187 11.4615 32.3421 12.0297 33.2834 12.2895C33.7461 12.4194 34.1769 12.874 34.48 13.2962C34.847 13.7995 34.7353 14.384 34.2726 14.8386C33.8418 15.2608 33.3951 15.1471 32.8845 14.9198C32.2783 14.6438 31.6241 14.4165 30.97 14.3028C30.4594 14.2216 30.0446 14.5301 29.9488 15.0984C29.8372 15.6991 30.2041 16.0239 30.6828 16.1862C31.3688 16.3973 32.0708 16.5434 32.7569 16.722C34.0971 17.063 35.0544 17.8099 35.2139 19.3198C35.3894 21.0246 34.8789 22.421 33.3153 23.1516C32.4857 23.5413 32.1666 23.9472 32.2304 24.8564C32.2783 25.7007 31.7517 26.1716 31.0338 26.1391C30.3637 26.1066 29.9648 25.6358 29.9329 24.8239C29.9169 24.4505 29.9329 24.0771 29.9329 23.7036C29.885 23.7036 29.8052 23.7361 29.7414 23.7686Z" fill="#EF0D5E"/>
<path d="M39.7607 49.5369C36.9527 49.5369 34.1287 49.5369 31.3206 49.5369C30.9696 49.5369 30.6345 49.5369 30.2995 49.472C29.5656 49.3259 29.0391 48.6602 29.0391 47.9133C29.0391 47.1989 29.5177 46.5495 30.2038 46.3709C30.5388 46.2897 30.8898 46.2734 31.2249 46.2734C36.9367 46.2734 42.6326 46.2734 48.3444 46.2734C48.4561 46.2734 48.5518 46.2734 48.6635 46.2734C49.8123 46.3059 50.5302 46.9716 50.4983 47.9458C50.4824 48.9037 49.7963 49.5369 48.6795 49.5532C45.6959 49.5532 42.7283 49.5369 39.7607 49.5369Z" fill="#EF0D5E"/>
<path d="M39.8245 62.7852C42.6645 62.7852 45.5045 62.7852 48.3444 62.7852C48.6795 62.7852 49.0464 62.8014 49.3655 62.8826C50.0675 63.0612 50.5143 63.7269 50.4983 64.4575C50.4824 65.1881 50.0037 65.8213 49.3017 65.9837C48.9986 66.0486 48.6635 66.0649 48.3604 66.0649C42.6485 66.0649 36.9527 66.0649 31.2408 66.0649C29.8049 66.0649 29.0391 65.4966 29.0391 64.4413C29.0391 63.3859 29.8208 62.8014 31.2408 62.8014C34.0967 62.7852 36.9527 62.7852 39.8245 62.7852Z" fill="#EF0D5E"/>
<path d="M39.8089 41.0435C36.8413 41.0435 33.8737 41.0598 30.8902 41.0435C29.7574 41.0435 29.0235 40.248 29.1511 39.2251C29.2628 38.3645 29.9648 37.7963 30.9859 37.7963C33.427 37.78 35.8681 37.7963 38.3092 37.7963C41.7873 37.7963 45.2655 37.7963 48.7436 37.7963C50.1158 37.7963 50.9295 38.8354 50.4987 39.9882C50.2115 40.7675 49.6052 41.0598 48.8075 41.0598C45.808 41.0435 42.8084 41.0435 39.8089 41.0435Z" fill="#EF0D5E"/>
<path d="M39.7613 52.4611C42.681 52.4611 45.6008 52.4449 48.5205 52.4773C48.9513 52.4773 49.5257 52.5098 49.7809 52.7858C50.1479 53.1755 50.483 53.8249 50.4191 54.2958C50.3553 54.7666 49.8448 55.2537 49.414 55.5947C49.1587 55.7895 48.696 55.7408 48.3291 55.7408C42.6172 55.7408 36.9214 55.7408 31.2095 55.7408C31.05 55.7408 30.8904 55.7408 30.7309 55.7408C29.7098 55.6759 29.0077 55.0102 29.0237 54.0847C29.0237 53.1593 29.7257 52.4773 30.7628 52.4773C33.7623 52.4449 36.7618 52.4611 39.7613 52.4611Z" fill="#EF0D5E"/>
<path d="M39.8398 68.9883C42.6478 68.9883 45.4718 68.9883 48.2799 68.9883C48.599 68.9883 48.9181 68.9883 49.2372 69.037C49.9711 69.1831 50.3859 69.6702 50.4976 70.4171C50.6093 71.1315 50.1785 71.8459 49.5244 72.1057C49.301 72.1868 49.0617 72.2518 48.8223 72.2518C42.7914 72.2518 36.7764 72.268 30.7455 72.2518C29.3893 72.2518 28.6235 70.9691 29.2298 69.8488C29.5968 69.1669 30.203 68.9883 30.9051 68.9883C33.3142 68.9883 35.7394 68.9883 38.1486 68.9883C38.7229 68.9883 39.2813 68.9883 39.8398 68.9883Z" fill="#EF0D5E"/>
<path d="M39.8225 34.8762C36.9028 34.8762 33.983 34.8762 31.0633 34.8762C29.8348 34.8762 29.1327 34.243 29.1487 33.2201C29.1647 32.2297 29.8826 31.6289 31.0473 31.6289C36.9347 31.6289 42.822 31.6289 48.7253 31.6289C49.8581 31.6289 50.608 32.2784 50.608 33.2525C50.608 34.2267 49.874 34.8762 48.7253 34.8762C45.7577 34.8762 42.7901 34.8762 39.8225 34.8762Z" fill="#EF0D5E"/>
<path d="M19.4343 16.4157C18.3494 16.4157 17.2644 16.4319 16.1795 16.4157C15.1424 16.3995 14.4883 15.75 14.4883 14.7921C14.4883 13.8504 15.1743 13.1684 16.1954 13.1684C18.3972 13.1522 20.599 13.1522 22.8007 13.1684C23.8059 13.1847 24.5239 13.8991 24.5079 14.8083C24.5079 15.7338 23.8059 16.3995 22.7848 16.4157C21.668 16.4157 20.5511 16.4157 19.4343 16.4157Z" fill="#EF0D5E"/>
<path d="M42.4251 19.0619C43.4782 19.0619 44.5471 19.0457 45.6002 19.0619C46.701 19.0781 47.3711 19.7276 47.3711 20.7018C47.3552 21.676 46.6851 22.3092 45.5682 22.3254C43.4303 22.3416 41.2764 22.3416 39.1384 22.3254C38.0535 22.3092 37.3515 21.6435 37.3675 20.6693C37.3675 19.7114 38.0695 19.0781 39.1704 19.0619C40.2393 19.0457 41.3402 19.0619 42.4251 19.0619Z" fill="#EF0D5E"/>
<path d="M19.4343 22.3421C18.3972 22.3421 17.3602 22.3583 16.339 22.3421C15.1903 22.3258 14.4883 21.6764 14.4883 20.686C14.4883 19.6956 15.1903 19.0786 16.355 19.0786C18.4451 19.0623 20.5352 19.0623 22.6412 19.0786C23.7899 19.0786 24.5239 19.7443 24.5079 20.7184C24.492 21.6926 23.758 22.3258 22.6093 22.3421C21.5563 22.3421 20.4873 22.3421 19.4343 22.3421Z" fill="#EF0D5E"/>
<path d="M42.2947 16.4161C41.2098 16.4161 40.1249 16.4324 39.04 16.4161C38.0508 16.3999 37.3807 15.7667 37.3487 14.8575C37.3168 13.9158 37.9869 13.1851 38.9921 13.1689C41.2098 13.1364 43.4435 13.1364 45.6612 13.1689C46.6823 13.1851 47.3524 13.867 47.3365 14.825C47.3205 15.7667 46.6664 16.3999 45.6133 16.4161C44.5284 16.4161 43.4116 16.4161 42.2947 16.4161Z" fill="#EF0D5E"/>
<path d="M61.793 39.9756C61.793 39.0502 62.5109 38.3358 63.4204 38.3683C64.2979 38.3845 64.968 39.0826 64.9839 39.9756C64.9999 40.8686 64.266 41.648 63.3884 41.648C62.5109 41.648 61.793 40.8849 61.793 39.9756Z" fill="#EF0D5E"/>
</svg>
