<svg width="45" height="45" viewBox="0 0 45 45" fill="none" xmlns="http://www.w3.org/2000/svg">
<g clip-path="url(#clip0_917_9117)">
<path d="M45 37.3357C44.9883 37.8991 44.9531 38.4742 44.9531 39.0376C44.9413 40.9977 44.9531 42.9577 44.9531 44.9413C44.4601 44.9413 44.0258 44.9413 43.5329 44.9413C43.5329 44.73 43.5329 44.5423 43.5329 44.3662C43.5563 34.9531 43.5798 25.5399 43.5915 16.1268C43.5915 15.8216 43.4977 15.493 43.3568 15.223C42.2066 13.0869 41.0329 10.9624 39.8826 8.81455C39.7183 8.50939 39.5423 8.41549 39.2019 8.42723C38.1103 8.4507 37.007 8.43897 35.892 8.43897C35.892 9.15493 35.892 9.83568 35.892 10.5986C36.0211 10.446 36.0915 10.3052 36.2089 10.223C36.6784 9.88263 37.1244 9.49531 37.6291 9.24883C38.1573 8.99061 38.5094 9.21362 38.6854 9.80047C39.2723 11.831 39.8592 13.8732 40.4343 15.9155C40.6221 16.561 40.8216 17.2066 40.9742 17.8521C41.2207 18.9202 41.6432 19.8944 42.3357 20.7629C42.4883 20.9507 42.6056 21.1737 42.77 21.4085C42.3826 21.6667 42.0188 21.9131 41.608 22.1831C41.0798 21.2676 40.3052 20.5282 40 19.4953C39.2019 16.7371 38.4272 13.9906 37.6291 11.2324C37.6056 11.1385 37.5704 11.0446 37.4883 10.8099C37.23 11.2089 36.9836 11.5023 36.8193 11.8427C36.2676 12.9577 36.1033 14.1784 35.9272 15.3991C35.7981 16.3146 35.939 17.1596 36.2089 18.0282C36.7723 19.8122 37.2887 21.608 37.8404 23.392C37.9812 23.8498 37.9225 24.1784 37.6174 24.554C35.2347 27.4061 35.27 31.6901 37.6526 34.554C37.8052 34.7418 37.9343 35.0235 37.9343 35.2582C37.9577 38.439 37.946 41.608 37.946 44.7887C37.946 44.8357 37.9343 44.8709 37.9225 44.9531C37.4765 44.9531 37.0305 44.9531 36.5376 44.9531C36.5376 44.8005 36.5376 44.6362 36.5376 44.4836C36.5376 41.7019 36.5023 38.9202 36.561 36.1385C36.5728 35.4225 36.2207 34.9883 35.8685 34.5423C35.6103 35.0352 35.4108 35.5634 35.0939 35.9859C34.4249 36.8662 33.4859 37.2535 32.3709 37.2535C26.9836 37.2535 21.5962 37.2535 16.1972 37.2418C15.8568 37.2418 15.6221 37.3357 15.3991 37.5822C14.8005 38.2042 14.1784 38.8028 13.5798 39.4249C13.4742 39.5305 13.3568 39.6714 13.3333 39.8122C13.0282 41.6432 11.831 42.7582 10.2817 43.5798C10.1643 43.6385 10.0469 43.7089 9.92958 43.7441C9.33099 43.9085 8.90845 44.1901 9.1784 44.9413C8.67371 44.9413 8.2277 44.9413 7.73474 44.9413C7.73474 44.4484 7.71127 43.9554 7.74648 43.4742C7.76995 43.1221 8.05164 42.993 8.34507 42.8521C9.11972 42.4883 9.91784 42.1479 10.6338 41.6667C11.4319 41.1268 11.9249 40.3404 11.9718 39.3075C11.9836 39.0962 12.1714 38.8498 12.3357 38.6854C14.4484 36.5493 16.5728 34.4366 18.6972 32.3122C18.8146 32.1948 18.9437 32.1009 19.1315 31.9249C18.3333 31.7019 17.6291 31.7606 16.9484 31.9249C15.0117 32.3709 13.4155 33.439 11.9484 34.73C11.3146 35.2817 11.0329 35.27 10.5047 34.6244C9.6831 33.5915 8.8615 32.5704 8.03991 31.5376C7.65258 31.0446 7.62911 30.8803 7.95775 30.3521C9.88263 27.2418 11.8075 24.1315 13.7324 21.0211C14.3075 20.0822 14.507 19.1197 13.9789 17.946C13.8615 18.1221 13.8028 18.2394 13.7207 18.3333C9.69484 23.0047 5.65728 27.6643 1.64319 32.3357C1.51408 32.4883 1.43192 32.7465 1.43192 32.9577C1.40845 36.7958 1.40845 40.5986 1.40845 44.4014C1.40845 44.5775 1.40845 44.7535 1.40845 44.9531C0.938967 44.9531 0.492958 44.9531 0 44.9531C0 44.8005 0 44.6596 0 44.5188C0 40.5516 0 36.5845 0 32.6174C0 32.2418 0.105634 31.9484 0.352113 31.6667C3.16901 28.4155 5.98592 25.1526 8.80282 21.9014C9.0493 21.6197 9.15493 21.338 9.15493 20.9624C9.14319 15.2113 9.14319 9.44836 9.14319 3.69718C9.14319 1.71362 9.98826 0.586854 11.8897 0.0469484C11.9131 0.0352113 11.9366 0.0117371 11.9601 0C18.9906 0 26.0211 0 33.0516 0C33.0869 0.0234742 33.1221 0.0586855 33.1573 0.0704225C34.9296 0.539906 35.8568 1.73709 35.8568 3.56808C35.8568 4.57747 35.8568 5.58685 35.8568 6.59624C35.8568 6.73709 35.8568 6.87793 35.8568 7.03052C37.1948 7.03052 38.4742 7.05399 39.7418 7.01878C40.2817 7.00704 40.5986 7.20657 40.8568 7.67606C42.1362 10.0587 43.439 12.4296 44.7418 14.8005C44.8122 14.9413 44.9178 15.0587 45 15.1878C45 22.5822 45 29.9648 45 37.3357ZM15.4695 30.8803C15.6925 30.8216 15.8451 30.7746 15.9977 30.7277C17.5235 30.27 19.0258 30.2347 20.493 30.9038C21.1972 31.2207 21.2911 31.7136 20.7394 32.2653C19.6714 33.3333 18.6033 34.4014 17.5352 35.4695C17.4413 35.5634 17.3474 35.669 17.1948 35.8451C17.4061 35.8451 17.5352 35.8451 17.6526 35.8451C22.5469 35.8451 27.4413 35.8451 32.3239 35.8451C33.6502 35.8451 34.4366 35.047 34.4366 33.7089C34.4366 23.662 34.4366 13.615 34.4366 3.57981C34.4366 2.1831 33.662 1.42019 32.2535 1.42019C25.7394 1.42019 19.2136 1.42019 12.6995 1.42019C11.3028 1.42019 10.5282 2.19484 10.5282 3.59155C10.5282 8.83803 10.5282 14.0728 10.5282 19.3193C10.5282 19.4601 10.5282 19.6009 10.5282 19.8357C10.7042 19.6479 10.8099 19.5423 10.9155 19.4249C11.7371 18.4742 12.5587 17.5235 13.3803 16.561C13.838 16.0329 14.2723 16.0329 14.7183 16.5845C14.8592 16.7488 14.9883 16.9366 15.0939 17.1244C16.0094 18.8028 15.7864 20.4108 14.777 21.9718C14.0258 23.1338 13.3099 24.3193 12.5469 25.5516C13.2864 25.7042 13.9671 25.8333 14.6596 25.9859C15.3169 26.1268 15.446 26.3028 15.446 26.9836C15.4695 28.2512 15.4695 29.5423 15.4695 30.8803ZM12.6526 32.3709C13.1221 32.0892 13.5329 31.8662 13.9202 31.608C14.0023 31.5493 14.061 31.3967 14.061 31.2793C14.0728 30.0352 14.0728 28.7911 14.061 27.5469C14.061 27.4413 13.9437 27.2653 13.8615 27.2418C13.2512 27.1009 12.6291 26.9718 12.0188 26.8779C11.9131 26.8662 11.7371 26.9484 11.6784 27.0423C10.8685 28.3099 10.0939 29.5892 9.29577 30.8685C9.92958 31.6549 10.5516 32.4296 11.2559 33.3099C11.2559 31.9718 11.2559 30.7629 11.2559 29.5423C11.7371 29.5423 12.1831 29.5423 12.6526 29.5423C12.6526 30.4812 12.6526 31.385 12.6526 32.3709ZM35.939 21.9249C35.9155 21.9249 35.9038 21.9249 35.8803 21.9249C35.8803 22.7582 35.8803 23.6033 35.8803 24.4366C35.9272 24.4484 35.9624 24.4718 36.0094 24.4836C36.1385 24.1549 36.4085 23.8263 36.385 23.5211C36.3263 22.9812 36.1033 22.4531 35.939 21.9249Z" fill="white"/>
<path d="M8.1929 9.58966C8.11074 9.6953 7.96989 9.94178 7.75862 10.0709C7.24219 10.3995 6.67881 10.6577 6.15064 10.9746C5.96285 11.092 5.78679 11.2563 5.66942 11.4441C5.36426 11.9606 5.11778 12.5122 4.78914 13.0052C4.63656 13.2282 4.33139 13.4746 4.08491 13.4746C3.87364 13.4864 3.53327 13.2282 3.43937 13.0052C2.87599 11.6319 1.93702 10.646 0.540309 10.1178C0.235145 10.0005 0.0238773 9.77746 0.0121402 9.42535C0.00040308 9.0615 0.235145 8.82675 0.552047 8.70938C1.92529 8.19295 2.86425 7.25398 3.39242 5.88074C3.50979 5.56384 3.7328 5.3291 4.10839 5.3291C4.48397 5.3291 4.70698 5.56384 4.82435 5.86901C5.35252 7.26572 6.31496 8.19295 7.69994 8.72112C8.0051 8.83849 8.20463 9.0615 8.1929 9.58966ZM4.09665 7.5122C3.75627 8.45117 3.11073 9.04976 2.20698 9.42535C3.14594 9.77746 3.74454 10.3995 4.10839 11.315C4.44876 10.376 5.08257 9.77746 5.99806 9.41361C5.07083 9.0615 4.47224 8.42769 4.09665 7.5122Z" fill="white"/>
<path d="M4.95312 17.5938C5.41087 17.5938 5.84514 17.5938 6.30289 17.5938C6.30289 18.0398 6.30289 18.4858 6.30289 18.9553C5.85688 18.9553 5.42261 18.9553 4.95312 18.9553C4.95312 18.5092 4.95312 18.075 4.95312 17.5938Z" fill="white"/>
<path d="M24.6475 39.3662C25.1052 39.3662 25.5278 39.3662 25.9855 39.3662C25.9855 39.8122 25.9855 40.2582 25.9855 40.7277C25.5512 40.7277 25.1052 40.7277 24.6475 40.7277C24.6475 40.2817 24.6475 39.824 24.6475 39.3662Z" fill="white"/>
<path d="M40.7629 2.85254C40.7629 3.29855 40.7629 3.73282 40.7629 4.19057C40.3051 4.19057 39.8591 4.19057 39.4014 4.19057C39.4014 3.74456 39.4014 3.31028 39.4014 2.85254C39.8356 2.85254 40.2699 2.85254 40.7629 2.85254Z" fill="white"/>
<path d="M25.4223 20.3987C25.5162 19.9174 25.5866 19.4714 25.6805 18.9785C25.4927 18.9785 25.3401 18.9785 25.1758 18.9785C22.9692 18.9785 20.7509 18.9785 18.5443 18.9785C17.8988 18.9785 17.7462 18.8728 17.5467 18.2742C16.8894 16.3024 16.2321 14.3423 15.5748 12.3705C15.3284 11.6311 15.6101 11.2437 16.3964 11.2437C19.765 11.2437 23.1335 11.2437 26.5021 11.2437C26.6781 11.2437 26.8425 11.2437 27.042 11.2437C27.1711 10.516 27.3119 9.83528 27.4176 9.14279C27.488 8.72025 27.6993 8.49725 28.1218 8.42683C29.2368 8.21556 30.3518 7.98082 31.5021 7.75781C31.596 8.21556 31.6781 8.64983 31.7838 9.13105C31.0443 9.28363 30.3401 9.43622 29.6241 9.57706C28.7204 9.75312 28.7321 9.75312 28.5678 10.6686C27.9575 14.1428 27.3472 17.6052 26.7251 21.0794C26.6312 21.5958 26.4199 21.8071 25.9504 21.8071C23.2157 21.8071 20.4692 21.8071 17.7345 21.8071C17.6993 21.8071 17.6523 21.7836 17.5936 21.7719C17.5936 21.3376 17.5936 20.9034 17.5936 20.4221C20.1993 20.3987 22.7932 20.3987 25.4223 20.3987ZM17.2063 12.6757C17.2063 12.7226 17.1946 12.7578 17.2063 12.7813C17.711 14.3071 18.204 15.8329 18.7321 17.347C18.7673 17.4644 19.0138 17.5583 19.1664 17.5583C21.3143 17.57 23.4739 17.57 25.6218 17.57C25.7157 17.57 25.8213 17.5583 25.927 17.5465C26.2087 15.9151 26.5021 14.3071 26.7838 12.6757C23.5795 12.6757 20.3871 12.6757 17.2063 12.6757Z" fill="white"/>
<path d="M32.7938 30.9737C32.7117 31.0676 32.5943 31.3493 32.3948 31.4315C30.9394 32.0183 29.9417 33.016 29.3431 34.4714C29.0966 35.0817 28.4041 35.0465 28.0638 34.4714C27.7586 33.9432 27.4886 33.3916 27.1717 32.8634C27.0426 32.6521 26.8431 32.4526 26.6318 32.3235C26.1506 32.0301 25.6107 31.807 25.1412 31.4901C24.9182 31.3376 24.6952 31.0559 24.6365 30.7977C24.5544 30.469 24.8126 30.2225 25.1178 30.1052C26.5145 29.577 27.4769 28.6146 28.0168 27.2178C28.1342 26.9127 28.3807 26.6427 28.7093 26.7249C28.9675 26.7836 29.3079 26.9948 29.4018 27.2178C29.9534 28.6146 30.9276 29.5535 32.3126 30.1052C32.606 30.2343 32.8055 30.469 32.7938 30.9737ZM28.7093 32.7108C29.0614 31.7836 29.6952 31.1615 30.6107 30.8094C29.6717 30.4573 29.0614 29.8235 28.7093 28.908C28.3572 29.847 27.7351 30.4573 26.8079 30.8211C27.7351 31.1615 28.3572 31.7836 28.7093 32.7108Z" fill="white"/>
<path d="M26.0216 6.35012C26.0098 7.89942 24.7305 9.15529 23.1812 9.14355C21.6319 9.13181 20.3878 7.85247 20.3995 6.29144C20.4112 4.76562 21.6788 3.52148 23.2164 3.52148C24.7657 3.52148 26.0216 4.78909 26.0216 6.35012ZM24.6131 6.32665C24.6131 5.56374 23.991 4.92994 23.2164 4.92994C22.4535 4.9182 21.8079 5.552 21.8079 6.31491C21.7962 7.1013 22.4417 7.74684 23.2281 7.7351C23.9793 7.72336 24.6131 7.08956 24.6131 6.32665Z" fill="white"/>
<path d="M18.9907 22.4883C20.1292 22.4883 21.0917 23.4272 21.0917 24.5775C21.0917 25.7512 20.1527 26.7019 18.979 26.7019C17.8287 26.7019 16.878 25.7629 16.878 24.6127C16.8663 23.4507 17.817 22.5 18.9907 22.4883ZM19.0024 23.8967C18.6269 23.885 18.2982 24.1902 18.2865 24.5775C18.2748 24.9531 18.5799 25.2817 18.9555 25.3052C19.3428 25.3287 19.6832 25 19.6949 24.6127C19.6949 24.2254 19.378 23.9085 19.0024 23.8967Z" fill="white"/>
<path d="M27.4178 24.6244C27.4061 25.7629 26.4554 26.7136 25.3052 26.7019C24.1314 26.7019 23.1925 25.7394 23.2042 24.5775C23.2159 23.4272 24.1667 22.5 25.3169 22.5C26.4789 22.5 27.4296 23.4507 27.4178 24.6244ZM26.0094 24.6009C26.0094 24.2254 25.6925 23.9085 25.3169 23.8967C24.9413 23.885 24.6127 24.2019 24.6009 24.5775C24.5892 24.9765 24.9178 25.3052 25.3052 25.3052C25.7042 25.2934 26.0094 24.9765 26.0094 24.6009Z" fill="white"/>
<path d="M14.0607 2.84082C14.0607 3.3103 14.0607 3.73284 14.0607 4.17885C13.6147 4.17885 13.1687 4.17885 12.6992 4.17885C12.6992 3.74458 12.6992 3.3103 12.6992 2.84082C13.1335 2.84082 13.5795 2.84082 14.0607 2.84082Z" fill="white"/>
<path d="M14.7891 4.17887C14.7891 3.72112 14.7891 3.28685 14.7891 2.8291C15.2468 2.8291 15.6928 2.8291 16.1506 2.8291C16.1506 3.27511 16.1506 3.70938 16.1506 4.17887C15.7163 4.17887 15.2703 4.17887 14.7891 4.17887Z" fill="white"/>
<path d="M26.0091 13.5328C25.7743 14.4835 25.5396 15.399 25.3049 16.3379C24.8471 16.2206 24.4246 16.1149 23.9434 15.9975C24.1781 15.0586 24.4011 14.1431 24.6358 13.1924C25.1053 13.3098 25.5396 13.4271 26.0091 13.5328Z" fill="white"/>
<path d="M19.7179 16.3262C19.4832 15.3872 19.2602 14.4835 19.0137 13.5328C19.4714 13.4154 19.9057 13.298 20.3752 13.1807C20.6099 14.1196 20.8447 15.0351 21.0794 15.9858C20.6217 16.0915 20.1874 16.2088 19.7179 16.3262Z" fill="white"/>
<path d="M23.1808 13.3799C23.1808 14.2954 23.1808 15.1991 23.1808 16.1381C22.7348 16.1381 22.3006 16.1381 21.8193 16.1381C21.8193 15.2343 21.8193 14.3189 21.8193 13.3799C22.2653 13.3799 22.6996 13.3799 23.1808 13.3799Z" fill="white"/>
</g>
<defs>
<clipPath id="clip0_917_9117">
<rect width="45" height="44.9531" fill="white"/>
</clipPath>
</defs>
</svg>
